<svg version="1.1" xmlns="http://www.w3.org/2000/svg" xmlns:xlink="http://www.w3.org/1999/xlink" width="600" height="600" style="width: 600px; height: 600px;"><defs><clipPath id="SExJHJuuhTfv"><path fill="none" stroke="none" d=" M 52 5 L 570 5 L 570 555 L 52 555 L 52 5 Z"/></clipPath><clipPath id="mPqooTrIxHMo"><path fill="none" stroke="none" d=" M 52 5 L 570 5 L 570 555 L 52 555 L 52 5 Z"/></clipPath><clipPath id="BVRqSppuyUiW"><path fill="none" stroke="none" d=" M 52 5 L 570 5 L 570 555 L 52 555 L 52 5 Z"/></clipPath><clipPath id="uQVSVEoVehnM"><path fill="none" stroke="none" d=" M 52 5 L 570 5 L 570 555 L 52 555 L 52 5 Z"/></clipPath><clipPath id="ATEJaqVTHTpG"><path fill="none" stroke="none" d=" M 52 5 L 570 5 L 570 555 L 52 555 L 52 5 Z"/></clipPath><clipPath id="ZUgXfIczbNAF"><path fill="none" stroke="none" d=" M 52 5 L 570 5 L 570 555 L 52 555 L 52 5 Z"/></clipPath></defs><g><g transform="scale(1,1) translate(0.5,0.5)"><rect fill="#FFFFFF" stroke="none" x="0" y="0" width="600" height="600"/><rect fill="#ffffff" stroke="none" x="0" y="0" width="600" height="600"/><rect fill="#FFFFFF" stroke="none" x="52" y="5" width="518" height="550"/><rect fill="#ffffff" stroke="none" x="52" y="5" width="518" height="550"/><g><rect fill="none" stroke="#e5e5e5" x="52" y="5" width="518" height="550" stroke-linejoin="bevel" stroke-miterlimit="10"/></g><g clip-path="url(#SExJHJuuhTfv)"><g><g><path fill="none" stroke="#e5e5e5" paint-order="fill stroke markers" d=" M 73 555 L 73 5" stroke-linejoin="bevel" stroke-miterlimit="10"/><path fill="none" stroke="#e5e5e5" paint-order="fill stroke markers" d=" M 155 555 L 155 5" stroke-linejoin="bevel" stroke-miterlimit="10"/><path fill="none" stroke="#e5e5e5" paint-order="fill stroke markers" d=" M 237 555 L 237 5" stroke-linejoin="bevel" stroke-miterlimit="10"/><path fill="none" stroke="#e5e5e5" paint-order="fill stroke markers" d=" M 319 555 L 319 5" stroke-linejoin="bevel" stroke-miterlimit="10"/><path fill="none" stroke="#e5e5e5" paint-order="fill stroke markers" d=" M 401 555 L 401 5" stroke-linejoin="bevel" stroke-miterlimit="10"/><path fill="none" stroke="#e5e5e5" paint-order="fill stroke markers" d=" M 483 555 L 483 5" stroke-linejoin="bevel" stroke-miterlimit="10"/><path fill="none" stroke="#e5e5e5" paint-order="fill stroke markers" d=" M 565 555 L 565 5" stroke-linejoin="bevel" stroke-miterlimit="10"/></g></g></g><g clip-path="url(#mPqooTrIxHMo)"><g><g><path fill="none" stroke="#e5e5e5" paint-order="fill stroke markers" d=" M 52 530 L 570 530" stroke-linejoin="bevel" stroke-miterlimit="10"/><path fill="none" stroke="#e5e5e5" paint-order="fill stroke markers" d=" M 52 451 L 570 451" stroke-linejoin="bevel" stroke-miterlimit="10"/><path fill="none" stroke="#e5e5e5" paint-order="fill stroke markers" d=" M 52 372 L 570 372" stroke-linejoin="bevel" stroke-miterlimit="10"/><path fill="none" stroke="#e5e5e5" paint-order="fill stroke markers" d=" M 52 293 L 570 293" stroke-linejoin="bevel" stroke-miterlimit="10"/><path fill="none" stroke="#e5e5e5" paint-order="fill stroke markers" d=" M 52 214 L 570 214" stroke-linejoin="bevel" stroke-miterlimit="10"/><path fill="none" stroke="#e5e5e5" paint-order="fill stroke markers" d=" M 52 134 L 570 134" stroke-linejoin="bevel" stroke-miterlimit="10"/><path fill="none" stroke="#e5e5e5" paint-order="fill stroke markers" d=" M 52 55 L 570 55" stroke-linejoin="bevel" stroke-miterlimit="10"/></g></g></g><g clip-path="url(#BVRqSppuyUiW)"><g><g><path fill="none" stroke="#e5e5e5" paint-order="fill stroke markers" d=" M 73 555 L 73 5" stroke-linejoin="bevel" stroke-miterlimit="10"/><path fill="none" stroke="#e5e5e5" paint-order="fill stroke markers" d=" M 155 555 L 155 5" stroke-linejoin="bevel" stroke-miterlimit="10"/><path fill="none" stroke="#e5e5e5" paint-order="fill stroke markers" d=" M 237 555 L 237 5" stroke-linejoin="bevel" stroke-miterlimit="10"/><path fill="none" stroke="#e5e5e5" paint-order="fill stroke markers" d=" M 319 555 L 319 5" stroke-linejoin="bevel" stroke-miterlimit="10"/><path fill="none" stroke="#e5e5e5" paint-order="fill stroke markers" d=" M 401 555 L 401 5" stroke-linejoin="bevel" stroke-miterlimit="10"/><path fill="none" stroke="#e5e5e5" paint-order="fill stroke markers" d=" M 483 555 L 483 5" stroke-linejoin="bevel" stroke-miterlimit="10"/><path fill="none" stroke="#e5e5e5" paint-order="fill stroke markers" d=" M 565 555 L 565 5" stroke-linejoin="bevel" stroke-miterlimit="10"/></g></g></g><g clip-path="url(#uQVSVEoVehnM)"><g><g><path fill="none" stroke="#e5e5e5" paint-order="fill stroke markers" d=" M 52 530 L 570 530" stroke-linejoin="bevel" stroke-miterlimit="10"/><path fill="none" stroke="#e5e5e5" paint-order="fill stroke markers" d=" M 52 451 L 570 451" stroke-linejoin="bevel" stroke-miterlimit="10"/><path fill="none" stroke="#e5e5e5" paint-order="fill stroke markers" d=" M 52 372 L 570 372" stroke-linejoin="bevel" stroke-miterlimit="10"/><path fill="none" stroke="#e5e5e5" paint-order="fill stroke markers" d=" M 52 293 L 570 293" stroke-linejoin="bevel" stroke-miterlimit="10"/><path fill="none" stroke="#e5e5e5" paint-order="fill stroke markers" d=" M 52 214 L 570 214" stroke-linejoin="bevel" stroke-miterlimit="10"/><path fill="none" stroke="#e5e5e5" paint-order="fill stroke markers" d=" M 52 134 L 570 134" stroke-linejoin="bevel" stroke-miterlimit="10"/><path fill="none" stroke="#e5e5e5" paint-order="fill stroke markers" d=" M 52 55 L 570 55" stroke-linejoin="bevel" stroke-miterlimit="10"/></g></g></g><g clip-path="url(#ATEJaqVTHTpG)"><g><g><path fill="none" stroke="none"/><path fill="#1f77b4" stroke="none" paint-order="stroke fill markers" d=" M 75.54545454545458 488.8607594936709 L 79.20221193819127 488.8607594936709 L 79.20221193819127 530 L 75.54545454545458 530 L 75.54545454545458 488.8607594936709 Z"/><path fill="none" stroke="#1f77b4" paint-order="fill stroke markers" d=" M 75.54545454545458 488.8607594936709 L 79.20221193819127 488.8607594936709 L 79.20221193819127 530 L 75.54545454545458 530 L 75.54545454545458 488.8607594936709 Z" stroke-linejoin="bevel" stroke-miterlimit="10"/><path fill="#1f77b4" stroke="none" paint-order="stroke fill markers" d=" M 79.608518315162 30 L 83.2652757078987 30 L 83.2652757078987 530 L 79.608518315162 530 L 79.608518315162 30 Z"/><path fill="none" stroke="#1f77b4" paint-order="fill stroke markers" d=" M 79.608518315162 30 L 83.2652757078987 30 L 83.2652757078987 530 L 79.608518315162 530 L 79.608518315162 30 Z" stroke-linejoin="bevel" stroke-miterlimit="10"/><path fill="#1f77b4" stroke="none" paint-order="stroke fill markers" d=" M 83.67158208486944 346.4556962025316 L 87.32833947760611 346.4556962025316 L 87.32833947760611 530 L 83.67158208486944 530 L 83.67158208486944 346.4556962025316 Z"/><path fill="none" stroke="#1f77b4" paint-order="fill stroke markers" d=" M 83.67158208486944 346.4556962025316 L 87.32833947760611 346.4556962025316 L 87.32833947760611 530 L 83.67158208486944 530 L 83.67158208486944 346.4556962025316 Z" stroke-linejoin="bevel" stroke-miterlimit="10"/><path fill="#1f77b4" stroke="none" paint-order="stroke fill markers" d=" M 87.73464585457688 389.17721518987344 L 91.39140324731355 389.17721518987344 L 91.39140324731355 530 L 87.73464585457688 530 L 87.73464585457688 389.17721518987344 Z"/><path fill="none" stroke="#1f77b4" paint-order="fill stroke markers" d=" M 87.73464585457688 389.17721518987344 L 91.39140324731355 389.17721518987344 L 91.39140324731355 530 L 87.73464585457688 530 L 87.73464585457688 389.17721518987344 Z" stroke-linejoin="bevel" stroke-miterlimit="10"/><path fill="#1f77b4" stroke="none" paint-order="stroke fill markers" d=" M 91.7977096242843 420.03164556962025 L 95.45446701702096 420.03164556962025 L 95.45446701702096 530 L 91.7977096242843 530 L 91.7977096242843 420.03164556962025 Z"/><path fill="none" stroke="#1f77b4" paint-order="fill stroke markers" d=" M 91.7977096242843 420.03164556962025 L 95.45446701702096 420.03164556962025 L 95.45446701702096 530 L 91.7977096242843 530 L 91.7977096242843 420.03164556962025 Z" stroke-linejoin="bevel" stroke-miterlimit="10"/><path fill="#1f77b4" stroke="none" paint-order="stroke fill markers" d=" M 95.86077339399174 405 L 99.5175307867284 405 L 99.5175307867284 530 L 95.86077339399174 530 L 95.86077339399174 405 Z"/><path fill="none" stroke="#1f77b4" paint-order="fill stroke markers" d=" M 95.86077339399174 405 L 99.5175307867284 405 L 99.5175307867284 530 L 95.86077339399174 530 L 95.86077339399174 405 Z" stroke-linejoin="bevel" stroke-miterlimit="10"/><path fill="#1f77b4" stroke="none" paint-order="stroke fill markers" d=" M 99.92383716369915 331.4240506329114 L 103.58059455643584 331.4240506329114 L 103.58059455643584 530 L 99.92383716369915 530 L 99.92383716369915 331.4240506329114 Z"/><path fill="none" stroke="#1f77b4" paint-order="fill stroke markers" d=" M 99.92383716369915 331.4240506329114 L 103.58059455643584 331.4240506329114 L 103.58059455643584 530 L 99.92383716369915 530 L 99.92383716369915 331.4240506329114 Z" stroke-linejoin="bevel" stroke-miterlimit="10"/><path fill="#1f77b4" stroke="none" paint-order="stroke fill markers" d=" M 103.98690093340659 227.78481012658227 L 107.64365832614325 227.78481012658227 L 107.64365832614325 530 L 103.98690093340659 530 L 103.98690093340659 227.78481012658227 Z"/><path fill="none" stroke="#1f77b4" paint-order="fill stroke markers" d=" M 103.98690093340659 227.78481012658227 L 107.64365832614325 227.78481012658227 L 107.64365832614325 530 L 103.98690093340659 530 L 103.98690093340659 227.78481012658227 Z" stroke-linejoin="bevel" stroke-miterlimit="10"/><path fill="#1f77b4" stroke="none" paint-order="stroke fill markers" d=" M 108.049964703114 176.3607594936709 L 111.7067220958507 176.3607594936709 L 111.7067220958507 530 L 108.049964703114 530 L 108.049964703114 176.3607594936709 Z"/><path fill="none" stroke="#1f77b4" paint-order="fill stroke markers" d=" M 108.049964703114 176.3607594936709 L 111.7067220958507 176.3607594936709 L 111.7067220958507 530 L 108.049964703114 530 L 108.049964703114 176.3607594936709 Z" stroke-linejoin="bevel" stroke-miterlimit="10"/><path fill="#1f77b4" stroke="none" paint-order="stroke fill markers" d=" M 112.11302847282144 155.7911392405063 L 115.7697858655581 155.7911392405063 L 115.7697858655581 530 L 112.11302847282144 530 L 112.11302847282144 155.7911392405063 Z"/><path fill="none" stroke="#1f77b4" paint-order="fill stroke markers" d=" M 112.11302847282144 155.7911392405063 L 115.7697858655581 155.7911392405063 L 115.7697858655581 530 L 112.11302847282144 530 L 112.11302847282144 155.7911392405063 Z" stroke-linejoin="bevel" stroke-miterlimit="10"/><path fill="#1f77b4" stroke="none" paint-order="stroke fill markers" d=" M 116.17609224252885 151.04430379746833 L 119.83284963526555 151.04430379746833 L 119.83284963526555 530 L 116.17609224252885 530 L 116.17609224252885 151.04430379746833 Z"/><path fill="none" stroke="#1f77b4" paint-order="fill stroke markers" d=" M 116.17609224252885 151.04430379746833 L 119.83284963526555 151.04430379746833 L 119.83284963526555 530 L 116.17609224252885 530 L 116.17609224252885 151.04430379746833 Z" stroke-linejoin="bevel" stroke-miterlimit="10"/><path fill="#1f77b4" stroke="none" paint-order="stroke fill markers" d=" M 120.2391560122363 170.03164556962025 L 123.89591340497296 170.03164556962025 L 123.89591340497296 530 L 120.2391560122363 530 L 120.2391560122363 170.03164556962025 Z"/><path fill="none" stroke="#1f77b4" paint-order="fill stroke markers" d=" M 120.2391560122363 170.03164556962025 L 123.89591340497296 170.03164556962025 L 123.89591340497296 530 L 120.2391560122363 530 L 120.2391560122363 170.03164556962025 Z" stroke-linejoin="bevel" stroke-miterlimit="10"/><path fill="#1f77b4" stroke="none" paint-order="stroke fill markers" d=" M 124.30221978194373 173.98734177215192 L 127.9589771746804 173.98734177215192 L 127.9589771746804 530 L 124.30221978194373 530 L 124.30221978194373 173.98734177215192 Z"/><path fill="none" stroke="#1f77b4" paint-order="fill stroke markers" d=" M 124.30221978194373 173.98734177215192 L 127.9589771746804 173.98734177215192 L 127.9589771746804 530 L 124.30221978194373 530 L 124.30221978194373 173.98734177215192 Z" stroke-linejoin="bevel" stroke-miterlimit="10"/><path fill="#1f77b4" stroke="none" paint-order="stroke fill markers" d=" M 128.36528355165115 340.9177215189874 L 132.0220409443878 340.9177215189874 L 132.0220409443878 530 L 128.36528355165115 530 L 128.36528355165115 340.9177215189874 Z"/><path fill="none" stroke="#1f77b4" paint-order="fill stroke markers" d=" M 128.36528355165115 340.9177215189874 L 132.0220409443878 340.9177215189874 L 132.0220409443878 530 L 128.36528355165115 530 L 128.36528355165115 340.9177215189874 Z" stroke-linejoin="bevel" stroke-miterlimit="10"/><path fill="#1f77b4" stroke="none" paint-order="stroke fill markers" d=" M 132.42834732135856 276.8354430379747 L 136.08510471409528 276.8354430379747 L 136.08510471409528 530 L 132.42834732135856 530 L 132.42834732135856 276.8354430379747 Z"/><path fill="none" stroke="#1f77b4" paint-order="fill stroke markers" d=" M 132.42834732135856 276.8354430379747 L 136.08510471409528 276.8354430379747 L 136.08510471409528 530 L 132.42834732135856 530 L 132.42834732135856 276.8354430379747 Z" stroke-linejoin="bevel" stroke-miterlimit="10"/><path fill="#1f77b4" stroke="none" paint-order="stroke fill markers" d=" M 136.49141109106597 334.5886075949367 L 140.1481684838027 334.5886075949367 L 140.1481684838027 530 L 136.49141109106597 530 L 136.49141109106597 334.5886075949367 Z"/><path fill="none" stroke="#1f77b4" paint-order="fill stroke markers" d=" M 136.49141109106597 334.5886075949367 L 140.1481684838027 334.5886075949367 L 140.1481684838027 530 L 136.49141109106597 530 L 136.49141109106597 334.5886075949367 Z" stroke-linejoin="bevel" stroke-miterlimit="10"/><path fill="#1f77b4" stroke="none" paint-order="stroke fill markers" d=" M 140.55447486077344 310.0632911392405 L 144.2112322535101 310.0632911392405 L 144.2112322535101 530 L 140.55447486077344 530 L 140.55447486077344 310.0632911392405 Z"/><path fill="none" stroke="#1f77b4" paint-order="fill stroke markers" d=" M 140.55447486077344 310.0632911392405 L 144.2112322535101 310.0632911392405 L 144.2112322535101 530 L 140.55447486077344 530 L 140.55447486077344 310.0632911392405 Z" stroke-linejoin="bevel" stroke-miterlimit="10"/><path fill="#1f77b4" stroke="none" paint-order="stroke fill markers" d=" M 144.61753863048088 329.0506329113924 L 148.27429602321754 329.0506329113924 L 148.27429602321754 530 L 144.61753863048088 530 L 144.61753863048088 329.0506329113924 Z"/><path fill="none" stroke="#1f77b4" paint-order="fill stroke markers" d=" M 144.61753863048088 329.0506329113924 L 148.27429602321754 329.0506329113924 L 148.27429602321754 530 L 144.61753863048088 530 L 144.61753863048088 329.0506329113924 Z" stroke-linejoin="bevel" stroke-miterlimit="10"/><path fill="#1f77b4" stroke="none" paint-order="stroke fill markers" d=" M 148.6806024001883 380.4746835443038 L 152.33735979292496 380.4746835443038 L 152.33735979292496 530 L 148.6806024001883 530 L 148.6806024001883 380.4746835443038 Z"/><path fill="none" stroke="#1f77b4" paint-order="fill stroke markers" d=" M 148.6806024001883 380.4746835443038 L 152.33735979292496 380.4746835443038 L 152.33735979292496 530 L 148.6806024001883 530 L 148.6806024001883 380.4746835443038 Z" stroke-linejoin="bevel" stroke-miterlimit="10"/><path fill="#1f77b4" stroke="none" paint-order="stroke fill markers" d=" M 152.7436661698957 368.6075949367089 L 156.40042356263237 368.6075949367089 L 156.40042356263237 530 L 152.7436661698957 530 L 152.7436661698957 368.6075949367089 Z"/><path fill="none" stroke="#1f77b4" paint-order="fill stroke markers" d=" M 152.7436661698957 368.6075949367089 L 156.40042356263237 368.6075949367089 L 156.40042356263237 530 L 152.7436661698957 530 L 152.7436661698957 368.6075949367089 Z" stroke-linejoin="bevel" stroke-miterlimit="10"/><path fill="#1f77b4" stroke="none" paint-order="stroke fill markers" d=" M 156.80672993960314 386.80379746835445 L 160.4634873323398 386.80379746835445 L 160.4634873323398 530 L 156.80672993960314 530 L 156.80672993960314 386.80379746835445 Z"/><path fill="none" stroke="#1f77b4" paint-order="fill stroke markers" d=" M 156.80672993960314 386.80379746835445 L 160.4634873323398 386.80379746835445 L 160.4634873323398 530 L 156.80672993960314 530 L 156.80672993960314 386.80379746835445 Z" stroke-linejoin="bevel" stroke-miterlimit="10"/><path fill="#1f77b4" stroke="none" paint-order="stroke fill markers" d=" M 160.86979370931058 321.93037974683546 L 164.52655110204725 321.93037974683546 L 164.52655110204725 530 L 160.86979370931058 530 L 160.86979370931058 321.93037974683546 Z"/><path fill="none" stroke="#1f77b4" paint-order="fill stroke markers" d=" M 160.86979370931058 321.93037974683546 L 164.52655110204725 321.93037974683546 L 164.52655110204725 530 L 160.86979370931058 530 L 160.86979370931058 321.93037974683546 Z" stroke-linejoin="bevel" stroke-miterlimit="10"/><path fill="#1f77b4" stroke="none" paint-order="stroke fill markers" d=" M 164.93285747901797 360.69620253164555 L 168.5896148717547 360.69620253164555 L 168.5896148717547 530 L 164.93285747901797 530 L 164.93285747901797 360.69620253164555 Z"/><path fill="none" stroke="#1f77b4" paint-order="fill stroke markers" d=" M 164.93285747901797 360.69620253164555 L 168.5896148717547 360.69620253164555 L 168.5896148717547 530 L 164.93285747901797 530 L 164.93285747901797 360.69620253164555 Z" stroke-linejoin="bevel" stroke-miterlimit="10"/><path fill="#1f77b4" stroke="none" paint-order="stroke fill markers" d=" M 168.99592124872544 363.06962025316454 L 172.6526786414621 363.06962025316454 L 172.6526786414621 530 L 168.99592124872544 530 L 168.99592124872544 363.06962025316454 Z"/><path fill="none" stroke="#1f77b4" paint-order="fill stroke markers" d=" M 168.99592124872544 363.06962025316454 L 172.6526786414621 363.06962025316454 L 172.6526786414621 530 L 168.99592124872544 530 L 168.99592124872544 363.06962025316454 Z" stroke-linejoin="bevel" stroke-miterlimit="10"/><path fill="#1f77b4" stroke="none" paint-order="stroke fill markers" d=" M 173.05898501843285 340.126582278481 L 176.71574241116951 340.126582278481 L 176.71574241116951 530 L 173.05898501843285 530 L 173.05898501843285 340.126582278481 Z"/><path fill="none" stroke="#1f77b4" paint-order="fill stroke markers" d=" M 173.05898501843285 340.126582278481 L 176.71574241116951 340.126582278481 L 176.71574241116951 530 L 173.05898501843285 530 L 173.05898501843285 340.126582278481 Z" stroke-linejoin="bevel" stroke-miterlimit="10"/><path fill="#1f77b4" stroke="none" paint-order="stroke fill markers" d=" M 177.1220487881403 262.59493670886076 L 180.77880618087696 262.59493670886076 L 180.77880618087696 530 L 177.1220487881403 530 L 177.1220487881403 262.59493670886076 Z"/><path fill="none" stroke="#1f77b4" paint-order="fill stroke markers" d=" M 177.1220487881403 262.59493670886076 L 180.77880618087696 262.59493670886076 L 180.77880618087696 530 L 177.1220487881403 530 L 177.1220487881403 262.59493670886076 Z" stroke-linejoin="bevel" stroke-miterlimit="10"/><path fill="#1f77b4" stroke="none" paint-order="stroke fill markers" d=" M 181.18511255784767 284.746835443038 L 184.8418699505844 284.746835443038 L 184.8418699505844 530 L 181.18511255784767 530 L 181.18511255784767 284.746835443038 Z"/><path fill="none" stroke="#1f77b4" paint-order="fill stroke markers" d=" M 181.18511255784767 284.746835443038 L 184.8418699505844 284.746835443038 L 184.8418699505844 530 L 181.18511255784767 530 L 181.18511255784767 284.746835443038 Z" stroke-linejoin="bevel" stroke-miterlimit="10"/><path fill="#1f77b4" stroke="none" paint-order="stroke fill markers" d=" M 185.24817632755514 309.27215189873414 L 188.9049337202918 309.27215189873414 L 188.9049337202918 530 L 185.24817632755514 530 L 185.24817632755514 309.27215189873414 Z"/><path fill="none" stroke="#1f77b4" paint-order="fill stroke markers" d=" M 185.24817632755514 309.27215189873414 L 188.9049337202918 309.27215189873414 L 188.9049337202918 530 L 185.24817632755514 530 L 185.24817632755514 309.27215189873414 Z" stroke-linejoin="bevel" stroke-miterlimit="10"/><path fill="#1f77b4" stroke="none" paint-order="stroke fill markers" d=" M 189.31124009726258 288.7025316455696 L 192.96799748999925 288.7025316455696 L 192.96799748999925 530 L 189.31124009726258 530 L 189.31124009726258 288.7025316455696 Z"/><path fill="none" stroke="#1f77b4" paint-order="fill stroke markers" d=" M 189.31124009726258 288.7025316455696 L 192.96799748999925 288.7025316455696 L 192.96799748999925 530 L 189.31124009726258 530 L 189.31124009726258 288.7025316455696 Z" stroke-linejoin="bevel" stroke-miterlimit="10"/><path fill="#1f77b4" stroke="none" paint-order="stroke fill markers" d=" M 193.37430386697 350.4113924050633 L 197.03106125970666 350.4113924050633 L 197.03106125970666 530 L 193.37430386697 530 L 193.37430386697 350.4113924050633 Z"/><path fill="none" stroke="#1f77b4" paint-order="fill stroke markers" d=" M 193.37430386697 350.4113924050633 L 197.03106125970666 350.4113924050633 L 197.03106125970666 530 L 193.37430386697 530 L 193.37430386697 350.4113924050633 Z" stroke-linejoin="bevel" stroke-miterlimit="10"/><path fill="#1f77b4" stroke="none" paint-order="stroke fill markers" d=" M 197.43736763667738 340.126582278481 L 201.0941250294141 340.126582278481 L 201.0941250294141 530 L 197.43736763667738 530 L 197.43736763667738 340.126582278481 Z"/><path fill="none" stroke="#1f77b4" paint-order="fill stroke markers" d=" M 197.43736763667738 340.126582278481 L 201.0941250294141 340.126582278481 L 201.0941250294141 530 L 197.43736763667738 530 L 197.43736763667738 340.126582278481 Z" stroke-linejoin="bevel" stroke-miterlimit="10"/><path fill="#1f77b4" stroke="none" paint-order="stroke fill markers" d=" M 201.50043140638488 337.753164556962 L 205.15718879912154 337.753164556962 L 205.15718879912154 530 L 201.50043140638488 530 L 201.50043140638488 337.753164556962 Z"/><path fill="none" stroke="#1f77b4" paint-order="fill stroke markers" d=" M 201.50043140638488 337.753164556962 L 205.15718879912154 337.753164556962 L 205.15718879912154 530 L 201.50043140638488 530 L 201.50043140638488 337.753164556962 Z" stroke-linejoin="bevel" stroke-miterlimit="10"/><path fill="#1f77b4" stroke="none" paint-order="stroke fill markers" d=" M 205.56349517609226 353.5759493670886 L 209.22025256882898 353.5759493670886 L 209.22025256882898 530 L 205.56349517609226 530 L 205.56349517609226 353.5759493670886 Z"/><path fill="none" stroke="#1f77b4" paint-order="fill stroke markers" d=" M 205.56349517609226 353.5759493670886 L 209.22025256882898 353.5759493670886 L 209.22025256882898 530 L 205.56349517609226 530 L 205.56349517609226 353.5759493670886 Z" stroke-linejoin="bevel" stroke-miterlimit="10"/><path fill="#1f77b4" stroke="none" paint-order="stroke fill markers" d=" M 209.6265589457997 441.3924050632911 L 213.28331633853637 441.3924050632911 L 213.28331633853637 530 L 209.6265589457997 530 L 209.6265589457997 441.3924050632911 Z"/><path fill="none" stroke="#1f77b4" paint-order="fill stroke markers" d=" M 209.6265589457997 441.3924050632911 L 213.28331633853637 441.3924050632911 L 213.28331633853637 530 L 209.6265589457997 530 L 209.6265589457997 441.3924050632911 Z" stroke-linejoin="bevel" stroke-miterlimit="10"/><path fill="#1f77b4" stroke="none" paint-order="stroke fill markers" d=" M 213.6896227155071 370.9810126582279 L 217.34638010824378 370.9810126582279 L 217.34638010824378 530 L 213.6896227155071 530 L 213.6896227155071 370.9810126582279 Z"/><path fill="none" stroke="#1f77b4" paint-order="fill stroke markers" d=" M 213.6896227155071 370.9810126582279 L 217.34638010824378 370.9810126582279 L 217.34638010824378 530 L 213.6896227155071 530 L 213.6896227155071 370.9810126582279 Z" stroke-linejoin="bevel" stroke-miterlimit="10"/><path fill="#1f77b4" stroke="none" paint-order="stroke fill markers" d=" M 217.75268648521458 335.37974683544303 L 221.40944387795125 335.37974683544303 L 221.40944387795125 530 L 217.75268648521458 530 L 217.75268648521458 335.37974683544303 Z"/><path fill="none" stroke="#1f77b4" paint-order="fill stroke markers" d=" M 217.75268648521458 335.37974683544303 L 221.40944387795125 335.37974683544303 L 221.40944387795125 530 L 217.75268648521458 530 L 217.75268648521458 335.37974683544303 Z" stroke-linejoin="bevel" stroke-miterlimit="10"/><path fill="#1f77b4" stroke="none" paint-order="stroke fill markers" d=" M 221.81575025492197 253.89240506329116 L 225.4725076476587 253.89240506329116 L 225.4725076476587 530 L 221.81575025492197 530 L 221.81575025492197 253.89240506329116 Z"/><path fill="none" stroke="#1f77b4" paint-order="fill stroke markers" d=" M 221.81575025492197 253.89240506329116 L 225.4725076476587 253.89240506329116 L 225.4725076476587 530 L 221.81575025492197 530 L 221.81575025492197 253.89240506329116 Z" stroke-linejoin="bevel" stroke-miterlimit="10"/><path fill="#1f77b4" stroke="none" paint-order="stroke fill markers" d=" M 225.8788140246294 223.82911392405066 L 229.53557141736607 223.82911392405066 L 229.53557141736607 530 L 225.8788140246294 530 L 225.8788140246294 223.82911392405066 Z"/><path fill="none" stroke="#1f77b4" paint-order="fill stroke markers" d=" M 225.8788140246294 223.82911392405066 L 229.53557141736607 223.82911392405066 L 229.53557141736607 530 L 225.8788140246294 530 L 225.8788140246294 223.82911392405066 Z" stroke-linejoin="bevel" stroke-miterlimit="10"/><path fill="#1f77b4" stroke="none" paint-order="stroke fill markers" d=" M 229.94187779433688 200.09493670886076 L 233.59863518707354 200.09493670886076 L 233.59863518707354 530 L 229.94187779433688 530 L 229.94187779433688 200.09493670886076 Z"/><path fill="none" stroke="#1f77b4" paint-order="fill stroke markers" d=" M 229.94187779433688 200.09493670886076 L 233.59863518707354 200.09493670886076 L 233.59863518707354 530 L 229.94187779433688 530 L 229.94187779433688 200.09493670886076 Z" stroke-linejoin="bevel" stroke-miterlimit="10"/><path fill="#1f77b4" stroke="none" paint-order="stroke fill markers" d=" M 234.0049415640443 333.7974683544304 L 237.66169895678095 333.7974683544304 L 237.66169895678095 530 L 234.0049415640443 530 L 234.0049415640443 333.7974683544304 Z"/><path fill="none" stroke="#1f77b4" paint-order="fill stroke markers" d=" M 234.0049415640443 333.7974683544304 L 237.66169895678095 333.7974683544304 L 237.66169895678095 530 L 234.0049415640443 530 L 234.0049415640443 333.7974683544304 Z" stroke-linejoin="bevel" stroke-miterlimit="10"/><path fill="#1f77b4" stroke="none" paint-order="stroke fill markers" d=" M 238.06800533375167 378.1012658227848 L 241.7247627264884 378.1012658227848 L 241.7247627264884 530 L 238.06800533375167 530 L 238.06800533375167 378.1012658227848 Z"/><path fill="none" stroke="#1f77b4" paint-order="fill stroke markers" d=" M 238.06800533375167 378.1012658227848 L 241.7247627264884 378.1012658227848 L 241.7247627264884 530 L 238.06800533375167 530 L 238.06800533375167 378.1012658227848 Z" stroke-linejoin="bevel" stroke-miterlimit="10"/><path fill="#1f77b4" stroke="none" paint-order="stroke fill markers" d=" M 242.1310691034591 403.4177215189874 L 245.78782649619578 403.4177215189874 L 245.78782649619578 530 L 242.1310691034591 530 L 242.1310691034591 403.4177215189874 Z"/><path fill="none" stroke="#1f77b4" paint-order="fill stroke markers" d=" M 242.1310691034591 403.4177215189874 L 245.78782649619578 403.4177215189874 L 245.78782649619578 530 L 242.1310691034591 530 L 242.1310691034591 403.4177215189874 Z" stroke-linejoin="bevel" stroke-miterlimit="10"/><path fill="#1f77b4" stroke="none" paint-order="stroke fill markers" d=" M 246.19413287316658 411.3291139240506 L 249.85089026590325 411.3291139240506 L 249.85089026590325 530 L 246.19413287316658 530 L 246.19413287316658 411.3291139240506 Z"/><path fill="none" stroke="#1f77b4" paint-order="fill stroke markers" d=" M 246.19413287316658 411.3291139240506 L 249.85089026590325 411.3291139240506 L 249.85089026590325 530 L 246.19413287316658 530 L 246.19413287316658 411.3291139240506 Z" stroke-linejoin="bevel" stroke-miterlimit="10"/><path fill="#1f77b4" stroke="none" paint-order="stroke fill markers" d=" M 250.257196642874 415.2848101265823 L 253.91395403561066 415.2848101265823 L 253.91395403561066 530 L 250.257196642874 530 L 250.257196642874 415.2848101265823 Z"/><path fill="none" stroke="#1f77b4" paint-order="fill stroke markers" d=" M 250.257196642874 415.2848101265823 L 253.91395403561066 415.2848101265823 L 253.91395403561066 530 L 250.257196642874 530 L 250.257196642874 415.2848101265823 Z" stroke-linejoin="bevel" stroke-miterlimit="10"/><path fill="#1f77b4" stroke="none" paint-order="stroke fill markers" d=" M 254.3202604125814 449.30379746835445 L 257.97701780531804 449.30379746835445 L 257.97701780531804 530 L 254.3202604125814 530 L 254.3202604125814 449.30379746835445 Z"/><path fill="none" stroke="#1f77b4" paint-order="fill stroke markers" d=" M 254.3202604125814 449.30379746835445 L 257.97701780531804 449.30379746835445 L 257.97701780531804 530 L 254.3202604125814 530 L 254.3202604125814 449.30379746835445 Z" stroke-linejoin="bevel" stroke-miterlimit="10"/><path fill="#1f77b4" stroke="none" paint-order="stroke fill markers" d=" M 258.3833241822888 422.40506329113924 L 262.0400815750255 422.40506329113924 L 262.0400815750255 530 L 258.3833241822888 530 L 258.3833241822888 422.40506329113924 Z"/><path fill="none" stroke="#1f77b4" paint-order="fill stroke markers" d=" M 258.3833241822888 422.40506329113924 L 262.0400815750255 422.40506329113924 L 262.0400815750255 530 L 258.3833241822888 530 L 258.3833241822888 422.40506329113924 Z" stroke-linejoin="bevel" stroke-miterlimit="10"/><path fill="#1f77b4" stroke="none" paint-order="stroke fill markers" d=" M 262.44638795199626 311.6455696202531 L 266.103145344733 311.6455696202531 L 266.103145344733 530 L 262.44638795199626 530 L 262.44638795199626 311.6455696202531 Z"/><path fill="none" stroke="#1f77b4" paint-order="fill stroke markers" d=" M 262.44638795199626 311.6455696202531 L 266.103145344733 311.6455696202531 L 266.103145344733 530 L 262.44638795199626 530 L 262.44638795199626 311.6455696202531 Z" stroke-linejoin="bevel" stroke-miterlimit="10"/><path fill="#1f77b4" stroke="none" paint-order="stroke fill markers" d=" M 266.50945172170367 235.69620253164555 L 270.1662091144404 235.69620253164555 L 270.1662091144404 530 L 266.50945172170367 530 L 266.50945172170367 235.69620253164555 Z"/><path fill="none" stroke="#1f77b4" paint-order="fill stroke markers" d=" M 266.50945172170367 235.69620253164555 L 270.1662091144404 235.69620253164555 L 270.1662091144404 530 L 266.50945172170367 530 L 266.50945172170367 235.69620253164555 Z" stroke-linejoin="bevel" stroke-miterlimit="10"/><path fill="#1f77b4" stroke="none" paint-order="stroke fill markers" d=" M 270.5725154914111 256.26582278481015 L 274.2292728841478 256.26582278481015 L 274.2292728841478 530 L 270.5725154914111 530 L 270.5725154914111 256.26582278481015 Z"/><path fill="none" stroke="#1f77b4" paint-order="fill stroke markers" d=" M 270.5725154914111 256.26582278481015 L 274.2292728841478 256.26582278481015 L 274.2292728841478 530 L 270.5725154914111 530 L 270.5725154914111 256.26582278481015 Z" stroke-linejoin="bevel" stroke-miterlimit="10"/><path fill="#1f77b4" stroke="none" paint-order="stroke fill markers" d=" M 274.63557926111855 333.7974683544304 L 278.29233665385516 333.7974683544304 L 278.29233665385516 530 L 274.63557926111855 530 L 274.63557926111855 333.7974683544304 Z"/><path fill="none" stroke="#1f77b4" paint-order="fill stroke markers" d=" M 274.63557926111855 333.7974683544304 L 278.29233665385516 333.7974683544304 L 278.29233665385516 530 L 274.63557926111855 530 L 274.63557926111855 333.7974683544304 Z" stroke-linejoin="bevel" stroke-miterlimit="10"/><path fill="#1f77b4" stroke="none" paint-order="stroke fill markers" d=" M 278.698643030826 386.0126582278481 L 282.3554004235626 386.0126582278481 L 282.3554004235626 530 L 278.698643030826 530 L 278.698643030826 386.0126582278481 Z"/><path fill="none" stroke="#1f77b4" paint-order="fill stroke markers" d=" M 278.698643030826 386.0126582278481 L 282.3554004235626 386.0126582278481 L 282.3554004235626 530 L 278.698643030826 530 L 278.698643030826 386.0126582278481 Z" stroke-linejoin="bevel" stroke-miterlimit="10"/><path fill="#1f77b4" stroke="none" paint-order="stroke fill markers" d=" M 282.7617068005334 392.34177215189874 L 286.4184641932701 392.34177215189874 L 286.4184641932701 530 L 282.7617068005334 530 L 282.7617068005334 392.34177215189874 Z"/><path fill="none" stroke="#1f77b4" paint-order="fill stroke markers" d=" M 282.7617068005334 392.34177215189874 L 286.4184641932701 392.34177215189874 L 286.4184641932701 530 L 282.7617068005334 530 L 282.7617068005334 392.34177215189874 Z" stroke-linejoin="bevel" stroke-miterlimit="10"/><path fill="#1f77b4" stroke="none" paint-order="stroke fill markers" d=" M 286.82477057024084 335.37974683544303 L 290.48152796297745 335.37974683544303 L 290.48152796297745 530 L 286.82477057024084 530 L 286.82477057024084 335.37974683544303 Z"/><path fill="none" stroke="#1f77b4" paint-order="fill stroke markers" d=" M 286.82477057024084 335.37974683544303 L 290.48152796297745 335.37974683544303 L 290.48152796297745 530 L 286.82477057024084 530 L 286.82477057024084 335.37974683544303 Z" stroke-linejoin="bevel" stroke-miterlimit="10"/><path fill="#1f77b4" stroke="none" paint-order="stroke fill markers" d=" M 290.8878343399483 291.0759493670886 L 294.5445917326849 291.0759493670886 L 294.5445917326849 530 L 290.8878343399483 530 L 290.8878343399483 291.0759493670886 Z"/><path fill="none" stroke="#1f77b4" paint-order="fill stroke markers" d=" M 290.8878343399483 291.0759493670886 L 294.5445917326849 291.0759493670886 L 294.5445917326849 530 L 290.8878343399483 530 L 290.8878343399483 291.0759493670886 Z" stroke-linejoin="bevel" stroke-miterlimit="10"/><path fill="#1f77b4" stroke="none" paint-order="stroke fill markers" d=" M 294.95089810965567 355.9493670886076 L 298.6076555023924 355.9493670886076 L 298.6076555023924 530 L 294.95089810965567 530 L 294.95089810965567 355.9493670886076 Z"/><path fill="none" stroke="#1f77b4" paint-order="fill stroke markers" d=" M 294.95089810965567 355.9493670886076 L 298.6076555023924 355.9493670886076 L 298.6076555023924 530 L 294.95089810965567 530 L 294.95089810965567 355.9493670886076 Z" stroke-linejoin="bevel" stroke-miterlimit="10"/><path fill="#1f77b4" stroke="none" paint-order="stroke fill markers" d=" M 299.0139618793631 337.753164556962 L 302.6707192720998 337.753164556962 L 302.6707192720998 530 L 299.0139618793631 530 L 299.0139618793631 337.753164556962 Z"/><path fill="none" stroke="#1f77b4" paint-order="fill stroke markers" d=" M 299.0139618793631 337.753164556962 L 302.6707192720998 337.753164556962 L 302.6707192720998 530 L 299.0139618793631 530 L 299.0139618793631 337.753164556962 Z" stroke-linejoin="bevel" stroke-miterlimit="10"/><path fill="#1f77b4" stroke="none" paint-order="stroke fill markers" d=" M 303.0770256490705 272.0886075949367 L 306.7337830418072 272.0886075949367 L 306.7337830418072 530 L 303.0770256490705 530 L 303.0770256490705 272.0886075949367 Z"/><path fill="none" stroke="#1f77b4" paint-order="fill stroke markers" d=" M 303.0770256490705 272.0886075949367 L 306.7337830418072 272.0886075949367 L 306.7337830418072 530 L 303.0770256490705 530 L 303.0770256490705 272.0886075949367 Z" stroke-linejoin="bevel" stroke-miterlimit="10"/><path fill="#1f77b4" stroke="none" paint-order="stroke fill markers" d=" M 307.14008941877796 358.32278481012656 L 310.7968468115147 358.32278481012656 L 310.7968468115147 530 L 307.14008941877796 530 L 307.14008941877796 358.32278481012656 Z"/><path fill="none" stroke="#1f77b4" paint-order="fill stroke markers" d=" M 307.14008941877796 358.32278481012656 L 310.7968468115147 358.32278481012656 L 310.7968468115147 530 L 307.14008941877796 530 L 307.14008941877796 358.32278481012656 Z" stroke-linejoin="bevel" stroke-miterlimit="10"/><path fill="#1f77b4" stroke="none" paint-order="stroke fill markers" d=" M 311.2031531884854 376.5189873417721 L 314.8599105812221 376.5189873417721 L 314.8599105812221 530 L 311.2031531884854 530 L 311.2031531884854 376.5189873417721 Z"/><path fill="none" stroke="#1f77b4" paint-order="fill stroke markers" d=" M 311.2031531884854 376.5189873417721 L 314.8599105812221 376.5189873417721 L 314.8599105812221 530 L 311.2031531884854 530 L 311.2031531884854 376.5189873417721 Z" stroke-linejoin="bevel" stroke-miterlimit="10"/><path fill="#1f77b4" stroke="none" paint-order="stroke fill markers" d=" M 315.2662169581928 378.1012658227848 L 318.9229743509295 378.1012658227848 L 318.9229743509295 530 L 315.2662169581928 530 L 315.2662169581928 378.1012658227848 Z"/><path fill="none" stroke="#1f77b4" paint-order="fill stroke markers" d=" M 315.2662169581928 378.1012658227848 L 318.9229743509295 378.1012658227848 L 318.9229743509295 530 L 315.2662169581928 530 L 315.2662169581928 378.1012658227848 Z" stroke-linejoin="bevel" stroke-miterlimit="10"/><path fill="#1f77b4" stroke="none" paint-order="stroke fill markers" d=" M 319.32928072790025 325.09493670886076 L 322.98603812063686 325.09493670886076 L 322.98603812063686 530 L 319.32928072790025 530 L 319.32928072790025 325.09493670886076 Z"/><path fill="none" stroke="#1f77b4" paint-order="fill stroke markers" d=" M 319.32928072790025 325.09493670886076 L 322.98603812063686 325.09493670886076 L 322.98603812063686 530 L 319.32928072790025 530 L 319.32928072790025 325.09493670886076 Z" stroke-linejoin="bevel" stroke-miterlimit="10"/><path fill="#1f77b4" stroke="none" paint-order="stroke fill markers" d=" M 323.3923444976077 298.19620253164555 L 327.04910189034433 298.19620253164555 L 327.04910189034433 530 L 323.3923444976077 530 L 323.3923444976077 298.19620253164555 Z"/><path fill="none" stroke="#1f77b4" paint-order="fill stroke markers" d=" M 323.3923444976077 298.19620253164555 L 327.04910189034433 298.19620253164555 L 327.04910189034433 530 L 323.3923444976077 530 L 323.3923444976077 298.19620253164555 Z" stroke-linejoin="bevel" stroke-miterlimit="10"/><path fill="#1f77b4" stroke="none" paint-order="stroke fill markers" d=" M 327.4554082673151 365.44303797468353 L 331.1121656600518 365.44303797468353 L 331.1121656600518 530 L 327.4554082673151 530 L 327.4554082673151 365.44303797468353 Z"/><path fill="none" stroke="#1f77b4" paint-order="fill stroke markers" d=" M 327.4554082673151 365.44303797468353 L 331.1121656600518 365.44303797468353 L 331.1121656600518 530 L 327.4554082673151 530 L 327.4554082673151 365.44303797468353 Z" stroke-linejoin="bevel" stroke-miterlimit="10"/><path fill="#1f77b4" stroke="none" paint-order="stroke fill markers" d=" M 331.51847203702255 366.2341772151899 L 335.17522942975927 366.2341772151899 L 335.17522942975927 530 L 331.51847203702255 530 L 331.51847203702255 366.2341772151899 Z"/><path fill="none" stroke="#1f77b4" paint-order="fill stroke markers" d=" M 331.51847203702255 366.2341772151899 L 335.17522942975927 366.2341772151899 L 335.17522942975927 530 L 331.51847203702255 530 L 331.51847203702255 366.2341772151899 Z" stroke-linejoin="bevel" stroke-miterlimit="10"/><path fill="#1f77b4" stroke="none" paint-order="stroke fill markers" d=" M 335.58153580672996 359.11392405063293 L 339.2382931994667 359.11392405063293 L 339.2382931994667 530 L 335.58153580672996 530 L 335.58153580672996 359.11392405063293 Z"/><path fill="none" stroke="#1f77b4" paint-order="fill stroke markers" d=" M 335.58153580672996 359.11392405063293 L 339.2382931994667 359.11392405063293 L 339.2382931994667 530 L 335.58153580672996 530 L 335.58153580672996 359.11392405063293 Z" stroke-linejoin="bevel" stroke-miterlimit="10"/><path fill="#1f77b4" stroke="none" paint-order="stroke fill markers" d=" M 339.6445995764374 352.7848101265823 L 343.3013569691741 352.7848101265823 L 343.3013569691741 530 L 339.6445995764374 530 L 339.6445995764374 352.7848101265823 Z"/><path fill="none" stroke="#1f77b4" paint-order="fill stroke markers" d=" M 339.6445995764374 352.7848101265823 L 343.3013569691741 352.7848101265823 L 343.3013569691741 530 L 339.6445995764374 530 L 339.6445995764374 352.7848101265823 Z" stroke-linejoin="bevel" stroke-miterlimit="10"/><path fill="#1f77b4" stroke="none" paint-order="stroke fill markers" d=" M 343.7076633461448 386.80379746835445 L 347.3644207388815 386.80379746835445 L 347.3644207388815 530 L 343.7076633461448 530 L 343.7076633461448 386.80379746835445 Z"/><path fill="none" stroke="#1f77b4" paint-order="fill stroke markers" d=" M 343.7076633461448 386.80379746835445 L 347.3644207388815 386.80379746835445 L 347.3644207388815 530 L 343.7076633461448 530 L 343.7076633461448 386.80379746835445 Z" stroke-linejoin="bevel" stroke-miterlimit="10"/><path fill="#1f77b4" stroke="none" paint-order="stroke fill markers" d=" M 347.77072711585225 355.15822784810126 L 351.427484508589 355.15822784810126 L 351.427484508589 530 L 347.77072711585225 530 L 347.77072711585225 355.15822784810126 Z"/><path fill="none" stroke="#1f77b4" paint-order="fill stroke markers" d=" M 347.77072711585225 355.15822784810126 L 351.427484508589 355.15822784810126 L 351.427484508589 530 L 347.77072711585225 530 L 347.77072711585225 355.15822784810126 Z" stroke-linejoin="bevel" stroke-miterlimit="10"/><path fill="#1f77b4" stroke="none" paint-order="stroke fill markers" d=" M 351.83379088555967 333.00632911392404 L 355.4905482782964 333.00632911392404 L 355.4905482782964 530 L 351.83379088555967 530 L 351.83379088555967 333.00632911392404 Z"/><path fill="none" stroke="#1f77b4" paint-order="fill stroke markers" d=" M 351.83379088555967 333.00632911392404 L 355.4905482782964 333.00632911392404 L 355.4905482782964 530 L 351.83379088555967 530 L 351.83379088555967 333.00632911392404 Z" stroke-linejoin="bevel" stroke-miterlimit="10"/><path fill="#1f77b4" stroke="none" paint-order="stroke fill markers" d=" M 355.89685465526713 435.8544303797468 L 359.55361204800374 435.8544303797468 L 359.55361204800374 530 L 355.89685465526713 530 L 355.89685465526713 435.8544303797468 Z"/><path fill="none" stroke="#1f77b4" paint-order="fill stroke markers" d=" M 355.89685465526713 435.8544303797468 L 359.55361204800374 435.8544303797468 L 359.55361204800374 530 L 355.89685465526713 530 L 355.89685465526713 435.8544303797468 Z" stroke-linejoin="bevel" stroke-miterlimit="10"/><path fill="#1f77b4" stroke="none" paint-order="stroke fill markers" d=" M 359.9599184249746 458.00632911392404 L 363.6166758177112 458.00632911392404 L 363.6166758177112 530 L 359.9599184249746 530 L 359.9599184249746 458.00632911392404 Z"/><path fill="none" stroke="#1f77b4" paint-order="fill stroke markers" d=" M 359.9599184249746 458.00632911392404 L 363.6166758177112 458.00632911392404 L 363.6166758177112 530 L 359.9599184249746 530 L 359.9599184249746 458.00632911392404 Z" stroke-linejoin="bevel" stroke-miterlimit="10"/><path fill="#1f77b4" stroke="none" paint-order="stroke fill markers" d=" M 364.02298219468196 425.56962025316454 L 367.6797395874187 425.56962025316454 L 367.6797395874187 530 L 364.02298219468196 530 L 364.02298219468196 425.56962025316454 Z"/><path fill="none" stroke="#1f77b4" paint-order="fill stroke markers" d=" M 364.02298219468196 425.56962025316454 L 367.6797395874187 425.56962025316454 L 367.6797395874187 530 L 364.02298219468196 530 L 364.02298219468196 425.56962025316454 Z" stroke-linejoin="bevel" stroke-miterlimit="10"/><path fill="#1f77b4" stroke="none" paint-order="stroke fill markers" d=" M 368.08604596438937 405.7911392405063 L 371.7428033571261 405.7911392405063 L 371.7428033571261 530 L 368.08604596438937 530 L 368.08604596438937 405.7911392405063 Z"/><path fill="none" stroke="#1f77b4" paint-order="fill stroke markers" d=" M 368.08604596438937 405.7911392405063 L 371.7428033571261 405.7911392405063 L 371.7428033571261 530 L 368.08604596438937 530 L 368.08604596438937 405.7911392405063 Z" stroke-linejoin="bevel" stroke-miterlimit="10"/><path fill="#1f77b4" stroke="none" paint-order="stroke fill markers" d=" M 372.1491097340968 369.3987341772152 L 375.8058671268335 369.3987341772152 L 375.8058671268335 530 L 372.1491097340968 530 L 372.1491097340968 369.3987341772152 Z"/><path fill="none" stroke="#1f77b4" paint-order="fill stroke markers" d=" M 372.1491097340968 369.3987341772152 L 375.8058671268335 369.3987341772152 L 375.8058671268335 530 L 372.1491097340968 530 L 372.1491097340968 369.3987341772152 Z" stroke-linejoin="bevel" stroke-miterlimit="10"/><path fill="#1f77b4" stroke="none" paint-order="stroke fill markers" d=" M 376.21217350380425 414.49367088607596 L 379.868930896541 414.49367088607596 L 379.868930896541 530 L 376.21217350380425 530 L 376.21217350380425 414.49367088607596 Z"/><path fill="none" stroke="#1f77b4" paint-order="fill stroke markers" d=" M 376.21217350380425 414.49367088607596 L 379.868930896541 414.49367088607596 L 379.868930896541 530 L 376.21217350380425 530 L 376.21217350380425 414.49367088607596 Z" stroke-linejoin="bevel" stroke-miterlimit="10"/><path fill="#1f77b4" stroke="none" paint-order="stroke fill markers" d=" M 380.27523727351166 413.7025316455696 L 383.9319946662484 413.7025316455696 L 383.9319946662484 530 L 380.27523727351166 530 L 380.27523727351166 413.7025316455696 Z"/><path fill="none" stroke="#1f77b4" paint-order="fill stroke markers" d=" M 380.27523727351166 413.7025316455696 L 383.9319946662484 413.7025316455696 L 383.9319946662484 530 L 380.27523727351166 530 L 380.27523727351166 413.7025316455696 Z" stroke-linejoin="bevel" stroke-miterlimit="10"/><path fill="#1f77b4" stroke="none" paint-order="stroke fill markers" d=" M 384.3383010432191 452.46835443037975 L 387.9950584359558 452.46835443037975 L 387.9950584359558 530 L 384.3383010432191 530 L 384.3383010432191 452.46835443037975 Z"/><path fill="none" stroke="#1f77b4" paint-order="fill stroke markers" d=" M 384.3383010432191 452.46835443037975 L 387.9950584359558 452.46835443037975 L 387.9950584359558 530 L 384.3383010432191 530 L 384.3383010432191 452.46835443037975 Z" stroke-linejoin="bevel" stroke-miterlimit="10"/><path fill="#1f77b4" stroke="none" paint-order="stroke fill markers" d=" M 388.40136481292654 494.3987341772152 L 392.05812220566327 494.3987341772152 L 392.05812220566327 530 L 388.40136481292654 530 L 388.40136481292654 494.3987341772152 Z"/><path fill="none" stroke="#1f77b4" paint-order="fill stroke markers" d=" M 388.40136481292654 494.3987341772152 L 392.05812220566327 494.3987341772152 L 392.05812220566327 530 L 388.40136481292654 530 L 388.40136481292654 494.3987341772152 Z" stroke-linejoin="bevel" stroke-miterlimit="10"/><path fill="#1f77b4" stroke="none" paint-order="stroke fill markers" d=" M 392.464428582634 484.11392405063293 L 396.1211859753706 484.11392405063293 L 396.1211859753706 530 L 392.464428582634 530 L 392.464428582634 484.11392405063293 Z"/><path fill="none" stroke="#1f77b4" paint-order="fill stroke markers" d=" M 392.464428582634 484.11392405063293 L 396.1211859753706 484.11392405063293 L 396.1211859753706 530 L 392.464428582634 530 L 392.464428582634 484.11392405063293 Z" stroke-linejoin="bevel" stroke-miterlimit="10"/><path fill="#1f77b4" stroke="none" paint-order="stroke fill markers" d=" M 396.52749235234137 502.3101265822785 L 400.1842497450781 502.3101265822785 L 400.1842497450781 530 L 396.52749235234137 530 L 396.52749235234137 502.3101265822785 Z"/><path fill="none" stroke="#1f77b4" paint-order="fill stroke markers" d=" M 396.52749235234137 502.3101265822785 L 400.1842497450781 502.3101265822785 L 400.1842497450781 530 L 396.52749235234137 530 L 396.52749235234137 502.3101265822785 Z" stroke-linejoin="bevel" stroke-miterlimit="10"/><path fill="#1f77b4" stroke="none" paint-order="stroke fill markers" d=" M 400.5905561220488 514.1772151898734 L 404.2473135147855 514.1772151898734 L 404.2473135147855 530 L 400.5905561220488 530 L 400.5905561220488 514.1772151898734 Z"/><path fill="none" stroke="#1f77b4" paint-order="fill stroke markers" d=" M 400.5905561220488 514.1772151898734 L 404.2473135147855 514.1772151898734 L 404.2473135147855 530 L 400.5905561220488 530 L 400.5905561220488 514.1772151898734 Z" stroke-linejoin="bevel" stroke-miterlimit="10"/><path fill="#1f77b4" stroke="none" paint-order="stroke fill markers" d=" M 404.65361989175625 518.132911392405 L 408.310377284493 518.132911392405 L 408.310377284493 530 L 404.65361989175625 530 L 404.65361989175625 518.132911392405 Z"/><path fill="none" stroke="#1f77b4" paint-order="fill stroke markers" d=" M 404.65361989175625 518.132911392405 L 408.310377284493 518.132911392405 L 408.310377284493 530 L 404.65361989175625 530 L 404.65361989175625 518.132911392405 Z" stroke-linejoin="bevel" stroke-miterlimit="10"/><path fill="#1f77b4" stroke="none" paint-order="stroke fill markers" d=" M 408.71668366146366 511.0126582278481 L 412.3734410542004 511.0126582278481 L 412.3734410542004 530 L 408.71668366146366 530 L 408.71668366146366 511.0126582278481 Z"/><path fill="none" stroke="#1f77b4" paint-order="fill stroke markers" d=" M 408.71668366146366 511.0126582278481 L 412.3734410542004 511.0126582278481 L 412.3734410542004 530 L 408.71668366146366 530 L 408.71668366146366 511.0126582278481 Z" stroke-linejoin="bevel" stroke-miterlimit="10"/><path fill="#1f77b4" stroke="none" paint-order="stroke fill markers" d=" M 412.77974743117113 503.89240506329116 L 416.43650482390774 503.89240506329116 L 416.43650482390774 530 L 412.77974743117113 530 L 412.77974743117113 503.89240506329116 Z"/><path fill="none" stroke="#1f77b4" paint-order="fill stroke markers" d=" M 412.77974743117113 503.89240506329116 L 416.43650482390774 503.89240506329116 L 416.43650482390774 530 L 412.77974743117113 530 L 412.77974743117113 503.89240506329116 Z" stroke-linejoin="bevel" stroke-miterlimit="10"/><path fill="#1f77b4" stroke="none" paint-order="stroke fill markers" d=" M 416.8428112008785 484.90506329113924 L 420.4995685936152 484.90506329113924 L 420.4995685936152 530 L 416.8428112008785 530 L 416.8428112008785 484.90506329113924 Z"/><path fill="none" stroke="#1f77b4" paint-order="fill stroke markers" d=" M 416.8428112008785 484.90506329113924 L 420.4995685936152 484.90506329113924 L 420.4995685936152 530 L 416.8428112008785 530 L 416.8428112008785 484.90506329113924 Z" stroke-linejoin="bevel" stroke-miterlimit="10"/><path fill="#1f77b4" stroke="none" paint-order="stroke fill markers" d=" M 420.90587497058596 471.45569620253167 L 424.5626323633227 471.45569620253167 L 424.5626323633227 530 L 420.90587497058596 530 L 420.90587497058596 471.45569620253167 Z"/><path fill="none" stroke="#1f77b4" paint-order="fill stroke markers" d=" M 420.90587497058596 471.45569620253167 L 424.5626323633227 471.45569620253167 L 424.5626323633227 530 L 420.90587497058596 530 L 420.90587497058596 471.45569620253167 Z" stroke-linejoin="bevel" stroke-miterlimit="10"/><path fill="#1f77b4" stroke="none" paint-order="stroke fill markers" d=" M 424.96893874029337 442.9746835443038 L 428.6256961330301 442.9746835443038 L 428.6256961330301 530 L 424.96893874029337 530 L 424.96893874029337 442.9746835443038 Z"/><path fill="none" stroke="#1f77b4" paint-order="fill stroke markers" d=" M 424.96893874029337 442.9746835443038 L 428.6256961330301 442.9746835443038 L 428.6256961330301 530 L 424.96893874029337 530 L 424.96893874029337 442.9746835443038 Z" stroke-linejoin="bevel" stroke-miterlimit="10"/><path fill="#1f77b4" stroke="none" paint-order="stroke fill markers" d=" M 429.0320025100008 435.0632911392405 L 432.6887599027375 435.0632911392405 L 432.6887599027375 530 L 429.0320025100008 530 L 429.0320025100008 435.0632911392405 Z"/><path fill="none" stroke="#1f77b4" paint-order="fill stroke markers" d=" M 429.0320025100008 435.0632911392405 L 432.6887599027375 435.0632911392405 L 432.6887599027375 530 L 429.0320025100008 530 L 429.0320025100008 435.0632911392405 Z" stroke-linejoin="bevel" stroke-miterlimit="10"/><path fill="#1f77b4" stroke="none" paint-order="stroke fill markers" d=" M 433.09506627970825 444.55696202531647 L 436.75182367244497 444.55696202531647 L 436.75182367244497 530 L 433.09506627970825 530 L 433.09506627970825 444.55696202531647 Z"/><path fill="none" stroke="#1f77b4" paint-order="fill stroke markers" d=" M 433.09506627970825 444.55696202531647 L 436.75182367244497 444.55696202531647 L 436.75182367244497 530 L 433.09506627970825 530 L 433.09506627970825 444.55696202531647 Z" stroke-linejoin="bevel" stroke-miterlimit="10"/><path fill="#1f77b4" stroke="none" paint-order="stroke fill markers" d=" M 437.15813004941566 399.4620253164557 L 440.8148874421524 399.4620253164557 L 440.8148874421524 530 L 437.15813004941566 530 L 437.15813004941566 399.4620253164557 Z"/><path fill="none" stroke="#1f77b4" paint-order="fill stroke markers" d=" M 437.15813004941566 399.4620253164557 L 440.8148874421524 399.4620253164557 L 440.8148874421524 530 L 437.15813004941566 530 L 437.15813004941566 399.4620253164557 Z" stroke-linejoin="bevel" stroke-miterlimit="10"/><path fill="#1f77b4" stroke="none" paint-order="stroke fill markers" d=" M 441.2211938191231 408.9556962025316 L 444.8779512118598 408.9556962025316 L 444.8779512118598 530 L 441.2211938191231 530 L 441.2211938191231 408.9556962025316 Z"/><path fill="none" stroke="#1f77b4" paint-order="fill stroke markers" d=" M 441.2211938191231 408.9556962025316 L 444.8779512118598 408.9556962025316 L 444.8779512118598 530 L 441.2211938191231 530 L 441.2211938191231 408.9556962025316 Z" stroke-linejoin="bevel" stroke-miterlimit="10"/><path fill="#1f77b4" stroke="none" paint-order="stroke fill markers" d=" M 445.28425758883054 433.4810126582279 L 448.94101498156715 433.4810126582279 L 448.94101498156715 530 L 445.28425758883054 530 L 445.28425758883054 433.4810126582279 Z"/><path fill="none" stroke="#1f77b4" paint-order="fill stroke markers" d=" M 445.28425758883054 433.4810126582279 L 448.94101498156715 433.4810126582279 L 448.94101498156715 530 L 445.28425758883054 530 L 445.28425758883054 433.4810126582279 Z" stroke-linejoin="bevel" stroke-miterlimit="10"/><path fill="#1f77b4" stroke="none" paint-order="stroke fill markers" d=" M 449.347321358538 470.6645569620253 L 453.0040787512746 470.6645569620253 L 453.0040787512746 530 L 449.347321358538 530 L 449.347321358538 470.6645569620253 Z"/><path fill="none" stroke="#1f77b4" paint-order="fill stroke markers" d=" M 449.347321358538 470.6645569620253 L 453.0040787512746 470.6645569620253 L 453.0040787512746 530 L 449.347321358538 530 L 449.347321358538 470.6645569620253 Z" stroke-linejoin="bevel" stroke-miterlimit="10"/><path fill="#1f77b4" stroke="none" paint-order="stroke fill markers" d=" M 453.41038512824537 468.2911392405063 L 457.0671425209821 468.2911392405063 L 457.0671425209821 530 L 453.41038512824537 530 L 453.41038512824537 468.2911392405063 Z"/><path fill="none" stroke="#1f77b4" paint-order="fill stroke markers" d=" M 453.41038512824537 468.2911392405063 L 457.0671425209821 468.2911392405063 L 457.0671425209821 530 L 453.41038512824537 530 L 453.41038512824537 468.2911392405063 Z" stroke-linejoin="bevel" stroke-miterlimit="10"/><path fill="#1f77b4" stroke="none" paint-order="stroke fill markers" d=" M 457.4734488979528 473.8291139240506 L 461.1302062906895 473.8291139240506 L 461.1302062906895 530 L 457.4734488979528 530 L 457.4734488979528 473.8291139240506 Z"/><path fill="none" stroke="#1f77b4" paint-order="fill stroke markers" d=" M 457.4734488979528 473.8291139240506 L 461.1302062906895 473.8291139240506 L 461.1302062906895 530 L 457.4734488979528 530 L 457.4734488979528 473.8291139240506 Z" stroke-linejoin="bevel" stroke-miterlimit="10"/><path fill="#1f77b4" stroke="none" paint-order="stroke fill markers" d=" M 461.53651266766025 459.5886075949367 L 465.19327006039697 459.5886075949367 L 465.19327006039697 530 L 461.53651266766025 530 L 461.53651266766025 459.5886075949367 Z"/><path fill="none" stroke="#1f77b4" paint-order="fill stroke markers" d=" M 461.53651266766025 459.5886075949367 L 465.19327006039697 459.5886075949367 L 465.19327006039697 530 L 461.53651266766025 530 L 461.53651266766025 459.5886075949367 Z" stroke-linejoin="bevel" stroke-miterlimit="10"/><path fill="#1f77b4" stroke="none" paint-order="stroke fill markers" d=" M 465.59957643736766 469.873417721519 L 469.2563338301044 469.873417721519 L 469.2563338301044 530 L 465.59957643736766 530 L 465.59957643736766 469.873417721519 Z"/><path fill="none" stroke="#1f77b4" paint-order="fill stroke markers" d=" M 465.59957643736766 469.873417721519 L 469.2563338301044 469.873417721519 L 469.2563338301044 530 L 465.59957643736766 530 L 465.59957643736766 469.873417721519 Z" stroke-linejoin="bevel" stroke-miterlimit="10"/><path fill="#1f77b4" stroke="none" paint-order="stroke fill markers" d=" M 469.66264020707507 442.9746835443038 L 473.3193975998118 442.9746835443038 L 473.3193975998118 530 L 469.66264020707507 530 L 469.66264020707507 442.9746835443038 Z"/><path fill="none" stroke="#1f77b4" paint-order="fill stroke markers" d=" M 469.66264020707507 442.9746835443038 L 473.3193975998118 442.9746835443038 L 473.3193975998118 530 L 469.66264020707507 530 L 469.66264020707507 442.9746835443038 Z" stroke-linejoin="bevel" stroke-miterlimit="10"/><path fill="#1f77b4" stroke="none" paint-order="stroke fill markers" d=" M 473.7257039767825 488.8607594936709 L 477.3824613695192 488.8607594936709 L 477.3824613695192 530 L 473.7257039767825 530 L 473.7257039767825 488.8607594936709 Z"/><path fill="none" stroke="#1f77b4" paint-order="fill stroke markers" d=" M 473.7257039767825 488.8607594936709 L 477.3824613695192 488.8607594936709 L 477.3824613695192 530 L 473.7257039767825 530 L 473.7257039767825 488.8607594936709 Z" stroke-linejoin="bevel" stroke-miterlimit="10"/><path fill="#1f77b4" stroke="none" paint-order="stroke fill markers" d=" M 477.78876774648995 472.246835443038 L 481.44552513922656 472.246835443038 L 481.44552513922656 530 L 477.78876774648995 530 L 477.78876774648995 472.246835443038 Z"/><path fill="none" stroke="#1f77b4" paint-order="fill stroke markers" d=" M 477.78876774648995 472.246835443038 L 481.44552513922656 472.246835443038 L 481.44552513922656 530 L 477.78876774648995 530 L 477.78876774648995 472.246835443038 Z" stroke-linejoin="bevel" stroke-miterlimit="10"/><path fill="#1f77b4" stroke="none" paint-order="stroke fill markers" d=" M 481.8518315161974 488.06962025316454 L 485.50858890893403 488.06962025316454 L 485.50858890893403 530 L 481.8518315161974 530 L 481.8518315161974 488.06962025316454 Z"/><path fill="none" stroke="#1f77b4" paint-order="fill stroke markers" d=" M 481.8518315161974 488.06962025316454 L 485.50858890893403 488.06962025316454 L 485.50858890893403 530 L 481.8518315161974 530 L 481.8518315161974 488.06962025316454 Z" stroke-linejoin="bevel" stroke-miterlimit="10"/><path fill="#1f77b4" stroke="none" paint-order="stroke fill markers" d=" M 485.9148952859048 493.6075949367089 L 489.5716526786415 493.6075949367089 L 489.5716526786415 530 L 485.9148952859048 530 L 485.9148952859048 493.6075949367089 Z"/><path fill="none" stroke="#1f77b4" paint-order="fill stroke markers" d=" M 485.9148952859048 493.6075949367089 L 489.5716526786415 493.6075949367089 L 489.5716526786415 530 L 485.9148952859048 530 L 485.9148952859048 493.6075949367089 Z" stroke-linejoin="bevel" stroke-miterlimit="10"/><path fill="#1f77b4" stroke="none" paint-order="stroke fill markers" d=" M 489.9779590556122 491.2341772151899 L 493.6347164483489 491.2341772151899 L 493.6347164483489 530 L 489.9779590556122 530 L 489.9779590556122 491.2341772151899 Z"/><path fill="none" stroke="#1f77b4" paint-order="fill stroke markers" d=" M 489.9779590556122 491.2341772151899 L 493.6347164483489 491.2341772151899 L 493.6347164483489 530 L 489.9779590556122 530 L 489.9779590556122 491.2341772151899 Z" stroke-linejoin="bevel" stroke-miterlimit="10"/><path fill="#1f77b4" stroke="none" paint-order="stroke fill markers" d=" M 494.04102282531966 476.2025316455696 L 497.6977802180564 476.2025316455696 L 497.6977802180564 530 L 494.04102282531966 530 L 494.04102282531966 476.2025316455696 Z"/><path fill="none" stroke="#1f77b4" paint-order="fill stroke markers" d=" M 494.04102282531966 476.2025316455696 L 497.6977802180564 476.2025316455696 L 497.6977802180564 530 L 494.04102282531966 530 L 494.04102282531966 476.2025316455696 Z" stroke-linejoin="bevel" stroke-miterlimit="10"/><path fill="#1f77b4" stroke="none" paint-order="stroke fill markers" d=" M 498.10408659502707 482.53164556962025 L 501.7608439877638 482.53164556962025 L 501.7608439877638 530 L 498.10408659502707 530 L 498.10408659502707 482.53164556962025 Z"/><path fill="none" stroke="#1f77b4" paint-order="fill stroke markers" d=" M 498.10408659502707 482.53164556962025 L 501.7608439877638 482.53164556962025 L 501.7608439877638 530 L 498.10408659502707 530 L 498.10408659502707 482.53164556962025 Z" stroke-linejoin="bevel" stroke-miterlimit="10"/><path fill="#1f77b4" stroke="none" paint-order="stroke fill markers" d=" M 502.1671503647345 436.6455696202532 L 505.8239077574712 436.6455696202532 L 505.8239077574712 530 L 502.1671503647345 530 L 502.1671503647345 436.6455696202532 Z"/><path fill="none" stroke="#1f77b4" paint-order="fill stroke markers" d=" M 502.1671503647345 436.6455696202532 L 505.8239077574712 436.6455696202532 L 505.8239077574712 530 L 502.1671503647345 530 L 502.1671503647345 436.6455696202532 Z" stroke-linejoin="bevel" stroke-miterlimit="10"/><path fill="#1f77b4" stroke="none" paint-order="stroke fill markers" d=" M 506.2302141344419 464.3354430379747 L 509.8869715271786 464.3354430379747 L 509.8869715271786 530 L 506.2302141344419 530 L 506.2302141344419 464.3354430379747 Z"/><path fill="none" stroke="#1f77b4" paint-order="fill stroke markers" d=" M 506.2302141344419 464.3354430379747 L 509.8869715271786 464.3354430379747 L 509.8869715271786 530 L 506.2302141344419 530 L 506.2302141344419 464.3354430379747 Z" stroke-linejoin="bevel" stroke-miterlimit="10"/><path fill="#1f77b4" stroke="none" paint-order="stroke fill markers" d=" M 510.29327790414936 469.873417721519 L 513.950035296886 469.873417721519 L 513.950035296886 530 L 510.29327790414936 530 L 510.29327790414936 469.873417721519 Z"/><path fill="none" stroke="#1f77b4" paint-order="fill stroke markers" d=" M 510.29327790414936 469.873417721519 L 513.950035296886 469.873417721519 L 513.950035296886 530 L 510.29327790414936 530 L 510.29327790414936 469.873417721519 Z" stroke-linejoin="bevel" stroke-miterlimit="10"/><path fill="#1f77b4" stroke="none" paint-order="stroke fill markers" d=" M 514.3563416738568 487.27848101265823 L 518.0130990665934 487.27848101265823 L 518.0130990665934 530 L 514.3563416738568 530 L 514.3563416738568 487.27848101265823 Z"/><path fill="none" stroke="#1f77b4" paint-order="fill stroke markers" d=" M 514.3563416738568 487.27848101265823 L 518.0130990665934 487.27848101265823 L 518.0130990665934 530 L 514.3563416738568 530 L 514.3563416738568 487.27848101265823 Z" stroke-linejoin="bevel" stroke-miterlimit="10"/><path fill="#1f77b4" stroke="none" paint-order="stroke fill markers" d=" M 518.4194054435641 459.5886075949367 L 522.0761628363009 459.5886075949367 L 522.0761628363009 530 L 518.4194054435641 530 L 518.4194054435641 459.5886075949367 Z"/><path fill="none" stroke="#1f77b4" paint-order="fill stroke markers" d=" M 518.4194054435641 459.5886075949367 L 522.0761628363009 459.5886075949367 L 522.0761628363009 530 L 518.4194054435641 530 L 518.4194054435641 459.5886075949367 Z" stroke-linejoin="bevel" stroke-miterlimit="10"/><path fill="#1f77b4" stroke="none" paint-order="stroke fill markers" d=" M 522.4824692132715 483.32278481012656 L 526.1392266060084 483.32278481012656 L 526.1392266060084 530 L 522.4824692132715 530 L 522.4824692132715 483.32278481012656 Z"/><path fill="none" stroke="#1f77b4" paint-order="fill stroke markers" d=" M 522.4824692132715 483.32278481012656 L 526.1392266060084 483.32278481012656 L 526.1392266060084 530 L 522.4824692132715 530 L 522.4824692132715 483.32278481012656 Z" stroke-linejoin="bevel" stroke-miterlimit="10"/><path fill="#1f77b4" stroke="none" paint-order="stroke fill markers" d=" M 526.545532982979 498.3544303797468 L 530.2022903757158 498.3544303797468 L 530.2022903757158 530 L 526.545532982979 530 L 526.545532982979 498.3544303797468 Z"/><path fill="none" stroke="#1f77b4" paint-order="fill stroke markers" d=" M 526.545532982979 498.3544303797468 L 530.2022903757158 498.3544303797468 L 530.2022903757158 530 L 526.545532982979 530 L 526.545532982979 498.3544303797468 Z" stroke-linejoin="bevel" stroke-miterlimit="10"/><path fill="#1f77b4" stroke="none" paint-order="stroke fill markers" d=" M 530.6085967526865 495.9810126582278 L 534.2653541454231 495.9810126582278 L 534.2653541454231 530 L 530.6085967526865 530 L 530.6085967526865 495.9810126582278 Z"/><path fill="none" stroke="#1f77b4" paint-order="fill stroke markers" d=" M 530.6085967526865 495.9810126582278 L 534.2653541454231 495.9810126582278 L 534.2653541454231 530 L 530.6085967526865 530 L 530.6085967526865 495.9810126582278 Z" stroke-linejoin="bevel" stroke-miterlimit="10"/><path fill="#1f77b4" stroke="none" paint-order="stroke fill markers" d=" M 534.671660522394 509.43037974683546 L 538.3284179151306 509.43037974683546 L 538.3284179151306 530 L 534.671660522394 530 L 534.671660522394 509.43037974683546 Z"/><path fill="none" stroke="#1f77b4" paint-order="fill stroke markers" d=" M 534.671660522394 509.43037974683546 L 538.3284179151306 509.43037974683546 L 538.3284179151306 530 L 534.671660522394 530 L 534.671660522394 509.43037974683546 Z" stroke-linejoin="bevel" stroke-miterlimit="10"/><path fill="#1f77b4" stroke="none" paint-order="stroke fill markers" d=" M 538.7347242921012 507.8481012658228 L 542.391481684838 507.8481012658228 L 542.391481684838 530 L 538.7347242921012 530 L 538.7347242921012 507.8481012658228 Z"/><path fill="none" stroke="#1f77b4" paint-order="fill stroke markers" d=" M 538.7347242921012 507.8481012658228 L 542.391481684838 507.8481012658228 L 542.391481684838 530 L 538.7347242921012 530 L 538.7347242921012 507.8481012658228 Z" stroke-linejoin="bevel" stroke-miterlimit="10"/><path fill="#1f77b4" stroke="none" paint-order="stroke fill markers" d=" M 542.7977880618088 471.45569620253167 L 546.4545454545454 471.45569620253167 L 546.4545454545454 530 L 542.7977880618088 530 L 542.7977880618088 471.45569620253167 Z"/><path fill="none" stroke="#1f77b4" paint-order="fill stroke markers" d=" M 542.7977880618088 471.45569620253167 L 546.4545454545454 471.45569620253167 L 546.4545454545454 530 L 542.7977880618088 530 L 542.7977880618088 471.45569620253167 Z" stroke-linejoin="bevel" stroke-miterlimit="10"/></g></g></g><g/><g/><g><g fill="#444444"><path fill="none" stroke="black" paint-order="fill stroke markers" d=" M 52 555 L 570 555" stroke-linejoin="bevel" stroke-miterlimit="10"/><path fill="none" stroke="black" paint-order="fill stroke markers" d=" M 73 561 L 73 553" stroke-linejoin="bevel" stroke-miterlimit="10"/><path fill="none" stroke="black" paint-order="fill stroke markers" d=" M 155 561 L 155 553" stroke-linejoin="bevel" stroke-miterlimit="10"/><path fill="none" stroke="black" paint-order="fill stroke markers" d=" M 237 561 L 237 553" stroke-linejoin="bevel" stroke-miterlimit="10"/><path fill="none" stroke="black" paint-order="fill stroke markers" d=" M 319 561 L 319 553" stroke-linejoin="bevel" stroke-miterlimit="10"/><path fill="none" stroke="black" paint-order="fill stroke markers" d=" M 401 561 L 401 553" stroke-linejoin="bevel" stroke-miterlimit="10"/><path fill="none" stroke="black" paint-order="fill stroke markers" d=" M 483 561 L 483 553" stroke-linejoin="bevel" stroke-miterlimit="10"/><path fill="none" stroke="black" paint-order="fill stroke markers" d=" M 565 561 L 565 553" stroke-linejoin="bevel" stroke-miterlimit="10"/><path fill="none" stroke="black" paint-order="fill stroke markers" d=" M 57 559 L 57 555" stroke-linejoin="bevel" stroke-miterlimit="10"/><path fill="none" stroke="black" paint-order="fill stroke markers" d=" M 73 559 L 73 555" stroke-linejoin="bevel" stroke-miterlimit="10"/><path fill="none" stroke="black" paint-order="fill stroke markers" d=" M 90 559 L 90 555" stroke-linejoin="bevel" stroke-miterlimit="10"/><path fill="none" stroke="black" paint-order="fill stroke markers" d=" M 106 559 L 106 555" stroke-linejoin="bevel" stroke-miterlimit="10"/><path fill="none" stroke="black" paint-order="fill stroke markers" d=" M 122 559 L 122 555" stroke-linejoin="bevel" stroke-miterlimit="10"/><path fill="none" stroke="black" paint-order="fill stroke markers" d=" M 139 559 L 139 555" stroke-linejoin="bevel" stroke-miterlimit="10"/><path fill="none" stroke="black" paint-order="fill stroke markers" d=" M 155 559 L 155 555" stroke-linejoin="bevel" stroke-miterlimit="10"/><path fill="none" stroke="black" paint-order="fill stroke markers" d=" M 172 559 L 172 555" stroke-linejoin="bevel" stroke-miterlimit="10"/><path fill="none" stroke="black" paint-order="fill stroke markers" d=" M 188 559 L 188 555" stroke-linejoin="bevel" stroke-miterlimit="10"/><path fill="none" stroke="black" paint-order="fill stroke markers" d=" M 204 559 L 204 555" stroke-linejoin="bevel" stroke-miterlimit="10"/><path fill="none" stroke="black" paint-order="fill stroke markers" d=" M 221 559 L 221 555" stroke-linejoin="bevel" stroke-miterlimit="10"/><path fill="none" stroke="black" paint-order="fill stroke markers" d=" M 237 559 L 237 555" stroke-linejoin="bevel" stroke-miterlimit="10"/><path fill="none" stroke="black" paint-order="fill stroke markers" d=" M 254 559 L 254 555" stroke-linejoin="bevel" stroke-miterlimit="10"/><path fill="none" stroke="black" paint-order="fill stroke markers" d=" M 270 559 L 270 555" stroke-linejoin="bevel" stroke-miterlimit="10"/><path fill="none" stroke="black" paint-order="fill stroke markers" d=" M 286 559 L 286 555" stroke-linejoin="bevel" stroke-miterlimit="10"/><path fill="none" stroke="black" paint-order="fill stroke markers" d=" M 303 559 L 303 555" stroke-linejoin="bevel" stroke-miterlimit="10"/><path fill="none" stroke="black" paint-order="fill stroke markers" d=" M 319 559 L 319 555" stroke-linejoin="bevel" stroke-miterlimit="10"/><path fill="none" stroke="black" paint-order="fill stroke markers" d=" M 336 559 L 336 555" stroke-linejoin="bevel" stroke-miterlimit="10"/><path fill="none" stroke="black" paint-order="fill stroke markers" d=" M 352 559 L 352 555" stroke-linejoin="bevel" stroke-miterlimit="10"/><path fill="none" stroke="black" paint-order="fill stroke markers" d=" M 368 559 L 368 555" stroke-linejoin="bevel" stroke-miterlimit="10"/><path fill="none" stroke="black" paint-order="fill stroke markers" d=" M 385 559 L 385 555" stroke-linejoin="bevel" stroke-miterlimit="10"/><path fill="none" stroke="black" paint-order="fill stroke markers" d=" M 401 559 L 401 555" stroke-linejoin="bevel" stroke-miterlimit="10"/><path fill="none" stroke="black" paint-order="fill stroke markers" d=" M 418 559 L 418 555" stroke-linejoin="bevel" stroke-miterlimit="10"/><path fill="none" stroke="black" paint-order="fill stroke markers" d=" M 434 559 L 434 555" stroke-linejoin="bevel" stroke-miterlimit="10"/><path fill="none" stroke="black" paint-order="fill stroke markers" d=" M 450 559 L 450 555" stroke-linejoin="bevel" stroke-miterlimit="10"/><path fill="none" stroke="black" paint-order="fill stroke markers" d=" M 467 559 L 467 555" stroke-linejoin="bevel" stroke-miterlimit="10"/><path fill="none" stroke="black" paint-order="fill stroke markers" d=" M 483 559 L 483 555" stroke-linejoin="bevel" stroke-miterlimit="10"/><path fill="none" stroke="black" paint-order="fill stroke markers" d=" M 500 559 L 500 555" stroke-linejoin="bevel" stroke-miterlimit="10"/><path fill="none" stroke="black" paint-order="fill stroke markers" d=" M 516 559 L 516 555" stroke-linejoin="bevel" stroke-miterlimit="10"/><path fill="none" stroke="black" paint-order="fill stroke markers" d=" M 532 559 L 532 555" stroke-linejoin="bevel" stroke-miterlimit="10"/><path fill="none" stroke="black" paint-order="fill stroke markers" d=" M 549 559 L 549 555" stroke-linejoin="bevel" stroke-miterlimit="10"/><path fill="" stroke="black" paint-order="fill stroke markers" d=" M 565 559 L 565 555" stroke-linejoin="bevel" stroke-miterlimit="10"/><g transform="translate(73,566) rotate(0,0,0)"><text fill="" stroke="none" font-family="helvetica" font-size="8pt" font-style="normal" font-weight="normal" text-decoration="normal" x="0" y="0" text-anchor="middle" dominant-baseline="hanging">0</text><g transform="rotate(0,0,0) translate(-73,-566) translate(155,566) rotate(0,0,0)"><text fill="" stroke="none" font-family="helvetica" font-size="8pt" font-style="normal" font-weight="normal" text-decoration="normal" x="0" y="0" text-anchor="middle" dominant-baseline="hanging">20</text><g transform="rotate(0,0,0) translate(-155,-566) translate(237,566) rotate(0,0,0)"><text fill="" stroke="none" font-family="helvetica" font-size="8pt" font-style="normal" font-weight="normal" text-decoration="normal" x="0" y="0" text-anchor="middle" dominant-baseline="hanging">40</text><g transform="rotate(0,0,0) translate(-237,-566) translate(319,566) rotate(0,0,0)"><text fill="" stroke="none" font-family="helvetica" font-size="8pt" font-style="normal" font-weight="normal" text-decoration="normal" x="0" y="0" text-anchor="middle" dominant-baseline="hanging">60</text><g transform="rotate(0,0,0) translate(-319,-566) translate(401,566) rotate(0,0,0)"><text fill="" stroke="none" font-family="helvetica" font-size="8pt" font-style="normal" font-weight="normal" text-decoration="normal" x="0" y="0" text-anchor="middle" dominant-baseline="hanging">80</text><g transform="rotate(0,0,0) translate(-401,-566) translate(483,566) rotate(0,0,0)"><text fill="" stroke="none" font-family="helvetica" font-size="8pt" font-style="normal" font-weight="normal" text-decoration="normal" x="0" y="0" text-anchor="middle" dominant-baseline="hanging">100</text><g transform="rotate(0,0,0) translate(-483,-566) translate(565,566) rotate(0,0,0)"><text fill="" stroke="none" font-family="helvetica" font-size="8pt" font-style="normal" font-weight="normal" text-decoration="normal" x="0" y="0" text-anchor="middle" dominant-baseline="hanging">120</text><g transform="rotate(0,0,0) translate(-565,-566) translate(311,584) rotate(0,0,0)"><text fill="" stroke="none" font-family="helvetica" font-size="10pt" font-style="italic" font-weight="normal" text-decoration="normal" x="0" y="0" text-anchor="middle" dominant-baseline="hanging">Years built</text><g transform="rotate(0,0,0) translate(-311,-584)"/></g></g></g></g></g></g></g></g></g></g><g><g fill="#444444"><path fill="none" stroke="black" paint-order="fill stroke markers" d=" M 52 555 L 52 5" stroke-linejoin="bevel" stroke-miterlimit="10"/><path fill="none" stroke="black" paint-order="fill stroke markers" d=" M 46 530 L 54 530" stroke-linejoin="bevel" stroke-miterlimit="10"/><path fill="none" stroke="black" paint-order="fill stroke markers" d=" M 46 451 L 54 451" stroke-linejoin="bevel" stroke-miterlimit="10"/><path fill="none" stroke="black" paint-order="fill stroke markers" d=" M 46 372 L 54 372" stroke-linejoin="bevel" stroke-miterlimit="10"/><path fill="none" stroke="black" paint-order="fill stroke markers" d=" M 46 293 L 54 293" stroke-linejoin="bevel" stroke-miterlimit="10"/><path fill="none" stroke="black" paint-order="fill stroke markers" d=" M 46 214 L 54 214" stroke-linejoin="bevel" stroke-miterlimit="10"/><path fill="none" stroke="black" paint-order="fill stroke markers" d=" M 46 134 L 54 134" stroke-linejoin="bevel" stroke-miterlimit="10"/><path fill="none" stroke="black" paint-order="fill stroke markers" d=" M 46 55 L 54 55" stroke-linejoin="bevel" stroke-miterlimit="10"/><path fill="none" stroke="black" paint-order="fill stroke markers" d=" M 48 546 L 52 546" stroke-linejoin="bevel" stroke-miterlimit="10"/><path fill="none" stroke="black" paint-order="fill stroke markers" d=" M 48 530 L 52 530" stroke-linejoin="bevel" stroke-miterlimit="10"/><path fill="none" stroke="black" paint-order="fill stroke markers" d=" M 48 514 L 52 514" stroke-linejoin="bevel" stroke-miterlimit="10"/><path fill="none" stroke="black" paint-order="fill stroke markers" d=" M 48 498 L 52 498" stroke-linejoin="bevel" stroke-miterlimit="10"/><path fill="none" stroke="black" paint-order="fill stroke markers" d=" M 48 483 L 52 483" stroke-linejoin="bevel" stroke-miterlimit="10"/><path fill="none" stroke="black" paint-order="fill stroke markers" d=" M 48 467 L 52 467" stroke-linejoin="bevel" stroke-miterlimit="10"/><path fill="none" stroke="black" paint-order="fill stroke markers" d=" M 48 451 L 52 451" stroke-linejoin="bevel" stroke-miterlimit="10"/><path fill="none" stroke="black" paint-order="fill stroke markers" d=" M 48 435 L 52 435" stroke-linejoin="bevel" stroke-miterlimit="10"/><path fill="none" stroke="black" paint-order="fill stroke markers" d=" M 48 419 L 52 419" stroke-linejoin="bevel" stroke-miterlimit="10"/><path fill="none" stroke="black" paint-order="fill stroke markers" d=" M 48 403 L 52 403" stroke-linejoin="bevel" stroke-miterlimit="10"/><path fill="none" stroke="black" paint-order="fill stroke markers" d=" M 48 388 L 52 388" stroke-linejoin="bevel" stroke-miterlimit="10"/><path fill="none" stroke="black" paint-order="fill stroke markers" d=" M 48 372 L 52 372" stroke-linejoin="bevel" stroke-miterlimit="10"/><path fill="none" stroke="black" paint-order="fill stroke markers" d=" M 48 356 L 52 356" stroke-linejoin="bevel" stroke-miterlimit="10"/><path fill="none" stroke="black" paint-order="fill stroke markers" d=" M 48 340 L 52 340" stroke-linejoin="bevel" stroke-miterlimit="10"/><path fill="none" stroke="black" paint-order="fill stroke markers" d=" M 48 324 L 52 324" stroke-linejoin="bevel" stroke-miterlimit="10"/><path fill="none" stroke="black" paint-order="fill stroke markers" d=" M 48 308 L 52 308" stroke-linejoin="bevel" stroke-miterlimit="10"/><path fill="none" stroke="black" paint-order="fill stroke markers" d=" M 48 293 L 52 293" stroke-linejoin="bevel" stroke-miterlimit="10"/><path fill="none" stroke="black" paint-order="fill stroke markers" d=" M 48 277 L 52 277" stroke-linejoin="bevel" stroke-miterlimit="10"/><path fill="none" stroke="black" paint-order="fill stroke markers" d=" M 48 261 L 52 261" stroke-linejoin="bevel" stroke-miterlimit="10"/><path fill="none" stroke="black" paint-order="fill stroke markers" d=" M 48 245 L 52 245" stroke-linejoin="bevel" stroke-miterlimit="10"/><path fill="none" stroke="black" paint-order="fill stroke markers" d=" M 48 229 L 52 229" stroke-linejoin="bevel" stroke-miterlimit="10"/><path fill="none" stroke="black" paint-order="fill stroke markers" d=" M 48 214 L 52 214" stroke-linejoin="bevel" stroke-miterlimit="10"/><path fill="none" stroke="black" paint-order="fill stroke markers" d=" M 48 198 L 52 198" stroke-linejoin="bevel" stroke-miterlimit="10"/><path fill="none" stroke="black" paint-order="fill stroke markers" d=" M 48 182 L 52 182" stroke-linejoin="bevel" stroke-miterlimit="10"/><path fill="none" stroke="black" paint-order="fill stroke markers" d=" M 48 166 L 52 166" stroke-linejoin="bevel" stroke-miterlimit="10"/><path fill="none" stroke="black" paint-order="fill stroke markers" d=" M 48 150 L 52 150" stroke-linejoin="bevel" stroke-miterlimit="10"/><path fill="none" stroke="black" paint-order="fill stroke markers" d=" M 48 134 L 52 134" stroke-linejoin="bevel" stroke-miterlimit="10"/><path fill="none" stroke="black" paint-order="fill stroke markers" d=" M 48 119 L 52 119" stroke-linejoin="bevel" stroke-miterlimit="10"/><path fill="none" stroke="black" paint-order="fill stroke markers" d=" M 48 103 L 52 103" stroke-linejoin="bevel" stroke-miterlimit="10"/><path fill="none" stroke="black" paint-order="fill stroke markers" d=" M 48 87 L 52 87" stroke-linejoin="bevel" stroke-miterlimit="10"/><path fill="none" stroke="black" paint-order="fill stroke markers" d=" M 48 71 L 52 71" stroke-linejoin="bevel" stroke-miterlimit="10"/><path fill="none" stroke="black" paint-order="fill stroke markers" d=" M 48 55 L 52 55" stroke-linejoin="bevel" stroke-miterlimit="10"/><path fill="none" stroke="black" paint-order="fill stroke markers" d=" M 48 39 L 52 39" stroke-linejoin="bevel" stroke-miterlimit="10"/><path fill="none" stroke="black" paint-order="fill stroke markers" d=" M 48 24 L 52 24" stroke-linejoin="bevel" stroke-miterlimit="10"/><path fill="" stroke="black" paint-order="fill stroke markers" d=" M 48 8 L 52 8" stroke-linejoin="bevel" stroke-miterlimit="10"/><g transform="translate(41,530) rotate(0,0,0)"><text fill="" stroke="none" font-family="helvetica" font-size="8pt" font-style="normal" font-weight="normal" text-decoration="normal" x="0" y="0" text-anchor="end" dominant-baseline="central">0</text><g transform="rotate(0,0,0) translate(-41,-530) translate(41,451) rotate(0,0,0)"><text fill="" stroke="none" font-family="helvetica" font-size="8pt" font-style="normal" font-weight="normal" text-decoration="normal" x="0" y="0" text-anchor="end" dominant-baseline="central">100</text><g transform="rotate(0,0,0) translate(-41,-451) translate(41,372) rotate(0,0,0)"><text fill="" stroke="none" font-family="helvetica" font-size="8pt" font-style="normal" font-weight="normal" text-decoration="normal" x="0" y="0" text-anchor="end" dominant-baseline="central">200</text><g transform="rotate(0,0,0) translate(-41,-372) translate(41,293) rotate(0,0,0)"><text fill="" stroke="none" font-family="helvetica" font-size="8pt" font-style="normal" font-weight="normal" text-decoration="normal" x="0" y="0" text-anchor="end" dominant-baseline="central">300</text><g transform="rotate(0,0,0) translate(-41,-293) translate(41,214) rotate(0,0,0)"><text fill="" stroke="none" font-family="helvetica" font-size="8pt" font-style="normal" font-weight="normal" text-decoration="normal" x="0" y="0" text-anchor="end" dominant-baseline="central">400</text><g transform="rotate(0,0,0) translate(-41,-214) translate(41,134) rotate(0,0,0)"><text fill="" stroke="none" font-family="helvetica" font-size="8pt" font-style="normal" font-weight="normal" text-decoration="normal" x="0" y="0" text-anchor="end" dominant-baseline="central">500</text><g transform="rotate(0,0,0) translate(-41,-134) translate(41,55) rotate(0,0,0)"><text fill="" stroke="none" font-family="helvetica" font-size="8pt" font-style="normal" font-weight="normal" text-decoration="normal" x="0" y="0" text-anchor="end" dominant-baseline="central">600</text><g transform="rotate(0,0,0) translate(-41,-55) translate(16,280) rotate(-90,0,0)"><text fill="" stroke="none" font-family="helvetica" font-size="10pt" font-style="italic" font-weight="normal" text-decoration="normal" x="0" y="0" text-anchor="middle" dominant-baseline="alphabetic">Sold houses per age in yrs</text><g transform="rotate(90,0,0) translate(-16,-280)"/></g></g></g></g></g></g></g></g></g></g><g clip-path="url(#ZUgXfIczbNAF)"><g/></g></g></g></svg>