<svg version="1.1" xmlns="http://www.w3.org/2000/svg" xmlns:xlink="http://www.w3.org/1999/xlink" width="600" height="600" style="width: 600px; height: 600px;"><defs><clipPath id="COOrwwcTxTqR"><path fill="none" stroke="none" d=" M 52 5 L 570 5 L 570 555 L 52 555 L 52 5 Z"/></clipPath><clipPath id="vTOJvzEmiOlV"><path fill="none" stroke="none" d=" M 52 5 L 570 5 L 570 555 L 52 555 L 52 5 Z"/></clipPath><clipPath id="gGZnuTJPdZsD"><path fill="none" stroke="none" d=" M 52 5 L 570 5 L 570 555 L 52 555 L 52 5 Z"/></clipPath><clipPath id="PoxxikstMRlN"><path fill="none" stroke="none" d=" M 52 5 L 570 5 L 570 555 L 52 555 L 52 5 Z"/></clipPath><clipPath id="WuVVFHsJCAVl"><path fill="none" stroke="none" d=" M 52 5 L 570 5 L 570 555 L 52 555 L 52 5 Z"/></clipPath><clipPath id="heWUiLbbmTJS"><path fill="none" stroke="none" d=" M 52 5 L 570 5 L 570 555 L 52 555 L 52 5 Z"/></clipPath></defs><g><g transform="scale(1,1) translate(0.5,0.5)"><rect fill="#FFFFFF" stroke="none" x="0" y="0" width="600" height="600"/><rect fill="#ffffff" stroke="none" x="0" y="0" width="600" height="600"/><rect fill="#FFFFFF" stroke="none" x="52" y="5" width="518" height="550"/><rect fill="#ffffff" stroke="none" x="52" y="5" width="518" height="550"/><g><rect fill="none" stroke="#e5e5e5" x="52" y="5" width="518" height="550" stroke-linejoin="bevel" stroke-miterlimit="10"/></g><g clip-path="url(#COOrwwcTxTqR)"><g><g><path fill="none" stroke="#e5e5e5" paint-order="fill stroke markers" d=" M 73 555 L 73 5" stroke-linejoin="bevel" stroke-miterlimit="10"/><path fill="none" stroke="#e5e5e5" paint-order="fill stroke markers" d=" M 155 555 L 155 5" stroke-linejoin="bevel" stroke-miterlimit="10"/><path fill="none" stroke="#e5e5e5" paint-order="fill stroke markers" d=" M 237 555 L 237 5" stroke-linejoin="bevel" stroke-miterlimit="10"/><path fill="none" stroke="#e5e5e5" paint-order="fill stroke markers" d=" M 319 555 L 319 5" stroke-linejoin="bevel" stroke-miterlimit="10"/><path fill="none" stroke="#e5e5e5" paint-order="fill stroke markers" d=" M 401 555 L 401 5" stroke-linejoin="bevel" stroke-miterlimit="10"/><path fill="none" stroke="#e5e5e5" paint-order="fill stroke markers" d=" M 483 555 L 483 5" stroke-linejoin="bevel" stroke-miterlimit="10"/><path fill="none" stroke="#e5e5e5" paint-order="fill stroke markers" d=" M 565 555 L 565 5" stroke-linejoin="bevel" stroke-miterlimit="10"/></g></g></g><g clip-path="url(#vTOJvzEmiOlV)"><g><g><path fill="none" stroke="#e5e5e5" paint-order="fill stroke markers" d=" M 52 530 L 570 530" stroke-linejoin="bevel" stroke-miterlimit="10"/><path fill="none" stroke="#e5e5e5" paint-order="fill stroke markers" d=" M 52 441 L 570 441" stroke-linejoin="bevel" stroke-miterlimit="10"/><path fill="none" stroke="#e5e5e5" paint-order="fill stroke markers" d=" M 52 351 L 570 351" stroke-linejoin="bevel" stroke-miterlimit="10"/><path fill="none" stroke="#e5e5e5" paint-order="fill stroke markers" d=" M 52 262 L 570 262" stroke-linejoin="bevel" stroke-miterlimit="10"/><path fill="none" stroke="#e5e5e5" paint-order="fill stroke markers" d=" M 52 172 L 570 172" stroke-linejoin="bevel" stroke-miterlimit="10"/><path fill="none" stroke="#e5e5e5" paint-order="fill stroke markers" d=" M 52 83 L 570 83" stroke-linejoin="bevel" stroke-miterlimit="10"/></g></g></g><g clip-path="url(#gGZnuTJPdZsD)"><g><g><path fill="none" stroke="#e5e5e5" paint-order="fill stroke markers" d=" M 73 555 L 73 5" stroke-linejoin="bevel" stroke-miterlimit="10"/><path fill="none" stroke="#e5e5e5" paint-order="fill stroke markers" d=" M 155 555 L 155 5" stroke-linejoin="bevel" stroke-miterlimit="10"/><path fill="none" stroke="#e5e5e5" paint-order="fill stroke markers" d=" M 237 555 L 237 5" stroke-linejoin="bevel" stroke-miterlimit="10"/><path fill="none" stroke="#e5e5e5" paint-order="fill stroke markers" d=" M 319 555 L 319 5" stroke-linejoin="bevel" stroke-miterlimit="10"/><path fill="none" stroke="#e5e5e5" paint-order="fill stroke markers" d=" M 401 555 L 401 5" stroke-linejoin="bevel" stroke-miterlimit="10"/><path fill="none" stroke="#e5e5e5" paint-order="fill stroke markers" d=" M 483 555 L 483 5" stroke-linejoin="bevel" stroke-miterlimit="10"/><path fill="none" stroke="#e5e5e5" paint-order="fill stroke markers" d=" M 565 555 L 565 5" stroke-linejoin="bevel" stroke-miterlimit="10"/></g></g></g><g clip-path="url(#PoxxikstMRlN)"><g><g><path fill="none" stroke="#e5e5e5" paint-order="fill stroke markers" d=" M 52 530 L 570 530" stroke-linejoin="bevel" stroke-miterlimit="10"/><path fill="none" stroke="#e5e5e5" paint-order="fill stroke markers" d=" M 52 441 L 570 441" stroke-linejoin="bevel" stroke-miterlimit="10"/><path fill="none" stroke="#e5e5e5" paint-order="fill stroke markers" d=" M 52 351 L 570 351" stroke-linejoin="bevel" stroke-miterlimit="10"/><path fill="none" stroke="#e5e5e5" paint-order="fill stroke markers" d=" M 52 262 L 570 262" stroke-linejoin="bevel" stroke-miterlimit="10"/><path fill="none" stroke="#e5e5e5" paint-order="fill stroke markers" d=" M 52 172 L 570 172" stroke-linejoin="bevel" stroke-miterlimit="10"/><path fill="none" stroke="#e5e5e5" paint-order="fill stroke markers" d=" M 52 83 L 570 83" stroke-linejoin="bevel" stroke-miterlimit="10"/></g></g></g><g clip-path="url(#WuVVFHsJCAVl)"><g><g><path fill="none" stroke="none"/><path fill="#1f77b4" stroke="none" paint-order="stroke fill markers" d=" M 75.54545454545314 452.1824686940966 L 79.20221193818998 452.1824686940966 L 79.20221193818998 530 L 75.54545454545314 530 L 75.54545454545314 452.1824686940966 Z"/><path fill="none" stroke="#1f77b4" paint-order="fill stroke markers" d=" M 75.54545454545314 452.1824686940966 L 79.20221193818998 452.1824686940966 L 79.20221193818998 530 L 75.54545454545314 530 L 75.54545454545314 452.1824686940966 Z" stroke-linejoin="bevel" stroke-miterlimit="10"/><path fill="#1f77b4" stroke="none" paint-order="stroke fill markers" d=" M 79.60851831516084 504.0608228980322 L 83.26527570789767 504.0608228980322 L 83.26527570789767 530 L 79.60851831516084 530 L 79.60851831516084 504.0608228980322 Z"/><path fill="none" stroke="#1f77b4" paint-order="fill stroke markers" d=" M 79.60851831516084 504.0608228980322 L 83.26527570789767 504.0608228980322 L 83.26527570789767 530 L 79.60851831516084 530 L 79.60851831516084 504.0608228980322 Z" stroke-linejoin="bevel" stroke-miterlimit="10"/><path fill="#1f77b4" stroke="none" paint-order="stroke fill markers" d=" M 83.67158208486762 505.84973166368513 L 87.32833947760446 505.84973166368513 L 87.32833947760446 530 L 83.67158208486762 530 L 83.67158208486762 505.84973166368513 Z"/><path fill="none" stroke="#1f77b4" paint-order="fill stroke markers" d=" M 83.67158208486762 505.84973166368513 L 87.32833947760446 505.84973166368513 L 87.32833947760446 530 L 83.67158208486762 530 L 83.67158208486762 505.84973166368513 Z" stroke-linejoin="bevel" stroke-miterlimit="10"/><path fill="#1f77b4" stroke="none" paint-order="stroke fill markers" d=" M 87.73464585457532 488.8550983899821 L 91.39140324731216 488.8550983899821 L 91.39140324731216 530 L 87.73464585457532 530 L 87.73464585457532 488.8550983899821 Z"/><path fill="none" stroke="#1f77b4" paint-order="fill stroke markers" d=" M 87.73464585457532 488.8550983899821 L 91.39140324731216 488.8550983899821 L 91.39140324731216 530 L 87.73464585457532 530 L 87.73464585457532 488.8550983899821 Z" stroke-linejoin="bevel" stroke-miterlimit="10"/><path fill="#1f77b4" stroke="none" paint-order="stroke fill markers" d=" M 91.79770962428302 489.7495527728086 L 95.45446701701985 489.7495527728086 L 95.45446701701985 530 L 91.79770962428302 530 L 91.79770962428302 489.7495527728086 Z"/><path fill="none" stroke="#1f77b4" paint-order="fill stroke markers" d=" M 91.79770962428302 489.7495527728086 L 95.45446701701985 489.7495527728086 L 95.45446701701985 530 L 91.79770962428302 530 L 91.79770962428302 489.7495527728086 Z" stroke-linejoin="bevel" stroke-miterlimit="10"/><path fill="#1f77b4" stroke="none" paint-order="stroke fill markers" d=" M 95.86077339399117 463.8103756708408 L 99.5175307867271 463.8103756708408 L 99.5175307867271 530 L 95.86077339399117 530 L 95.86077339399117 463.8103756708408 Z"/><path fill="none" stroke="#1f77b4" paint-order="fill stroke markers" d=" M 95.86077339399117 463.8103756708408 L 99.5175307867271 463.8103756708408 L 99.5175307867271 530 L 95.86077339399117 530 L 95.86077339399117 463.8103756708408 Z" stroke-linejoin="bevel" stroke-miterlimit="10"/><path fill="#1f77b4" stroke="none" paint-order="stroke fill markers" d=" M 99.92383716369795 447.71019677996424 L 103.58059455643388 447.71019677996424 L 103.58059455643388 530 L 99.92383716369795 530 L 99.92383716369795 447.71019677996424 Z"/><path fill="none" stroke="#1f77b4" paint-order="fill stroke markers" d=" M 99.92383716369795 447.71019677996424 L 103.58059455643388 447.71019677996424 L 103.58059455643388 530 L 99.92383716369795 530 L 99.92383716369795 447.71019677996424 Z" stroke-linejoin="bevel" stroke-miterlimit="10"/><path fill="#1f77b4" stroke="none" paint-order="stroke fill markers" d=" M 103.98690093340565 471.8604651162791 L 107.64365832614158 471.8604651162791 L 107.64365832614158 530 L 103.98690093340565 530 L 103.98690093340565 471.8604651162791 Z"/><path fill="none" stroke="#1f77b4" paint-order="fill stroke markers" d=" M 103.98690093340565 471.8604651162791 L 107.64365832614158 471.8604651162791 L 107.64365832614158 530 L 103.98690093340565 530 L 103.98690093340565 471.8604651162791 Z" stroke-linejoin="bevel" stroke-miterlimit="10"/><path fill="#1f77b4" stroke="none" paint-order="stroke fill markers" d=" M 108.04996470311335 453.0769230769231 L 111.70672209584927 453.0769230769231 L 111.70672209584927 530 L 108.04996470311335 530 L 108.04996470311335 453.0769230769231 Z"/><path fill="none" stroke="#1f77b4" paint-order="fill stroke markers" d=" M 108.04996470311335 453.0769230769231 L 111.70672209584927 453.0769230769231 L 111.70672209584927 530 L 108.04996470311335 530 L 108.04996470311335 453.0769230769231 Z" stroke-linejoin="bevel" stroke-miterlimit="10"/><path fill="#1f77b4" stroke="none" paint-order="stroke fill markers" d=" M 112.11302847282104 445.9212880143113 L 115.76978586555697 445.9212880143113 L 115.76978586555697 530 L 112.11302847282104 530 L 112.11302847282104 445.9212880143113 Z"/><path fill="none" stroke="#1f77b4" paint-order="fill stroke markers" d=" M 112.11302847282104 445.9212880143113 L 115.76978586555697 445.9212880143113 L 115.76978586555697 530 L 112.11302847282104 530 L 112.11302847282104 445.9212880143113 Z" stroke-linejoin="bevel" stroke-miterlimit="10"/><path fill="#1f77b4" stroke="none" paint-order="stroke fill markers" d=" M 116.17609224252783 410.1431127012522 L 119.83284963526376 410.1431127012522 L 119.83284963526376 530 L 116.17609224252783 530 L 116.17609224252783 410.1431127012522 Z"/><path fill="none" stroke="#1f77b4" paint-order="fill stroke markers" d=" M 116.17609224252783 410.1431127012522 L 119.83284963526376 410.1431127012522 L 119.83284963526376 530 L 116.17609224252783 530 L 116.17609224252783 410.1431127012522 Z" stroke-linejoin="bevel" stroke-miterlimit="10"/><path fill="#1f77b4" stroke="none" paint-order="stroke fill markers" d=" M 120.23915601223553 464.70483005366725 L 123.89591340497145 464.70483005366725 L 123.89591340497145 530 L 120.23915601223553 530 L 120.23915601223553 464.70483005366725 Z"/><path fill="none" stroke="#1f77b4" paint-order="fill stroke markers" d=" M 120.23915601223553 464.70483005366725 L 123.89591340497145 464.70483005366725 L 123.89591340497145 530 L 120.23915601223553 530 L 120.23915601223553 464.70483005366725 Z" stroke-linejoin="bevel" stroke-miterlimit="10"/><path fill="#1f77b4" stroke="none" paint-order="stroke fill markers" d=" M 124.30221978194322 459.3381037567084 L 127.95897717467915 459.3381037567084 L 127.95897717467915 530 L 124.30221978194322 530 L 124.30221978194322 459.3381037567084 Z"/><path fill="none" stroke="#1f77b4" paint-order="fill stroke markers" d=" M 124.30221978194322 459.3381037567084 L 127.95897717467915 459.3381037567084 L 127.95897717467915 530 L 124.30221978194322 530 L 124.30221978194322 459.3381037567084 Z" stroke-linejoin="bevel" stroke-miterlimit="10"/><path fill="#1f77b4" stroke="none" paint-order="stroke fill markers" d=" M 128.36528355165 478.1216457960644 L 132.02204094438594 478.1216457960644 L 132.02204094438594 530 L 128.36528355165 530 L 128.36528355165 478.1216457960644 Z"/><path fill="none" stroke="#1f77b4" paint-order="fill stroke markers" d=" M 128.36528355165 478.1216457960644 L 132.02204094438594 478.1216457960644 L 132.02204094438594 530 L 128.36528355165 530 L 128.36528355165 478.1216457960644 Z" stroke-linejoin="bevel" stroke-miterlimit="10"/><path fill="#1f77b4" stroke="none" paint-order="stroke fill markers" d=" M 132.4283473213568 481.6994633273703 L 136.08510471409272 481.6994633273703 L 136.08510471409272 530 L 132.4283473213568 530 L 132.4283473213568 481.6994633273703 Z"/><path fill="none" stroke="#1f77b4" paint-order="fill stroke markers" d=" M 132.4283473213568 481.6994633273703 L 136.08510471409272 481.6994633273703 L 136.08510471409272 530 L 132.4283473213568 530 L 132.4283473213568 481.6994633273703 Z" stroke-linejoin="bevel" stroke-miterlimit="10"/><path fill="#1f77b4" stroke="none" paint-order="stroke fill markers" d=" M 136.4914110910645 472.75491949910554 L 140.14816848380042 472.75491949910554 L 140.14816848380042 530 L 136.4914110910645 530 L 136.4914110910645 472.75491949910554 Z"/><path fill="none" stroke="#1f77b4" paint-order="fill stroke markers" d=" M 136.4914110910645 472.75491949910554 L 140.14816848380042 472.75491949910554 L 140.14816848380042 530 L 136.4914110910645 530 L 136.4914110910645 472.75491949910554 Z" stroke-linejoin="bevel" stroke-miterlimit="10"/><path fill="#1f77b4" stroke="none" paint-order="stroke fill markers" d=" M 140.5544748607722 459.3381037567084 L 144.21123225350811 459.3381037567084 L 144.21123225350811 530 L 140.5544748607722 530 L 140.5544748607722 459.3381037567084 Z"/><path fill="none" stroke="#1f77b4" paint-order="fill stroke markers" d=" M 140.5544748607722 459.3381037567084 L 144.21123225350811 459.3381037567084 L 144.21123225350811 530 L 140.5544748607722 530 L 140.5544748607722 459.3381037567084 Z" stroke-linejoin="bevel" stroke-miterlimit="10"/><path fill="#1f77b4" stroke="none" paint-order="stroke fill markers" d=" M 144.61753863047988 479.9105545617174 L 148.2742960232158 479.9105545617174 L 148.2742960232158 530 L 144.61753863047988 530 L 144.61753863047988 479.9105545617174 Z"/><path fill="none" stroke="#1f77b4" paint-order="fill stroke markers" d=" M 144.61753863047988 479.9105545617174 L 148.2742960232158 479.9105545617174 L 148.2742960232158 530 L 144.61753863047988 530 L 144.61753863047988 479.9105545617174 Z" stroke-linejoin="bevel" stroke-miterlimit="10"/><path fill="#1f77b4" stroke="none" paint-order="stroke fill markers" d=" M 148.68060240018667 422.66547406082293 L 152.3373597929226 422.66547406082293 L 152.3373597929226 530 L 148.68060240018667 530 L 148.68060240018667 422.66547406082293 Z"/><path fill="none" stroke="#1f77b4" paint-order="fill stroke markers" d=" M 148.68060240018667 422.66547406082293 L 152.3373597929226 422.66547406082293 L 152.3373597929226 530 L 148.68060240018667 530 L 148.68060240018667 422.66547406082293 Z" stroke-linejoin="bevel" stroke-miterlimit="10"/><path fill="#1f77b4" stroke="none" paint-order="stroke fill markers" d=" M 152.74366616989437 451.2880143112701 L 156.4004235626303 451.2880143112701 L 156.4004235626303 530 L 152.74366616989437 530 L 152.74366616989437 451.2880143112701 Z"/><path fill="none" stroke="#1f77b4" paint-order="fill stroke markers" d=" M 152.74366616989437 451.2880143112701 L 156.4004235626303 451.2880143112701 L 156.4004235626303 530 L 152.74366616989437 530 L 152.74366616989437 451.2880143112701 Z" stroke-linejoin="bevel" stroke-miterlimit="10"/><path fill="#1f77b4" stroke="none" paint-order="stroke fill markers" d=" M 156.8067299396016 442.3434704830054 L 160.46348733233845 442.3434704830054 L 160.46348733233845 530 L 156.8067299396016 530 L 156.8067299396016 442.3434704830054 Z"/><path fill="none" stroke="#1f77b4" paint-order="fill stroke markers" d=" M 156.8067299396016 442.3434704830054 L 160.46348733233845 442.3434704830054 L 160.46348733233845 530 L 156.8067299396016 530 L 156.8067299396016 442.3434704830054 Z" stroke-linejoin="bevel" stroke-miterlimit="10"/><path fill="#1f77b4" stroke="none" paint-order="stroke fill markers" d=" M 160.8697937093093 462.0214669051878 L 164.52655110204614 462.0214669051878 L 164.52655110204614 530 L 160.8697937093093 530 L 160.8697937093093 462.0214669051878 Z"/><path fill="none" stroke="#1f77b4" paint-order="fill stroke markers" d=" M 160.8697937093093 462.0214669051878 L 164.52655110204614 462.0214669051878 L 164.52655110204614 530 L 160.8697937093093 530 L 160.8697937093093 462.0214669051878 Z" stroke-linejoin="bevel" stroke-miterlimit="10"/><path fill="#1f77b4" stroke="none" paint-order="stroke fill markers" d=" M 164.9328574790161 445.0268336314848 L 168.58961487175293 445.0268336314848 L 168.58961487175293 530 L 164.9328574790161 530 L 164.9328574790161 445.0268336314848 Z"/><path fill="none" stroke="#1f77b4" paint-order="fill stroke markers" d=" M 164.9328574790161 445.0268336314848 L 168.58961487175293 445.0268336314848 L 168.58961487175293 530 L 164.9328574790161 530 L 164.9328574790161 445.0268336314848 Z" stroke-linejoin="bevel" stroke-miterlimit="10"/><path fill="#1f77b4" stroke="none" paint-order="stroke fill markers" d=" M 168.9959212487238 454.86583184257603 L 172.65267864146062 454.86583184257603 L 172.65267864146062 530 L 168.9959212487238 530 L 168.9959212487238 454.86583184257603 Z"/><path fill="none" stroke="#1f77b4" paint-order="fill stroke markers" d=" M 168.9959212487238 454.86583184257603 L 172.65267864146062 454.86583184257603 L 172.65267864146062 530 L 168.9959212487238 530 L 168.9959212487238 454.86583184257603 Z" stroke-linejoin="bevel" stroke-miterlimit="10"/><path fill="#1f77b4" stroke="none" paint-order="stroke fill markers" d=" M 173.05898501843149 405.67084078711986 L 176.71574241116832 405.67084078711986 L 176.71574241116832 530 L 173.05898501843149 530 L 173.05898501843149 405.67084078711986 Z"/><path fill="none" stroke="#1f77b4" paint-order="fill stroke markers" d=" M 173.05898501843149 405.67084078711986 L 176.71574241116832 405.67084078711986 L 176.71574241116832 530 L 173.05898501843149 530 L 173.05898501843149 405.67084078711986 Z" stroke-linejoin="bevel" stroke-miterlimit="10"/><path fill="#1f77b4" stroke="none" paint-order="stroke fill markers" d=" M 177.12204878813918 382.4150268336315 L 180.77880618087602 382.4150268336315 L 180.77880618087602 530 L 177.12204878813918 530 L 177.12204878813918 382.4150268336315 Z"/><path fill="none" stroke="#1f77b4" paint-order="fill stroke markers" d=" M 177.12204878813918 382.4150268336315 L 180.77880618087602 382.4150268336315 L 180.77880618087602 530 L 177.12204878813918 530 L 177.12204878813918 382.4150268336315 Z" stroke-linejoin="bevel" stroke-miterlimit="10"/><path fill="#1f77b4" stroke="none" paint-order="stroke fill markers" d=" M 181.18511255784597 368.99821109123434 L 184.8418699505828 368.99821109123434 L 184.8418699505828 530 L 181.18511255784597 530 L 181.18511255784597 368.99821109123434 Z"/><path fill="none" stroke="#1f77b4" paint-order="fill stroke markers" d=" M 181.18511255784597 368.99821109123434 L 184.8418699505828 368.99821109123434 L 184.8418699505828 530 L 181.18511255784597 530 L 181.18511255784597 368.99821109123434 Z" stroke-linejoin="bevel" stroke-miterlimit="10"/><path fill="#1f77b4" stroke="none" paint-order="stroke fill markers" d=" M 185.24817632755367 427.1377459749553 L 188.9049337202905 427.1377459749553 L 188.9049337202905 530 L 185.24817632755367 530 L 185.24817632755367 427.1377459749553 Z"/><path fill="none" stroke="#1f77b4" paint-order="fill stroke markers" d=" M 185.24817632755367 427.1377459749553 L 188.9049337202905 427.1377459749553 L 188.9049337202905 530 L 185.24817632755367 530 L 185.24817632755367 427.1377459749553 Z" stroke-linejoin="bevel" stroke-miterlimit="10"/><path fill="#1f77b4" stroke="none" paint-order="stroke fill markers" d=" M 189.31124009726182 417.29874776386407 L 192.96799748999774 417.29874776386407 L 192.96799748999774 530 L 189.31124009726182 530 L 189.31124009726182 417.29874776386407 Z"/><path fill="none" stroke="#1f77b4" paint-order="fill stroke markers" d=" M 189.31124009726182 417.29874776386407 L 192.96799748999774 417.29874776386407 L 192.96799748999774 530 L 189.31124009726182 530 L 189.31124009726182 417.29874776386407 Z" stroke-linejoin="bevel" stroke-miterlimit="10"/><path fill="#1f77b4" stroke="none" paint-order="stroke fill markers" d=" M 193.3743038669695 428.0322003577818 L 197.03106125970544 428.0322003577818 L 197.03106125970544 530 L 193.3743038669695 530 L 193.3743038669695 428.0322003577818 Z"/><path fill="none" stroke="#1f77b4" paint-order="fill stroke markers" d=" M 193.3743038669695 428.0322003577818 L 197.03106125970544 428.0322003577818 L 197.03106125970544 530 L 193.3743038669695 530 L 193.3743038669695 428.0322003577818 Z" stroke-linejoin="bevel" stroke-miterlimit="10"/><path fill="#1f77b4" stroke="none" paint-order="stroke fill markers" d=" M 197.4373676366772 449.49910554561717 L 201.09412502941314 449.49910554561717 L 201.09412502941314 530 L 197.4373676366772 530 L 197.4373676366772 449.49910554561717 Z"/><path fill="none" stroke="#1f77b4" paint-order="fill stroke markers" d=" M 197.4373676366772 449.49910554561717 L 201.09412502941314 449.49910554561717 L 201.09412502941314 530 L 197.4373676366772 530 L 197.4373676366772 449.49910554561717 Z" stroke-linejoin="bevel" stroke-miterlimit="10"/><path fill="#1f77b4" stroke="none" paint-order="stroke fill markers" d=" M 201.500431406384 475.43828264758497 L 205.15718879911992 475.43828264758497 L 205.15718879911992 530 L 201.500431406384 530 L 201.500431406384 475.43828264758497 Z"/><path fill="none" stroke="#1f77b4" paint-order="fill stroke markers" d=" M 201.500431406384 475.43828264758497 L 205.15718879911992 475.43828264758497 L 205.15718879911992 530 L 201.500431406384 530 L 201.500431406384 475.43828264758497 Z" stroke-linejoin="bevel" stroke-miterlimit="10"/><path fill="#1f77b4" stroke="none" paint-order="stroke fill markers" d=" M 205.5634951760917 496.0107334525939 L 209.22025256882762 496.0107334525939 L 209.22025256882762 530 L 205.5634951760917 530 L 205.5634951760917 496.0107334525939 Z"/><path fill="none" stroke="#1f77b4" paint-order="fill stroke markers" d=" M 205.5634951760917 496.0107334525939 L 209.22025256882762 496.0107334525939 L 209.22025256882762 530 L 205.5634951760917 530 L 205.5634951760917 496.0107334525939 Z" stroke-linejoin="bevel" stroke-miterlimit="10"/><path fill="#1f77b4" stroke="none" paint-order="stroke fill markers" d=" M 209.6265589457994 503.1663685152057 L 213.28331633853531 503.1663685152057 L 213.28331633853531 530 L 209.6265589457994 530 L 209.6265589457994 503.1663685152057 Z"/><path fill="none" stroke="#1f77b4" paint-order="fill stroke markers" d=" M 209.6265589457994 503.1663685152057 L 213.28331633853531 503.1663685152057 L 213.28331633853531 530 L 209.6265589457994 530 L 209.6265589457994 503.1663685152057 Z" stroke-linejoin="bevel" stroke-miterlimit="10"/><path fill="#1f77b4" stroke="none" paint-order="stroke fill markers" d=" M 213.68962271550708 511.216457960644 L 217.346380108243 511.216457960644 L 217.346380108243 530 L 213.68962271550708 530 L 213.68962271550708 511.216457960644 Z"/><path fill="none" stroke="#1f77b4" paint-order="fill stroke markers" d=" M 213.68962271550708 511.216457960644 L 217.346380108243 511.216457960644 L 217.346380108243 530 L 213.68962271550708 530 L 213.68962271550708 511.216457960644 Z" stroke-linejoin="bevel" stroke-miterlimit="10"/><path fill="#1f77b4" stroke="none" paint-order="stroke fill markers" d=" M 217.75268648521296 508.53309481216456 L 221.4094438779489 508.53309481216456 L 221.4094438779489 530 L 217.75268648521296 530 L 217.75268648521296 508.53309481216456 Z"/><path fill="none" stroke="#1f77b4" paint-order="fill stroke markers" d=" M 217.75268648521296 508.53309481216456 L 221.4094438779489 508.53309481216456 L 221.4094438779489 530 L 217.75268648521296 530 L 217.75268648521296 508.53309481216456 Z" stroke-linejoin="bevel" stroke-miterlimit="10"/><path fill="#1f77b4" stroke="none" paint-order="stroke fill markers" d=" M 221.81575025492066 494.221824686941 L 225.47250764765658 494.221824686941 L 225.47250764765658 530 L 221.81575025492066 530 L 221.81575025492066 494.221824686941 Z"/><path fill="none" stroke="#1f77b4" paint-order="fill stroke markers" d=" M 221.81575025492066 494.221824686941 L 225.47250764765658 494.221824686941 L 225.47250764765658 530 L 221.81575025492066 530 L 221.81575025492066 494.221824686941 Z" stroke-linejoin="bevel" stroke-miterlimit="10"/><path fill="#1f77b4" stroke="none" paint-order="stroke fill markers" d=" M 225.87881402462835 469.1771019677997 L 229.53557141736428 469.1771019677997 L 229.53557141736428 530 L 225.87881402462835 530 L 225.87881402462835 469.1771019677997 Z"/><path fill="none" stroke="#1f77b4" paint-order="fill stroke markers" d=" M 225.87881402462835 469.1771019677997 L 229.53557141736428 469.1771019677997 L 229.53557141736428 530 L 225.87881402462835 530 L 225.87881402462835 469.1771019677997 Z" stroke-linejoin="bevel" stroke-miterlimit="10"/><path fill="#1f77b4" stroke="none" paint-order="stroke fill markers" d=" M 229.94187779433605 483.48837209302326 L 233.59863518707198 483.48837209302326 L 233.59863518707198 530 L 229.94187779433605 530 L 229.94187779433605 483.48837209302326 Z"/><path fill="none" stroke="#1f77b4" paint-order="fill stroke markers" d=" M 229.94187779433605 483.48837209302326 L 233.59863518707198 483.48837209302326 L 233.59863518707198 530 L 229.94187779433605 530 L 229.94187779433605 483.48837209302326 Z" stroke-linejoin="bevel" stroke-miterlimit="10"/><path fill="#1f77b4" stroke="none" paint-order="stroke fill markers" d=" M 234.00494156404284 435.1878354203936 L 237.66169895677876 435.1878354203936 L 237.66169895677876 530 L 234.00494156404284 530 L 234.00494156404284 435.1878354203936 Z"/><path fill="none" stroke="#1f77b4" paint-order="fill stroke markers" d=" M 234.00494156404284 435.1878354203936 L 237.66169895677876 435.1878354203936 L 237.66169895677876 530 L 234.00494156404284 530 L 234.00494156404284 435.1878354203936 Z" stroke-linejoin="bevel" stroke-miterlimit="10"/><path fill="#1f77b4" stroke="none" paint-order="stroke fill markers" d=" M 238.06800533375053 390.4651162790698 L 241.72476272648646 390.4651162790698 L 241.72476272648646 530 L 238.06800533375053 530 L 238.06800533375053 390.4651162790698 Z"/><path fill="none" stroke="#1f77b4" paint-order="fill stroke markers" d=" M 238.06800533375053 390.4651162790698 L 241.72476272648646 390.4651162790698 L 241.72476272648646 530 L 238.06800533375053 530 L 238.06800533375053 390.4651162790698 Z" stroke-linejoin="bevel" stroke-miterlimit="10"/><path fill="#1f77b4" stroke="none" paint-order="stroke fill markers" d=" M 242.13106910345823 385.9928443649374 L 245.78782649619416 385.9928443649374 L 245.78782649619416 530 L 242.13106910345823 530 L 242.13106910345823 385.9928443649374 Z"/><path fill="none" stroke="#1f77b4" paint-order="fill stroke markers" d=" M 242.13106910345823 385.9928443649374 L 245.78782649619416 385.9928443649374 L 245.78782649619416 530 L 242.13106910345823 530 L 242.13106910345823 385.9928443649374 Z" stroke-linejoin="bevel" stroke-miterlimit="10"/><path fill="#1f77b4" stroke="none" paint-order="stroke fill markers" d=" M 246.19413287316593 330.5366726296959 L 249.85089026590185 330.5366726296959 L 249.85089026590185 530 L 246.19413287316593 530 L 246.19413287316593 330.5366726296959 Z"/><path fill="none" stroke="#1f77b4" paint-order="fill stroke markers" d=" M 246.19413287316593 330.5366726296959 L 249.85089026590185 330.5366726296959 L 249.85089026590185 530 L 246.19413287316593 530 L 246.19413287316593 330.5366726296959 Z" stroke-linejoin="bevel" stroke-miterlimit="10"/><path fill="#1f77b4" stroke="none" paint-order="stroke fill markers" d=" M 250.25719664287226 377.9427549194991 L 253.9139540356091 377.9427549194991 L 253.9139540356091 530 L 250.25719664287226 530 L 250.25719664287226 377.9427549194991 Z"/><path fill="none" stroke="#1f77b4" paint-order="fill stroke markers" d=" M 250.25719664287226 377.9427549194991 L 253.9139540356091 377.9427549194991 L 253.9139540356091 530 L 250.25719664287226 530 L 250.25719664287226 377.9427549194991 Z" stroke-linejoin="bevel" stroke-miterlimit="10"/><path fill="#1f77b4" stroke="none" paint-order="stroke fill markers" d=" M 254.32026041257996 404.7763864042934 L 257.9770178053168 404.7763864042934 L 257.9770178053168 530 L 254.32026041257996 530 L 254.32026041257996 404.7763864042934 Z"/><path fill="none" stroke="#1f77b4" paint-order="fill stroke markers" d=" M 254.32026041257996 404.7763864042934 L 257.9770178053168 404.7763864042934 L 257.9770178053168 530 L 254.32026041257996 530 L 254.32026041257996 404.7763864042934 Z" stroke-linejoin="bevel" stroke-miterlimit="10"/><path fill="#1f77b4" stroke="none" paint-order="stroke fill markers" d=" M 258.38332418228765 445.0268336314848 L 262.0400815750245 445.0268336314848 L 262.0400815750245 530 L 258.38332418228765 530 L 258.38332418228765 445.0268336314848 Z"/><path fill="none" stroke="#1f77b4" paint-order="fill stroke markers" d=" M 258.38332418228765 445.0268336314848 L 262.0400815750245 445.0268336314848 L 262.0400815750245 530 L 258.38332418228765 530 L 258.38332418228765 445.0268336314848 Z" stroke-linejoin="bevel" stroke-miterlimit="10"/><path fill="#1f77b4" stroke="none" paint-order="stroke fill markers" d=" M 262.44638795199535 417.29874776386407 L 266.1031453447322 417.29874776386407 L 266.1031453447322 530 L 262.44638795199535 530 L 262.44638795199535 417.29874776386407 Z"/><path fill="none" stroke="#1f77b4" paint-order="fill stroke markers" d=" M 262.44638795199535 417.29874776386407 L 266.1031453447322 417.29874776386407 L 266.1031453447322 530 L 262.44638795199535 530 L 262.44638795199535 417.29874776386407 Z" stroke-linejoin="bevel" stroke-miterlimit="10"/><path fill="#1f77b4" stroke="none" paint-order="stroke fill markers" d=" M 266.50945172170213 295.65295169946336 L 270.16620911443897 295.65295169946336 L 270.16620911443897 530 L 266.50945172170213 530 L 266.50945172170213 295.65295169946336 Z"/><path fill="none" stroke="#1f77b4" paint-order="fill stroke markers" d=" M 266.50945172170213 295.65295169946336 L 270.16620911443897 295.65295169946336 L 270.16620911443897 530 L 266.50945172170213 530 L 266.50945172170213 295.65295169946336 Z" stroke-linejoin="bevel" stroke-miterlimit="10"/><path fill="#1f77b4" stroke="none" paint-order="stroke fill markers" d=" M 270.57251549140983 320.6976744186047 L 274.22927288414667 320.6976744186047 L 274.22927288414667 530 L 270.57251549140983 530 L 270.57251549140983 320.6976744186047 Z"/><path fill="none" stroke="#1f77b4" paint-order="fill stroke markers" d=" M 270.57251549140983 320.6976744186047 L 274.22927288414667 320.6976744186047 L 274.22927288414667 530 L 270.57251549140983 530 L 270.57251549140983 320.6976744186047 Z" stroke-linejoin="bevel" stroke-miterlimit="10"/><path fill="#1f77b4" stroke="none" paint-order="stroke fill markers" d=" M 274.6355792611175 355.58139534883725 L 278.29233665385436 355.58139534883725 L 278.29233665385436 530 L 274.6355792611175 530 L 274.6355792611175 355.58139534883725 Z"/><path fill="none" stroke="#1f77b4" paint-order="fill stroke markers" d=" M 274.6355792611175 355.58139534883725 L 278.29233665385436 355.58139534883725 L 278.29233665385436 530 L 274.6355792611175 530 L 274.6355792611175 355.58139534883725 Z" stroke-linejoin="bevel" stroke-miterlimit="10"/><path fill="#1f77b4" stroke="none" paint-order="stroke fill markers" d=" M 278.6986430308252 307.2808586762076 L 282.35540042356206 307.2808586762076 L 282.35540042356206 530 L 278.6986430308252 530 L 278.6986430308252 307.2808586762076 Z"/><path fill="none" stroke="#1f77b4" paint-order="fill stroke markers" d=" M 278.6986430308252 307.2808586762076 L 282.35540042356206 307.2808586762076 L 282.35540042356206 530 L 278.6986430308252 530 L 278.6986430308252 307.2808586762076 Z" stroke-linejoin="bevel" stroke-miterlimit="10"/><path fill="#1f77b4" stroke="none" paint-order="stroke fill markers" d=" M 282.76170680053247 325.169946332737 L 286.4184641932684 325.169946332737 L 286.4184641932684 530 L 282.76170680053247 530 L 282.76170680053247 325.169946332737 Z"/><path fill="none" stroke="#1f77b4" paint-order="fill stroke markers" d=" M 282.76170680053247 325.169946332737 L 286.4184641932684 325.169946332737 L 286.4184641932684 530 L 282.76170680053247 530 L 282.76170680053247 325.169946332737 Z" stroke-linejoin="bevel" stroke-miterlimit="10"/><path fill="#1f77b4" stroke="none" paint-order="stroke fill markers" d=" M 286.82477057024016 333.2200357781753 L 290.4815279629761 333.2200357781753 L 290.4815279629761 530 L 286.82477057024016 530 L 286.82477057024016 333.2200357781753 Z"/><path fill="none" stroke="#1f77b4" paint-order="fill stroke markers" d=" M 286.82477057024016 333.2200357781753 L 290.4815279629761 333.2200357781753 L 290.4815279629761 530 L 286.82477057024016 530 L 286.82477057024016 333.2200357781753 Z" stroke-linejoin="bevel" stroke-miterlimit="10"/><path fill="#1f77b4" stroke="none" paint-order="stroke fill markers" d=" M 290.88783433994786 331.4311270125224 L 294.5445917326838 331.4311270125224 L 294.5445917326838 530 L 290.88783433994786 530 L 290.88783433994786 331.4311270125224 Z"/><path fill="none" stroke="#1f77b4" paint-order="fill stroke markers" d=" M 290.88783433994786 331.4311270125224 L 294.5445917326838 331.4311270125224 L 294.5445917326838 530 L 290.88783433994786 530 L 290.88783433994786 331.4311270125224 Z" stroke-linejoin="bevel" stroke-miterlimit="10"/><path fill="#1f77b4" stroke="none" paint-order="stroke fill markers" d=" M 294.95089810965555 257.1914132379249 L 298.6076555023915 257.1914132379249 L 298.6076555023915 530 L 294.95089810965555 530 L 294.95089810965555 257.1914132379249 Z"/><path fill="none" stroke="#1f77b4" paint-order="fill stroke markers" d=" M 294.95089810965555 257.1914132379249 L 298.6076555023915 257.1914132379249 L 298.6076555023915 530 L 294.95089810965555 530 L 294.95089810965555 257.1914132379249 Z" stroke-linejoin="bevel" stroke-miterlimit="10"/><path fill="#1f77b4" stroke="none" paint-order="stroke fill markers" d=" M 299.01396187936234 287.60286225402507 L 302.67071927209827 287.60286225402507 L 302.67071927209827 530 L 299.01396187936234 530 L 299.01396187936234 287.60286225402507 Z"/><path fill="none" stroke="#1f77b4" paint-order="fill stroke markers" d=" M 299.01396187936234 287.60286225402507 L 302.67071927209827 287.60286225402507 L 302.67071927209827 530 L 299.01396187936234 530 L 299.01396187936234 287.60286225402507 Z" stroke-linejoin="bevel" stroke-miterlimit="10"/><path fill="#1f77b4" stroke="none" paint-order="stroke fill markers" d=" M 303.07702564907004 352.8980322003578 L 306.73378304180596 352.8980322003578 L 306.73378304180596 530 L 303.07702564907004 530 L 303.07702564907004 352.8980322003578 Z"/><path fill="none" stroke="#1f77b4" paint-order="fill stroke markers" d=" M 303.07702564907004 352.8980322003578 L 306.73378304180596 352.8980322003578 L 306.73378304180596 530 L 303.07702564907004 530 L 303.07702564907004 352.8980322003578 Z" stroke-linejoin="bevel" stroke-miterlimit="10"/><path fill="#1f77b4" stroke="none" paint-order="stroke fill markers" d=" M 307.14008941877773 352.8980322003578 L 310.79684681151366 352.8980322003578 L 310.79684681151366 530 L 307.14008941877773 530 L 307.14008941877773 352.8980322003578 Z"/><path fill="none" stroke="#1f77b4" paint-order="fill stroke markers" d=" M 307.14008941877773 352.8980322003578 L 310.79684681151366 352.8980322003578 L 310.79684681151366 530 L 307.14008941877773 530 L 307.14008941877773 352.8980322003578 Z" stroke-linejoin="bevel" stroke-miterlimit="10"/><path fill="#1f77b4" stroke="none" paint-order="stroke fill markers" d=" M 311.20315318848543 329.64221824686945 L 314.85991058122136 329.64221824686945 L 314.85991058122136 530 L 311.20315318848543 530 L 311.20315318848543 329.64221824686945 Z"/><path fill="none" stroke="#1f77b4" paint-order="fill stroke markers" d=" M 311.20315318848543 329.64221824686945 L 314.85991058122136 329.64221824686945 L 314.85991058122136 530 L 311.20315318848543 530 L 311.20315318848543 329.64221824686945 Z" stroke-linejoin="bevel" stroke-miterlimit="10"/><path fill="#1f77b4" stroke="none" paint-order="stroke fill markers" d=" M 315.2662169581922 231.2522361359571 L 318.92297435092814 231.2522361359571 L 318.92297435092814 530 L 315.2662169581922 530 L 315.2662169581922 231.2522361359571 Z"/><path fill="none" stroke="#1f77b4" paint-order="fill stroke markers" d=" M 315.2662169581922 231.2522361359571 L 318.92297435092814 231.2522361359571 L 318.92297435092814 530 L 315.2662169581922 530 L 315.2662169581922 231.2522361359571 Z" stroke-linejoin="bevel" stroke-miterlimit="10"/><path fill="#1f77b4" stroke="none" paint-order="stroke fill markers" d=" M 319.329280727899 308.175313059034 L 322.98603812063493 308.175313059034 L 322.98603812063493 530 L 319.329280727899 530 L 319.329280727899 308.175313059034 Z"/><path fill="none" stroke="#1f77b4" paint-order="fill stroke markers" d=" M 319.329280727899 308.175313059034 L 322.98603812063493 308.175313059034 L 322.98603812063493 530 L 319.329280727899 530 L 319.329280727899 308.175313059034 Z" stroke-linejoin="bevel" stroke-miterlimit="10"/><path fill="#1f77b4" stroke="none" paint-order="stroke fill markers" d=" M 323.3923444976067 329.64221824686945 L 327.0491018903426 329.64221824686945 L 327.0491018903426 530 L 323.3923444976067 530 L 323.3923444976067 329.64221824686945 Z"/><path fill="none" stroke="#1f77b4" paint-order="fill stroke markers" d=" M 323.3923444976067 329.64221824686945 L 327.0491018903426 329.64221824686945 L 327.0491018903426 530 L 323.3923444976067 530 L 323.3923444976067 329.64221824686945 Z" stroke-linejoin="bevel" stroke-miterlimit="10"/><path fill="#1f77b4" stroke="none" paint-order="stroke fill markers" d=" M 327.4554082673144 250.93023255813955 L 331.1121656600503 250.93023255813955 L 331.1121656600503 530 L 327.4554082673144 530 L 327.4554082673144 250.93023255813955 Z"/><path fill="none" stroke="#1f77b4" paint-order="fill stroke markers" d=" M 327.4554082673144 250.93023255813955 L 331.1121656600503 250.93023255813955 L 331.1121656600503 530 L 327.4554082673144 530 L 327.4554082673144 250.93023255813955 Z" stroke-linejoin="bevel" stroke-miterlimit="10"/><path fill="#1f77b4" stroke="none" paint-order="stroke fill markers" d=" M 331.5184720370221 301.9141323792487 L 335.175229429758 301.9141323792487 L 335.175229429758 530 L 331.5184720370221 530 L 331.5184720370221 301.9141323792487 Z"/><path fill="none" stroke="#1f77b4" paint-order="fill stroke markers" d=" M 331.5184720370221 301.9141323792487 L 335.175229429758 301.9141323792487 L 335.175229429758 530 L 331.5184720370221 530 L 331.5184720370221 301.9141323792487 Z" stroke-linejoin="bevel" stroke-miterlimit="10"/><path fill="#1f77b4" stroke="none" paint-order="stroke fill markers" d=" M 335.5815358067289 376.1538461538462 L 339.2382931994648 376.1538461538462 L 339.2382931994648 530 L 335.5815358067289 530 L 335.5815358067289 376.1538461538462 Z"/><path fill="none" stroke="#1f77b4" paint-order="fill stroke markers" d=" M 335.5815358067289 376.1538461538462 L 339.2382931994648 376.1538461538462 L 339.2382931994648 530 L 335.5815358067289 530 L 335.5815358067289 376.1538461538462 Z" stroke-linejoin="bevel" stroke-miterlimit="10"/><path fill="#1f77b4" stroke="none" paint-order="stroke fill markers" d=" M 339.6445995764366 362.73703041144904 L 343.3013569691725 362.73703041144904 L 343.3013569691725 530 L 339.6445995764366 530 L 339.6445995764366 362.73703041144904 Z"/><path fill="none" stroke="#1f77b4" paint-order="fill stroke markers" d=" M 339.6445995764366 362.73703041144904 L 343.3013569691725 362.73703041144904 L 343.3013569691725 530 L 339.6445995764366 530 L 339.6445995764366 362.73703041144904 Z" stroke-linejoin="bevel" stroke-miterlimit="10"/><path fill="#1f77b4" stroke="none" paint-order="stroke fill markers" d=" M 343.7076633461438 307.2808586762076 L 347.36442073888065 307.2808586762076 L 347.36442073888065 530 L 343.7076633461438 530 L 343.7076633461438 307.2808586762076 Z"/><path fill="none" stroke="#1f77b4" paint-order="fill stroke markers" d=" M 343.7076633461438 307.2808586762076 L 347.36442073888065 307.2808586762076 L 347.36442073888065 530 L 343.7076633461438 530 L 343.7076633461438 307.2808586762076 Z" stroke-linejoin="bevel" stroke-miterlimit="10"/><path fill="#1f77b4" stroke="none" paint-order="stroke fill markers" d=" M 347.7707271158515 216.94096601073352 L 351.42748450858835 216.94096601073352 L 351.42748450858835 530 L 347.7707271158515 530 L 347.7707271158515 216.94096601073352 Z"/><path fill="none" stroke="#1f77b4" paint-order="fill stroke markers" d=" M 347.7707271158515 216.94096601073352 L 351.42748450858835 216.94096601073352 L 351.42748450858835 530 L 347.7707271158515 530 L 347.7707271158515 216.94096601073352 Z" stroke-linejoin="bevel" stroke-miterlimit="10"/><path fill="#1f77b4" stroke="none" paint-order="stroke fill markers" d=" M 351.8337908855583 189.21288014311273 L 355.49054827829514 189.21288014311273 L 355.49054827829514 530 L 351.8337908855583 530 L 351.8337908855583 189.21288014311273 Z"/><path fill="none" stroke="#1f77b4" paint-order="fill stroke markers" d=" M 351.8337908855583 189.21288014311273 L 355.49054827829514 189.21288014311273 L 355.49054827829514 530 L 351.8337908855583 530 L 351.8337908855583 189.21288014311273 Z" stroke-linejoin="bevel" stroke-miterlimit="10"/><path fill="#1f77b4" stroke="none" paint-order="stroke fill markers" d=" M 355.896854655266 279.55277280858684 L 359.55361204800283 279.55277280858684 L 359.55361204800283 530 L 355.896854655266 530 L 355.896854655266 279.55277280858684 Z"/><path fill="none" stroke="#1f77b4" paint-order="fill stroke markers" d=" M 355.896854655266 279.55277280858684 L 359.55361204800283 279.55277280858684 L 359.55361204800283 530 L 355.896854655266 530 L 355.896854655266 279.55277280858684 Z" stroke-linejoin="bevel" stroke-miterlimit="10"/><path fill="#1f77b4" stroke="none" paint-order="stroke fill markers" d=" M 359.9599184249737 411.9320214669052 L 363.61667581771053 411.9320214669052 L 363.61667581771053 530 L 359.9599184249737 530 L 359.9599184249737 411.9320214669052 Z"/><path fill="none" stroke="#1f77b4" paint-order="fill stroke markers" d=" M 359.9599184249737 411.9320214669052 L 363.61667581771053 411.9320214669052 L 363.61667581771053 530 L 359.9599184249737 530 L 359.9599184249737 411.9320214669052 Z" stroke-linejoin="bevel" stroke-miterlimit="10"/><path fill="#1f77b4" stroke="none" paint-order="stroke fill markers" d=" M 364.0229821946814 436.9767441860465 L 367.6797395874182 436.9767441860465 L 367.6797395874182 530 L 364.0229821946814 530 L 364.0229821946814 436.9767441860465 Z"/><path fill="none" stroke="#1f77b4" paint-order="fill stroke markers" d=" M 364.0229821946814 436.9767441860465 L 367.6797395874182 436.9767441860465 L 367.6797395874182 530 L 364.0229821946814 530 L 364.0229821946814 436.9767441860465 Z" stroke-linejoin="bevel" stroke-miterlimit="10"/><path fill="#1f77b4" stroke="none" paint-order="stroke fill markers" d=" M 368.0860459643882 396.72629695885513 L 371.742803357125 396.72629695885513 L 371.742803357125 530 L 368.0860459643882 530 L 368.0860459643882 396.72629695885513 Z"/><path fill="none" stroke="#1f77b4" paint-order="fill stroke markers" d=" M 368.0860459643882 396.72629695885513 L 371.742803357125 396.72629695885513 L 371.742803357125 530 L 368.0860459643882 530 L 368.0860459643882 396.72629695885513 Z" stroke-linejoin="bevel" stroke-miterlimit="10"/><path fill="#1f77b4" stroke="none" paint-order="stroke fill markers" d=" M 372.1491097340959 396.72629695885513 L 375.8058671268327 396.72629695885513 L 375.8058671268327 530 L 372.1491097340959 530 L 372.1491097340959 396.72629695885513 Z"/><path fill="none" stroke="#1f77b4" paint-order="fill stroke markers" d=" M 372.1491097340959 396.72629695885513 L 375.8058671268327 396.72629695885513 L 375.8058671268327 530 L 372.1491097340959 530 L 372.1491097340959 396.72629695885513 Z" stroke-linejoin="bevel" stroke-miterlimit="10"/><path fill="#1f77b4" stroke="none" paint-order="stroke fill markers" d=" M 376.212173503804 385.0983899821109 L 379.86893089653995 385.0983899821109 L 379.86893089653995 530 L 376.212173503804 530 L 376.212173503804 385.0983899821109 Z"/><path fill="none" stroke="#1f77b4" paint-order="fill stroke markers" d=" M 376.212173503804 385.0983899821109 L 379.86893089653995 385.0983899821109 L 379.86893089653995 530 L 376.212173503804 530 L 376.212173503804 385.0983899821109 Z" stroke-linejoin="bevel" stroke-miterlimit="10"/><path fill="#1f77b4" stroke="none" paint-order="stroke fill markers" d=" M 380.2752372735117 360.94812164579605 L 383.93199466624765 360.94812164579605 L 383.93199466624765 530 L 380.2752372735117 530 L 380.2752372735117 360.94812164579605 Z"/><path fill="none" stroke="#1f77b4" paint-order="fill stroke markers" d=" M 380.2752372735117 360.94812164579605 L 383.93199466624765 360.94812164579605 L 383.93199466624765 530 L 380.2752372735117 530 L 380.2752372735117 360.94812164579605 Z" stroke-linejoin="bevel" stroke-miterlimit="10"/><path fill="#1f77b4" stroke="none" paint-order="stroke fill markers" d=" M 384.3383010432185 303.70304114490165 L 387.99505843595443 303.70304114490165 L 387.99505843595443 530 L 384.3383010432185 530 L 384.3383010432185 303.70304114490165 Z"/><path fill="none" stroke="#1f77b4" paint-order="fill stroke markers" d=" M 384.3383010432185 303.70304114490165 L 387.99505843595443 303.70304114490165 L 387.99505843595443 530 L 384.3383010432185 530 L 384.3383010432185 303.70304114490165 Z" stroke-linejoin="bevel" stroke-miterlimit="10"/><path fill="#1f77b4" stroke="none" paint-order="stroke fill markers" d=" M 388.4013648129262 157.01252236135963 L 392.05812220566213 157.01252236135963 L 392.05812220566213 530 L 388.4013648129262 530 L 388.4013648129262 157.01252236135963 Z"/><path fill="none" stroke="#1f77b4" paint-order="fill stroke markers" d=" M 388.4013648129262 157.01252236135963 L 392.05812220566213 157.01252236135963 L 392.05812220566213 530 L 388.4013648129262 530 L 388.4013648129262 157.01252236135963 Z" stroke-linejoin="bevel" stroke-miterlimit="10"/><path fill="#1f77b4" stroke="none" paint-order="stroke fill markers" d=" M 392.4644285826339 183.84615384615392 L 396.1211859753698 183.84615384615392 L 396.1211859753698 530 L 392.4644285826339 530 L 392.4644285826339 183.84615384615392 Z"/><path fill="none" stroke="#1f77b4" paint-order="fill stroke markers" d=" M 392.4644285826339 183.84615384615392 L 396.1211859753698 183.84615384615392 L 396.1211859753698 530 L 392.4644285826339 530 L 392.4644285826339 183.84615384615392 Z" stroke-linejoin="bevel" stroke-miterlimit="10"/><path fill="#1f77b4" stroke="none" paint-order="stroke fill markers" d=" M 396.5274923523416 223.20214669051882 L 400.1842497450775 223.20214669051882 L 400.1842497450775 530 L 396.5274923523416 530 L 396.5274923523416 223.20214669051882 Z"/><path fill="none" stroke="#1f77b4" paint-order="fill stroke markers" d=" M 396.5274923523416 223.20214669051882 L 400.1842497450775 223.20214669051882 L 400.1842497450775 530 L 396.5274923523416 530 L 396.5274923523416 223.20214669051882 Z" stroke-linejoin="bevel" stroke-miterlimit="10"/><path fill="#1f77b4" stroke="none" paint-order="stroke fill markers" d=" M 400.5905561220484 315.33094812164586 L 404.2473135147843 315.33094812164586 L 404.2473135147843 530 L 400.5905561220484 530 L 400.5905561220484 315.33094812164586 Z"/><path fill="none" stroke="#1f77b4" paint-order="fill stroke markers" d=" M 400.5905561220484 315.33094812164586 L 404.2473135147843 315.33094812164586 L 404.2473135147843 530 L 400.5905561220484 530 L 400.5905561220484 315.33094812164586 Z" stroke-linejoin="bevel" stroke-miterlimit="10"/><path fill="#1f77b4" stroke="none" paint-order="stroke fill markers" d=" M 404.65361989175517 352.0035778175313 L 408.3103772844911 352.0035778175313 L 408.3103772844911 530 L 404.65361989175517 530 L 404.65361989175517 352.0035778175313 Z"/><path fill="none" stroke="#1f77b4" paint-order="fill stroke markers" d=" M 404.65361989175517 352.0035778175313 L 408.3103772844911 352.0035778175313 L 408.3103772844911 530 L 404.65361989175517 530 L 404.65361989175517 352.0035778175313 Z" stroke-linejoin="bevel" stroke-miterlimit="10"/><path fill="#1f77b4" stroke="none" paint-order="stroke fill markers" d=" M 408.71668366146287 436.0822898032201 L 412.3734410541988 436.0822898032201 L 412.3734410541988 530 L 408.71668366146287 530 L 408.71668366146287 436.0822898032201 Z"/><path fill="none" stroke="#1f77b4" paint-order="fill stroke markers" d=" M 408.71668366146287 436.0822898032201 L 412.3734410541988 436.0822898032201 L 412.3734410541988 530 L 408.71668366146287 530 L 408.71668366146287 436.0822898032201 Z" stroke-linejoin="bevel" stroke-miterlimit="10"/><path fill="#1f77b4" stroke="none" paint-order="stroke fill markers" d=" M 412.77974743117056 340.37567084078717 L 416.4365048239065 340.37567084078717 L 416.4365048239065 530 L 412.77974743117056 530 L 412.77974743117056 340.37567084078717 Z"/><path fill="none" stroke="#1f77b4" paint-order="fill stroke markers" d=" M 412.77974743117056 340.37567084078717 L 416.4365048239065 340.37567084078717 L 416.4365048239065 530 L 412.77974743117056 530 L 412.77974743117056 340.37567084078717 Z" stroke-linejoin="bevel" stroke-miterlimit="10"/><path fill="#1f77b4" stroke="none" paint-order="stroke fill markers" d=" M 416.84281120087735 325.169946332737 L 420.4995685936133 325.169946332737 L 420.4995685936133 530 L 416.84281120087735 530 L 416.84281120087735 325.169946332737 Z"/><path fill="none" stroke="#1f77b4" paint-order="fill stroke markers" d=" M 416.84281120087735 325.169946332737 L 420.4995685936133 325.169946332737 L 420.4995685936133 530 L 416.84281120087735 530 L 416.84281120087735 325.169946332737 Z" stroke-linejoin="bevel" stroke-miterlimit="10"/><path fill="#1f77b4" stroke="none" paint-order="stroke fill markers" d=" M 420.90587497058505 326.95885509839 L 424.562632363321 326.95885509839 L 424.562632363321 530 L 420.90587497058505 530 L 420.90587497058505 326.95885509839 Z"/><path fill="none" stroke="#1f77b4" paint-order="fill stroke markers" d=" M 420.90587497058505 326.95885509839 L 424.562632363321 326.95885509839 L 424.562632363321 530 L 420.90587497058505 530 L 420.90587497058505 326.95885509839 Z" stroke-linejoin="bevel" stroke-miterlimit="10"/><path fill="#1f77b4" stroke="none" paint-order="stroke fill markers" d=" M 424.96893874029274 337.69230769230774 L 428.62569613302867 337.69230769230774 L 428.62569613302867 530 L 424.96893874029274 530 L 424.96893874029274 337.69230769230774 Z"/><path fill="none" stroke="#1f77b4" paint-order="fill stroke markers" d=" M 424.96893874029274 337.69230769230774 L 428.62569613302867 337.69230769230774 L 428.62569613302867 530 L 424.96893874029274 530 L 424.96893874029274 337.69230769230774 Z" stroke-linejoin="bevel" stroke-miterlimit="10"/><path fill="#1f77b4" stroke="none" paint-order="stroke fill markers" d=" M 429.03200251000044 267.0304114490161 L 432.68875990273636 267.0304114490161 L 432.68875990273636 530 L 429.03200251000044 530 L 429.03200251000044 267.0304114490161 Z"/><path fill="none" stroke="#1f77b4" paint-order="fill stroke markers" d=" M 429.03200251000044 267.0304114490161 L 432.68875990273636 267.0304114490161 L 432.68875990273636 530 L 429.03200251000044 530 L 429.03200251000044 267.0304114490161 Z" stroke-linejoin="bevel" stroke-miterlimit="10"/><path fill="#1f77b4" stroke="none" paint-order="stroke fill markers" d=" M 433.09506627970813 288.49731663685156 L 436.75182367244406 288.49731663685156 L 436.75182367244406 530 L 433.09506627970813 530 L 433.09506627970813 288.49731663685156 Z"/><path fill="none" stroke="#1f77b4" paint-order="fill stroke markers" d=" M 433.09506627970813 288.49731663685156 L 436.75182367244406 288.49731663685156 L 436.75182367244406 530 L 433.09506627970813 530 L 433.09506627970813 288.49731663685156 Z" stroke-linejoin="bevel" stroke-miterlimit="10"/><path fill="#1f77b4" stroke="none" paint-order="stroke fill markers" d=" M 437.15813004941447 270.60822898032205 L 440.8148874421513 270.60822898032205 L 440.8148874421513 530 L 437.15813004941447 530 L 437.15813004941447 270.60822898032205 Z"/><path fill="none" stroke="#1f77b4" paint-order="fill stroke markers" d=" M 437.15813004941447 270.60822898032205 L 440.8148874421513 270.60822898032205 L 440.8148874421513 530 L 437.15813004941447 530 L 437.15813004941447 270.60822898032205 Z" stroke-linejoin="bevel" stroke-miterlimit="10"/><path fill="#1f77b4" stroke="none" paint-order="stroke fill markers" d=" M 441.22119381912216 246.4579606440072 L 444.877951211859 246.4579606440072 L 444.877951211859 530 L 441.22119381912216 530 L 441.22119381912216 246.4579606440072 Z"/><path fill="none" stroke="#1f77b4" paint-order="fill stroke markers" d=" M 441.22119381912216 246.4579606440072 L 444.877951211859 246.4579606440072 L 444.877951211859 530 L 441.22119381912216 530 L 441.22119381912216 246.4579606440072 Z" stroke-linejoin="bevel" stroke-miterlimit="10"/><path fill="#1f77b4" stroke="none" paint-order="stroke fill markers" d=" M 445.28425758882986 329.64221824686945 L 448.9410149815667 329.64221824686945 L 448.9410149815667 530 L 445.28425758882986 530 L 445.28425758882986 329.64221824686945 Z"/><path fill="none" stroke="#1f77b4" paint-order="fill stroke markers" d=" M 445.28425758882986 329.64221824686945 L 448.9410149815667 329.64221824686945 L 448.9410149815667 530 L 445.28425758882986 530 L 445.28425758882986 329.64221824686945 Z" stroke-linejoin="bevel" stroke-miterlimit="10"/><path fill="#1f77b4" stroke="none" paint-order="stroke fill markers" d=" M 449.34732135853756 352.8980322003578 L 453.0040787512744 352.8980322003578 L 453.0040787512744 530 L 449.34732135853756 530 L 449.34732135853756 352.8980322003578 Z"/><path fill="none" stroke="#1f77b4" paint-order="fill stroke markers" d=" M 449.34732135853756 352.8980322003578 L 453.0040787512744 352.8980322003578 L 453.0040787512744 530 L 449.34732135853756 530 L 449.34732135853756 352.8980322003578 Z" stroke-linejoin="bevel" stroke-miterlimit="10"/><path fill="#1f77b4" stroke="none" paint-order="stroke fill markers" d=" M 453.41038512824434 349.3202146690519 L 457.0671425209812 349.3202146690519 L 457.0671425209812 530 L 453.41038512824434 530 L 453.41038512824434 349.3202146690519 Z"/><path fill="none" stroke="#1f77b4" paint-order="fill stroke markers" d=" M 453.41038512824434 349.3202146690519 L 457.0671425209812 349.3202146690519 L 457.0671425209812 530 L 453.41038512824434 530 L 453.41038512824434 349.3202146690519 Z" stroke-linejoin="bevel" stroke-miterlimit="10"/><path fill="#1f77b4" stroke="none" paint-order="stroke fill markers" d=" M 457.47344889795204 307.2808586762076 L 461.1302062906889 307.2808586762076 L 461.1302062906889 530 L 457.47344889795204 530 L 457.47344889795204 307.2808586762076 Z"/><path fill="none" stroke="#1f77b4" paint-order="fill stroke markers" d=" M 457.47344889795204 307.2808586762076 L 461.1302062906889 307.2808586762076 L 461.1302062906889 530 L 457.47344889795204 530 L 457.47344889795204 307.2808586762076 Z" stroke-linejoin="bevel" stroke-miterlimit="10"/><path fill="#1f77b4" stroke="none" paint-order="stroke fill markers" d=" M 461.53651266765974 378.8372093023256 L 465.19327006039657 378.8372093023256 L 465.19327006039657 530 L 461.53651266765974 530 L 461.53651266765974 378.8372093023256 Z"/><path fill="none" stroke="#1f77b4" paint-order="fill stroke markers" d=" M 461.53651266765974 378.8372093023256 L 465.19327006039657 378.8372093023256 L 465.19327006039657 530 L 461.53651266765974 530 L 461.53651266765974 378.8372093023256 Z" stroke-linejoin="bevel" stroke-miterlimit="10"/><path fill="#1f77b4" stroke="none" paint-order="stroke fill markers" d=" M 465.59957643736743 356.47584973166374 L 469.25633383010427 356.47584973166374 L 469.25633383010427 530 L 465.59957643736743 530 L 465.59957643736743 356.47584973166374 Z"/><path fill="none" stroke="#1f77b4" paint-order="fill stroke markers" d=" M 465.59957643736743 356.47584973166374 L 469.25633383010427 356.47584973166374 L 469.25633383010427 530 L 465.59957643736743 530 L 465.59957643736743 356.47584973166374 Z" stroke-linejoin="bevel" stroke-miterlimit="10"/><path fill="#1f77b4" stroke="none" paint-order="stroke fill markers" d=" M 469.6626402070747 371.68157423971377 L 473.3193975998106 371.68157423971377 L 473.3193975998106 530 L 469.6626402070747 530 L 469.6626402070747 371.68157423971377 Z"/><path fill="none" stroke="#1f77b4" paint-order="fill stroke markers" d=" M 469.6626402070747 371.68157423971377 L 473.3193975998106 371.68157423971377 L 473.3193975998106 530 L 469.6626402070747 530 L 469.6626402070747 371.68157423971377 Z" stroke-linejoin="bevel" stroke-miterlimit="10"/><path fill="#1f77b4" stroke="none" paint-order="stroke fill markers" d=" M 473.72570397678237 316.2254025044723 L 477.3824613695183 316.2254025044723 L 477.3824613695183 530 L 473.72570397678237 530 L 473.72570397678237 316.2254025044723 Z"/><path fill="none" stroke="#1f77b4" paint-order="fill stroke markers" d=" M 473.72570397678237 316.2254025044723 L 477.3824613695183 316.2254025044723 L 477.3824613695183 530 L 473.72570397678237 530 L 473.72570397678237 316.2254025044723 Z" stroke-linejoin="bevel" stroke-miterlimit="10"/><path fill="#1f77b4" stroke="none" paint-order="stroke fill markers" d=" M 477.78876774649007 294.75849731663686 L 481.445525139226 294.75849731663686 L 481.445525139226 530 L 477.78876774649007 530 L 477.78876774649007 294.75849731663686 Z"/><path fill="none" stroke="#1f77b4" paint-order="fill stroke markers" d=" M 477.78876774649007 294.75849731663686 L 481.445525139226 294.75849731663686 L 481.445525139226 530 L 477.78876774649007 530 L 477.78876774649007 294.75849731663686 Z" stroke-linejoin="bevel" stroke-miterlimit="10"/><path fill="#1f77b4" stroke="none" paint-order="stroke fill markers" d=" M 481.8518315161964 335.0089445438283 L 485.50858890893323 335.0089445438283 L 485.50858890893323 530 L 481.8518315161964 530 L 481.8518315161964 335.0089445438283 Z"/><path fill="none" stroke="#1f77b4" paint-order="fill stroke markers" d=" M 481.8518315161964 335.0089445438283 L 485.50858890893323 335.0089445438283 L 485.50858890893323 530 L 481.8518315161964 530 L 481.8518315161964 335.0089445438283 Z" stroke-linejoin="bevel" stroke-miterlimit="10"/><path fill="#1f77b4" stroke="none" paint-order="stroke fill markers" d=" M 485.9148952859032 257.1914132379249 L 489.57165267864 257.1914132379249 L 489.57165267864 530 L 485.9148952859032 530 L 485.9148952859032 257.1914132379249 Z"/><path fill="none" stroke="#1f77b4" paint-order="fill stroke markers" d=" M 485.9148952859032 257.1914132379249 L 489.57165267864 257.1914132379249 L 489.57165267864 530 L 485.9148952859032 530 L 485.9148952859032 257.1914132379249 Z" stroke-linejoin="bevel" stroke-miterlimit="10"/><path fill="#1f77b4" stroke="none" paint-order="stroke fill markers" d=" M 489.9779590556118 331.4311270125224 L 493.6347164483486 331.4311270125224 L 493.6347164483486 530 L 489.9779590556118 530 L 489.9779590556118 331.4311270125224 Z"/><path fill="none" stroke="#1f77b4" paint-order="fill stroke markers" d=" M 489.9779590556118 331.4311270125224 L 493.6347164483486 331.4311270125224 L 493.6347164483486 530 L 489.9779590556118 530 L 489.9779590556118 331.4311270125224 Z" stroke-linejoin="bevel" stroke-miterlimit="10"/><path fill="#1f77b4" stroke="none" paint-order="stroke fill markers" d=" M 494.0410228253186 154.3291592128802 L 497.6977802180554 154.3291592128802 L 497.6977802180554 530 L 494.0410228253186 530 L 494.0410228253186 154.3291592128802 Z"/><path fill="none" stroke="#1f77b4" paint-order="fill stroke markers" d=" M 494.0410228253186 154.3291592128802 L 497.6977802180554 154.3291592128802 L 497.6977802180554 530 L 494.0410228253186 530 L 494.0410228253186 154.3291592128802 Z" stroke-linejoin="bevel" stroke-miterlimit="10"/><path fill="#1f77b4" stroke="none" paint-order="stroke fill markers" d=" M 498.1040865950272 142.70125223613604 L 501.760843987764 142.70125223613604 L 501.760843987764 530 L 498.1040865950272 530 L 498.1040865950272 142.70125223613604 Z"/><path fill="none" stroke="#1f77b4" paint-order="fill stroke markers" d=" M 498.1040865950272 142.70125223613604 L 501.760843987764 142.70125223613604 L 501.760843987764 530 L 498.1040865950272 530 L 498.1040865950272 142.70125223613604 Z" stroke-linejoin="bevel" stroke-miterlimit="10"/><path fill="#1f77b4" stroke="none" paint-order="stroke fill markers" d=" M 502.16715036473397 127.4955277280859 L 505.8239077574708 127.4955277280859 L 505.8239077574708 530 L 502.16715036473397 530 L 502.16715036473397 127.4955277280859 Z"/><path fill="none" stroke="#1f77b4" paint-order="fill stroke markers" d=" M 502.16715036473397 127.4955277280859 L 505.8239077574708 127.4955277280859 L 505.8239077574708 530 L 502.16715036473397 530 L 502.16715036473397 127.4955277280859 Z" stroke-linejoin="bevel" stroke-miterlimit="10"/><path fill="#1f77b4" stroke="none" paint-order="stroke fill markers" d=" M 506.23021413444076 124.81216457960647 L 509.8869715271776 124.81216457960647 L 509.8869715271776 530 L 506.23021413444076 530 L 506.23021413444076 124.81216457960647 Z"/><path fill="none" stroke="#1f77b4" paint-order="fill stroke markers" d=" M 506.23021413444076 124.81216457960647 L 509.8869715271776 124.81216457960647 L 509.8869715271776 530 L 506.23021413444076 530 L 506.23021413444076 124.81216457960647 Z" stroke-linejoin="bevel" stroke-miterlimit="10"/><path fill="#1f77b4" stroke="none" paint-order="stroke fill markers" d=" M 510.29327790414936 157.01252236135963 L 513.9500352968862 157.01252236135963 L 513.9500352968862 530 L 510.29327790414936 530 L 510.29327790414936 157.01252236135963 Z"/><path fill="none" stroke="#1f77b4" paint-order="fill stroke markers" d=" M 510.29327790414936 157.01252236135963 L 513.9500352968862 157.01252236135963 L 513.9500352968862 530 L 510.29327790414936 530 L 510.29327790414936 157.01252236135963 Z" stroke-linejoin="bevel" stroke-miterlimit="10"/><path fill="#1f77b4" stroke="none" paint-order="stroke fill markers" d=" M 514.3563416738562 201.73524150268344 L 518.013099066593 201.73524150268344 L 518.013099066593 530 L 514.3563416738562 530 L 514.3563416738562 201.73524150268344 Z"/><path fill="none" stroke="#1f77b4" paint-order="fill stroke markers" d=" M 514.3563416738562 201.73524150268344 L 518.013099066593 201.73524150268344 L 518.013099066593 530 L 514.3563416738562 530 L 514.3563416738562 201.73524150268344 Z" stroke-linejoin="bevel" stroke-miterlimit="10"/><path fill="#1f77b4" stroke="none" paint-order="stroke fill markers" d=" M 518.4194054435638 324.2754919499106 L 522.0761628362989 324.2754919499106 L 522.0761628362989 530 L 518.4194054435638 530 L 518.4194054435638 324.2754919499106 Z"/><path fill="none" stroke="#1f77b4" paint-order="fill stroke markers" d=" M 518.4194054435638 324.2754919499106 L 522.0761628362989 324.2754919499106 L 522.0761628362989 530 L 518.4194054435638 530 L 518.4194054435638 324.2754919499106 Z" stroke-linejoin="bevel" stroke-miterlimit="10"/><path fill="#1f77b4" stroke="none" paint-order="stroke fill markers" d=" M 522.4824692132715 402.093023255814 L 526.1392266060084 402.093023255814 L 526.1392266060084 530 L 522.4824692132715 530 L 522.4824692132715 402.093023255814 Z"/><path fill="none" stroke="#1f77b4" paint-order="fill stroke markers" d=" M 522.4824692132715 402.093023255814 L 526.1392266060084 402.093023255814 L 526.1392266060084 530 L 522.4824692132715 530 L 522.4824692132715 402.093023255814 Z" stroke-linejoin="bevel" stroke-miterlimit="10"/><path fill="#1f77b4" stroke="none" paint-order="stroke fill markers" d=" M 526.5455329829792 413.72093023255815 L 530.2022903757143 413.72093023255815 L 530.2022903757143 530 L 526.5455329829792 530 L 526.5455329829792 413.72093023255815 Z"/><path fill="none" stroke="#1f77b4" paint-order="fill stroke markers" d=" M 526.5455329829792 413.72093023255815 L 530.2022903757143 413.72093023255815 L 530.2022903757143 530 L 526.5455329829792 530 L 526.5455329829792 413.72093023255815 Z" stroke-linejoin="bevel" stroke-miterlimit="10"/><path fill="#1f77b4" stroke="none" paint-order="stroke fill markers" d=" M 530.6085967526869 377.9427549194991 L 534.2653541454238 377.9427549194991 L 534.2653541454238 530 L 530.6085967526869 530 L 530.6085967526869 377.9427549194991 Z"/><path fill="none" stroke="#1f77b4" paint-order="fill stroke markers" d=" M 530.6085967526869 377.9427549194991 L 534.2653541454238 377.9427549194991 L 534.2653541454238 530 L 530.6085967526869 530 L 530.6085967526869 377.9427549194991 Z" stroke-linejoin="bevel" stroke-miterlimit="10"/><path fill="#1f77b4" stroke="none" paint-order="stroke fill markers" d=" M 534.6716605223937 350.2146690518784 L 538.3284179151306 350.2146690518784 L 538.3284179151306 530 L 534.6716605223937 530 L 534.6716605223937 350.2146690518784 Z"/><path fill="none" stroke="#1f77b4" paint-order="fill stroke markers" d=" M 534.6716605223937 350.2146690518784 L 538.3284179151306 350.2146690518784 L 538.3284179151306 530 L 534.6716605223937 530 L 534.6716605223937 350.2146690518784 Z" stroke-linejoin="bevel" stroke-miterlimit="10"/><path fill="#1f77b4" stroke="none" paint-order="stroke fill markers" d=" M 538.7347242921014 30.000000000000057 L 542.3914816848364 30.000000000000057 L 542.3914816848364 530 L 538.7347242921014 530 L 538.7347242921014 30.000000000000057 Z"/><path fill="none" stroke="#1f77b4" paint-order="fill stroke markers" d=" M 538.7347242921014 30.000000000000057 L 542.3914816848364 30.000000000000057 L 542.3914816848364 530 L 538.7347242921014 530 L 538.7347242921014 30.000000000000057 Z" stroke-linejoin="bevel" stroke-miterlimit="10"/><path fill="#1f77b4" stroke="none" paint-order="stroke fill markers" d=" M 542.7977880618091 496.0107334525939 L 546.454545454546 496.0107334525939 L 546.454545454546 530 L 542.7977880618091 530 L 542.7977880618091 496.0107334525939 Z"/><path fill="none" stroke="#1f77b4" paint-order="fill stroke markers" d=" M 542.7977880618091 496.0107334525939 L 546.454545454546 496.0107334525939 L 546.454545454546 530 L 542.7977880618091 530 L 542.7977880618091 496.0107334525939 Z" stroke-linejoin="bevel" stroke-miterlimit="10"/></g></g></g><g/><g/><g><g fill="#444444"><path fill="none" stroke="black" paint-order="fill stroke markers" d=" M 52 555 L 570 555" stroke-linejoin="bevel" stroke-miterlimit="10"/><path fill="none" stroke="black" paint-order="fill stroke markers" d=" M 73 561 L 73 553" stroke-linejoin="bevel" stroke-miterlimit="10"/><path fill="none" stroke="black" paint-order="fill stroke markers" d=" M 155 561 L 155 553" stroke-linejoin="bevel" stroke-miterlimit="10"/><path fill="none" stroke="black" paint-order="fill stroke markers" d=" M 237 561 L 237 553" stroke-linejoin="bevel" stroke-miterlimit="10"/><path fill="none" stroke="black" paint-order="fill stroke markers" d=" M 319 561 L 319 553" stroke-linejoin="bevel" stroke-miterlimit="10"/><path fill="none" stroke="black" paint-order="fill stroke markers" d=" M 401 561 L 401 553" stroke-linejoin="bevel" stroke-miterlimit="10"/><path fill="none" stroke="black" paint-order="fill stroke markers" d=" M 483 561 L 483 553" stroke-linejoin="bevel" stroke-miterlimit="10"/><path fill="none" stroke="black" paint-order="fill stroke markers" d=" M 565 561 L 565 553" stroke-linejoin="bevel" stroke-miterlimit="10"/><path fill="none" stroke="black" paint-order="fill stroke markers" d=" M 57 559 L 57 555" stroke-linejoin="bevel" stroke-miterlimit="10"/><path fill="none" stroke="black" paint-order="fill stroke markers" d=" M 73 559 L 73 555" stroke-linejoin="bevel" stroke-miterlimit="10"/><path fill="none" stroke="black" paint-order="fill stroke markers" d=" M 90 559 L 90 555" stroke-linejoin="bevel" stroke-miterlimit="10"/><path fill="none" stroke="black" paint-order="fill stroke markers" d=" M 106 559 L 106 555" stroke-linejoin="bevel" stroke-miterlimit="10"/><path fill="none" stroke="black" paint-order="fill stroke markers" d=" M 122 559 L 122 555" stroke-linejoin="bevel" stroke-miterlimit="10"/><path fill="none" stroke="black" paint-order="fill stroke markers" d=" M 139 559 L 139 555" stroke-linejoin="bevel" stroke-miterlimit="10"/><path fill="none" stroke="black" paint-order="fill stroke markers" d=" M 155 559 L 155 555" stroke-linejoin="bevel" stroke-miterlimit="10"/><path fill="none" stroke="black" paint-order="fill stroke markers" d=" M 172 559 L 172 555" stroke-linejoin="bevel" stroke-miterlimit="10"/><path fill="none" stroke="black" paint-order="fill stroke markers" d=" M 188 559 L 188 555" stroke-linejoin="bevel" stroke-miterlimit="10"/><path fill="none" stroke="black" paint-order="fill stroke markers" d=" M 204 559 L 204 555" stroke-linejoin="bevel" stroke-miterlimit="10"/><path fill="none" stroke="black" paint-order="fill stroke markers" d=" M 221 559 L 221 555" stroke-linejoin="bevel" stroke-miterlimit="10"/><path fill="none" stroke="black" paint-order="fill stroke markers" d=" M 237 559 L 237 555" stroke-linejoin="bevel" stroke-miterlimit="10"/><path fill="none" stroke="black" paint-order="fill stroke markers" d=" M 254 559 L 254 555" stroke-linejoin="bevel" stroke-miterlimit="10"/><path fill="none" stroke="black" paint-order="fill stroke markers" d=" M 270 559 L 270 555" stroke-linejoin="bevel" stroke-miterlimit="10"/><path fill="none" stroke="black" paint-order="fill stroke markers" d=" M 286 559 L 286 555" stroke-linejoin="bevel" stroke-miterlimit="10"/><path fill="none" stroke="black" paint-order="fill stroke markers" d=" M 303 559 L 303 555" stroke-linejoin="bevel" stroke-miterlimit="10"/><path fill="none" stroke="black" paint-order="fill stroke markers" d=" M 319 559 L 319 555" stroke-linejoin="bevel" stroke-miterlimit="10"/><path fill="none" stroke="black" paint-order="fill stroke markers" d=" M 336 559 L 336 555" stroke-linejoin="bevel" stroke-miterlimit="10"/><path fill="none" stroke="black" paint-order="fill stroke markers" d=" M 352 559 L 352 555" stroke-linejoin="bevel" stroke-miterlimit="10"/><path fill="none" stroke="black" paint-order="fill stroke markers" d=" M 368 559 L 368 555" stroke-linejoin="bevel" stroke-miterlimit="10"/><path fill="none" stroke="black" paint-order="fill stroke markers" d=" M 385 559 L 385 555" stroke-linejoin="bevel" stroke-miterlimit="10"/><path fill="none" stroke="black" paint-order="fill stroke markers" d=" M 401 559 L 401 555" stroke-linejoin="bevel" stroke-miterlimit="10"/><path fill="none" stroke="black" paint-order="fill stroke markers" d=" M 418 559 L 418 555" stroke-linejoin="bevel" stroke-miterlimit="10"/><path fill="none" stroke="black" paint-order="fill stroke markers" d=" M 434 559 L 434 555" stroke-linejoin="bevel" stroke-miterlimit="10"/><path fill="none" stroke="black" paint-order="fill stroke markers" d=" M 450 559 L 450 555" stroke-linejoin="bevel" stroke-miterlimit="10"/><path fill="none" stroke="black" paint-order="fill stroke markers" d=" M 467 559 L 467 555" stroke-linejoin="bevel" stroke-miterlimit="10"/><path fill="none" stroke="black" paint-order="fill stroke markers" d=" M 483 559 L 483 555" stroke-linejoin="bevel" stroke-miterlimit="10"/><path fill="none" stroke="black" paint-order="fill stroke markers" d=" M 500 559 L 500 555" stroke-linejoin="bevel" stroke-miterlimit="10"/><path fill="none" stroke="black" paint-order="fill stroke markers" d=" M 516 559 L 516 555" stroke-linejoin="bevel" stroke-miterlimit="10"/><path fill="none" stroke="black" paint-order="fill stroke markers" d=" M 532 559 L 532 555" stroke-linejoin="bevel" stroke-miterlimit="10"/><path fill="none" stroke="black" paint-order="fill stroke markers" d=" M 549 559 L 549 555" stroke-linejoin="bevel" stroke-miterlimit="10"/><path fill="" stroke="black" paint-order="fill stroke markers" d=" M 565 559 L 565 555" stroke-linejoin="bevel" stroke-miterlimit="10"/><g transform="translate(73,566) rotate(0,0,0)"><text fill="" stroke="none" font-family="helvetica" font-size="8pt" font-style="normal" font-weight="normal" text-decoration="normal" x="0" y="0" text-anchor="middle" dominant-baseline="hanging">1900</text><g transform="rotate(0,0,0) translate(-73,-566) translate(155,566) rotate(0,0,0)"><text fill="" stroke="none" font-family="helvetica" font-size="8pt" font-style="normal" font-weight="normal" text-decoration="normal" x="0" y="0" text-anchor="middle" dominant-baseline="hanging">1920</text><g transform="rotate(0,0,0) translate(-155,-566) translate(237,566) rotate(0,0,0)"><text fill="" stroke="none" font-family="helvetica" font-size="8pt" font-style="normal" font-weight="normal" text-decoration="normal" x="0" y="0" text-anchor="middle" dominant-baseline="hanging">1940</text><g transform="rotate(0,0,0) translate(-237,-566) translate(319,566) rotate(0,0,0)"><text fill="" stroke="none" font-family="helvetica" font-size="8pt" font-style="normal" font-weight="normal" text-decoration="normal" x="0" y="0" text-anchor="middle" dominant-baseline="hanging">1960</text><g transform="rotate(0,0,0) translate(-319,-566) translate(401,566) rotate(0,0,0)"><text fill="" stroke="none" font-family="helvetica" font-size="8pt" font-style="normal" font-weight="normal" text-decoration="normal" x="0" y="0" text-anchor="middle" dominant-baseline="hanging">1980</text><g transform="rotate(0,0,0) translate(-401,-566) translate(483,566) rotate(0,0,0)"><text fill="" stroke="none" font-family="helvetica" font-size="8pt" font-style="normal" font-weight="normal" text-decoration="normal" x="0" y="0" text-anchor="middle" dominant-baseline="hanging">2000</text><g transform="rotate(0,0,0) translate(-483,-566) translate(565,566) rotate(0,0,0)"><text fill="" stroke="none" font-family="helvetica" font-size="8pt" font-style="normal" font-weight="normal" text-decoration="normal" x="0" y="0" text-anchor="middle" dominant-baseline="hanging">2020</text><g transform="rotate(0,0,0) translate(-565,-566) translate(311,584) rotate(0,0,0)"><text fill="" stroke="none" font-family="helvetica" font-size="10pt" font-style="italic" font-weight="normal" text-decoration="normal" x="0" y="0" text-anchor="middle" dominant-baseline="hanging">Years built</text><g transform="rotate(0,0,0) translate(-311,-584)"/></g></g></g></g></g></g></g></g></g></g><g><g fill="#444444"><path fill="none" stroke="black" paint-order="fill stroke markers" d=" M 52 555 L 52 5" stroke-linejoin="bevel" stroke-miterlimit="10"/><path fill="none" stroke="black" paint-order="fill stroke markers" d=" M 46 530 L 54 530" stroke-linejoin="bevel" stroke-miterlimit="10"/><path fill="none" stroke="black" paint-order="fill stroke markers" d=" M 46 441 L 54 441" stroke-linejoin="bevel" stroke-miterlimit="10"/><path fill="none" stroke="black" paint-order="fill stroke markers" d=" M 46 351 L 54 351" stroke-linejoin="bevel" stroke-miterlimit="10"/><path fill="none" stroke="black" paint-order="fill stroke markers" d=" M 46 262 L 54 262" stroke-linejoin="bevel" stroke-miterlimit="10"/><path fill="none" stroke="black" paint-order="fill stroke markers" d=" M 46 172 L 54 172" stroke-linejoin="bevel" stroke-miterlimit="10"/><path fill="none" stroke="black" paint-order="fill stroke markers" d=" M 46 83 L 54 83" stroke-linejoin="bevel" stroke-miterlimit="10"/><path fill="none" stroke="black" paint-order="fill stroke markers" d=" M 48 548 L 52 548" stroke-linejoin="bevel" stroke-miterlimit="10"/><path fill="none" stroke="black" paint-order="fill stroke markers" d=" M 48 530 L 52 530" stroke-linejoin="bevel" stroke-miterlimit="10"/><path fill="none" stroke="black" paint-order="fill stroke markers" d=" M 48 512 L 52 512" stroke-linejoin="bevel" stroke-miterlimit="10"/><path fill="none" stroke="black" paint-order="fill stroke markers" d=" M 48 494 L 52 494" stroke-linejoin="bevel" stroke-miterlimit="10"/><path fill="none" stroke="black" paint-order="fill stroke markers" d=" M 48 476 L 52 476" stroke-linejoin="bevel" stroke-miterlimit="10"/><path fill="none" stroke="black" paint-order="fill stroke markers" d=" M 48 458 L 52 458" stroke-linejoin="bevel" stroke-miterlimit="10"/><path fill="none" stroke="black" paint-order="fill stroke markers" d=" M 48 441 L 52 441" stroke-linejoin="bevel" stroke-miterlimit="10"/><path fill="none" stroke="black" paint-order="fill stroke markers" d=" M 48 423 L 52 423" stroke-linejoin="bevel" stroke-miterlimit="10"/><path fill="none" stroke="black" paint-order="fill stroke markers" d=" M 48 405 L 52 405" stroke-linejoin="bevel" stroke-miterlimit="10"/><path fill="none" stroke="black" paint-order="fill stroke markers" d=" M 48 387 L 52 387" stroke-linejoin="bevel" stroke-miterlimit="10"/><path fill="none" stroke="black" paint-order="fill stroke markers" d=" M 48 369 L 52 369" stroke-linejoin="bevel" stroke-miterlimit="10"/><path fill="none" stroke="black" paint-order="fill stroke markers" d=" M 48 351 L 52 351" stroke-linejoin="bevel" stroke-miterlimit="10"/><path fill="none" stroke="black" paint-order="fill stroke markers" d=" M 48 333 L 52 333" stroke-linejoin="bevel" stroke-miterlimit="10"/><path fill="none" stroke="black" paint-order="fill stroke markers" d=" M 48 315 L 52 315" stroke-linejoin="bevel" stroke-miterlimit="10"/><path fill="none" stroke="black" paint-order="fill stroke markers" d=" M 48 297 L 52 297" stroke-linejoin="bevel" stroke-miterlimit="10"/><path fill="none" stroke="black" paint-order="fill stroke markers" d=" M 48 280 L 52 280" stroke-linejoin="bevel" stroke-miterlimit="10"/><path fill="none" stroke="black" paint-order="fill stroke markers" d=" M 48 262 L 52 262" stroke-linejoin="bevel" stroke-miterlimit="10"/><path fill="none" stroke="black" paint-order="fill stroke markers" d=" M 48 244 L 52 244" stroke-linejoin="bevel" stroke-miterlimit="10"/><path fill="none" stroke="black" paint-order="fill stroke markers" d=" M 48 226 L 52 226" stroke-linejoin="bevel" stroke-miterlimit="10"/><path fill="none" stroke="black" paint-order="fill stroke markers" d=" M 48 208 L 52 208" stroke-linejoin="bevel" stroke-miterlimit="10"/><path fill="none" stroke="black" paint-order="fill stroke markers" d=" M 48 190 L 52 190" stroke-linejoin="bevel" stroke-miterlimit="10"/><path fill="none" stroke="black" paint-order="fill stroke markers" d=" M 48 172 L 52 172" stroke-linejoin="bevel" stroke-miterlimit="10"/><path fill="none" stroke="black" paint-order="fill stroke markers" d=" M 48 154 L 52 154" stroke-linejoin="bevel" stroke-miterlimit="10"/><path fill="none" stroke="black" paint-order="fill stroke markers" d=" M 48 136 L 52 136" stroke-linejoin="bevel" stroke-miterlimit="10"/><path fill="none" stroke="black" paint-order="fill stroke markers" d=" M 48 119 L 52 119" stroke-linejoin="bevel" stroke-miterlimit="10"/><path fill="none" stroke="black" paint-order="fill stroke markers" d=" M 48 101 L 52 101" stroke-linejoin="bevel" stroke-miterlimit="10"/><path fill="none" stroke="black" paint-order="fill stroke markers" d=" M 48 83 L 52 83" stroke-linejoin="bevel" stroke-miterlimit="10"/><path fill="none" stroke="black" paint-order="fill stroke markers" d=" M 48 65 L 52 65" stroke-linejoin="bevel" stroke-miterlimit="10"/><path fill="none" stroke="black" paint-order="fill stroke markers" d=" M 48 47 L 52 47" stroke-linejoin="bevel" stroke-miterlimit="10"/><path fill="none" stroke="black" paint-order="fill stroke markers" d=" M 48 29 L 52 29" stroke-linejoin="bevel" stroke-miterlimit="10"/><path fill="" stroke="black" paint-order="fill stroke markers" d=" M 48 11 L 52 11" stroke-linejoin="bevel" stroke-miterlimit="10"/><g transform="translate(41,530) rotate(0,0,0)"><text fill="" stroke="none" font-family="helvetica" font-size="8pt" font-style="normal" font-weight="normal" text-decoration="normal" x="0" y="0" text-anchor="end" dominant-baseline="central">0</text><g transform="rotate(0,0,0) translate(-41,-530) translate(41,441) rotate(0,0,0)"><text fill="" stroke="none" font-family="helvetica" font-size="8pt" font-style="normal" font-weight="normal" text-decoration="normal" x="0" y="0" text-anchor="end" dominant-baseline="central">100</text><g transform="rotate(0,0,0) translate(-41,-441) translate(41,351) rotate(0,0,0)"><text fill="" stroke="none" font-family="helvetica" font-size="8pt" font-style="normal" font-weight="normal" text-decoration="normal" x="0" y="0" text-anchor="end" dominant-baseline="central">200</text><g transform="rotate(0,0,0) translate(-41,-351) translate(41,262) rotate(0,0,0)"><text fill="" stroke="none" font-family="helvetica" font-size="8pt" font-style="normal" font-weight="normal" text-decoration="normal" x="0" y="0" text-anchor="end" dominant-baseline="central">300</text><g transform="rotate(0,0,0) translate(-41,-262) translate(41,172) rotate(0,0,0)"><text fill="" stroke="none" font-family="helvetica" font-size="8pt" font-style="normal" font-weight="normal" text-decoration="normal" x="0" y="0" text-anchor="end" dominant-baseline="central">400</text><g transform="rotate(0,0,0) translate(-41,-172) translate(41,83) rotate(0,0,0)"><text fill="" stroke="none" font-family="helvetica" font-size="8pt" font-style="normal" font-weight="normal" text-decoration="normal" x="0" y="0" text-anchor="end" dominant-baseline="central">500</text><g transform="rotate(0,0,0) translate(-41,-83) translate(16,280) rotate(-90,0,0)"><text fill="" stroke="none" font-family="helvetica" font-size="10pt" font-style="italic" font-weight="normal" text-decoration="normal" x="0" y="0" text-anchor="middle" dominant-baseline="alphabetic">Sold houses per year built</text><g transform="rotate(90,0,0) translate(-16,-280)"/></g></g></g></g></g></g></g></g></g><g clip-path="url(#heWUiLbbmTJS)"><g/></g></g></g></svg>