<?xml version="1.0" encoding="utf-8" standalone="no"?>
<!DOCTYPE svg PUBLIC "-//W3C//DTD SVG 1.1//EN"
  "http://www.w3.org/Graphics/SVG/1.1/DTD/svg11.dtd">
<!-- Created with matplotlib (https://matplotlib.org/) -->
<svg height="288pt" version="1.1" viewBox="0 0 432 288" width="432pt" xmlns="http://www.w3.org/2000/svg" xmlns:xlink="http://www.w3.org/1999/xlink">
 <defs>
  <style type="text/css">
*{stroke-linecap:butt;stroke-linejoin:round;}
  </style>
 </defs>
 <g id="figure_1">
  <g id="patch_1">
   <path d="M 0 288 
L 432 288 
L 432 0 
L 0 0 
z
" style="fill:#ffffff;"/>
  </g>
  <g id="axes_1">
   <g id="patch_2">
    <path d="M 54 252 
L 388.8 252 
L 388.8 34.56 
L 54 34.56 
z
" style="fill:#ffffff;"/>
   </g>
   <g id="matplotlib.axis_1">
    <g id="xtick_1">
     <g id="line2d_1">
      <path clip-path="url(#pdd7dfacdbd)" d="M 85.685562 252 
L 85.685562 34.56 
" style="fill:none;stroke:#ffffff;stroke-linecap:round;stroke-width:0.8;"/>
     </g>
     <g id="line2d_2">
      <defs>
       <path d="M 0 0 
L 0 3.5 
" id="m921e3487e9" style="stroke:#262626;stroke-width:0.8;"/>
      </defs>
      <g>
       <use style="fill:#262626;stroke:#262626;stroke-width:0.8;" x="85.685562" xlink:href="#m921e3487e9" y="252"/>
      </g>
     </g>
     <g id="text_1">
      <!-- $\mathdefault{10^{5}}$ -->
      <defs>
       <path d="M 37.25 0 
L 28.46875 0 
L 28.46875 56 
Q 25.296875 52.984375 20.140625 49.953125 
Q 14.984375 46.921875 10.890625 45.40625 
L 10.890625 53.90625 
Q 18.265625 57.375 23.78125 62.296875 
Q 29.296875 67.234375 31.59375 71.875 
L 37.25 71.875 
z
" id="ArialMT-49"/>
       <path d="M 4.15625 35.296875 
Q 4.15625 48 6.765625 55.734375 
Q 9.375 63.484375 14.515625 67.671875 
Q 19.671875 71.875 27.484375 71.875 
Q 33.25 71.875 37.59375 69.546875 
Q 41.9375 67.234375 44.765625 62.859375 
Q 47.609375 58.5 49.21875 52.21875 
Q 50.828125 45.953125 50.828125 35.296875 
Q 50.828125 22.703125 48.234375 14.96875 
Q 45.65625 7.234375 40.5 3 
Q 35.359375 -1.21875 27.484375 -1.21875 
Q 17.140625 -1.21875 11.234375 6.203125 
Q 4.15625 15.140625 4.15625 35.296875 
z
M 13.1875 35.296875 
Q 13.1875 17.671875 17.3125 11.828125 
Q 21.4375 6 27.484375 6 
Q 33.546875 6 37.671875 11.859375 
Q 41.796875 17.71875 41.796875 35.296875 
Q 41.796875 52.984375 37.671875 58.78125 
Q 33.546875 64.59375 27.390625 64.59375 
Q 21.34375 64.59375 17.71875 59.46875 
Q 13.1875 52.9375 13.1875 35.296875 
z
" id="ArialMT-48"/>
       <path d="M 4.15625 18.75 
L 13.375 19.53125 
Q 14.40625 12.796875 18.140625 9.390625 
Q 21.875 6 27.15625 6 
Q 33.5 6 37.890625 10.78125 
Q 42.28125 15.578125 42.28125 23.484375 
Q 42.28125 31 38.0625 35.34375 
Q 33.84375 39.703125 27 39.703125 
Q 22.75 39.703125 19.328125 37.765625 
Q 15.921875 35.84375 13.96875 32.765625 
L 5.71875 33.84375 
L 12.640625 70.609375 
L 48.25 70.609375 
L 48.25 62.203125 
L 19.671875 62.203125 
L 15.828125 42.96875 
Q 22.265625 47.46875 29.34375 47.46875 
Q 38.71875 47.46875 45.15625 40.96875 
Q 51.609375 34.46875 51.609375 24.265625 
Q 51.609375 14.546875 45.953125 7.46875 
Q 39.0625 -1.21875 27.15625 -1.21875 
Q 17.390625 -1.21875 11.203125 4.25 
Q 5.03125 9.71875 4.15625 18.75 
z
" id="ArialMT-53"/>
      </defs>
      <g style="fill:#262626;" transform="translate(77.835562 269.2125)scale(0.1 -0.1)">
       <use transform="translate(0 0.879688)" xlink:href="#ArialMT-49"/>
       <use transform="translate(55.615234 0.879688)" xlink:href="#ArialMT-48"/>
       <use transform="translate(112.972813 70.573438)scale(0.7)" xlink:href="#ArialMT-53"/>
      </g>
     </g>
    </g>
    <g id="xtick_2">
     <g id="line2d_3">
      <path clip-path="url(#pdd7dfacdbd)" d="M 238.294982 252 
L 238.294982 34.56 
" style="fill:none;stroke:#ffffff;stroke-linecap:round;stroke-width:0.8;"/>
     </g>
     <g id="line2d_4">
      <g>
       <use style="fill:#262626;stroke:#262626;stroke-width:0.8;" x="238.294982" xlink:href="#m921e3487e9" y="252"/>
      </g>
     </g>
     <g id="text_2">
      <!-- $\mathdefault{10^{6}}$ -->
      <defs>
       <path d="M 49.75 54.046875 
L 41.015625 53.375 
Q 39.84375 58.546875 37.703125 60.890625 
Q 34.125 64.65625 28.90625 64.65625 
Q 24.703125 64.65625 21.53125 62.3125 
Q 17.390625 59.28125 14.984375 53.46875 
Q 12.59375 47.65625 12.5 36.921875 
Q 15.671875 41.75 20.265625 44.09375 
Q 24.859375 46.4375 29.890625 46.4375 
Q 38.671875 46.4375 44.84375 39.96875 
Q 51.03125 33.5 51.03125 23.25 
Q 51.03125 16.5 48.125 10.71875 
Q 45.21875 4.9375 40.140625 1.859375 
Q 35.0625 -1.21875 28.609375 -1.21875 
Q 17.625 -1.21875 10.6875 6.859375 
Q 3.765625 14.9375 3.765625 33.5 
Q 3.765625 54.25 11.421875 63.671875 
Q 18.109375 71.875 29.4375 71.875 
Q 37.890625 71.875 43.28125 67.140625 
Q 48.6875 62.40625 49.75 54.046875 
z
M 13.875 23.1875 
Q 13.875 18.65625 15.796875 14.5 
Q 17.71875 10.359375 21.1875 8.171875 
Q 24.65625 6 28.46875 6 
Q 34.03125 6 38.03125 10.484375 
Q 42.046875 14.984375 42.046875 22.703125 
Q 42.046875 30.125 38.078125 34.390625 
Q 34.125 38.671875 28.125 38.671875 
Q 22.171875 38.671875 18.015625 34.390625 
Q 13.875 30.125 13.875 23.1875 
z
" id="ArialMT-54"/>
      </defs>
      <g style="fill:#262626;" transform="translate(230.444982 269.3125)scale(0.1 -0.1)">
       <use transform="translate(0 0.99375)" xlink:href="#ArialMT-49"/>
       <use transform="translate(55.615234 0.99375)" xlink:href="#ArialMT-48"/>
       <use transform="translate(112.972813 70.6875)scale(0.7)" xlink:href="#ArialMT-54"/>
      </g>
     </g>
    </g>
    <g id="xtick_3">
     <g id="line2d_5">
      <defs>
       <path d="M 0 0 
L 0 2 
" id="m649928c6c5" style="stroke:#262626;stroke-width:0.6;"/>
      </defs>
      <g>
       <use style="fill:#262626;stroke:#262626;stroke-width:0.6;" x="62.046064" xlink:href="#m649928c6c5" y="252"/>
      </g>
     </g>
    </g>
    <g id="xtick_4">
     <g id="line2d_6">
      <g>
       <use style="fill:#262626;stroke:#262626;stroke-width:0.6;" x="70.896181" xlink:href="#m649928c6c5" y="252"/>
      </g>
     </g>
    </g>
    <g id="xtick_5">
     <g id="line2d_7">
      <g>
       <use style="fill:#262626;stroke:#262626;stroke-width:0.6;" x="78.702538" xlink:href="#m649928c6c5" y="252"/>
      </g>
     </g>
    </g>
    <g id="xtick_6">
     <g id="line2d_8">
      <g>
       <use style="fill:#262626;stroke:#262626;stroke-width:0.6;" x="131.625575" xlink:href="#m649928c6c5" y="252"/>
      </g>
     </g>
    </g>
    <g id="xtick_7">
     <g id="line2d_9">
      <g>
       <use style="fill:#262626;stroke:#262626;stroke-width:0.6;" x="158.49876" xlink:href="#m649928c6c5" y="252"/>
      </g>
     </g>
    </g>
    <g id="xtick_8">
     <g id="line2d_10">
      <g>
       <use style="fill:#262626;stroke:#262626;stroke-width:0.6;" x="177.565588" xlink:href="#m649928c6c5" y="252"/>
      </g>
     </g>
    </g>
    <g id="xtick_9">
     <g id="line2d_11">
      <g>
       <use style="fill:#262626;stroke:#262626;stroke-width:0.6;" x="192.354969" xlink:href="#m649928c6c5" y="252"/>
      </g>
     </g>
    </g>
    <g id="xtick_10">
     <g id="line2d_12">
      <g>
       <use style="fill:#262626;stroke:#262626;stroke-width:0.6;" x="204.438773" xlink:href="#m649928c6c5" y="252"/>
      </g>
     </g>
    </g>
    <g id="xtick_11">
     <g id="line2d_13">
      <g>
       <use style="fill:#262626;stroke:#262626;stroke-width:0.6;" x="214.655484" xlink:href="#m649928c6c5" y="252"/>
      </g>
     </g>
    </g>
    <g id="xtick_12">
     <g id="line2d_14">
      <g>
       <use style="fill:#262626;stroke:#262626;stroke-width:0.6;" x="223.505601" xlink:href="#m649928c6c5" y="252"/>
      </g>
     </g>
    </g>
    <g id="xtick_13">
     <g id="line2d_15">
      <g>
       <use style="fill:#262626;stroke:#262626;stroke-width:0.6;" x="231.311958" xlink:href="#m649928c6c5" y="252"/>
      </g>
     </g>
    </g>
    <g id="xtick_14">
     <g id="line2d_16">
      <g>
       <use style="fill:#262626;stroke:#262626;stroke-width:0.6;" x="284.234996" xlink:href="#m649928c6c5" y="252"/>
      </g>
     </g>
    </g>
    <g id="xtick_15">
     <g id="line2d_17">
      <g>
       <use style="fill:#262626;stroke:#262626;stroke-width:0.6;" x="311.108181" xlink:href="#m649928c6c5" y="252"/>
      </g>
     </g>
    </g>
    <g id="xtick_16">
     <g id="line2d_18">
      <g>
       <use style="fill:#262626;stroke:#262626;stroke-width:0.6;" x="330.175009" xlink:href="#m649928c6c5" y="252"/>
      </g>
     </g>
    </g>
    <g id="xtick_17">
     <g id="line2d_19">
      <g>
       <use style="fill:#262626;stroke:#262626;stroke-width:0.6;" x="344.96439" xlink:href="#m649928c6c5" y="252"/>
      </g>
     </g>
    </g>
    <g id="xtick_18">
     <g id="line2d_20">
      <g>
       <use style="fill:#262626;stroke:#262626;stroke-width:0.6;" x="357.048194" xlink:href="#m649928c6c5" y="252"/>
      </g>
     </g>
    </g>
    <g id="xtick_19">
     <g id="line2d_21">
      <g>
       <use style="fill:#262626;stroke:#262626;stroke-width:0.6;" x="367.264904" xlink:href="#m649928c6c5" y="252"/>
      </g>
     </g>
    </g>
    <g id="xtick_20">
     <g id="line2d_22">
      <g>
       <use style="fill:#262626;stroke:#262626;stroke-width:0.6;" x="376.115022" xlink:href="#m649928c6c5" y="252"/>
      </g>
     </g>
    </g>
    <g id="xtick_21">
     <g id="line2d_23">
      <g>
       <use style="fill:#262626;stroke:#262626;stroke-width:0.6;" x="383.921379" xlink:href="#m649928c6c5" y="252"/>
      </g>
     </g>
    </g>
    <g id="text_3">
     <!-- Price [$] -->
     <defs>
      <path d="M 7.71875 0 
L 7.71875 71.578125 
L 34.71875 71.578125 
Q 41.84375 71.578125 45.609375 70.90625 
Q 50.875 70.015625 54.4375 67.546875 
Q 58.015625 65.09375 60.1875 60.640625 
Q 62.359375 56.203125 62.359375 50.875 
Q 62.359375 41.75 56.546875 35.421875 
Q 50.734375 29.109375 35.546875 29.109375 
L 17.1875 29.109375 
L 17.1875 0 
z
M 17.1875 37.546875 
L 35.6875 37.546875 
Q 44.875 37.546875 48.734375 40.96875 
Q 52.59375 44.390625 52.59375 50.59375 
Q 52.59375 55.078125 50.3125 58.265625 
Q 48.046875 61.46875 44.34375 62.5 
Q 41.9375 63.140625 35.5 63.140625 
L 17.1875 63.140625 
z
" id="ArialMT-80"/>
      <path d="M 6.5 0 
L 6.5 51.859375 
L 14.40625 51.859375 
L 14.40625 44 
Q 17.4375 49.515625 20 51.265625 
Q 22.5625 53.03125 25.640625 53.03125 
Q 30.078125 53.03125 34.671875 50.203125 
L 31.640625 42.046875 
Q 28.421875 43.953125 25.203125 43.953125 
Q 22.3125 43.953125 20.015625 42.21875 
Q 17.71875 40.484375 16.75 37.40625 
Q 15.28125 32.71875 15.28125 27.15625 
L 15.28125 0 
z
" id="ArialMT-114"/>
      <path d="M 6.640625 61.46875 
L 6.640625 71.578125 
L 15.4375 71.578125 
L 15.4375 61.46875 
z
M 6.640625 0 
L 6.640625 51.859375 
L 15.4375 51.859375 
L 15.4375 0 
z
" id="ArialMT-105"/>
      <path d="M 40.4375 19 
L 49.078125 17.875 
Q 47.65625 8.9375 41.8125 3.875 
Q 35.984375 -1.171875 27.484375 -1.171875 
Q 16.84375 -1.171875 10.375 5.78125 
Q 3.90625 12.75 3.90625 25.734375 
Q 3.90625 34.125 6.6875 40.421875 
Q 9.46875 46.734375 15.15625 49.875 
Q 20.84375 53.03125 27.546875 53.03125 
Q 35.984375 53.03125 41.359375 48.75 
Q 46.734375 44.484375 48.25 36.625 
L 39.703125 35.296875 
Q 38.484375 40.53125 35.375 43.15625 
Q 32.28125 45.796875 27.875 45.796875 
Q 21.234375 45.796875 17.078125 41.03125 
Q 12.9375 36.28125 12.9375 25.984375 
Q 12.9375 15.53125 16.9375 10.796875 
Q 20.953125 6.0625 27.390625 6.0625 
Q 32.5625 6.0625 36.03125 9.234375 
Q 39.5 12.40625 40.4375 19 
z
" id="ArialMT-99"/>
      <path d="M 42.09375 16.703125 
L 51.171875 15.578125 
Q 49.03125 7.625 43.21875 3.21875 
Q 37.40625 -1.171875 28.375 -1.171875 
Q 17 -1.171875 10.328125 5.828125 
Q 3.65625 12.84375 3.65625 25.484375 
Q 3.65625 38.578125 10.390625 45.796875 
Q 17.140625 53.03125 27.875 53.03125 
Q 38.28125 53.03125 44.875 45.953125 
Q 51.46875 38.875 51.46875 26.03125 
Q 51.46875 25.25 51.421875 23.6875 
L 12.75 23.6875 
Q 13.234375 15.140625 17.578125 10.59375 
Q 21.921875 6.0625 28.421875 6.0625 
Q 33.25 6.0625 36.671875 8.59375 
Q 40.09375 11.140625 42.09375 16.703125 
z
M 13.234375 30.90625 
L 42.1875 30.90625 
Q 41.609375 37.453125 38.875 40.71875 
Q 34.671875 45.796875 27.984375 45.796875 
Q 21.921875 45.796875 17.796875 41.75 
Q 13.671875 37.703125 13.234375 30.90625 
z
" id="ArialMT-101"/>
      <path id="ArialMT-32"/>
      <path d="M 6.78125 -19.875 
L 6.78125 71.578125 
L 26.171875 71.578125 
L 26.171875 64.3125 
L 15.578125 64.3125 
L 15.578125 -12.59375 
L 26.171875 -12.59375 
L 26.171875 -19.875 
z
" id="ArialMT-91"/>
      <path d="M 24.90625 -10.296875 
L 24.90625 -1.515625 
Q 18.3125 -0.6875 14.1875 1.4375 
Q 10.0625 3.5625 7.046875 8.296875 
Q 4.046875 13.03125 3.5625 19.875 
L 12.40625 21.53125 
Q 13.421875 14.453125 16.015625 11.140625 
Q 19.734375 6.453125 24.90625 5.90625 
L 24.90625 33.890625 
Q 19.484375 34.90625 13.8125 38.09375 
Q 9.625 40.4375 7.34375 44.578125 
Q 5.078125 48.734375 5.078125 54 
Q 5.078125 63.375 11.71875 69.1875 
Q 16.15625 73.09375 24.90625 73.96875 
L 24.90625 78.171875 
L 30.078125 78.171875 
L 30.078125 73.96875 
Q 37.75 73.25 42.234375 69.484375 
Q 48 64.703125 49.171875 56.34375 
L 40.09375 54.984375 
Q 39.3125 60.15625 36.84375 62.90625 
Q 34.375 65.671875 30.078125 66.546875 
L 30.078125 41.21875 
Q 36.71875 39.546875 38.875 38.625 
Q 42.96875 36.8125 45.546875 34.21875 
Q 48.140625 31.640625 49.53125 28.078125 
Q 50.921875 24.515625 50.921875 20.359375 
Q 50.921875 11.234375 45.109375 5.125 
Q 39.3125 -0.984375 30.078125 -1.421875 
L 30.078125 -10.296875 
z
M 24.90625 66.65625 
Q 19.78125 65.875 16.828125 62.546875 
Q 13.875 59.234375 13.875 54.6875 
Q 13.875 50.203125 16.375 47.171875 
Q 18.890625 44.140625 24.90625 42.328125 
z
M 30.078125 5.90625 
Q 35.203125 6.546875 38.546875 10.34375 
Q 41.890625 14.15625 41.890625 19.78125 
Q 41.890625 24.5625 39.515625 27.46875 
Q 37.15625 30.375 30.078125 32.671875 
z
" id="ArialMT-36"/>
      <path d="M 21.296875 -19.875 
L 1.90625 -19.875 
L 1.90625 -12.59375 
L 12.5 -12.59375 
L 12.5 64.3125 
L 1.90625 64.3125 
L 1.90625 71.578125 
L 21.296875 71.578125 
z
" id="ArialMT-93"/>
     </defs>
     <g style="fill:#262626;" transform="translate(203.060937 283.117188)scale(0.1 -0.1)">
      <use xlink:href="#ArialMT-80"/>
      <use x="66.699219" xlink:href="#ArialMT-114"/>
      <use x="100" xlink:href="#ArialMT-105"/>
      <use x="122.216797" xlink:href="#ArialMT-99"/>
      <use x="172.216797" xlink:href="#ArialMT-101"/>
      <use x="227.832031" xlink:href="#ArialMT-32"/>
      <use x="255.615234" xlink:href="#ArialMT-91"/>
      <use x="283.398438" xlink:href="#ArialMT-36"/>
      <use x="339.013672" xlink:href="#ArialMT-93"/>
     </g>
    </g>
   </g>
   <g id="matplotlib.axis_2">
    <g id="ytick_1">
     <g id="line2d_24">
      <path clip-path="url(#pdd7dfacdbd)" d="M 54 246.389118 
L 388.8 246.389118 
" style="fill:none;stroke:#ffffff;stroke-linecap:round;stroke-width:0.8;"/>
     </g>
     <g id="line2d_25">
      <defs>
       <path d="M 0 0 
L -3.5 0 
" id="m48230eebcc" style="stroke:#262626;stroke-width:0.8;"/>
      </defs>
      <g>
       <use style="fill:#262626;stroke:#262626;stroke-width:0.8;" x="54" xlink:href="#m48230eebcc" y="246.389118"/>
      </g>
     </g>
     <g id="text_4">
      <!-- $\mathdefault{10^{-10}}$ -->
      <defs>
       <path d="M 52.828125 31.203125 
L 5.5625 31.203125 
L 5.5625 39.40625 
L 52.828125 39.40625 
z
" id="ArialMT-8722"/>
      </defs>
      <g style="fill:#262626;" transform="translate(23.3 251.545368)scale(0.1 -0.1)">
       <use transform="translate(0 0.99375)" xlink:href="#ArialMT-49"/>
       <use transform="translate(55.615234 0.99375)" xlink:href="#ArialMT-48"/>
       <use transform="translate(112.972813 70.6875)scale(0.7)" xlink:href="#ArialMT-8722"/>
       <use transform="translate(153.851719 70.6875)scale(0.7)" xlink:href="#ArialMT-49"/>
       <use transform="translate(192.782383 70.6875)scale(0.7)" xlink:href="#ArialMT-48"/>
      </g>
     </g>
    </g>
    <g id="ytick_2">
     <g id="line2d_26">
      <path clip-path="url(#pdd7dfacdbd)" d="M 54 200.207818 
L 388.8 200.207818 
" style="fill:none;stroke:#ffffff;stroke-linecap:round;stroke-width:0.8;"/>
     </g>
     <g id="line2d_27">
      <g>
       <use style="fill:#262626;stroke:#262626;stroke-width:0.8;" x="54" xlink:href="#m48230eebcc" y="200.207818"/>
      </g>
     </g>
     <g id="text_5">
      <!-- $\mathdefault{10^{-9}}$ -->
      <defs>
       <path d="M 5.46875 16.546875 
L 13.921875 17.328125 
Q 14.984375 11.375 18.015625 8.6875 
Q 21.046875 6 25.78125 6 
Q 29.828125 6 32.875 7.859375 
Q 35.9375 9.71875 37.890625 12.8125 
Q 39.84375 15.921875 41.15625 21.1875 
Q 42.484375 26.46875 42.484375 31.9375 
Q 42.484375 32.515625 42.4375 33.6875 
Q 39.796875 29.5 35.234375 26.875 
Q 30.671875 24.265625 25.34375 24.265625 
Q 16.453125 24.265625 10.296875 30.703125 
Q 4.15625 37.15625 4.15625 47.703125 
Q 4.15625 58.59375 10.578125 65.234375 
Q 17 71.875 26.65625 71.875 
Q 33.640625 71.875 39.421875 68.109375 
Q 45.21875 64.359375 48.21875 57.390625 
Q 51.21875 50.4375 51.21875 37.25 
Q 51.21875 23.53125 48.234375 15.40625 
Q 45.265625 7.28125 39.375 3.03125 
Q 33.5 -1.21875 25.59375 -1.21875 
Q 17.1875 -1.21875 11.859375 3.4375 
Q 6.546875 8.109375 5.46875 16.546875 
z
M 41.453125 48.140625 
Q 41.453125 55.71875 37.421875 60.15625 
Q 33.40625 64.59375 27.734375 64.59375 
Q 21.875 64.59375 17.53125 59.8125 
Q 13.1875 55.03125 13.1875 47.40625 
Q 13.1875 40.578125 17.3125 36.296875 
Q 21.4375 32.03125 27.484375 32.03125 
Q 33.59375 32.03125 37.515625 36.296875 
Q 41.453125 40.578125 41.453125 48.140625 
z
" id="ArialMT-57"/>
      </defs>
      <g style="fill:#262626;" transform="translate(27.2 205.364068)scale(0.1 -0.1)">
       <use transform="translate(0 0.99375)" xlink:href="#ArialMT-49"/>
       <use transform="translate(55.615234 0.99375)" xlink:href="#ArialMT-48"/>
       <use transform="translate(112.972813 70.6875)scale(0.7)" xlink:href="#ArialMT-8722"/>
       <use transform="translate(153.851719 70.6875)scale(0.7)" xlink:href="#ArialMT-57"/>
      </g>
     </g>
    </g>
    <g id="ytick_3">
     <g id="line2d_28">
      <path clip-path="url(#pdd7dfacdbd)" d="M 54 154.026519 
L 388.8 154.026519 
" style="fill:none;stroke:#ffffff;stroke-linecap:round;stroke-width:0.8;"/>
     </g>
     <g id="line2d_29">
      <g>
       <use style="fill:#262626;stroke:#262626;stroke-width:0.8;" x="54" xlink:href="#m48230eebcc" y="154.026519"/>
      </g>
     </g>
     <g id="text_6">
      <!-- $\mathdefault{10^{-8}}$ -->
      <defs>
       <path d="M 17.671875 38.8125 
Q 12.203125 40.828125 9.5625 44.53125 
Q 6.9375 48.25 6.9375 53.421875 
Q 6.9375 61.234375 12.546875 66.546875 
Q 18.171875 71.875 27.484375 71.875 
Q 36.859375 71.875 42.578125 66.421875 
Q 48.296875 60.984375 48.296875 53.171875 
Q 48.296875 48.1875 45.671875 44.5 
Q 43.0625 40.828125 37.75 38.8125 
Q 44.34375 36.671875 47.78125 31.875 
Q 51.21875 27.09375 51.21875 20.453125 
Q 51.21875 11.28125 44.71875 5.03125 
Q 38.234375 -1.21875 27.640625 -1.21875 
Q 17.046875 -1.21875 10.546875 5.046875 
Q 4.046875 11.328125 4.046875 20.703125 
Q 4.046875 27.6875 7.59375 32.390625 
Q 11.140625 37.109375 17.671875 38.8125 
z
M 15.921875 53.71875 
Q 15.921875 48.640625 19.1875 45.40625 
Q 22.46875 42.1875 27.6875 42.1875 
Q 32.765625 42.1875 36.015625 45.375 
Q 39.265625 48.578125 39.265625 53.21875 
Q 39.265625 58.0625 35.90625 61.359375 
Q 32.5625 64.65625 27.59375 64.65625 
Q 22.5625 64.65625 19.234375 61.421875 
Q 15.921875 58.203125 15.921875 53.71875 
z
M 13.09375 20.65625 
Q 13.09375 16.890625 14.875 13.375 
Q 16.65625 9.859375 20.171875 7.921875 
Q 23.6875 6 27.734375 6 
Q 34.03125 6 38.125 10.046875 
Q 42.234375 14.109375 42.234375 20.359375 
Q 42.234375 26.703125 38.015625 30.859375 
Q 33.796875 35.015625 27.4375 35.015625 
Q 21.234375 35.015625 17.15625 30.90625 
Q 13.09375 26.8125 13.09375 20.65625 
z
" id="ArialMT-56"/>
      </defs>
      <g style="fill:#262626;" transform="translate(27.2 159.182769)scale(0.1 -0.1)">
       <use transform="translate(0 0.99375)" xlink:href="#ArialMT-49"/>
       <use transform="translate(55.615234 0.99375)" xlink:href="#ArialMT-48"/>
       <use transform="translate(112.972813 70.6875)scale(0.7)" xlink:href="#ArialMT-8722"/>
       <use transform="translate(153.851719 70.6875)scale(0.7)" xlink:href="#ArialMT-56"/>
      </g>
     </g>
    </g>
    <g id="ytick_4">
     <g id="line2d_30">
      <path clip-path="url(#pdd7dfacdbd)" d="M 54 107.845219 
L 388.8 107.845219 
" style="fill:none;stroke:#ffffff;stroke-linecap:round;stroke-width:0.8;"/>
     </g>
     <g id="line2d_31">
      <g>
       <use style="fill:#262626;stroke:#262626;stroke-width:0.8;" x="54" xlink:href="#m48230eebcc" y="107.845219"/>
      </g>
     </g>
     <g id="text_7">
      <!-- $\mathdefault{10^{-7}}$ -->
      <defs>
       <path d="M 4.734375 62.203125 
L 4.734375 70.65625 
L 51.078125 70.65625 
L 51.078125 63.8125 
Q 44.234375 56.546875 37.515625 44.484375 
Q 30.8125 32.421875 27.15625 19.671875 
Q 24.515625 10.6875 23.78125 0 
L 14.75 0 
Q 14.890625 8.453125 18.0625 20.40625 
Q 21.234375 32.375 27.171875 43.484375 
Q 33.109375 54.59375 39.796875 62.203125 
z
" id="ArialMT-55"/>
      </defs>
      <g style="fill:#262626;" transform="translate(27.2 112.951469)scale(0.1 -0.1)">
       <use transform="translate(0 0.846875)" xlink:href="#ArialMT-49"/>
       <use transform="translate(55.615234 0.846875)" xlink:href="#ArialMT-48"/>
       <use transform="translate(112.972813 70.540625)scale(0.7)" xlink:href="#ArialMT-8722"/>
       <use transform="translate(153.851719 70.540625)scale(0.7)" xlink:href="#ArialMT-55"/>
      </g>
     </g>
    </g>
    <g id="ytick_5">
     <g id="line2d_32">
      <path clip-path="url(#pdd7dfacdbd)" d="M 54 61.663919 
L 388.8 61.663919 
" style="fill:none;stroke:#ffffff;stroke-linecap:round;stroke-width:0.8;"/>
     </g>
     <g id="line2d_33">
      <g>
       <use style="fill:#262626;stroke:#262626;stroke-width:0.8;" x="54" xlink:href="#m48230eebcc" y="61.663919"/>
      </g>
     </g>
     <g id="text_8">
      <!-- $\mathdefault{10^{-6}}$ -->
      <g style="fill:#262626;" transform="translate(27.2 66.820169)scale(0.1 -0.1)">
       <use transform="translate(0 0.99375)" xlink:href="#ArialMT-49"/>
       <use transform="translate(55.615234 0.99375)" xlink:href="#ArialMT-48"/>
       <use transform="translate(112.972813 70.6875)scale(0.7)" xlink:href="#ArialMT-8722"/>
       <use transform="translate(153.851719 70.6875)scale(0.7)" xlink:href="#ArialMT-54"/>
      </g>
     </g>
    </g>
    <g id="ytick_6">
     <g id="line2d_34">
      <defs>
       <path d="M 0 0 
L -2 0 
" id="m21806c254e" style="stroke:#262626;stroke-width:0.6;"/>
      </defs>
      <g>
       <use style="fill:#262626;stroke:#262626;stroke-width:0.6;" x="54" xlink:href="#m21806c254e" y="250.864549"/>
      </g>
     </g>
    </g>
    <g id="ytick_7">
     <g id="line2d_35">
      <g>
       <use style="fill:#262626;stroke:#262626;stroke-width:0.6;" x="54" xlink:href="#m21806c254e" y="248.502259"/>
      </g>
     </g>
    </g>
    <g id="ytick_8">
     <g id="line2d_36">
      <g>
       <use style="fill:#262626;stroke:#262626;stroke-width:0.6;" x="54" xlink:href="#m21806c254e" y="232.487162"/>
      </g>
     </g>
    </g>
    <g id="ytick_9">
     <g id="line2d_37">
      <g>
       <use style="fill:#262626;stroke:#262626;stroke-width:0.6;" x="54" xlink:href="#m21806c254e" y="224.355038"/>
      </g>
     </g>
    </g>
    <g id="ytick_10">
     <g id="line2d_38">
      <g>
       <use style="fill:#262626;stroke:#262626;stroke-width:0.6;" x="54" xlink:href="#m21806c254e" y="218.585205"/>
      </g>
     </g>
    </g>
    <g id="ytick_11">
     <g id="line2d_39">
      <g>
       <use style="fill:#262626;stroke:#262626;stroke-width:0.6;" x="54" xlink:href="#m21806c254e" y="214.109775"/>
      </g>
     </g>
    </g>
    <g id="ytick_12">
     <g id="line2d_40">
      <g>
       <use style="fill:#262626;stroke:#262626;stroke-width:0.6;" x="54" xlink:href="#m21806c254e" y="210.453082"/>
      </g>
     </g>
    </g>
    <g id="ytick_13">
     <g id="line2d_41">
      <g>
       <use style="fill:#262626;stroke:#262626;stroke-width:0.6;" x="54" xlink:href="#m21806c254e" y="207.361392"/>
      </g>
     </g>
    </g>
    <g id="ytick_14">
     <g id="line2d_42">
      <g>
       <use style="fill:#262626;stroke:#262626;stroke-width:0.6;" x="54" xlink:href="#m21806c254e" y="204.683249"/>
      </g>
     </g>
    </g>
    <g id="ytick_15">
     <g id="line2d_43">
      <g>
       <use style="fill:#262626;stroke:#262626;stroke-width:0.6;" x="54" xlink:href="#m21806c254e" y="202.320959"/>
      </g>
     </g>
    </g>
    <g id="ytick_16">
     <g id="line2d_44">
      <g>
       <use style="fill:#262626;stroke:#262626;stroke-width:0.6;" x="54" xlink:href="#m21806c254e" y="186.305862"/>
      </g>
     </g>
    </g>
    <g id="ytick_17">
     <g id="line2d_45">
      <g>
       <use style="fill:#262626;stroke:#262626;stroke-width:0.6;" x="54" xlink:href="#m21806c254e" y="178.173739"/>
      </g>
     </g>
    </g>
    <g id="ytick_18">
     <g id="line2d_46">
      <g>
       <use style="fill:#262626;stroke:#262626;stroke-width:0.6;" x="54" xlink:href="#m21806c254e" y="172.403905"/>
      </g>
     </g>
    </g>
    <g id="ytick_19">
     <g id="line2d_47">
      <g>
       <use style="fill:#262626;stroke:#262626;stroke-width:0.6;" x="54" xlink:href="#m21806c254e" y="167.928475"/>
      </g>
     </g>
    </g>
    <g id="ytick_20">
     <g id="line2d_48">
      <g>
       <use style="fill:#262626;stroke:#262626;stroke-width:0.6;" x="54" xlink:href="#m21806c254e" y="164.271782"/>
      </g>
     </g>
    </g>
    <g id="ytick_21">
     <g id="line2d_49">
      <g>
       <use style="fill:#262626;stroke:#262626;stroke-width:0.6;" x="54" xlink:href="#m21806c254e" y="161.180092"/>
      </g>
     </g>
    </g>
    <g id="ytick_22">
     <g id="line2d_50">
      <g>
       <use style="fill:#262626;stroke:#262626;stroke-width:0.6;" x="54" xlink:href="#m21806c254e" y="158.501949"/>
      </g>
     </g>
    </g>
    <g id="ytick_23">
     <g id="line2d_51">
      <g>
       <use style="fill:#262626;stroke:#262626;stroke-width:0.6;" x="54" xlink:href="#m21806c254e" y="156.139659"/>
      </g>
     </g>
    </g>
    <g id="ytick_24">
     <g id="line2d_52">
      <g>
       <use style="fill:#262626;stroke:#262626;stroke-width:0.6;" x="54" xlink:href="#m21806c254e" y="140.124562"/>
      </g>
     </g>
    </g>
    <g id="ytick_25">
     <g id="line2d_53">
      <g>
       <use style="fill:#262626;stroke:#262626;stroke-width:0.6;" x="54" xlink:href="#m21806c254e" y="131.992439"/>
      </g>
     </g>
    </g>
    <g id="ytick_26">
     <g id="line2d_54">
      <g>
       <use style="fill:#262626;stroke:#262626;stroke-width:0.6;" x="54" xlink:href="#m21806c254e" y="126.222606"/>
      </g>
     </g>
    </g>
    <g id="ytick_27">
     <g id="line2d_55">
      <g>
       <use style="fill:#262626;stroke:#262626;stroke-width:0.6;" x="54" xlink:href="#m21806c254e" y="121.747175"/>
      </g>
     </g>
    </g>
    <g id="ytick_28">
     <g id="line2d_56">
      <g>
       <use style="fill:#262626;stroke:#262626;stroke-width:0.6;" x="54" xlink:href="#m21806c254e" y="118.090482"/>
      </g>
     </g>
    </g>
    <g id="ytick_29">
     <g id="line2d_57">
      <g>
       <use style="fill:#262626;stroke:#262626;stroke-width:0.6;" x="54" xlink:href="#m21806c254e" y="114.998793"/>
      </g>
     </g>
    </g>
    <g id="ytick_30">
     <g id="line2d_58">
      <g>
       <use style="fill:#262626;stroke:#262626;stroke-width:0.6;" x="54" xlink:href="#m21806c254e" y="112.320649"/>
      </g>
     </g>
    </g>
    <g id="ytick_31">
     <g id="line2d_59">
      <g>
       <use style="fill:#262626;stroke:#262626;stroke-width:0.6;" x="54" xlink:href="#m21806c254e" y="109.958359"/>
      </g>
     </g>
    </g>
    <g id="ytick_32">
     <g id="line2d_60">
      <g>
       <use style="fill:#262626;stroke:#262626;stroke-width:0.6;" x="54" xlink:href="#m21806c254e" y="93.943262"/>
      </g>
     </g>
    </g>
    <g id="ytick_33">
     <g id="line2d_61">
      <g>
       <use style="fill:#262626;stroke:#262626;stroke-width:0.6;" x="54" xlink:href="#m21806c254e" y="85.811139"/>
      </g>
     </g>
    </g>
    <g id="ytick_34">
     <g id="line2d_62">
      <g>
       <use style="fill:#262626;stroke:#262626;stroke-width:0.6;" x="54" xlink:href="#m21806c254e" y="80.041306"/>
      </g>
     </g>
    </g>
    <g id="ytick_35">
     <g id="line2d_63">
      <g>
       <use style="fill:#262626;stroke:#262626;stroke-width:0.6;" x="54" xlink:href="#m21806c254e" y="75.565875"/>
      </g>
     </g>
    </g>
    <g id="ytick_36">
     <g id="line2d_64">
      <g>
       <use style="fill:#262626;stroke:#262626;stroke-width:0.6;" x="54" xlink:href="#m21806c254e" y="71.909183"/>
      </g>
     </g>
    </g>
    <g id="ytick_37">
     <g id="line2d_65">
      <g>
       <use style="fill:#262626;stroke:#262626;stroke-width:0.6;" x="54" xlink:href="#m21806c254e" y="68.817493"/>
      </g>
     </g>
    </g>
    <g id="ytick_38">
     <g id="line2d_66">
      <g>
       <use style="fill:#262626;stroke:#262626;stroke-width:0.6;" x="54" xlink:href="#m21806c254e" y="66.139349"/>
      </g>
     </g>
    </g>
    <g id="ytick_39">
     <g id="line2d_67">
      <g>
       <use style="fill:#262626;stroke:#262626;stroke-width:0.6;" x="54" xlink:href="#m21806c254e" y="63.777059"/>
      </g>
     </g>
    </g>
    <g id="ytick_40">
     <g id="line2d_68">
      <g>
       <use style="fill:#262626;stroke:#262626;stroke-width:0.6;" x="54" xlink:href="#m21806c254e" y="47.761962"/>
      </g>
     </g>
    </g>
    <g id="ytick_41">
     <g id="line2d_69">
      <g>
       <use style="fill:#262626;stroke:#262626;stroke-width:0.6;" x="54" xlink:href="#m21806c254e" y="39.629839"/>
      </g>
     </g>
    </g>
    <g id="text_9">
     <!-- Fraction of Sales [1/$] -->
     <defs>
      <path d="M 8.203125 0 
L 8.203125 71.578125 
L 56.5 71.578125 
L 56.5 63.140625 
L 17.671875 63.140625 
L 17.671875 40.96875 
L 51.265625 40.96875 
L 51.265625 32.515625 
L 17.671875 32.515625 
L 17.671875 0 
z
" id="ArialMT-70"/>
      <path d="M 40.4375 6.390625 
Q 35.546875 2.25 31.03125 0.53125 
Q 26.515625 -1.171875 21.34375 -1.171875 
Q 12.796875 -1.171875 8.203125 3 
Q 3.609375 7.171875 3.609375 13.671875 
Q 3.609375 17.484375 5.34375 20.625 
Q 7.078125 23.78125 9.890625 25.6875 
Q 12.703125 27.59375 16.21875 28.5625 
Q 18.796875 29.25 24.03125 29.890625 
Q 34.671875 31.15625 39.703125 32.90625 
Q 39.75 34.71875 39.75 35.203125 
Q 39.75 40.578125 37.25 42.78125 
Q 33.890625 45.75 27.25 45.75 
Q 21.046875 45.75 18.09375 43.578125 
Q 15.140625 41.40625 13.71875 35.890625 
L 5.125 37.0625 
Q 6.296875 42.578125 8.984375 45.96875 
Q 11.671875 49.359375 16.75 51.1875 
Q 21.828125 53.03125 28.515625 53.03125 
Q 35.15625 53.03125 39.296875 51.46875 
Q 43.453125 49.90625 45.40625 47.53125 
Q 47.359375 45.171875 48.140625 41.546875 
Q 48.578125 39.3125 48.578125 33.453125 
L 48.578125 21.734375 
Q 48.578125 9.46875 49.140625 6.21875 
Q 49.703125 2.984375 51.375 0 
L 42.1875 0 
Q 40.828125 2.734375 40.4375 6.390625 
z
M 39.703125 26.03125 
Q 34.90625 24.078125 25.34375 22.703125 
Q 19.921875 21.921875 17.671875 20.9375 
Q 15.4375 19.96875 14.203125 18.09375 
Q 12.984375 16.21875 12.984375 13.921875 
Q 12.984375 10.40625 15.640625 8.0625 
Q 18.3125 5.71875 23.4375 5.71875 
Q 28.515625 5.71875 32.46875 7.9375 
Q 36.421875 10.15625 38.28125 14.015625 
Q 39.703125 17 39.703125 22.796875 
z
" id="ArialMT-97"/>
      <path d="M 25.78125 7.859375 
L 27.046875 0.09375 
Q 23.34375 -0.6875 20.40625 -0.6875 
Q 15.625 -0.6875 12.984375 0.828125 
Q 10.359375 2.34375 9.28125 4.8125 
Q 8.203125 7.28125 8.203125 15.1875 
L 8.203125 45.015625 
L 1.765625 45.015625 
L 1.765625 51.859375 
L 8.203125 51.859375 
L 8.203125 64.703125 
L 16.9375 69.96875 
L 16.9375 51.859375 
L 25.78125 51.859375 
L 25.78125 45.015625 
L 16.9375 45.015625 
L 16.9375 14.703125 
Q 16.9375 10.9375 17.40625 9.859375 
Q 17.875 8.796875 18.921875 8.15625 
Q 19.96875 7.515625 21.921875 7.515625 
Q 23.390625 7.515625 25.78125 7.859375 
z
" id="ArialMT-116"/>
      <path d="M 3.328125 25.921875 
Q 3.328125 40.328125 11.328125 47.265625 
Q 18.015625 53.03125 27.640625 53.03125 
Q 38.328125 53.03125 45.109375 46.015625 
Q 51.90625 39.015625 51.90625 26.65625 
Q 51.90625 16.65625 48.90625 10.90625 
Q 45.90625 5.171875 40.15625 2 
Q 34.421875 -1.171875 27.640625 -1.171875 
Q 16.75 -1.171875 10.03125 5.8125 
Q 3.328125 12.796875 3.328125 25.921875 
z
M 12.359375 25.921875 
Q 12.359375 15.96875 16.703125 11.015625 
Q 21.046875 6.0625 27.640625 6.0625 
Q 34.1875 6.0625 38.53125 11.03125 
Q 42.875 16.015625 42.875 26.21875 
Q 42.875 35.84375 38.5 40.796875 
Q 34.125 45.75 27.640625 45.75 
Q 21.046875 45.75 16.703125 40.8125 
Q 12.359375 35.890625 12.359375 25.921875 
z
" id="ArialMT-111"/>
      <path d="M 6.59375 0 
L 6.59375 51.859375 
L 14.5 51.859375 
L 14.5 44.484375 
Q 20.21875 53.03125 31 53.03125 
Q 35.6875 53.03125 39.625 51.34375 
Q 43.5625 49.65625 45.515625 46.921875 
Q 47.46875 44.1875 48.25 40.4375 
Q 48.734375 37.984375 48.734375 31.890625 
L 48.734375 0 
L 39.9375 0 
L 39.9375 31.546875 
Q 39.9375 36.921875 38.90625 39.578125 
Q 37.890625 42.234375 35.28125 43.8125 
Q 32.671875 45.40625 29.15625 45.40625 
Q 23.53125 45.40625 19.453125 41.84375 
Q 15.375 38.28125 15.375 28.328125 
L 15.375 0 
z
" id="ArialMT-110"/>
      <path d="M 8.6875 0 
L 8.6875 45.015625 
L 0.921875 45.015625 
L 0.921875 51.859375 
L 8.6875 51.859375 
L 8.6875 57.375 
Q 8.6875 62.59375 9.625 65.140625 
Q 10.890625 68.5625 14.078125 70.671875 
Q 17.28125 72.796875 23.046875 72.796875 
Q 26.765625 72.796875 31.25 71.921875 
L 29.9375 64.265625 
Q 27.203125 64.75 24.75 64.75 
Q 20.75 64.75 19.09375 63.03125 
Q 17.4375 61.328125 17.4375 56.640625 
L 17.4375 51.859375 
L 27.546875 51.859375 
L 27.546875 45.015625 
L 17.4375 45.015625 
L 17.4375 0 
z
" id="ArialMT-102"/>
      <path d="M 4.5 23 
L 13.421875 23.78125 
Q 14.0625 18.40625 16.375 14.96875 
Q 18.703125 11.53125 23.578125 9.40625 
Q 28.46875 7.28125 34.578125 7.28125 
Q 39.984375 7.28125 44.140625 8.890625 
Q 48.296875 10.5 50.3125 13.296875 
Q 52.34375 16.109375 52.34375 19.4375 
Q 52.34375 22.796875 50.390625 25.3125 
Q 48.4375 27.828125 43.953125 29.546875 
Q 41.0625 30.671875 31.203125 33.03125 
Q 21.34375 35.40625 17.390625 37.5 
Q 12.25 40.1875 9.734375 44.15625 
Q 7.234375 48.140625 7.234375 53.078125 
Q 7.234375 58.5 10.296875 63.203125 
Q 13.375 67.921875 19.28125 70.359375 
Q 25.203125 72.796875 32.421875 72.796875 
Q 40.375 72.796875 46.453125 70.234375 
Q 52.546875 67.671875 55.8125 62.6875 
Q 59.078125 57.71875 59.328125 51.421875 
L 50.25 50.734375 
Q 49.515625 57.515625 45.28125 60.984375 
Q 41.0625 64.453125 32.8125 64.453125 
Q 24.21875 64.453125 20.28125 61.296875 
Q 16.359375 58.15625 16.359375 53.71875 
Q 16.359375 49.859375 19.140625 47.359375 
Q 21.875 44.875 33.421875 42.265625 
Q 44.96875 39.65625 49.265625 37.703125 
Q 55.515625 34.8125 58.484375 30.390625 
Q 61.46875 25.984375 61.46875 20.21875 
Q 61.46875 14.5 58.203125 9.4375 
Q 54.9375 4.390625 48.796875 1.578125 
Q 42.671875 -1.21875 35.015625 -1.21875 
Q 25.296875 -1.21875 18.71875 1.609375 
Q 12.15625 4.4375 8.421875 10.125 
Q 4.6875 15.828125 4.5 23 
z
" id="ArialMT-83"/>
      <path d="M 6.390625 0 
L 6.390625 71.578125 
L 15.1875 71.578125 
L 15.1875 0 
z
" id="ArialMT-108"/>
      <path d="M 3.078125 15.484375 
L 11.765625 16.84375 
Q 12.5 11.625 15.84375 8.84375 
Q 19.1875 6.0625 25.203125 6.0625 
Q 31.25 6.0625 34.171875 8.515625 
Q 37.109375 10.984375 37.109375 14.3125 
Q 37.109375 17.28125 34.515625 19 
Q 32.71875 20.171875 25.53125 21.96875 
Q 15.875 24.421875 12.140625 26.203125 
Q 8.40625 27.984375 6.46875 31.125 
Q 4.546875 34.28125 4.546875 38.09375 
Q 4.546875 41.546875 6.125 44.5 
Q 7.71875 47.46875 10.453125 49.421875 
Q 12.5 50.921875 16.03125 51.96875 
Q 19.578125 53.03125 23.640625 53.03125 
Q 29.734375 53.03125 34.34375 51.265625 
Q 38.96875 49.515625 41.15625 46.5 
Q 43.359375 43.5 44.1875 38.484375 
L 35.59375 37.3125 
Q 35.015625 41.3125 32.203125 43.546875 
Q 29.390625 45.796875 24.265625 45.796875 
Q 18.21875 45.796875 15.625 43.796875 
Q 13.03125 41.796875 13.03125 39.109375 
Q 13.03125 37.40625 14.109375 36.03125 
Q 15.1875 34.625 17.484375 33.6875 
Q 18.796875 33.203125 25.25 31.453125 
Q 34.578125 28.953125 38.25 27.359375 
Q 41.9375 25.78125 44.03125 22.75 
Q 46.140625 19.734375 46.140625 15.234375 
Q 46.140625 10.84375 43.578125 6.953125 
Q 41.015625 3.078125 36.171875 0.953125 
Q 31.34375 -1.171875 25.25 -1.171875 
Q 15.140625 -1.171875 9.84375 3.03125 
Q 4.546875 7.234375 3.078125 15.484375 
z
" id="ArialMT-115"/>
      <path d="M 0 -1.21875 
L 20.75 72.796875 
L 27.78125 72.796875 
L 7.078125 -1.21875 
z
" id="ArialMT-47"/>
     </defs>
     <g style="fill:#262626;" transform="translate(17.3125 191.912031)rotate(-90)scale(0.1 -0.1)">
      <use xlink:href="#ArialMT-70"/>
      <use x="61.083984" xlink:href="#ArialMT-114"/>
      <use x="94.384766" xlink:href="#ArialMT-97"/>
      <use x="150" xlink:href="#ArialMT-99"/>
      <use x="200" xlink:href="#ArialMT-116"/>
      <use x="227.783203" xlink:href="#ArialMT-105"/>
      <use x="250" xlink:href="#ArialMT-111"/>
      <use x="305.615234" xlink:href="#ArialMT-110"/>
      <use x="361.230469" xlink:href="#ArialMT-32"/>
      <use x="389.013672" xlink:href="#ArialMT-111"/>
      <use x="444.628906" xlink:href="#ArialMT-102"/>
      <use x="472.412109" xlink:href="#ArialMT-32"/>
      <use x="500.195312" xlink:href="#ArialMT-83"/>
      <use x="566.894531" xlink:href="#ArialMT-97"/>
      <use x="622.509766" xlink:href="#ArialMT-108"/>
      <use x="644.726562" xlink:href="#ArialMT-101"/>
      <use x="700.341797" xlink:href="#ArialMT-115"/>
      <use x="750.341797" xlink:href="#ArialMT-32"/>
      <use x="778.125" xlink:href="#ArialMT-91"/>
      <use x="805.908203" xlink:href="#ArialMT-49"/>
      <use x="861.523438" xlink:href="#ArialMT-47"/>
      <use x="889.306641" xlink:href="#ArialMT-36"/>
      <use x="944.921875" xlink:href="#ArialMT-93"/>
     </g>
    </g>
   </g>
   <g id="patch_3">
    <path clip-path="url(#pdd7dfacdbd)" d="M 69.218182 45965.875932 
L 72.261818 45965.875932 
L 72.261818 135.435542 
L 69.218182 135.435542 
z
" style="fill:#ff7f0e;opacity:0.4;stroke:#ffffff;stroke-linejoin:miter;"/>
   </g>
   <g id="patch_4">
    <path clip-path="url(#pdd7dfacdbd)" d="M 72.261818 45965.875932 
L 75.305455 45965.875932 
L 75.305455 114.3225 
L 72.261818 114.3225 
z
" style="fill:#ff7f0e;opacity:0.4;stroke:#ffffff;stroke-linejoin:miter;"/>
   </g>
   <g id="patch_5">
    <path clip-path="url(#pdd7dfacdbd)" d="M 75.305455 45965.875932 
L 78.349091 45965.875932 
L 78.349091 137.277618 
L 75.305455 137.277618 
z
" style="fill:#ff7f0e;opacity:0.4;stroke:#ffffff;stroke-linejoin:miter;"/>
   </g>
   <g id="patch_6">
    <path clip-path="url(#pdd7dfacdbd)" d="M 78.349091 45965.875932 
L 81.392727 45965.875932 
L 81.392727 113.072886 
L 78.349091 113.072886 
z
" style="fill:#ff7f0e;opacity:0.4;stroke:#ffffff;stroke-linejoin:miter;"/>
   </g>
   <g id="patch_7">
    <path clip-path="url(#pdd7dfacdbd)" d="M 81.392727 45965.875932 
L 84.436364 45965.875932 
L 84.436364 120.742307 
L 81.392727 120.742307 
z
" style="fill:#ff7f0e;opacity:0.4;stroke:#ffffff;stroke-linejoin:miter;"/>
   </g>
   <g id="patch_8">
    <path clip-path="url(#pdd7dfacdbd)" d="M 84.436364 45965.875932 
L 87.48 45965.875932 
L 87.48 112.236819 
L 84.436364 112.236819 
z
" style="fill:#ff7f0e;opacity:0.4;stroke:#ffffff;stroke-linejoin:miter;"/>
   </g>
   <g id="patch_9">
    <path clip-path="url(#pdd7dfacdbd)" d="M 87.48 45965.875932 
L 90.523636 45965.875932 
L 90.523636 115.836 
L 87.48 115.836 
z
" style="fill:#ff7f0e;opacity:0.4;stroke:#ffffff;stroke-linejoin:miter;"/>
   </g>
   <g id="patch_10">
    <path clip-path="url(#pdd7dfacdbd)" d="M 90.523636 45965.875932 
L 93.567273 45965.875932 
L 93.567273 104.341412 
L 90.523636 104.341412 
z
" style="fill:#ff7f0e;opacity:0.4;stroke:#ffffff;stroke-linejoin:miter;"/>
   </g>
   <g id="patch_11">
    <path clip-path="url(#pdd7dfacdbd)" d="M 93.567273 45965.875932 
L 96.610909 45965.875932 
L 96.610909 112.637643 
L 93.567273 112.637643 
z
" style="fill:#ff7f0e;opacity:0.4;stroke:#ffffff;stroke-linejoin:miter;"/>
   </g>
   <g id="patch_12">
    <path clip-path="url(#pdd7dfacdbd)" d="M 96.610909 45965.875932 
L 99.654545 45965.875932 
L 99.654545 103.313417 
L 96.610909 103.313417 
z
" style="fill:#ff7f0e;opacity:0.4;stroke:#ffffff;stroke-linejoin:miter;"/>
   </g>
   <g id="patch_13">
    <path clip-path="url(#pdd7dfacdbd)" d="M 99.654545 45965.875932 
L 102.698182 45965.875932 
L 102.698182 100.577763 
L 99.654545 100.577763 
z
" style="fill:#ff7f0e;opacity:0.4;stroke:#ffffff;stroke-linejoin:miter;"/>
   </g>
   <g id="patch_14">
    <path clip-path="url(#pdd7dfacdbd)" d="M 102.698182 45965.875932 
L 105.741818 45965.875932 
L 105.741818 93.366677 
L 102.698182 93.366677 
z
" style="fill:#ff7f0e;opacity:0.4;stroke:#ffffff;stroke-linejoin:miter;"/>
   </g>
   <g id="patch_15">
    <path clip-path="url(#pdd7dfacdbd)" d="M 105.741818 45965.875932 
L 108.785455 45965.875932 
L 108.785455 100.306698 
L 105.741818 100.306698 
z
" style="fill:#ff7f0e;opacity:0.4;stroke:#ffffff;stroke-linejoin:miter;"/>
   </g>
   <g id="patch_16">
    <path clip-path="url(#pdd7dfacdbd)" d="M 108.785455 45965.875932 
L 111.829091 45965.875932 
L 111.829091 96.752306 
L 108.785455 96.752306 
z
" style="fill:#ff7f0e;opacity:0.4;stroke:#ffffff;stroke-linejoin:miter;"/>
   </g>
   <g id="patch_17">
    <path clip-path="url(#pdd7dfacdbd)" d="M 111.829091 45965.875932 
L 114.872727 45965.875932 
L 114.872727 79.136145 
L 111.829091 79.136145 
z
" style="fill:#ff7f0e;opacity:0.4;stroke:#ffffff;stroke-linejoin:miter;"/>
   </g>
   <g id="patch_18">
    <path clip-path="url(#pdd7dfacdbd)" d="M 114.872727 45965.875932 
L 117.916364 45965.875932 
L 117.916364 80.057183 
L 114.872727 80.057183 
z
" style="fill:#ff7f0e;opacity:0.4;stroke:#ffffff;stroke-linejoin:miter;"/>
   </g>
   <g id="patch_19">
    <path clip-path="url(#pdd7dfacdbd)" d="M 117.916364 45965.875932 
L 120.96 45965.875932 
L 120.96 75.448586 
L 117.916364 75.448586 
z
" style="fill:#ff7f0e;opacity:0.4;stroke:#ffffff;stroke-linejoin:miter;"/>
   </g>
   <g id="patch_20">
    <path clip-path="url(#pdd7dfacdbd)" d="M 120.96 45965.875932 
L 124.003636 45965.875932 
L 124.003636 78.136728 
L 120.96 78.136728 
z
" style="fill:#ff7f0e;opacity:0.4;stroke:#ffffff;stroke-linejoin:miter;"/>
   </g>
   <g id="patch_21">
    <path clip-path="url(#pdd7dfacdbd)" d="M 124.003636 45965.875932 
L 127.047273 45965.875932 
L 127.047273 70.064726 
L 124.003636 70.064726 
z
" style="fill:#ff7f0e;opacity:0.4;stroke:#ffffff;stroke-linejoin:miter;"/>
   </g>
   <g id="patch_22">
    <path clip-path="url(#pdd7dfacdbd)" d="M 127.047273 45965.875932 
L 130.090909 45965.875932 
L 130.090909 67.870012 
L 127.047273 67.870012 
z
" style="fill:#ff7f0e;opacity:0.4;stroke:#ffffff;stroke-linejoin:miter;"/>
   </g>
   <g id="patch_23">
    <path clip-path="url(#pdd7dfacdbd)" d="M 130.090909 45965.875932 
L 133.134545 45965.875932 
L 133.134545 63.718578 
L 130.090909 63.718578 
z
" style="fill:#ff7f0e;opacity:0.4;stroke:#ffffff;stroke-linejoin:miter;"/>
   </g>
   <g id="patch_24">
    <path clip-path="url(#pdd7dfacdbd)" d="M 133.134545 45965.875932 
L 136.178182 45965.875932 
L 136.178182 57.62095 
L 133.134545 57.62095 
z
" style="fill:#ff7f0e;opacity:0.4;stroke:#ffffff;stroke-linejoin:miter;"/>
   </g>
   <g id="patch_25">
    <path clip-path="url(#pdd7dfacdbd)" d="M 136.178182 45965.875932 
L 139.221818 45965.875932 
L 139.221818 57.465914 
L 136.178182 57.465914 
z
" style="fill:#ff7f0e;opacity:0.4;stroke:#ffffff;stroke-linejoin:miter;"/>
   </g>
   <g id="patch_26">
    <path clip-path="url(#pdd7dfacdbd)" d="M 139.221818 45965.875932 
L 142.265455 45965.875932 
L 142.265455 54.152441 
L 139.221818 54.152441 
z
" style="fill:#ff7f0e;opacity:0.4;stroke:#ffffff;stroke-linejoin:miter;"/>
   </g>
   <g id="patch_27">
    <path clip-path="url(#pdd7dfacdbd)" d="M 142.265455 45965.875932 
L 145.309091 45965.875932 
L 145.309091 49.872112 
L 142.265455 49.872112 
z
" style="fill:#ff7f0e;opacity:0.4;stroke:#ffffff;stroke-linejoin:miter;"/>
   </g>
   <g id="patch_28">
    <path clip-path="url(#pdd7dfacdbd)" d="M 145.309091 45965.875932 
L 148.352727 45965.875932 
L 148.352727 48.085808 
L 145.309091 48.085808 
z
" style="fill:#ff7f0e;opacity:0.4;stroke:#ffffff;stroke-linejoin:miter;"/>
   </g>
   <g id="patch_29">
    <path clip-path="url(#pdd7dfacdbd)" d="M 148.352727 45965.875932 
L 151.396364 45965.875932 
L 151.396364 50.098043 
L 148.352727 50.098043 
z
" style="fill:#ff7f0e;opacity:0.4;stroke:#ffffff;stroke-linejoin:miter;"/>
   </g>
   <g id="patch_30">
    <path clip-path="url(#pdd7dfacdbd)" d="M 151.396364 45965.875932 
L 154.44 45965.875932 
L 154.44 45.444286 
L 151.396364 45.444286 
z
" style="fill:#ff7f0e;opacity:0.4;stroke:#ffffff;stroke-linejoin:miter;"/>
   </g>
   <g id="patch_31">
    <path clip-path="url(#pdd7dfacdbd)" d="M 154.44 45965.875932 
L 157.483636 45965.875932 
L 157.483636 49.278156 
L 154.44 49.278156 
z
" style="fill:#ff7f0e;opacity:0.4;stroke:#ffffff;stroke-linejoin:miter;"/>
   </g>
   <g id="patch_32">
    <path clip-path="url(#pdd7dfacdbd)" d="M 157.483636 45965.875932 
L 160.527273 45965.875932 
L 160.527273 49.312584 
L 157.483636 49.312584 
z
" style="fill:#ff7f0e;opacity:0.4;stroke:#ffffff;stroke-linejoin:miter;"/>
   </g>
   <g id="patch_33">
    <path clip-path="url(#pdd7dfacdbd)" d="M 160.527273 45965.875932 
L 163.570909 45965.875932 
L 163.570909 48.272837 
L 160.527273 48.272837 
z
" style="fill:#ff7f0e;opacity:0.4;stroke:#ffffff;stroke-linejoin:miter;"/>
   </g>
   <g id="patch_34">
    <path clip-path="url(#pdd7dfacdbd)" d="M 163.570909 45965.875932 
L 166.614545 45965.875932 
L 166.614545 45.575452 
L 163.570909 45.575452 
z
" style="fill:#ff7f0e;opacity:0.4;stroke:#ffffff;stroke-linejoin:miter;"/>
   </g>
   <g id="patch_35">
    <path clip-path="url(#pdd7dfacdbd)" d="M 166.614545 45965.875932 
L 169.658182 45965.875932 
L 169.658182 44.443636 
L 166.614545 44.443636 
z
" style="fill:#ff7f0e;opacity:0.4;stroke:#ffffff;stroke-linejoin:miter;"/>
   </g>
   <g id="patch_36">
    <path clip-path="url(#pdd7dfacdbd)" d="M 169.658182 45965.875932 
L 172.701818 45965.875932 
L 172.701818 51.266675 
L 169.658182 51.266675 
z
" style="fill:#ff7f0e;opacity:0.4;stroke:#ffffff;stroke-linejoin:miter;"/>
   </g>
   <g id="patch_37">
    <path clip-path="url(#pdd7dfacdbd)" d="M 172.701818 45965.875932 
L 175.745455 45965.875932 
L 175.745455 50.533961 
L 172.701818 50.533961 
z
" style="fill:#ff7f0e;opacity:0.4;stroke:#ffffff;stroke-linejoin:miter;"/>
   </g>
   <g id="patch_38">
    <path clip-path="url(#pdd7dfacdbd)" d="M 175.745455 45965.875932 
L 178.789091 45965.875932 
L 178.789091 47.783048 
L 175.745455 47.783048 
z
" style="fill:#ff7f0e;opacity:0.4;stroke:#ffffff;stroke-linejoin:miter;"/>
   </g>
   <g id="patch_39">
    <path clip-path="url(#pdd7dfacdbd)" d="M 178.789091 45965.875932 
L 181.832727 45965.875932 
L 181.832727 49.271268 
L 178.789091 49.271268 
z
" style="fill:#ff7f0e;opacity:0.4;stroke:#ffffff;stroke-linejoin:miter;"/>
   </g>
   <g id="patch_40">
    <path clip-path="url(#pdd7dfacdbd)" d="M 181.832727 45965.875932 
L 184.876364 45965.875932 
L 184.876364 49.65056 
L 181.832727 49.65056 
z
" style="fill:#ff7f0e;opacity:0.4;stroke:#ffffff;stroke-linejoin:miter;"/>
   </g>
   <g id="patch_41">
    <path clip-path="url(#pdd7dfacdbd)" d="M 184.876364 45965.875932 
L 187.92 45965.875932 
L 187.92 50.118614 
L 184.876364 50.118614 
z
" style="fill:#ff7f0e;opacity:0.4;stroke:#ffffff;stroke-linejoin:miter;"/>
   </g>
   <g id="patch_42">
    <path clip-path="url(#pdd7dfacdbd)" d="M 187.92 45965.875932 
L 190.963636 45965.875932 
L 190.963636 55.017413 
L 187.92 55.017413 
z
" style="fill:#ff7f0e;opacity:0.4;stroke:#ffffff;stroke-linejoin:miter;"/>
   </g>
   <g id="patch_43">
    <path clip-path="url(#pdd7dfacdbd)" d="M 190.963636 45965.875932 
L 194.007273 45965.875932 
L 194.007273 53.647085 
L 190.963636 53.647085 
z
" style="fill:#ff7f0e;opacity:0.4;stroke:#ffffff;stroke-linejoin:miter;"/>
   </g>
   <g id="patch_44">
    <path clip-path="url(#pdd7dfacdbd)" d="M 194.007273 45965.875932 
L 197.050909 45965.875932 
L 197.050909 54.703914 
L 194.007273 54.703914 
z
" style="fill:#ff7f0e;opacity:0.4;stroke:#ffffff;stroke-linejoin:miter;"/>
   </g>
   <g id="patch_45">
    <path clip-path="url(#pdd7dfacdbd)" d="M 197.050909 45965.875932 
L 200.094545 45965.875932 
L 200.094545 54.357818 
L 197.050909 54.357818 
z
" style="fill:#ff7f0e;opacity:0.4;stroke:#ffffff;stroke-linejoin:miter;"/>
   </g>
   <g id="patch_46">
    <path clip-path="url(#pdd7dfacdbd)" d="M 200.094545 45965.875932 
L 203.138182 45965.875932 
L 203.138182 58.520332 
L 200.094545 58.520332 
z
" style="fill:#ff7f0e;opacity:0.4;stroke:#ffffff;stroke-linejoin:miter;"/>
   </g>
   <g id="patch_47">
    <path clip-path="url(#pdd7dfacdbd)" d="M 203.138182 45965.875932 
L 206.181818 45965.875932 
L 206.181818 59.959177 
L 203.138182 59.959177 
z
" style="fill:#ff7f0e;opacity:0.4;stroke:#ffffff;stroke-linejoin:miter;"/>
   </g>
   <g id="patch_48">
    <path clip-path="url(#pdd7dfacdbd)" d="M 206.181818 45965.875932 
L 209.225455 45965.875932 
L 209.225455 64.1579 
L 206.181818 64.1579 
z
" style="fill:#ff7f0e;opacity:0.4;stroke:#ffffff;stroke-linejoin:miter;"/>
   </g>
   <g id="patch_49">
    <path clip-path="url(#pdd7dfacdbd)" d="M 209.225455 45965.875932 
L 212.269091 45965.875932 
L 212.269091 61.987248 
L 209.225455 61.987248 
z
" style="fill:#ff7f0e;opacity:0.4;stroke:#ffffff;stroke-linejoin:miter;"/>
   </g>
   <g id="patch_50">
    <path clip-path="url(#pdd7dfacdbd)" d="M 212.269091 45965.875932 
L 215.312727 45965.875932 
L 215.312727 67.904278 
L 212.269091 67.904278 
z
" style="fill:#ff7f0e;opacity:0.4;stroke:#ffffff;stroke-linejoin:miter;"/>
   </g>
   <g id="patch_51">
    <path clip-path="url(#pdd7dfacdbd)" d="M 215.312727 45965.875932 
L 218.356364 45965.875932 
L 218.356364 68.157367 
L 215.312727 68.157367 
z
" style="fill:#ff7f0e;opacity:0.4;stroke:#ffffff;stroke-linejoin:miter;"/>
   </g>
   <g id="patch_52">
    <path clip-path="url(#pdd7dfacdbd)" d="M 218.356364 45965.875932 
L 221.4 45965.875932 
L 221.4 73.03881 
L 218.356364 73.03881 
z
" style="fill:#ff7f0e;opacity:0.4;stroke:#ffffff;stroke-linejoin:miter;"/>
   </g>
   <g id="patch_53">
    <path clip-path="url(#pdd7dfacdbd)" d="M 221.4 45965.875932 
L 224.443636 45965.875932 
L 224.443636 71.482801 
L 221.4 71.482801 
z
" style="fill:#ff7f0e;opacity:0.4;stroke:#ffffff;stroke-linejoin:miter;"/>
   </g>
   <g id="patch_54">
    <path clip-path="url(#pdd7dfacdbd)" d="M 224.443636 45965.875932 
L 227.487273 45965.875932 
L 227.487273 79.462528 
L 224.443636 79.462528 
z
" style="fill:#ff7f0e;opacity:0.4;stroke:#ffffff;stroke-linejoin:miter;"/>
   </g>
   <g id="patch_55">
    <path clip-path="url(#pdd7dfacdbd)" d="M 227.487273 45965.875932 
L 230.530909 45965.875932 
L 230.530909 79.743108 
L 227.487273 79.743108 
z
" style="fill:#ff7f0e;opacity:0.4;stroke:#ffffff;stroke-linejoin:miter;"/>
   </g>
   <g id="patch_56">
    <path clip-path="url(#pdd7dfacdbd)" d="M 230.530909 45965.875932 
L 233.574545 45965.875932 
L 233.574545 83.424319 
L 230.530909 83.424319 
z
" style="fill:#ff7f0e;opacity:0.4;stroke:#ffffff;stroke-linejoin:miter;"/>
   </g>
   <g id="patch_57">
    <path clip-path="url(#pdd7dfacdbd)" d="M 233.574545 45965.875932 
L 236.618182 45965.875932 
L 236.618182 88.820787 
L 233.574545 88.820787 
z
" style="fill:#ff7f0e;opacity:0.4;stroke:#ffffff;stroke-linejoin:miter;"/>
   </g>
   <g id="patch_58">
    <path clip-path="url(#pdd7dfacdbd)" d="M 236.618182 45965.875932 
L 239.661818 45965.875932 
L 239.661818 95.511659 
L 236.618182 95.511659 
z
" style="fill:#ff7f0e;opacity:0.4;stroke:#ffffff;stroke-linejoin:miter;"/>
   </g>
   <g id="patch_59">
    <path clip-path="url(#pdd7dfacdbd)" d="M 239.661818 45965.875932 
L 242.705455 45965.875932 
L 242.705455 104.56482 
L 239.661818 104.56482 
z
" style="fill:#ff7f0e;opacity:0.4;stroke:#ffffff;stroke-linejoin:miter;"/>
   </g>
   <g id="patch_60">
    <path clip-path="url(#pdd7dfacdbd)" d="M 242.705455 45965.875932 
L 245.749091 45965.875932 
L 245.749091 104.998637 
L 242.705455 104.998637 
z
" style="fill:#ff7f0e;opacity:0.4;stroke:#ffffff;stroke-linejoin:miter;"/>
   </g>
   <g id="patch_61">
    <path clip-path="url(#pdd7dfacdbd)" d="M 245.749091 45965.875932 
L 248.792727 45965.875932 
L 248.792727 107.418352 
L 245.749091 107.418352 
z
" style="fill:#ff7f0e;opacity:0.4;stroke:#ffffff;stroke-linejoin:miter;"/>
   </g>
   <g id="patch_62">
    <path clip-path="url(#pdd7dfacdbd)" d="M 248.792727 45965.875932 
L 251.836364 45965.875932 
L 251.836364 109.404575 
L 248.792727 109.404575 
z
" style="fill:#ff7f0e;opacity:0.4;stroke:#ffffff;stroke-linejoin:miter;"/>
   </g>
   <g id="patch_63">
    <path clip-path="url(#pdd7dfacdbd)" d="M 251.836364 45965.875932 
L 254.88 45965.875932 
L 254.88 108.414046 
L 251.836364 108.414046 
z
" style="fill:#ff7f0e;opacity:0.4;stroke:#ffffff;stroke-linejoin:miter;"/>
   </g>
   <g id="patch_64">
    <path clip-path="url(#pdd7dfacdbd)" d="M 254.88 45965.875932 
L 257.923636 45965.875932 
L 257.923636 111.801239 
L 254.88 111.801239 
z
" style="fill:#ff7f0e;opacity:0.4;stroke:#ffffff;stroke-linejoin:miter;"/>
   </g>
   <g id="patch_65">
    <path clip-path="url(#pdd7dfacdbd)" d="M 257.923636 45965.875932 
L 260.967273 45965.875932 
L 260.967273 113.879691 
L 257.923636 113.879691 
z
" style="fill:#ff7f0e;opacity:0.4;stroke:#ffffff;stroke-linejoin:miter;"/>
   </g>
   <g id="patch_66">
    <path clip-path="url(#pdd7dfacdbd)" d="M 260.967273 45965.875932 
L 264.010909 45965.875932 
L 264.010909 125.582648 
L 260.967273 125.582648 
z
" style="fill:#ff7f0e;opacity:0.4;stroke:#ffffff;stroke-linejoin:miter;"/>
   </g>
   <g id="patch_67">
    <path clip-path="url(#pdd7dfacdbd)" d="M 264.010909 45965.875932 
L 267.054545 45965.875932 
L 267.054545 125.188048 
L 264.010909 125.188048 
z
" style="fill:#ff7f0e;opacity:0.4;stroke:#ffffff;stroke-linejoin:miter;"/>
   </g>
   <g id="patch_68">
    <path clip-path="url(#pdd7dfacdbd)" d="M 267.054545 45965.875932 
L 270.098182 45965.875932 
L 270.098182 123.1543 
L 267.054545 123.1543 
z
" style="fill:#ff7f0e;opacity:0.4;stroke:#ffffff;stroke-linejoin:miter;"/>
   </g>
   <g id="patch_69">
    <path clip-path="url(#pdd7dfacdbd)" d="M 270.098182 45965.875932 
L 273.141818 45965.875932 
L 273.141818 130.121814 
L 270.098182 130.121814 
z
" style="fill:#ff7f0e;opacity:0.4;stroke:#ffffff;stroke-linejoin:miter;"/>
   </g>
   <g id="patch_70">
    <path clip-path="url(#pdd7dfacdbd)" d="M 273.141818 45965.875932 
L 276.185455 45965.875932 
L 276.185455 130.674836 
L 273.141818 130.674836 
z
" style="fill:#ff7f0e;opacity:0.4;stroke:#ffffff;stroke-linejoin:miter;"/>
   </g>
   <g id="patch_71">
    <path clip-path="url(#pdd7dfacdbd)" d="M 276.185455 45965.875932 
L 279.229091 45965.875932 
L 279.229091 137.982873 
L 276.185455 137.982873 
z
" style="fill:#ff7f0e;opacity:0.4;stroke:#ffffff;stroke-linejoin:miter;"/>
   </g>
   <g id="patch_72">
    <path clip-path="url(#pdd7dfacdbd)" d="M 279.229091 45965.875932 
L 282.272727 45965.875932 
L 282.272727 137.925361 
L 279.229091 137.925361 
z
" style="fill:#ff7f0e;opacity:0.4;stroke:#ffffff;stroke-linejoin:miter;"/>
   </g>
   <g id="patch_73">
    <path clip-path="url(#pdd7dfacdbd)" d="M 282.272727 45965.875932 
L 285.316364 45965.875932 
L 285.316364 143.683214 
L 282.272727 143.683214 
z
" style="fill:#ff7f0e;opacity:0.4;stroke:#ffffff;stroke-linejoin:miter;"/>
   </g>
   <g id="patch_74">
    <path clip-path="url(#pdd7dfacdbd)" d="M 285.316364 45965.875932 
L 288.36 45965.875932 
L 288.36 170.66304 
L 285.316364 170.66304 
z
" style="fill:#ff7f0e;opacity:0.4;stroke:#ffffff;stroke-linejoin:miter;"/>
   </g>
   <g id="patch_75">
    <path clip-path="url(#pdd7dfacdbd)" d="M 288.36 45965.875932 
L 291.403636 45965.875932 
L 291.403636 151.093551 
L 288.36 151.093551 
z
" style="fill:#ff7f0e;opacity:0.4;stroke:#ffffff;stroke-linejoin:miter;"/>
   </g>
   <g id="patch_76">
    <path clip-path="url(#pdd7dfacdbd)" d="M 291.403636 45965.875932 
L 294.447273 45965.875932 
L 294.447273 148.357896 
L 291.403636 148.357896 
z
" style="fill:#ff7f0e;opacity:0.4;stroke:#ffffff;stroke-linejoin:miter;"/>
   </g>
   <g id="patch_77">
    <path clip-path="url(#pdd7dfacdbd)" d="M 294.447273 45965.875932 
L 297.490909 45965.875932 
L 297.490909 158.43981 
L 294.447273 158.43981 
z
" style="fill:#ff7f0e;opacity:0.4;stroke:#ffffff;stroke-linejoin:miter;"/>
   </g>
   <g id="patch_78">
    <path clip-path="url(#pdd7dfacdbd)" d="M 297.490909 45965.875932 
L 300.534545 45965.875932 
L 300.534545 154.675403 
L 297.490909 154.675403 
z
" style="fill:#ff7f0e;opacity:0.4;stroke:#ffffff;stroke-linejoin:miter;"/>
   </g>
   <g id="patch_79">
    <path clip-path="url(#pdd7dfacdbd)" d="M 300.534545 45965.875932 
L 303.578182 45965.875932 
L 303.578182 173.15509 
L 300.534545 173.15509 
z
" style="fill:#ff7f0e;opacity:0.4;stroke:#ffffff;stroke-linejoin:miter;"/>
   </g>
   <g id="patch_80">
    <path clip-path="url(#pdd7dfacdbd)" d="M 303.578182 45965.875932 
L 306.621818 45965.875932 
L 306.621818 170.419435 
L 303.578182 170.419435 
z
" style="fill:#ff7f0e;opacity:0.4;stroke:#ffffff;stroke-linejoin:miter;"/>
   </g>
   <g id="patch_81">
    <path clip-path="url(#pdd7dfacdbd)" d="M 306.621818 45965.875932 
L 309.665455 45965.875932 
L 309.665455 174.997166 
L 306.621818 174.997166 
z
" style="fill:#ff7f0e;opacity:0.4;stroke:#ffffff;stroke-linejoin:miter;"/>
   </g>
   <g id="patch_82">
    <path clip-path="url(#pdd7dfacdbd)" d="M 309.665455 45965.875932 
L 312.709091 45965.875932 
L 312.709091 169.169822 
L 309.665455 169.169822 
z
" style="fill:#ff7f0e;opacity:0.4;stroke:#ffffff;stroke-linejoin:miter;"/>
   </g>
   <g id="patch_83">
    <path clip-path="url(#pdd7dfacdbd)" d="M 312.709091 45965.875932 
L 315.752727 45965.875932 
L 315.752727 174.927674 
L 312.709091 174.927674 
z
" style="fill:#ff7f0e;opacity:0.4;stroke:#ffffff;stroke-linejoin:miter;"/>
   </g>
   <g id="patch_84">
    <path clip-path="url(#pdd7dfacdbd)" d="M 315.752727 45965.875932 
L 318.796364 45965.875932 
L 318.796364 188.005544 
L 315.752727 188.005544 
z
" style="fill:#ff7f0e;opacity:0.4;stroke:#ffffff;stroke-linejoin:miter;"/>
   </g>
   <g id="patch_85">
    <path clip-path="url(#pdd7dfacdbd)" d="M 318.796364 45965.875932 
L 321.84 45965.875932 
L 321.84 197.058705 
L 318.796364 197.058705 
z
" style="fill:#ff7f0e;opacity:0.4;stroke:#ffffff;stroke-linejoin:miter;"/>
   </g>
   <g id="patch_86">
    <path clip-path="url(#pdd7dfacdbd)" d="M 321.84 45965.875932 
L 324.883636 45965.875932 
L 324.883636 189.84762 
L 321.84 189.84762 
z
" style="fill:#ff7f0e;opacity:0.4;stroke:#ffffff;stroke-linejoin:miter;"/>
   </g>
   <g id="patch_87">
    <path clip-path="url(#pdd7dfacdbd)" d="M 324.883636 45965.875932 
L 327.927273 45965.875932 
L 327.927273 198.900781 
L 324.883636 198.900781 
z
" style="fill:#ff7f0e;opacity:0.4;stroke:#ffffff;stroke-linejoin:miter;"/>
   </g>
   <g id="patch_88">
    <path clip-path="url(#pdd7dfacdbd)" d="M 327.927273 45965.875932 
L 330.970909 45965.875932 
L 330.970909 227.625732 
L 327.927273 227.625732 
z
" style="fill:#ff7f0e;opacity:0.4;stroke:#ffffff;stroke-linejoin:miter;"/>
   </g>
   <g id="patch_89">
    <path clip-path="url(#pdd7dfacdbd)" d="M 330.970909 45965.875932 
L 334.014545 45965.875932 
L 334.014545 228.546771 
L 330.970909 228.546771 
z
" style="fill:#ff7f0e;opacity:0.4;stroke:#ffffff;stroke-linejoin:miter;"/>
   </g>
   <g id="patch_90">
    <path clip-path="url(#pdd7dfacdbd)" d="M 334.014545 45965.875932 
L 337.058182 45965.875932 
L 337.058182 45965.875932 
L 334.014545 45965.875932 
z
" style="fill:#ff7f0e;opacity:0.4;stroke:#ffffff;stroke-linejoin:miter;"/>
   </g>
   <g id="patch_91">
    <path clip-path="url(#pdd7dfacdbd)" d="M 337.058182 45965.875932 
L 340.101818 45965.875932 
L 340.101818 216.48689 
L 337.058182 216.48689 
z
" style="fill:#ff7f0e;opacity:0.4;stroke:#ffffff;stroke-linejoin:miter;"/>
   </g>
   <g id="patch_92">
    <path clip-path="url(#pdd7dfacdbd)" d="M 340.101818 45965.875932 
L 343.145455 45965.875932 
L 343.145455 231.309885 
L 340.101818 231.309885 
z
" style="fill:#ff7f0e;opacity:0.4;stroke:#ffffff;stroke-linejoin:miter;"/>
   </g>
   <g id="patch_93">
    <path clip-path="url(#pdd7dfacdbd)" d="M 343.145455 45965.875932 
L 346.189091 45965.875932 
L 346.189091 45965.875932 
L 343.145455 45965.875932 
z
" style="fill:#ff7f0e;opacity:0.4;stroke:#ffffff;stroke-linejoin:miter;"/>
   </g>
   <g id="patch_94">
    <path clip-path="url(#pdd7dfacdbd)" d="M 346.189091 45965.875932 
L 349.232727 45965.875932 
L 349.232727 219.250004 
L 346.189091 219.250004 
z
" style="fill:#ff7f0e;opacity:0.4;stroke:#ffffff;stroke-linejoin:miter;"/>
   </g>
   <g id="patch_95">
    <path clip-path="url(#pdd7dfacdbd)" d="M 349.232727 45965.875932 
L 352.276364 45965.875932 
L 352.276364 220.171042 
L 349.232727 220.171042 
z
" style="fill:#ff7f0e;opacity:0.4;stroke:#ffffff;stroke-linejoin:miter;"/>
   </g>
   <g id="patch_96">
    <path clip-path="url(#pdd7dfacdbd)" d="M 352.276364 45965.875932 
L 355.32 45965.875932 
L 355.32 45965.875932 
L 352.276364 45965.875932 
z
" style="fill:#ff7f0e;opacity:0.4;stroke:#ffffff;stroke-linejoin:miter;"/>
   </g>
   <g id="patch_97">
    <path clip-path="url(#pdd7dfacdbd)" d="M 355.32 45965.875932 
L 358.363636 45965.875932 
L 358.363636 45965.875932 
L 355.32 45965.875932 
z
" style="fill:#ff7f0e;opacity:0.4;stroke:#ffffff;stroke-linejoin:miter;"/>
   </g>
   <g id="patch_98">
    <path clip-path="url(#pdd7dfacdbd)" d="M 358.363636 45965.875932 
L 361.407273 45965.875932 
L 361.407273 45965.875932 
L 358.363636 45965.875932 
z
" style="fill:#ff7f0e;opacity:0.4;stroke:#ffffff;stroke-linejoin:miter;"/>
   </g>
   <g id="patch_99">
    <path clip-path="url(#pdd7dfacdbd)" d="M 361.407273 45965.875932 
L 364.450909 45965.875932 
L 364.450909 45965.875932 
L 361.407273 45965.875932 
z
" style="fill:#ff7f0e;opacity:0.4;stroke:#ffffff;stroke-linejoin:miter;"/>
   </g>
   <g id="patch_100">
    <path clip-path="url(#pdd7dfacdbd)" d="M 364.450909 45965.875932 
L 367.494545 45965.875932 
L 367.494545 238.678189 
L 364.450909 238.678189 
z
" style="fill:#ff7f0e;opacity:0.4;stroke:#ffffff;stroke-linejoin:miter;"/>
   </g>
   <g id="patch_101">
    <path clip-path="url(#pdd7dfacdbd)" d="M 367.494545 45965.875932 
L 370.538182 45965.875932 
L 370.538182 239.599227 
L 367.494545 239.599227 
z
" style="fill:#ff7f0e;opacity:0.4;stroke:#ffffff;stroke-linejoin:miter;"/>
   </g>
   <g id="line2d_70">
    <path clip-path="url(#pdd7dfacdbd)" d="M 69.218182 136.829147 
L 78.702538 123.23231 
L 78.702538 123.23231 
L 87.322125 111.295849 
L 94.948624 101.163551 
L 94.948624 101.163551 
L 102.046813 92.182391 
L 102.046813 92.182391 
L 107.748948 85.342784 
L 113.043008 79.339875 
L 117.863772 74.202035 
L 117.863772 74.202035 
L 122.395643 69.688919 
L 122.395643 69.688919 
L 126.762305 65.658036 
L 130.791886 62.237016 
L 130.791886 62.237016 
L 134.70127 59.210601 
L 138.452664 56.592689 
L 141.947205 54.417905 
L 145.345942 52.55602 
L 145.345942 52.55602 
L 148.746203 50.950577 
L 152.004871 49.658851 
L 152.004871 49.658851 
L 155.137997 48.648247 
L 158.277466 47.865168 
L 158.277466 47.865168 
L 161.416086 47.31274 
L 161.416086 47.31274 
L 164.513726 46.992865 
L 164.513726 46.992865 
L 167.665698 46.895282 
L 167.665698 46.895282 
L 170.817799 47.024418 
L 173.991356 47.379022 
L 173.991356 47.379022 
L 177.23337 47.968113 
L 177.23337 47.968113 
L 180.514618 48.790539 
L 180.514618 48.790539 
L 183.920149 49.875819 
L 187.409626 51.221973 
L 191.083581 52.882357 
L 194.890658 54.850557 
L 194.890658 54.850557 
L 198.912455 57.1852 
L 198.912455 57.1852 
L 203.09979 59.873675 
L 203.09979 59.873675 
L 207.567174 63.007013 
L 207.567174 63.007013 
L 212.39225 66.668826 
L 217.57281 70.886113 
L 223.173383 75.736822 
L 223.173383 75.736822 
L 229.2932 81.335095 
L 236.105186 87.874357 
L 243.395762 95.16842 
L 243.395762 95.16842 
L 252.015349 104.10599 
L 252.015349 104.10599 
L 262.000725 114.785508 
L 262.000725 114.785508 
L 274.238842 128.219105 
L 274.238842 128.219105 
L 289.335776 145.141531 
L 309.31679 167.895669 
L 337.981366 200.895699 
L 373.581818 242.116364 
L 373.581818 242.116364 
" style="fill:none;stroke:#1f77b4;stroke-linecap:round;stroke-width:1.5;"/>
   </g>
   <g id="patch_102">
    <path d="M 54 252 
L 54 34.56 
" style="fill:none;stroke:#000000;stroke-linecap:square;stroke-linejoin:miter;stroke-width:0.8;"/>
   </g>
   <g id="patch_103">
    <path d="M 388.8 252 
L 388.8 34.56 
" style="fill:none;stroke:#000000;stroke-linecap:square;stroke-linejoin:miter;stroke-width:0.8;"/>
   </g>
   <g id="patch_104">
    <path d="M 54 252 
L 388.8 252 
" style="fill:none;stroke:#000000;stroke-linecap:square;stroke-linejoin:miter;stroke-width:0.8;"/>
   </g>
   <g id="patch_105">
    <path d="M 54 34.56 
L 388.8 34.56 
" style="fill:none;stroke:#000000;stroke-linecap:square;stroke-linejoin:miter;stroke-width:0.8;"/>
   </g>
  </g>
 </g>
 <defs>
  <clipPath id="pdd7dfacdbd">
   <rect height="217.44" width="334.8" x="54" y="34.56"/>
  </clipPath>
 </defs>
</svg>
