<svg version="1.1" xmlns="http://www.w3.org/2000/svg" xmlns:xlink="http://www.w3.org/1999/xlink" width="600" height="600" style="width: 600px; height: 600px;"><defs><clipPath id="IiUqrnRMLNLw"><path fill="none" stroke="none" d=" M 48 5 L 570 5 L 570 555 L 48 555 L 48 5 Z"/></clipPath><clipPath id="nzDlWTLNsity"><path fill="none" stroke="none" d=" M 48 5 L 570 5 L 570 555 L 48 555 L 48 5 Z"/></clipPath><clipPath id="oHJiiWaHrOpq"><path fill="none" stroke="none" d=" M 48 5 L 570 5 L 570 555 L 48 555 L 48 5 Z"/></clipPath><clipPath id="JzdmVPDOlICZ"><path fill="none" stroke="none" d=" M 48 5 L 570 5 L 570 555 L 48 555 L 48 5 Z"/></clipPath><clipPath id="McbbgWNAAwww"><path fill="none" stroke="none" d=" M 48 5 L 570 5 L 570 555 L 48 555 L 48 5 Z"/></clipPath><clipPath id="EhVWQpkMeDli"><path fill="none" stroke="none" d=" M 48 5 L 570 5 L 570 555 L 48 555 L 48 5 Z"/></clipPath></defs><g><g transform="scale(1,1) translate(0.5,0.5)"><rect fill="#FFFFFF" stroke="none" x="0" y="0" width="600" height="600"/><rect fill="#ffffff" stroke="none" x="0" y="0" width="600" height="600"/><rect fill="#FFFFFF" stroke="none" x="48" y="5" width="522" height="550"/><rect fill="#ffffff" stroke="none" x="48" y="5" width="522" height="550"/><g><rect fill="none" stroke="#e5e5e5" x="48" y="5" width="522" height="550" stroke-linejoin="bevel" stroke-miterlimit="10"/></g><g clip-path="url(#IiUqrnRMLNLw)"><g><g><path fill="none" stroke="#e5e5e5" paint-order="fill stroke markers" d=" M 135 555 L 135 5" stroke-linejoin="bevel" stroke-miterlimit="10"/><path fill="none" stroke="#e5e5e5" paint-order="fill stroke markers" d=" M 222 555 L 222 5" stroke-linejoin="bevel" stroke-miterlimit="10"/><path fill="none" stroke="#e5e5e5" paint-order="fill stroke markers" d=" M 309 555 L 309 5" stroke-linejoin="bevel" stroke-miterlimit="10"/><path fill="none" stroke="#e5e5e5" paint-order="fill stroke markers" d=" M 396 555 L 396 5" stroke-linejoin="bevel" stroke-miterlimit="10"/><path fill="none" stroke="#e5e5e5" paint-order="fill stroke markers" d=" M 483 555 L 483 5" stroke-linejoin="bevel" stroke-miterlimit="10"/></g></g></g><g clip-path="url(#nzDlWTLNsity)"><g><g><path fill="none" stroke="#e5e5e5" paint-order="fill stroke markers" d=" M 48 530 L 570 530" stroke-linejoin="bevel" stroke-miterlimit="10"/><path fill="none" stroke="#e5e5e5" paint-order="fill stroke markers" d=" M 48 430 L 570 430" stroke-linejoin="bevel" stroke-miterlimit="10"/><path fill="none" stroke="#e5e5e5" paint-order="fill stroke markers" d=" M 48 330 L 570 330" stroke-linejoin="bevel" stroke-miterlimit="10"/><path fill="none" stroke="#e5e5e5" paint-order="fill stroke markers" d=" M 48 230 L 570 230" stroke-linejoin="bevel" stroke-miterlimit="10"/><path fill="none" stroke="#e5e5e5" paint-order="fill stroke markers" d=" M 48 130 L 570 130" stroke-linejoin="bevel" stroke-miterlimit="10"/><path fill="none" stroke="#e5e5e5" paint-order="fill stroke markers" d=" M 48 30 L 570 30" stroke-linejoin="bevel" stroke-miterlimit="10"/></g></g></g><g clip-path="url(#oHJiiWaHrOpq)"><g><g><path fill="none" stroke="#e5e5e5" paint-order="fill stroke markers" d=" M 135 555 L 135 5" stroke-linejoin="bevel" stroke-miterlimit="10"/><path fill="none" stroke="#e5e5e5" paint-order="fill stroke markers" d=" M 222 555 L 222 5" stroke-linejoin="bevel" stroke-miterlimit="10"/><path fill="none" stroke="#e5e5e5" paint-order="fill stroke markers" d=" M 309 555 L 309 5" stroke-linejoin="bevel" stroke-miterlimit="10"/><path fill="none" stroke="#e5e5e5" paint-order="fill stroke markers" d=" M 396 555 L 396 5" stroke-linejoin="bevel" stroke-miterlimit="10"/><path fill="none" stroke="#e5e5e5" paint-order="fill stroke markers" d=" M 483 555 L 483 5" stroke-linejoin="bevel" stroke-miterlimit="10"/></g></g></g><g clip-path="url(#JzdmVPDOlICZ)"><g><g><path fill="none" stroke="#e5e5e5" paint-order="fill stroke markers" d=" M 48 530 L 570 530" stroke-linejoin="bevel" stroke-miterlimit="10"/><path fill="none" stroke="#e5e5e5" paint-order="fill stroke markers" d=" M 48 430 L 570 430" stroke-linejoin="bevel" stroke-miterlimit="10"/><path fill="none" stroke="#e5e5e5" paint-order="fill stroke markers" d=" M 48 330 L 570 330" stroke-linejoin="bevel" stroke-miterlimit="10"/><path fill="none" stroke="#e5e5e5" paint-order="fill stroke markers" d=" M 48 230 L 570 230" stroke-linejoin="bevel" stroke-miterlimit="10"/><path fill="none" stroke="#e5e5e5" paint-order="fill stroke markers" d=" M 48 130 L 570 130" stroke-linejoin="bevel" stroke-miterlimit="10"/><path fill="none" stroke="#e5e5e5" paint-order="fill stroke markers" d=" M 48 30 L 570 30" stroke-linejoin="bevel" stroke-miterlimit="10"/></g></g></g><g clip-path="url(#McbbgWNAAwww)"><g><g><path fill="none" stroke="none"/><path fill="#1f77b4" stroke="none" paint-order="stroke fill markers" d=" M 71.72727272727272 481.5251938087017 L 110.9099249374479 481.5251938087017 L 110.9099249374479 530 L 71.72727272727272 530 L 71.72727272727272 481.5251938087017 Z"/><path fill="none" stroke="#1f77b4" paint-order="fill stroke markers" d=" M 71.72727272727272 481.5251938087017 L 110.9099249374479 481.5251938087017 L 110.9099249374479 530 L 71.72727272727272 530 L 71.72727272727272 481.5251938087017 Z" stroke-linejoin="bevel" stroke-miterlimit="10"/><path fill="#1f77b4" stroke="none" paint-order="stroke fill markers" d=" M 115.26355296080064 513.9044020402035 L 154.4462051709758 513.9044020402035 L 154.4462051709758 530 L 115.26355296080064 530 L 115.26355296080064 513.9044020402035 Z"/><path fill="none" stroke="#1f77b4" paint-order="fill stroke markers" d=" M 115.26355296080064 513.9044020402035 L 154.4462051709758 513.9044020402035 L 154.4462051709758 530 L 115.26355296080064 530 L 115.26355296080064 513.9044020402035 Z" stroke-linejoin="bevel" stroke-miterlimit="10"/><path fill="#1f77b4" stroke="none" paint-order="stroke fill markers" d=" M 158.79983319432856 522.8212557843984 L 197.9824854045037 522.8212557843984 L 197.9824854045037 530 L 158.79983319432856 530 L 158.79983319432856 522.8212557843984 Z"/><path fill="none" stroke="#1f77b4" paint-order="fill stroke markers" d=" M 158.79983319432856 522.8212557843984 L 197.9824854045037 522.8212557843984 L 197.9824854045037 530 L 158.79983319432856 530 L 158.79983319432856 522.8212557843984 Z" stroke-linejoin="bevel" stroke-miterlimit="10"/><path fill="#1f77b4" stroke="none" paint-order="stroke fill markers" d=" M 202.33611342785653 528.0337826568579 L 241.51876563803168 528.0337826568579 L 241.51876563803168 530 L 202.33611342785653 530 L 202.33611342785653 528.0337826568579 Z"/><path fill="none" stroke="#1f77b4" paint-order="fill stroke markers" d=" M 202.33611342785653 528.0337826568579 L 241.51876563803168 528.0337826568579 L 241.51876563803168 530 L 202.33611342785653 530 L 202.33611342785653 528.0337826568579 Z" stroke-linejoin="bevel" stroke-miterlimit="10"/><path fill="#1f77b4" stroke="none" paint-order="stroke fill markers" d=" M 245.87239366138445 530 L 285.0550458715596 530 L 285.0550458715596 530 L 245.87239366138445 530 L 245.87239366138445 530 Z"/><path fill="none" stroke="#1f77b4" paint-order="fill stroke markers" d=" M 245.87239366138445 530 L 285.0550458715596 530 L 285.0550458715596 530 L 245.87239366138445 530 L 245.87239366138445 530 Z" stroke-linejoin="bevel" stroke-miterlimit="10"/><path fill="#1f77b4" stroke="none" paint-order="stroke fill markers" d=" M 289.40867389491234 523.6009843152206 L 328.59132610508755 523.6009843152206 L 328.59132610508755 530 L 289.40867389491234 530 L 289.40867389491234 523.6009843152206 Z"/><path fill="none" stroke="#1f77b4" paint-order="fill stroke markers" d=" M 289.40867389491234 523.6009843152206 L 328.59132610508755 523.6009843152206 L 328.59132610508755 530 L 289.40867389491234 530 L 289.40867389491234 523.6009843152206 Z" stroke-linejoin="bevel" stroke-miterlimit="10"/><path fill="#1f77b4" stroke="none" paint-order="stroke fill markers" d=" M 332.9449541284403 502.35755832433847 L 372.1276063386154 502.35755832433847 L 372.1276063386154 530 L 332.9449541284403 530 L 332.9449541284403 502.35755832433847 Z"/><path fill="none" stroke="#1f77b4" paint-order="fill stroke markers" d=" M 332.9449541284403 502.35755832433847 L 372.1276063386154 502.35755832433847 L 372.1276063386154 530 L 332.9449541284403 530 L 332.9449541284403 502.35755832433847 Z" stroke-linejoin="bevel" stroke-miterlimit="10"/><path fill="#1f77b4" stroke="none" paint-order="stroke fill markers" d=" M 376.4812343619683 465.9365596754405 L 415.66388657214327 465.9365596754405 L 415.66388657214327 530 L 376.4812343619683 530 L 376.4812343619683 465.9365596754405 Z"/><path fill="none" stroke="#1f77b4" paint-order="fill stroke markers" d=" M 376.4812343619683 465.9365596754405 L 415.66388657214327 465.9365596754405 L 415.66388657214327 530 L 376.4812343619683 530 L 376.4812343619683 465.9365596754405 Z" stroke-linejoin="bevel" stroke-miterlimit="10"/><path fill="#1f77b4" stroke="none" paint-order="stroke fill markers" d=" M 420.0175145954962 407.7343002419939 L 459.2001668056713 407.7343002419939 L 459.2001668056713 530 L 420.0175145954962 530 L 420.0175145954962 407.7343002419939 Z"/><path fill="none" stroke="#1f77b4" paint-order="fill stroke markers" d=" M 420.0175145954962 407.7343002419939 L 459.2001668056713 407.7343002419939 L 459.2001668056713 530 L 420.0175145954962 530 L 420.0175145954962 407.7343002419939 Z" stroke-linejoin="bevel" stroke-miterlimit="10"/><path fill="#1f77b4" stroke="none" paint-order="stroke fill markers" d=" M 463.55379482902424 286.9471877308079 L 502.7364470391992 286.9471877308079 L 502.7364470391992 530 L 463.55379482902424 530 L 463.55379482902424 286.9471877308079 Z"/><path fill="none" stroke="#1f77b4" paint-order="fill stroke markers" d=" M 463.55379482902424 286.9471877308079 L 502.7364470391992 286.9471877308079 L 502.7364470391992 530 L 463.55379482902424 530 L 463.55379482902424 286.9471877308079 Z" stroke-linejoin="bevel" stroke-miterlimit="10"/><path fill="#1f77b4" stroke="none" paint-order="stroke fill markers" d=" M 507.09007506255216 30.000000000000057 L 546.2727272727273 30.000000000000057 L 546.2727272727273 530 L 507.09007506255216 530 L 507.09007506255216 30.000000000000057 Z"/><path fill="none" stroke="#1f77b4" paint-order="fill stroke markers" d=" M 507.09007506255216 30.000000000000057 L 546.2727272727273 30.000000000000057 L 546.2727272727273 530 L 507.09007506255216 530 L 507.09007506255216 30.000000000000057 Z" stroke-linejoin="bevel" stroke-miterlimit="10"/></g></g></g><g/><g/><g><g fill="#444444"><path fill="none" stroke="black" paint-order="fill stroke markers" d=" M 48 555 L 570 555" stroke-linejoin="bevel" stroke-miterlimit="10"/><path fill="none" stroke="black" paint-order="fill stroke markers" d=" M 135 561 L 135 553" stroke-linejoin="bevel" stroke-miterlimit="10"/><path fill="none" stroke="black" paint-order="fill stroke markers" d=" M 222 561 L 222 553" stroke-linejoin="bevel" stroke-miterlimit="10"/><path fill="none" stroke="black" paint-order="fill stroke markers" d=" M 309 561 L 309 553" stroke-linejoin="bevel" stroke-miterlimit="10"/><path fill="none" stroke="black" paint-order="fill stroke markers" d=" M 396 561 L 396 553" stroke-linejoin="bevel" stroke-miterlimit="10"/><path fill="none" stroke="black" paint-order="fill stroke markers" d=" M 483 561 L 483 553" stroke-linejoin="bevel" stroke-miterlimit="10"/><path fill="none" stroke="black" paint-order="fill stroke markers" d=" M 117 559 L 117 555" stroke-linejoin="bevel" stroke-miterlimit="10"/><path fill="none" stroke="black" paint-order="fill stroke markers" d=" M 100 559 L 100 555" stroke-linejoin="bevel" stroke-miterlimit="10"/><path fill="none" stroke="black" paint-order="fill stroke markers" d=" M 83 559 L 83 555" stroke-linejoin="bevel" stroke-miterlimit="10"/><path fill="none" stroke="black" paint-order="fill stroke markers" d=" M 65 559 L 65 555" stroke-linejoin="bevel" stroke-miterlimit="10"/><path fill="none" stroke="black" paint-order="fill stroke markers" d=" M 135 559 L 135 555" stroke-linejoin="bevel" stroke-miterlimit="10"/><path fill="none" stroke="black" paint-order="fill stroke markers" d=" M 152 559 L 152 555" stroke-linejoin="bevel" stroke-miterlimit="10"/><path fill="none" stroke="black" paint-order="fill stroke markers" d=" M 170 559 L 170 555" stroke-linejoin="bevel" stroke-miterlimit="10"/><path fill="none" stroke="black" paint-order="fill stroke markers" d=" M 187 559 L 187 555" stroke-linejoin="bevel" stroke-miterlimit="10"/><path fill="none" stroke="black" paint-order="fill stroke markers" d=" M 205 559 L 205 555" stroke-linejoin="bevel" stroke-miterlimit="10"/><path fill="none" stroke="black" paint-order="fill stroke markers" d=" M 222 559 L 222 555" stroke-linejoin="bevel" stroke-miterlimit="10"/><path fill="none" stroke="black" paint-order="fill stroke markers" d=" M 239 559 L 239 555" stroke-linejoin="bevel" stroke-miterlimit="10"/><path fill="none" stroke="black" paint-order="fill stroke markers" d=" M 257 559 L 257 555" stroke-linejoin="bevel" stroke-miterlimit="10"/><path fill="none" stroke="black" paint-order="fill stroke markers" d=" M 274 559 L 274 555" stroke-linejoin="bevel" stroke-miterlimit="10"/><path fill="none" stroke="black" paint-order="fill stroke markers" d=" M 292 559 L 292 555" stroke-linejoin="bevel" stroke-miterlimit="10"/><path fill="none" stroke="black" paint-order="fill stroke markers" d=" M 309 559 L 309 555" stroke-linejoin="bevel" stroke-miterlimit="10"/><path fill="none" stroke="black" paint-order="fill stroke markers" d=" M 326 559 L 326 555" stroke-linejoin="bevel" stroke-miterlimit="10"/><path fill="none" stroke="black" paint-order="fill stroke markers" d=" M 344 559 L 344 555" stroke-linejoin="bevel" stroke-miterlimit="10"/><path fill="none" stroke="black" paint-order="fill stroke markers" d=" M 361 559 L 361 555" stroke-linejoin="bevel" stroke-miterlimit="10"/><path fill="none" stroke="black" paint-order="fill stroke markers" d=" M 379 559 L 379 555" stroke-linejoin="bevel" stroke-miterlimit="10"/><path fill="none" stroke="black" paint-order="fill stroke markers" d=" M 396 559 L 396 555" stroke-linejoin="bevel" stroke-miterlimit="10"/><path fill="none" stroke="black" paint-order="fill stroke markers" d=" M 413 559 L 413 555" stroke-linejoin="bevel" stroke-miterlimit="10"/><path fill="none" stroke="black" paint-order="fill stroke markers" d=" M 431 559 L 431 555" stroke-linejoin="bevel" stroke-miterlimit="10"/><path fill="none" stroke="black" paint-order="fill stroke markers" d=" M 448 559 L 448 555" stroke-linejoin="bevel" stroke-miterlimit="10"/><path fill="none" stroke="black" paint-order="fill stroke markers" d=" M 466 559 L 466 555" stroke-linejoin="bevel" stroke-miterlimit="10"/><path fill="none" stroke="black" paint-order="fill stroke markers" d=" M 483 559 L 483 555" stroke-linejoin="bevel" stroke-miterlimit="10"/><path fill="none" stroke="black" paint-order="fill stroke markers" d=" M 501 559 L 501 555" stroke-linejoin="bevel" stroke-miterlimit="10"/><path fill="none" stroke="black" paint-order="fill stroke markers" d=" M 518 559 L 518 555" stroke-linejoin="bevel" stroke-miterlimit="10"/><path fill="none" stroke="black" paint-order="fill stroke markers" d=" M 535 559 L 535 555" stroke-linejoin="bevel" stroke-miterlimit="10"/><path fill="" stroke="black" paint-order="fill stroke markers" d=" M 553 559 L 553 555" stroke-linejoin="bevel" stroke-miterlimit="10"/><g transform="translate(135,566) rotate(0,0,0)"><text fill="" stroke="none" font-family="helvetica" font-size="8pt" font-style="normal" font-weight="normal" text-decoration="normal" x="0" y="0" text-anchor="middle" dominant-baseline="hanging">4</text><g transform="rotate(0,0,0) translate(-135,-566) translate(222,566) rotate(0,0,0)"><text fill="" stroke="none" font-family="helvetica" font-size="8pt" font-style="normal" font-weight="normal" text-decoration="normal" x="0" y="0" text-anchor="middle" dominant-baseline="hanging">6</text><g transform="rotate(0,0,0) translate(-222,-566) translate(309,566) rotate(0,0,0)"><text fill="" stroke="none" font-family="helvetica" font-size="8pt" font-style="normal" font-weight="normal" text-decoration="normal" x="0" y="0" text-anchor="middle" dominant-baseline="hanging">8</text><g transform="rotate(0,0,0) translate(-309,-566) translate(396,566) rotate(0,0,0)"><text fill="" stroke="none" font-family="helvetica" font-size="8pt" font-style="normal" font-weight="normal" text-decoration="normal" x="0" y="0" text-anchor="middle" dominant-baseline="hanging">10</text><g transform="rotate(0,0,0) translate(-396,-566) translate(483,566) rotate(0,0,0)"><text fill="" stroke="none" font-family="helvetica" font-size="8pt" font-style="normal" font-weight="normal" text-decoration="normal" x="0" y="0" text-anchor="middle" dominant-baseline="hanging">12</text><g transform="rotate(0,0,0) translate(-483,-566) translate(309,584) rotate(0,0,0)"><text fill="" stroke="none" font-family="helvetica" font-size="10pt" font-style="italic" font-weight="normal" text-decoration="normal" x="0" y="0" text-anchor="middle" dominant-baseline="hanging">Grade</text><g transform="rotate(0,0,0) translate(-309,-584)"/></g></g></g></g></g></g></g></g><g><g fill="#444444"><path fill="none" stroke="black" paint-order="fill stroke markers" d=" M 48 555 L 48 5" stroke-linejoin="bevel" stroke-miterlimit="10"/><path fill="none" stroke="black" paint-order="fill stroke markers" d=" M 42 530 L 50 530" stroke-linejoin="bevel" stroke-miterlimit="10"/><path fill="none" stroke="black" paint-order="fill stroke markers" d=" M 42 430 L 50 430" stroke-linejoin="bevel" stroke-miterlimit="10"/><path fill="none" stroke="black" paint-order="fill stroke markers" d=" M 42 330 L 50 330" stroke-linejoin="bevel" stroke-miterlimit="10"/><path fill="none" stroke="black" paint-order="fill stroke markers" d=" M 42 230 L 50 230" stroke-linejoin="bevel" stroke-miterlimit="10"/><path fill="none" stroke="black" paint-order="fill stroke markers" d=" M 42 130 L 50 130" stroke-linejoin="bevel" stroke-miterlimit="10"/><path fill="none" stroke="black" paint-order="fill stroke markers" d=" M 42 30 L 50 30" stroke-linejoin="bevel" stroke-miterlimit="10"/><path fill="none" stroke="black" paint-order="fill stroke markers" d=" M 44 550 L 48 550" stroke-linejoin="bevel" stroke-miterlimit="10"/><path fill="none" stroke="black" paint-order="fill stroke markers" d=" M 44 530 L 48 530" stroke-linejoin="bevel" stroke-miterlimit="10"/><path fill="none" stroke="black" paint-order="fill stroke markers" d=" M 44 510 L 48 510" stroke-linejoin="bevel" stroke-miterlimit="10"/><path fill="none" stroke="black" paint-order="fill stroke markers" d=" M 44 490 L 48 490" stroke-linejoin="bevel" stroke-miterlimit="10"/><path fill="none" stroke="black" paint-order="fill stroke markers" d=" M 44 470 L 48 470" stroke-linejoin="bevel" stroke-miterlimit="10"/><path fill="none" stroke="black" paint-order="fill stroke markers" d=" M 44 450 L 48 450" stroke-linejoin="bevel" stroke-miterlimit="10"/><path fill="none" stroke="black" paint-order="fill stroke markers" d=" M 44 430 L 48 430" stroke-linejoin="bevel" stroke-miterlimit="10"/><path fill="none" stroke="black" paint-order="fill stroke markers" d=" M 44 410 L 48 410" stroke-linejoin="bevel" stroke-miterlimit="10"/><path fill="none" stroke="black" paint-order="fill stroke markers" d=" M 44 390 L 48 390" stroke-linejoin="bevel" stroke-miterlimit="10"/><path fill="none" stroke="black" paint-order="fill stroke markers" d=" M 44 370 L 48 370" stroke-linejoin="bevel" stroke-miterlimit="10"/><path fill="none" stroke="black" paint-order="fill stroke markers" d=" M 44 350 L 48 350" stroke-linejoin="bevel" stroke-miterlimit="10"/><path fill="none" stroke="black" paint-order="fill stroke markers" d=" M 44 330 L 48 330" stroke-linejoin="bevel" stroke-miterlimit="10"/><path fill="none" stroke="black" paint-order="fill stroke markers" d=" M 44 310 L 48 310" stroke-linejoin="bevel" stroke-miterlimit="10"/><path fill="none" stroke="black" paint-order="fill stroke markers" d=" M 44 290 L 48 290" stroke-linejoin="bevel" stroke-miterlimit="10"/><path fill="none" stroke="black" paint-order="fill stroke markers" d=" M 44 270 L 48 270" stroke-linejoin="bevel" stroke-miterlimit="10"/><path fill="none" stroke="black" paint-order="fill stroke markers" d=" M 44 250 L 48 250" stroke-linejoin="bevel" stroke-miterlimit="10"/><path fill="none" stroke="black" paint-order="fill stroke markers" d=" M 44 230 L 48 230" stroke-linejoin="bevel" stroke-miterlimit="10"/><path fill="none" stroke="black" paint-order="fill stroke markers" d=" M 44 210 L 48 210" stroke-linejoin="bevel" stroke-miterlimit="10"/><path fill="none" stroke="black" paint-order="fill stroke markers" d=" M 44 190 L 48 190" stroke-linejoin="bevel" stroke-miterlimit="10"/><path fill="none" stroke="black" paint-order="fill stroke markers" d=" M 44 170 L 48 170" stroke-linejoin="bevel" stroke-miterlimit="10"/><path fill="none" stroke="black" paint-order="fill stroke markers" d=" M 44 150 L 48 150" stroke-linejoin="bevel" stroke-miterlimit="10"/><path fill="none" stroke="black" paint-order="fill stroke markers" d=" M 44 130 L 48 130" stroke-linejoin="bevel" stroke-miterlimit="10"/><path fill="none" stroke="black" paint-order="fill stroke markers" d=" M 44 110 L 48 110" stroke-linejoin="bevel" stroke-miterlimit="10"/><path fill="none" stroke="black" paint-order="fill stroke markers" d=" M 44 90 L 48 90" stroke-linejoin="bevel" stroke-miterlimit="10"/><path fill="none" stroke="black" paint-order="fill stroke markers" d=" M 44 70 L 48 70" stroke-linejoin="bevel" stroke-miterlimit="10"/><path fill="none" stroke="black" paint-order="fill stroke markers" d=" M 44 50 L 48 50" stroke-linejoin="bevel" stroke-miterlimit="10"/><path fill="none" stroke="black" paint-order="fill stroke markers" d=" M 44 30 L 48 30" stroke-linejoin="bevel" stroke-miterlimit="10"/><path fill="" stroke="black" paint-order="fill stroke markers" d=" M 44 10 L 48 10" stroke-linejoin="bevel" stroke-miterlimit="10"/><g transform="translate(37,530) rotate(0,0,0)"><text fill="" stroke="none" font-family="helvetica" font-size="8pt" font-style="normal" font-weight="normal" text-decoration="normal" x="0" y="0" text-anchor="end" dominant-baseline="central">0</text><g transform="rotate(0,0,0) translate(-37,-530) translate(37,430) rotate(0,0,0)"><text fill="" stroke="none" font-family="helvetica" font-size="8pt" font-style="normal" font-weight="normal" text-decoration="normal" x="0" y="0" text-anchor="end" dominant-baseline="central">0.2</text><g transform="rotate(0,0,0) translate(-37,-430) translate(37,330) rotate(0,0,0)"><text fill="" stroke="none" font-family="helvetica" font-size="8pt" font-style="normal" font-weight="normal" text-decoration="normal" x="0" y="0" text-anchor="end" dominant-baseline="central">0.4</text><g transform="rotate(0,0,0) translate(-37,-330) translate(37,230) rotate(0,0,0)"><text fill="" stroke="none" font-family="helvetica" font-size="8pt" font-style="normal" font-weight="normal" text-decoration="normal" x="0" y="0" text-anchor="end" dominant-baseline="central">0.6</text><g transform="rotate(0,0,0) translate(-37,-230) translate(37,130) rotate(0,0,0)"><text fill="" stroke="none" font-family="helvetica" font-size="8pt" font-style="normal" font-weight="normal" text-decoration="normal" x="0" y="0" text-anchor="end" dominant-baseline="central">0.8</text><g transform="rotate(0,0,0) translate(-37,-130) translate(37,30) rotate(0,0,0)"><text fill="" stroke="none" font-family="helvetica" font-size="8pt" font-style="normal" font-weight="normal" text-decoration="normal" x="0" y="0" text-anchor="end" dominant-baseline="central">1</text><g transform="rotate(0,0,0) translate(-37,-30) translate(15,280) rotate(-90,0,0)"><text fill="" stroke="none" font-family="helvetica" font-size="10pt" font-style="italic" font-weight="normal" text-decoration="normal" x="0" y="0" text-anchor="middle" dominant-baseline="alphabetic">grade_coef</text><g transform="rotate(90,0,0) translate(-15,-280)"/></g></g></g></g></g></g></g></g></g><g clip-path="url(#EhVWQpkMeDli)"><g/></g></g></g></svg>