<svg version="1.1" xmlns="http://www.w3.org/2000/svg" xmlns:xlink="http://www.w3.org/1999/xlink" width="600" height="600" style="width: 600px; height: 600px;"><defs><clipPath id="KwCPWgiMDpJZ"><path fill="none" stroke="none" d=" M 59 5 L 570 5 L 570 555 L 59 555 L 59 5 Z"/></clipPath><clipPath id="wepCazGZGosR"><path fill="none" stroke="none" d=" M 59 5 L 570 5 L 570 555 L 59 555 L 59 5 Z"/></clipPath><clipPath id="UdPCTmmqEKeV"><path fill="none" stroke="none" d=" M 59 5 L 570 5 L 570 555 L 59 555 L 59 5 Z"/></clipPath><clipPath id="cAHrUtmTwAJM"><path fill="none" stroke="none" d=" M 59 5 L 570 5 L 570 555 L 59 555 L 59 5 Z"/></clipPath><clipPath id="SQvKrKrMsLlm"><path fill="none" stroke="none" d=" M 59 5 L 570 5 L 570 555 L 59 555 L 59 5 Z"/></clipPath><clipPath id="JQBaZkOdceuK"><path fill="none" stroke="none" d=" M 59 5 L 570 5 L 570 555 L 59 555 L 59 5 Z"/></clipPath></defs><g><g transform="scale(1,1) translate(0.5,0.5)"><rect fill="#FFFFFF" stroke="none" x="0" y="0" width="600" height="600"/><rect fill="#ffffff" stroke="none" x="0" y="0" width="600" height="600"/><rect fill="#FFFFFF" stroke="none" x="59" y="5" width="511" height="550"/><rect fill="#ffffff" stroke="none" x="59" y="5" width="511" height="550"/><g><rect fill="none" stroke="#e5e5e5" x="59" y="5" width="511" height="550" stroke-linejoin="bevel" stroke-miterlimit="10"/></g><g clip-path="url(#KwCPWgiMDpJZ)"><g><g><path fill="none" stroke="#e5e5e5" paint-order="fill stroke markers" d=" M 125 555 L 125 5" stroke-linejoin="bevel" stroke-miterlimit="10"/><path fill="none" stroke="#e5e5e5" paint-order="fill stroke markers" d=" M 211 555 L 211 5" stroke-linejoin="bevel" stroke-miterlimit="10"/><path fill="none" stroke="#e5e5e5" paint-order="fill stroke markers" d=" M 298 555 L 298 5" stroke-linejoin="bevel" stroke-miterlimit="10"/><path fill="none" stroke="#e5e5e5" paint-order="fill stroke markers" d=" M 384 555 L 384 5" stroke-linejoin="bevel" stroke-miterlimit="10"/><path fill="none" stroke="#e5e5e5" paint-order="fill stroke markers" d=" M 471 555 L 471 5" stroke-linejoin="bevel" stroke-miterlimit="10"/><path fill="none" stroke="#e5e5e5" paint-order="fill stroke markers" d=" M 557 555 L 557 5" stroke-linejoin="bevel" stroke-miterlimit="10"/></g></g></g><g clip-path="url(#wepCazGZGosR)"><g><g><path fill="none" stroke="#e5e5e5" paint-order="fill stroke markers" d=" M 59 537 L 570 537" stroke-linejoin="bevel" stroke-miterlimit="10"/><path fill="none" stroke="#e5e5e5" paint-order="fill stroke markers" d=" M 59 449 L 570 449" stroke-linejoin="bevel" stroke-miterlimit="10"/><path fill="none" stroke="#e5e5e5" paint-order="fill stroke markers" d=" M 59 360 L 570 360" stroke-linejoin="bevel" stroke-miterlimit="10"/><path fill="none" stroke="#e5e5e5" paint-order="fill stroke markers" d=" M 59 271 L 570 271" stroke-linejoin="bevel" stroke-miterlimit="10"/><path fill="none" stroke="#e5e5e5" paint-order="fill stroke markers" d=" M 59 183 L 570 183" stroke-linejoin="bevel" stroke-miterlimit="10"/><path fill="none" stroke="#e5e5e5" paint-order="fill stroke markers" d=" M 59 94 L 570 94" stroke-linejoin="bevel" stroke-miterlimit="10"/><path fill="none" stroke="#e5e5e5" paint-order="fill stroke markers" d=" M 59 5 L 570 5" stroke-linejoin="bevel" stroke-miterlimit="10"/></g></g></g><g clip-path="url(#UdPCTmmqEKeV)"><g><g><path fill="none" stroke="#e5e5e5" paint-order="fill stroke markers" d=" M 125 555 L 125 5" stroke-linejoin="bevel" stroke-miterlimit="10"/><path fill="none" stroke="#e5e5e5" paint-order="fill stroke markers" d=" M 211 555 L 211 5" stroke-linejoin="bevel" stroke-miterlimit="10"/><path fill="none" stroke="#e5e5e5" paint-order="fill stroke markers" d=" M 298 555 L 298 5" stroke-linejoin="bevel" stroke-miterlimit="10"/><path fill="none" stroke="#e5e5e5" paint-order="fill stroke markers" d=" M 384 555 L 384 5" stroke-linejoin="bevel" stroke-miterlimit="10"/><path fill="none" stroke="#e5e5e5" paint-order="fill stroke markers" d=" M 471 555 L 471 5" stroke-linejoin="bevel" stroke-miterlimit="10"/><path fill="none" stroke="#e5e5e5" paint-order="fill stroke markers" d=" M 557 555 L 557 5" stroke-linejoin="bevel" stroke-miterlimit="10"/></g></g></g><g clip-path="url(#cAHrUtmTwAJM)"><g><g><path fill="none" stroke="#e5e5e5" paint-order="fill stroke markers" d=" M 59 537 L 570 537" stroke-linejoin="bevel" stroke-miterlimit="10"/><path fill="none" stroke="#e5e5e5" paint-order="fill stroke markers" d=" M 59 449 L 570 449" stroke-linejoin="bevel" stroke-miterlimit="10"/><path fill="none" stroke="#e5e5e5" paint-order="fill stroke markers" d=" M 59 360 L 570 360" stroke-linejoin="bevel" stroke-miterlimit="10"/><path fill="none" stroke="#e5e5e5" paint-order="fill stroke markers" d=" M 59 271 L 570 271" stroke-linejoin="bevel" stroke-miterlimit="10"/><path fill="none" stroke="#e5e5e5" paint-order="fill stroke markers" d=" M 59 183 L 570 183" stroke-linejoin="bevel" stroke-miterlimit="10"/><path fill="none" stroke="#e5e5e5" paint-order="fill stroke markers" d=" M 59 94 L 570 94" stroke-linejoin="bevel" stroke-miterlimit="10"/><path fill="none" stroke="#e5e5e5" paint-order="fill stroke markers" d=" M 59 5 L 570 5" stroke-linejoin="bevel" stroke-miterlimit="10"/></g></g></g><g clip-path="url(#SQvKrKrMsLlm)"><g><g><path fill="none" stroke="none"/><path fill="#1f77b4" stroke="none" paint-order="stroke fill markers" d=" M 82.2272727272939 359.9936937450217 L 114.63742071879096 359.9936937450217 L 114.63742071879096 359.9936937450217 L 82.2272727272939 359.9936937450217 L 82.2272727272939 359.9936937450217 Z"/><path fill="none" stroke="#1f77b4" paint-order="fill stroke markers" d=" M 82.2272727272939 359.9936937450217 L 114.63742071879096 359.9936937450217 L 114.63742071879096 359.9936937450217 L 82.2272727272939 359.9936937450217 L 82.2272727272939 359.9936937450217 Z" stroke-linejoin="bevel" stroke-miterlimit="10"/><path fill="#1f77b4" stroke="none" paint-order="stroke fill markers" d=" M 118.23854827345349 315.7552118272299 L 150.64869626495056 315.7552118272299 L 150.64869626495056 359.9936937450217 L 118.23854827345349 359.9936937450217 L 118.23854827345349 315.7552118272299 Z"/><path fill="none" stroke="#1f77b4" paint-order="fill stroke markers" d=" M 118.23854827345349 315.7552118272299 L 150.64869626495056 315.7552118272299 L 150.64869626495056 359.9936937450217 L 118.23854827345349 359.9936937450217 L 118.23854827345349 315.7552118272299 Z" stroke-linejoin="bevel" stroke-miterlimit="10"/><path fill="#1f77b4" stroke="none" paint-order="stroke fill markers" d=" M 154.24982381961308 460.70851633806444 L 186.65997181111015 460.70851633806444 L 186.65997181111015 359.9936937450217 L 154.24982381961308 359.9936937450217 L 154.24982381961308 460.70851633806444 Z"/><path fill="none" stroke="#1f77b4" paint-order="fill stroke markers" d=" M 154.24982381961308 460.70851633806444 L 186.65997181111015 460.70851633806444 L 186.65997181111015 359.9936937450217 L 154.24982381961308 359.9936937450217 L 154.24982381961308 460.70851633806444 Z" stroke-linejoin="bevel" stroke-miterlimit="10"/><path fill="#1f77b4" stroke="none" paint-order="stroke fill markers" d=" M 190.26109936577268 430.2159513362817 L 222.67124735726975 430.2159513362817 L 222.67124735726975 359.9936937450217 L 190.26109936577268 359.9936937450217 L 190.26109936577268 430.2159513362817 Z"/><path fill="none" stroke="#1f77b4" paint-order="fill stroke markers" d=" M 190.26109936577268 430.2159513362817 L 222.67124735726975 430.2159513362817 L 222.67124735726975 359.9936937450217 L 190.26109936577268 359.9936937450217 L 190.26109936577268 430.2159513362817 Z" stroke-linejoin="bevel" stroke-miterlimit="10"/><path fill="#1f77b4" stroke="none" paint-order="stroke fill markers" d=" M 226.27237491193227 426.4330027004386 L 258.68252290342934 426.4330027004386 L 258.68252290342934 359.9936937450217 L 226.27237491193227 359.9936937450217 L 226.27237491193227 426.4330027004386 Z"/><path fill="none" stroke="#1f77b4" paint-order="fill stroke markers" d=" M 226.27237491193227 426.4330027004386 L 258.68252290342934 426.4330027004386 L 258.68252290342934 359.9936937450217 L 226.27237491193227 359.9936937450217 L 226.27237491193227 426.4330027004386 Z" stroke-linejoin="bevel" stroke-miterlimit="10"/><path fill="#1f77b4" stroke="none" paint-order="stroke fill markers" d=" M 262.28365045809187 386.48573518219496 L 294.69379844958894 386.48573518219496 L 294.69379844958894 359.9936937450217 L 262.28365045809187 359.9936937450217 L 262.28365045809187 386.48573518219496 Z"/><path fill="none" stroke="#1f77b4" paint-order="fill stroke markers" d=" M 262.28365045809187 386.48573518219496 L 294.69379844958894 386.48573518219496 L 294.69379844958894 359.9936937450217 L 262.28365045809187 359.9936937450217 L 262.28365045809187 386.48573518219496 Z" stroke-linejoin="bevel" stroke-miterlimit="10"/><path fill="#1f77b4" stroke="none" paint-order="stroke fill markers" d=" M 298.29492600425147 435.85646043918297 L 330.70507399574853 435.85646043918297 L 330.70507399574853 359.9936937450217 L 298.29492600425147 359.9936937450217 L 298.29492600425147 435.85646043918297 Z"/><path fill="none" stroke="#1f77b4" paint-order="fill stroke markers" d=" M 298.29492600425147 435.85646043918297 L 330.70507399574853 435.85646043918297 L 330.70507399574853 359.9936937450217 L 298.29492600425147 359.9936937450217 L 298.29492600425147 435.85646043918297 Z" stroke-linejoin="bevel" stroke-miterlimit="10"/><path fill="#1f77b4" stroke="none" paint-order="stroke fill markers" d=" M 334.30620155041106 530 L 366.71634954190813 530 L 366.71634954190813 359.9936937450217 L 334.30620155041106 359.9936937450217 L 334.30620155041106 530 Z"/><path fill="none" stroke="#1f77b4" paint-order="fill stroke markers" d=" M 334.30620155041106 530 L 366.71634954190813 530 L 366.71634954190813 359.9936937450217 L 334.30620155041106 359.9936937450217 L 334.30620155041106 530 Z" stroke-linejoin="bevel" stroke-miterlimit="10"/><path fill="#1f77b4" stroke="none" paint-order="stroke fill markers" d=" M 370.31747709662886 477.4083073395389 L 402.7276250880095 477.4083073395389 L 402.7276250880095 359.9936937450217 L 370.31747709662886 359.9936937450217 L 370.31747709662886 477.4083073395389 Z"/><path fill="none" stroke="#1f77b4" paint-order="fill stroke markers" d=" M 370.31747709662886 477.4083073395389 L 402.7276250880095 477.4083073395389 L 402.7276250880095 359.9936937450217 L 370.31747709662886 359.9936937450217 L 370.31747709662886 477.4083073395389 Z" stroke-linejoin="bevel" stroke-miterlimit="10"/><path fill="#1f77b4" stroke="none" paint-order="stroke fill markers" d=" M 406.32875264273025 420.89688776187876 L 438.7389006342273 420.89688776187876 L 438.7389006342273 359.9936937450217 L 406.32875264273025 359.9936937450217 L 406.32875264273025 420.89688776187876 Z"/><path fill="none" stroke="#1f77b4" paint-order="fill stroke markers" d=" M 406.32875264273025 420.89688776187876 L 438.7389006342273 420.89688776187876 L 438.7389006342273 359.9936937450217 L 406.32875264273025 359.9936937450217 L 406.32875264273025 420.89688776187876 Z" stroke-linejoin="bevel" stroke-miterlimit="10"/><path fill="#1f77b4" stroke="none" paint-order="stroke fill markers" d=" M 442.34002818888985 185.63385716351337 L 474.7501761803869 185.63385716351337 L 474.7501761803869 359.9936937450217 L 442.34002818888985 359.9936937450217 L 442.34002818888985 185.63385716351337 Z"/><path fill="none" stroke="#1f77b4" paint-order="fill stroke markers" d=" M 442.34002818888985 185.63385716351337 L 474.7501761803869 185.63385716351337 L 474.7501761803869 359.9936937450217 L 442.34002818888985 359.9936937450217 L 442.34002818888985 185.63385716351337 Z" stroke-linejoin="bevel" stroke-miterlimit="10"/><path fill="#1f77b4" stroke="none" paint-order="stroke fill markers" d=" M 478.35130373504944 99.95623525745151 L 510.7614517265465 99.95623525745151 L 510.7614517265465 359.9936937450217 L 478.35130373504944 359.9936937450217 L 478.35130373504944 99.95623525745151 Z"/><path fill="none" stroke="#1f77b4" paint-order="fill stroke markers" d=" M 478.35130373504944 99.95623525745151 L 510.7614517265465 99.95623525745151 L 510.7614517265465 359.9936937450217 L 478.35130373504944 359.9936937450217 L 478.35130373504944 99.95623525745151 Z" stroke-linejoin="bevel" stroke-miterlimit="10"/><path fill="#1f77b4" stroke="none" paint-order="stroke fill markers" d=" M 514.362579281209 30 L 546.7727272727061 30 L 546.7727272727061 359.9936937450217 L 514.362579281209 359.9936937450217 L 514.362579281209 30 Z"/><path fill="none" stroke="#1f77b4" paint-order="fill stroke markers" d=" M 514.362579281209 30 L 546.7727272727061 30 L 546.7727272727061 359.9936937450217 L 514.362579281209 359.9936937450217 L 514.362579281209 30 Z" stroke-linejoin="bevel" stroke-miterlimit="10"/></g></g></g><g/><g/><g><g fill="#444444"><path fill="none" stroke="black" paint-order="fill stroke markers" d=" M 59 555 L 570 555" stroke-linejoin="bevel" stroke-miterlimit="10"/><path fill="none" stroke="black" paint-order="fill stroke markers" d=" M 125 561 L 125 553" stroke-linejoin="bevel" stroke-miterlimit="10"/><path fill="none" stroke="black" paint-order="fill stroke markers" d=" M 211 561 L 211 553" stroke-linejoin="bevel" stroke-miterlimit="10"/><path fill="none" stroke="black" paint-order="fill stroke markers" d=" M 298 561 L 298 553" stroke-linejoin="bevel" stroke-miterlimit="10"/><path fill="none" stroke="black" paint-order="fill stroke markers" d=" M 384 561 L 384 553" stroke-linejoin="bevel" stroke-miterlimit="10"/><path fill="none" stroke="black" paint-order="fill stroke markers" d=" M 471 561 L 471 553" stroke-linejoin="bevel" stroke-miterlimit="10"/><path fill="none" stroke="black" paint-order="fill stroke markers" d=" M 557 561 L 557 553" stroke-linejoin="bevel" stroke-miterlimit="10"/><path fill="none" stroke="black" paint-order="fill stroke markers" d=" M 108 559 L 108 555" stroke-linejoin="bevel" stroke-miterlimit="10"/><path fill="none" stroke="black" paint-order="fill stroke markers" d=" M 90 559 L 90 555" stroke-linejoin="bevel" stroke-miterlimit="10"/><path fill="none" stroke="black" paint-order="fill stroke markers" d=" M 73 559 L 73 555" stroke-linejoin="bevel" stroke-miterlimit="10"/><path fill="none" stroke="black" paint-order="fill stroke markers" d=" M 125 559 L 125 555" stroke-linejoin="bevel" stroke-miterlimit="10"/><path fill="none" stroke="black" paint-order="fill stroke markers" d=" M 142 559 L 142 555" stroke-linejoin="bevel" stroke-miterlimit="10"/><path fill="none" stroke="black" paint-order="fill stroke markers" d=" M 159 559 L 159 555" stroke-linejoin="bevel" stroke-miterlimit="10"/><path fill="none" stroke="black" paint-order="fill stroke markers" d=" M 177 559 L 177 555" stroke-linejoin="bevel" stroke-miterlimit="10"/><path fill="none" stroke="black" paint-order="fill stroke markers" d=" M 194 559 L 194 555" stroke-linejoin="bevel" stroke-miterlimit="10"/><path fill="none" stroke="black" paint-order="fill stroke markers" d=" M 211 559 L 211 555" stroke-linejoin="bevel" stroke-miterlimit="10"/><path fill="none" stroke="black" paint-order="fill stroke markers" d=" M 229 559 L 229 555" stroke-linejoin="bevel" stroke-miterlimit="10"/><path fill="none" stroke="black" paint-order="fill stroke markers" d=" M 246 559 L 246 555" stroke-linejoin="bevel" stroke-miterlimit="10"/><path fill="none" stroke="black" paint-order="fill stroke markers" d=" M 263 559 L 263 555" stroke-linejoin="bevel" stroke-miterlimit="10"/><path fill="none" stroke="black" paint-order="fill stroke markers" d=" M 280 559 L 280 555" stroke-linejoin="bevel" stroke-miterlimit="10"/><path fill="none" stroke="black" paint-order="fill stroke markers" d=" M 298 559 L 298 555" stroke-linejoin="bevel" stroke-miterlimit="10"/><path fill="none" stroke="black" paint-order="fill stroke markers" d=" M 315 559 L 315 555" stroke-linejoin="bevel" stroke-miterlimit="10"/><path fill="none" stroke="black" paint-order="fill stroke markers" d=" M 332 559 L 332 555" stroke-linejoin="bevel" stroke-miterlimit="10"/><path fill="none" stroke="black" paint-order="fill stroke markers" d=" M 350 559 L 350 555" stroke-linejoin="bevel" stroke-miterlimit="10"/><path fill="none" stroke="black" paint-order="fill stroke markers" d=" M 367 559 L 367 555" stroke-linejoin="bevel" stroke-miterlimit="10"/><path fill="none" stroke="black" paint-order="fill stroke markers" d=" M 384 559 L 384 555" stroke-linejoin="bevel" stroke-miterlimit="10"/><path fill="none" stroke="black" paint-order="fill stroke markers" d=" M 401 559 L 401 555" stroke-linejoin="bevel" stroke-miterlimit="10"/><path fill="none" stroke="black" paint-order="fill stroke markers" d=" M 419 559 L 419 555" stroke-linejoin="bevel" stroke-miterlimit="10"/><path fill="none" stroke="black" paint-order="fill stroke markers" d=" M 436 559 L 436 555" stroke-linejoin="bevel" stroke-miterlimit="10"/><path fill="none" stroke="black" paint-order="fill stroke markers" d=" M 453 559 L 453 555" stroke-linejoin="bevel" stroke-miterlimit="10"/><path fill="none" stroke="black" paint-order="fill stroke markers" d=" M 471 559 L 471 555" stroke-linejoin="bevel" stroke-miterlimit="10"/><path fill="none" stroke="black" paint-order="fill stroke markers" d=" M 488 559 L 488 555" stroke-linejoin="bevel" stroke-miterlimit="10"/><path fill="none" stroke="black" paint-order="fill stroke markers" d=" M 505 559 L 505 555" stroke-linejoin="bevel" stroke-miterlimit="10"/><path fill="none" stroke="black" paint-order="fill stroke markers" d=" M 522 559 L 522 555" stroke-linejoin="bevel" stroke-miterlimit="10"/><path fill="none" stroke="black" paint-order="fill stroke markers" d=" M 540 559 L 540 555" stroke-linejoin="bevel" stroke-miterlimit="10"/><path fill="" stroke="black" paint-order="fill stroke markers" d=" M 557 559 L 557 555" stroke-linejoin="bevel" stroke-miterlimit="10"/><g transform="translate(125,566) rotate(0,0,0)"><text fill="" stroke="none" font-family="helvetica" font-size="8pt" font-style="normal" font-weight="normal" text-decoration="normal" x="0" y="0" text-anchor="middle" dominant-baseline="hanging">2014.4</text><g transform="rotate(0,0,0) translate(-125,-566) translate(211,566) rotate(0,0,0)"><text fill="" stroke="none" font-family="helvetica" font-size="8pt" font-style="normal" font-weight="normal" text-decoration="normal" x="0" y="0" text-anchor="middle" dominant-baseline="hanging">2014.6</text><g transform="rotate(0,0,0) translate(-211,-566) translate(298,566) rotate(0,0,0)"><text fill="" stroke="none" font-family="helvetica" font-size="8pt" font-style="normal" font-weight="normal" text-decoration="normal" x="0" y="0" text-anchor="middle" dominant-baseline="hanging">2014.8</text><g transform="rotate(0,0,0) translate(-298,-566) translate(384,566) rotate(0,0,0)"><text fill="" stroke="none" font-family="helvetica" font-size="8pt" font-style="normal" font-weight="normal" text-decoration="normal" x="0" y="0" text-anchor="middle" dominant-baseline="hanging">2015</text><g transform="rotate(0,0,0) translate(-384,-566) translate(471,566) rotate(0,0,0)"><text fill="" stroke="none" font-family="helvetica" font-size="8pt" font-style="normal" font-weight="normal" text-decoration="normal" x="0" y="0" text-anchor="middle" dominant-baseline="hanging">2015.2</text><g transform="rotate(0,0,0) translate(-471,-566) translate(557,566) rotate(0,0,0)"><text fill="" stroke="none" font-family="helvetica" font-size="8pt" font-style="normal" font-weight="normal" text-decoration="normal" x="0" y="0" text-anchor="middle" dominant-baseline="hanging">2015.4</text><g transform="rotate(0,0,0) translate(-557,-566) translate(315,584) rotate(0,0,0)"><text fill="" stroke="none" font-family="helvetica" font-size="10pt" font-style="italic" font-weight="normal" text-decoration="normal" x="0" y="0" text-anchor="middle" dominant-baseline="hanging">Date</text><g transform="rotate(0,0,0) translate(-315,-584)"/></g></g></g></g></g></g></g></g></g><g><g fill="#444444"><path fill="none" stroke="black" paint-order="fill stroke markers" d=" M 59 555 L 59 5" stroke-linejoin="bevel" stroke-miterlimit="10"/><path fill="none" stroke="black" paint-order="fill stroke markers" d=" M 53 537 L 61 537" stroke-linejoin="bevel" stroke-miterlimit="10"/><path fill="none" stroke="black" paint-order="fill stroke markers" d=" M 53 449 L 61 449" stroke-linejoin="bevel" stroke-miterlimit="10"/><path fill="none" stroke="black" paint-order="fill stroke markers" d=" M 53 360 L 61 360" stroke-linejoin="bevel" stroke-miterlimit="10"/><path fill="none" stroke="black" paint-order="fill stroke markers" d=" M 53 271 L 61 271" stroke-linejoin="bevel" stroke-miterlimit="10"/><path fill="none" stroke="black" paint-order="fill stroke markers" d=" M 53 183 L 61 183" stroke-linejoin="bevel" stroke-miterlimit="10"/><path fill="none" stroke="black" paint-order="fill stroke markers" d=" M 53 94 L 61 94" stroke-linejoin="bevel" stroke-miterlimit="10"/><path fill="none" stroke="black" paint-order="fill stroke markers" d=" M 53 5 L 61 5" stroke-linejoin="bevel" stroke-miterlimit="10"/><path fill="none" stroke="black" paint-order="fill stroke markers" d=" M 55 537 L 59 537" stroke-linejoin="bevel" stroke-miterlimit="10"/><path fill="none" stroke="black" paint-order="fill stroke markers" d=" M 55 520 L 59 520" stroke-linejoin="bevel" stroke-miterlimit="10"/><path fill="none" stroke="black" paint-order="fill stroke markers" d=" M 55 502 L 59 502" stroke-linejoin="bevel" stroke-miterlimit="10"/><path fill="none" stroke="black" paint-order="fill stroke markers" d=" M 55 484 L 59 484" stroke-linejoin="bevel" stroke-miterlimit="10"/><path fill="none" stroke="black" paint-order="fill stroke markers" d=" M 55 466 L 59 466" stroke-linejoin="bevel" stroke-miterlimit="10"/><path fill="none" stroke="black" paint-order="fill stroke markers" d=" M 55 449 L 59 449" stroke-linejoin="bevel" stroke-miterlimit="10"/><path fill="none" stroke="black" paint-order="fill stroke markers" d=" M 55 431 L 59 431" stroke-linejoin="bevel" stroke-miterlimit="10"/><path fill="none" stroke="black" paint-order="fill stroke markers" d=" M 55 413 L 59 413" stroke-linejoin="bevel" stroke-miterlimit="10"/><path fill="none" stroke="black" paint-order="fill stroke markers" d=" M 55 395 L 59 395" stroke-linejoin="bevel" stroke-miterlimit="10"/><path fill="none" stroke="black" paint-order="fill stroke markers" d=" M 55 378 L 59 378" stroke-linejoin="bevel" stroke-miterlimit="10"/><path fill="none" stroke="black" paint-order="fill stroke markers" d=" M 55 360 L 59 360" stroke-linejoin="bevel" stroke-miterlimit="10"/><path fill="none" stroke="black" paint-order="fill stroke markers" d=" M 55 342 L 59 342" stroke-linejoin="bevel" stroke-miterlimit="10"/><path fill="none" stroke="black" paint-order="fill stroke markers" d=" M 55 325 L 59 325" stroke-linejoin="bevel" stroke-miterlimit="10"/><path fill="none" stroke="black" paint-order="fill stroke markers" d=" M 55 307 L 59 307" stroke-linejoin="bevel" stroke-miterlimit="10"/><path fill="none" stroke="black" paint-order="fill stroke markers" d=" M 55 289 L 59 289" stroke-linejoin="bevel" stroke-miterlimit="10"/><path fill="none" stroke="black" paint-order="fill stroke markers" d=" M 55 271 L 59 271" stroke-linejoin="bevel" stroke-miterlimit="10"/><path fill="none" stroke="black" paint-order="fill stroke markers" d=" M 55 254 L 59 254" stroke-linejoin="bevel" stroke-miterlimit="10"/><path fill="none" stroke="black" paint-order="fill stroke markers" d=" M 55 236 L 59 236" stroke-linejoin="bevel" stroke-miterlimit="10"/><path fill="none" stroke="black" paint-order="fill stroke markers" d=" M 55 218 L 59 218" stroke-linejoin="bevel" stroke-miterlimit="10"/><path fill="none" stroke="black" paint-order="fill stroke markers" d=" M 55 200 L 59 200" stroke-linejoin="bevel" stroke-miterlimit="10"/><path fill="none" stroke="black" paint-order="fill stroke markers" d=" M 55 183 L 59 183" stroke-linejoin="bevel" stroke-miterlimit="10"/><path fill="none" stroke="black" paint-order="fill stroke markers" d=" M 55 165 L 59 165" stroke-linejoin="bevel" stroke-miterlimit="10"/><path fill="none" stroke="black" paint-order="fill stroke markers" d=" M 55 147 L 59 147" stroke-linejoin="bevel" stroke-miterlimit="10"/><path fill="none" stroke="black" paint-order="fill stroke markers" d=" M 55 129 L 59 129" stroke-linejoin="bevel" stroke-miterlimit="10"/><path fill="none" stroke="black" paint-order="fill stroke markers" d=" M 55 112 L 59 112" stroke-linejoin="bevel" stroke-miterlimit="10"/><path fill="none" stroke="black" paint-order="fill stroke markers" d=" M 55 94 L 59 94" stroke-linejoin="bevel" stroke-miterlimit="10"/><path fill="none" stroke="black" paint-order="fill stroke markers" d=" M 55 76 L 59 76" stroke-linejoin="bevel" stroke-miterlimit="10"/><path fill="none" stroke="black" paint-order="fill stroke markers" d=" M 55 59 L 59 59" stroke-linejoin="bevel" stroke-miterlimit="10"/><path fill="none" stroke="black" paint-order="fill stroke markers" d=" M 55 41 L 59 41" stroke-linejoin="bevel" stroke-miterlimit="10"/><path fill="none" stroke="black" paint-order="fill stroke markers" d=" M 55 23 L 59 23" stroke-linejoin="bevel" stroke-miterlimit="10"/><path fill="" stroke="black" paint-order="fill stroke markers" d=" M 55 5 L 59 5" stroke-linejoin="bevel" stroke-miterlimit="10"/><g transform="translate(48,537) rotate(0,0,0)"><text fill="" stroke="none" font-family="helvetica" font-size="8pt" font-style="normal" font-weight="normal" text-decoration="normal" x="0" y="0" text-anchor="end" dominant-baseline="central">-0.04</text><g transform="rotate(0,0,0) translate(-48,-537) translate(48,449) rotate(0,0,0)"><text fill="" stroke="none" font-family="helvetica" font-size="8pt" font-style="normal" font-weight="normal" text-decoration="normal" x="0" y="0" text-anchor="end" dominant-baseline="central">-0.02</text><g transform="rotate(0,0,0) translate(-48,-449) translate(48,360) rotate(0,0,0)"><text fill="" stroke="none" font-family="helvetica" font-size="8pt" font-style="normal" font-weight="normal" text-decoration="normal" x="0" y="0" text-anchor="end" dominant-baseline="central">0</text><g transform="rotate(0,0,0) translate(-48,-360) translate(48,271) rotate(0,0,0)"><text fill="" stroke="none" font-family="helvetica" font-size="8pt" font-style="normal" font-weight="normal" text-decoration="normal" x="0" y="0" text-anchor="end" dominant-baseline="central">0.02</text><g transform="rotate(0,0,0) translate(-48,-271) translate(48,183) rotate(0,0,0)"><text fill="" stroke="none" font-family="helvetica" font-size="8pt" font-style="normal" font-weight="normal" text-decoration="normal" x="0" y="0" text-anchor="end" dominant-baseline="central">0.04</text><g transform="rotate(0,0,0) translate(-48,-183) translate(48,94) rotate(0,0,0)"><text fill="" stroke="none" font-family="helvetica" font-size="8pt" font-style="normal" font-weight="normal" text-decoration="normal" x="0" y="0" text-anchor="end" dominant-baseline="central">0.06</text><g transform="rotate(0,0,0) translate(-48,-94) translate(48,5) rotate(0,0,0)"><text fill="" stroke="none" font-family="helvetica" font-size="8pt" font-style="normal" font-weight="normal" text-decoration="normal" x="0" y="0" text-anchor="end" dominant-baseline="central">0.08</text><g transform="rotate(0,0,0) translate(-48,-5) translate(15,280) rotate(-90,0,0)"><text fill="" stroke="none" font-family="helvetica" font-size="10pt" font-style="italic" font-weight="normal" text-decoration="normal" x="0" y="0" text-anchor="middle" dominant-baseline="alphabetic">Mean price per sqft fluctuation per month with respect to april 2014</text><g transform="rotate(90,0,0) translate(-15,-280)"/></g></g></g></g></g></g></g></g></g></g><g clip-path="url(#JQBaZkOdceuK)"><g/></g></g></g></svg>