<svg version="1.1" xmlns="http://www.w3.org/2000/svg" xmlns:xlink="http://www.w3.org/1999/xlink" width="600" height="600" style="width: 600px; height: 600px;"><defs><clipPath id="qdccKgReOOTE"><path fill="none" stroke="none" d=" M 59 5 L 570 5 L 570 555 L 59 555 L 59 5 Z"/></clipPath><clipPath id="gdmBTcnfXCTD"><path fill="none" stroke="none" d=" M 59 5 L 570 5 L 570 555 L 59 555 L 59 5 Z"/></clipPath><clipPath id="WtUIJSwTMRoy"><path fill="none" stroke="none" d=" M 59 5 L 570 5 L 570 555 L 59 555 L 59 5 Z"/></clipPath><clipPath id="HXMMZLHHJMMD"><path fill="none" stroke="none" d=" M 59 5 L 570 5 L 570 555 L 59 555 L 59 5 Z"/></clipPath><clipPath id="LVGueswvoQBd"><path fill="none" stroke="none" d=" M 59 5 L 570 5 L 570 555 L 59 555 L 59 5 Z"/></clipPath><clipPath id="PlvVszZnRIdw"><path fill="none" stroke="none" d=" M 59 5 L 570 5 L 570 555 L 59 555 L 59 5 Z"/></clipPath></defs><g><g transform="scale(1,1) translate(0.5,0.5)"><rect fill="#FFFFFF" stroke="none" x="0" y="0" width="600" height="600"/><rect fill="#ffffff" stroke="none" x="0" y="0" width="600" height="600"/><rect fill="#FFFFFF" stroke="none" x="59" y="5" width="511" height="550"/><rect fill="#ffffff" stroke="none" x="59" y="5" width="511" height="550"/><g><rect fill="none" stroke="#e5e5e5" x="59" y="5" width="511" height="550" stroke-linejoin="bevel" stroke-miterlimit="10"/></g><g clip-path="url(#qdccKgReOOTE)"><g><g><path fill="none" stroke="#e5e5e5" paint-order="fill stroke markers" d=" M 125 555 L 125 5" stroke-linejoin="bevel" stroke-miterlimit="10"/><path fill="none" stroke="#e5e5e5" paint-order="fill stroke markers" d=" M 211 555 L 211 5" stroke-linejoin="bevel" stroke-miterlimit="10"/><path fill="none" stroke="#e5e5e5" paint-order="fill stroke markers" d=" M 298 555 L 298 5" stroke-linejoin="bevel" stroke-miterlimit="10"/><path fill="none" stroke="#e5e5e5" paint-order="fill stroke markers" d=" M 384 555 L 384 5" stroke-linejoin="bevel" stroke-miterlimit="10"/><path fill="none" stroke="#e5e5e5" paint-order="fill stroke markers" d=" M 471 555 L 471 5" stroke-linejoin="bevel" stroke-miterlimit="10"/><path fill="none" stroke="#e5e5e5" paint-order="fill stroke markers" d=" M 557 555 L 557 5" stroke-linejoin="bevel" stroke-miterlimit="10"/></g></g></g><g clip-path="url(#gdmBTcnfXCTD)"><g><g><path fill="none" stroke="#e5e5e5" paint-order="fill stroke markers" d=" M 59 461 L 570 461" stroke-linejoin="bevel" stroke-miterlimit="10"/><path fill="none" stroke="#e5e5e5" paint-order="fill stroke markers" d=" M 59 359 L 570 359" stroke-linejoin="bevel" stroke-miterlimit="10"/><path fill="none" stroke="#e5e5e5" paint-order="fill stroke markers" d=" M 59 258 L 570 258" stroke-linejoin="bevel" stroke-miterlimit="10"/><path fill="none" stroke="#e5e5e5" paint-order="fill stroke markers" d=" M 59 157 L 570 157" stroke-linejoin="bevel" stroke-miterlimit="10"/><path fill="none" stroke="#e5e5e5" paint-order="fill stroke markers" d=" M 59 56 L 570 56" stroke-linejoin="bevel" stroke-miterlimit="10"/></g></g></g><g clip-path="url(#WtUIJSwTMRoy)"><g><g><path fill="none" stroke="#e5e5e5" paint-order="fill stroke markers" d=" M 125 555 L 125 5" stroke-linejoin="bevel" stroke-miterlimit="10"/><path fill="none" stroke="#e5e5e5" paint-order="fill stroke markers" d=" M 211 555 L 211 5" stroke-linejoin="bevel" stroke-miterlimit="10"/><path fill="none" stroke="#e5e5e5" paint-order="fill stroke markers" d=" M 298 555 L 298 5" stroke-linejoin="bevel" stroke-miterlimit="10"/><path fill="none" stroke="#e5e5e5" paint-order="fill stroke markers" d=" M 384 555 L 384 5" stroke-linejoin="bevel" stroke-miterlimit="10"/><path fill="none" stroke="#e5e5e5" paint-order="fill stroke markers" d=" M 471 555 L 471 5" stroke-linejoin="bevel" stroke-miterlimit="10"/><path fill="none" stroke="#e5e5e5" paint-order="fill stroke markers" d=" M 557 555 L 557 5" stroke-linejoin="bevel" stroke-miterlimit="10"/></g></g></g><g clip-path="url(#HXMMZLHHJMMD)"><g><g><path fill="none" stroke="#e5e5e5" paint-order="fill stroke markers" d=" M 59 461 L 570 461" stroke-linejoin="bevel" stroke-miterlimit="10"/><path fill="none" stroke="#e5e5e5" paint-order="fill stroke markers" d=" M 59 359 L 570 359" stroke-linejoin="bevel" stroke-miterlimit="10"/><path fill="none" stroke="#e5e5e5" paint-order="fill stroke markers" d=" M 59 258 L 570 258" stroke-linejoin="bevel" stroke-miterlimit="10"/><path fill="none" stroke="#e5e5e5" paint-order="fill stroke markers" d=" M 59 157 L 570 157" stroke-linejoin="bevel" stroke-miterlimit="10"/><path fill="none" stroke="#e5e5e5" paint-order="fill stroke markers" d=" M 59 56 L 570 56" stroke-linejoin="bevel" stroke-miterlimit="10"/></g></g></g><g clip-path="url(#LVGueswvoQBd)"><g><g><path fill="none" stroke="none"/><path fill="#1f77b4" stroke="none" paint-order="stroke fill markers" d=" M 82.2272727272939 156.86677707539388 L 114.63742071879096 156.86677707539388 L 114.63742071879096 156.86677707539388 L 82.2272727272939 156.86677707539388 L 82.2272727272939 156.86677707539388 Z"/><path fill="none" stroke="#1f77b4" paint-order="fill stroke markers" d=" M 82.2272727272939 156.86677707539388 L 114.63742071879096 156.86677707539388 L 114.63742071879096 156.86677707539388 L 82.2272727272939 156.86677707539388 L 82.2272727272939 156.86677707539388 Z" stroke-linejoin="bevel" stroke-miterlimit="10"/><path fill="#1f77b4" stroke="none" paint-order="stroke fill markers" d=" M 118.23854827345349 30.00000000000007 L 150.64869626495056 30.00000000000007 L 150.64869626495056 156.86677707539388 L 118.23854827345349 156.86677707539388 L 118.23854827345349 30.00000000000007 Z"/><path fill="none" stroke="#1f77b4" paint-order="fill stroke markers" d=" M 118.23854827345349 30.00000000000007 L 150.64869626495056 30.00000000000007 L 150.64869626495056 156.86677707539388 L 118.23854827345349 156.86677707539388 L 118.23854827345349 30.00000000000007 Z" stroke-linejoin="bevel" stroke-miterlimit="10"/><path fill="#1f77b4" stroke="none" paint-order="stroke fill markers" d=" M 154.24982381961308 261.5420055303714 L 186.65997181111015 261.5420055303714 L 186.65997181111015 156.86677707539388 L 154.24982381961308 156.86677707539388 L 154.24982381961308 261.5420055303714 Z"/><path fill="none" stroke="#1f77b4" paint-order="fill stroke markers" d=" M 154.24982381961308 261.5420055303714 L 186.65997181111015 261.5420055303714 L 186.65997181111015 156.86677707539388 L 154.24982381961308 156.86677707539388 L 154.24982381961308 261.5420055303714 Z" stroke-linejoin="bevel" stroke-miterlimit="10"/><path fill="#1f77b4" stroke="none" paint-order="stroke fill markers" d=" M 190.26109936577268 283.7788626532398 L 222.67124735726975 283.7788626532398 L 222.67124735726975 156.86677707539388 L 190.26109936577268 156.86677707539388 L 190.26109936577268 283.7788626532398 Z"/><path fill="none" stroke="#1f77b4" paint-order="fill stroke markers" d=" M 190.26109936577268 283.7788626532398 L 222.67124735726975 283.7788626532398 L 222.67124735726975 156.86677707539388 L 190.26109936577268 156.86677707539388 L 190.26109936577268 283.7788626532398 Z" stroke-linejoin="bevel" stroke-miterlimit="10"/><path fill="#1f77b4" stroke="none" paint-order="stroke fill markers" d=" M 226.27237491193227 330.7121633914119 L 258.68252290342934 330.7121633914119 L 258.68252290342934 156.86677707539388 L 226.27237491193227 156.86677707539388 L 226.27237491193227 330.7121633914119 Z"/><path fill="none" stroke="#1f77b4" paint-order="fill stroke markers" d=" M 226.27237491193227 330.7121633914119 L 258.68252290342934 330.7121633914119 L 258.68252290342934 156.86677707539388 L 226.27237491193227 156.86677707539388 L 226.27237491193227 330.7121633914119 Z" stroke-linejoin="bevel" stroke-miterlimit="10"/><path fill="#1f77b4" stroke="none" paint-order="stroke fill markers" d=" M 262.28365045809187 242.74364743671833 L 294.69379844958894 242.74364743671833 L 294.69379844958894 156.86677707539388 L 262.28365045809187 156.86677707539388 L 262.28365045809187 242.74364743671833 Z"/><path fill="none" stroke="#1f77b4" paint-order="fill stroke markers" d=" M 262.28365045809187 242.74364743671833 L 294.69379844958894 242.74364743671833 L 294.69379844958894 156.86677707539388 L 262.28365045809187 156.86677707539388 L 262.28365045809187 242.74364743671833 Z" stroke-linejoin="bevel" stroke-miterlimit="10"/><path fill="#1f77b4" stroke="none" paint-order="stroke fill markers" d=" M 298.29492600425147 381.9532219644028 L 330.70507399574853 381.9532219644028 L 330.70507399574853 156.86677707539388 L 298.29492600425147 156.86677707539388 L 298.29492600425147 381.9532219644028 Z"/><path fill="none" stroke="#1f77b4" paint-order="fill stroke markers" d=" M 298.29492600425147 381.9532219644028 L 330.70507399574853 381.9532219644028 L 330.70507399574853 156.86677707539388 L 298.29492600425147 156.86677707539388 L 298.29492600425147 381.9532219644028 Z" stroke-linejoin="bevel" stroke-miterlimit="10"/><path fill="#1f77b4" stroke="none" paint-order="stroke fill markers" d=" M 334.30620155041106 409.63661208379665 L 366.71634954190813 409.63661208379665 L 366.71634954190813 156.86677707539388 L 334.30620155041106 156.86677707539388 L 334.30620155041106 409.63661208379665 Z"/><path fill="none" stroke="#1f77b4" paint-order="fill stroke markers" d=" M 334.30620155041106 409.63661208379665 L 366.71634954190813 409.63661208379665 L 366.71634954190813 156.86677707539388 L 334.30620155041106 156.86677707539388 L 334.30620155041106 409.63661208379665 Z" stroke-linejoin="bevel" stroke-miterlimit="10"/><path fill="#1f77b4" stroke="none" paint-order="stroke fill markers" d=" M 370.31747709662886 375.7591229224462 L 402.7276250880095 375.7591229224462 L 402.7276250880095 156.86677707539388 L 370.31747709662886 156.86677707539388 L 370.31747709662886 375.7591229224462 Z"/><path fill="none" stroke="#1f77b4" paint-order="fill stroke markers" d=" M 370.31747709662886 375.7591229224462 L 402.7276250880095 375.7591229224462 L 402.7276250880095 156.86677707539388 L 370.31747709662886 156.86677707539388 L 370.31747709662886 375.7591229224462 Z" stroke-linejoin="bevel" stroke-miterlimit="10"/><path fill="#1f77b4" stroke="none" paint-order="stroke fill markers" d=" M 406.32875264273025 530 L 438.7389006342273 530 L 438.7389006342273 156.86677707539388 L 406.32875264273025 156.86677707539388 L 406.32875264273025 530 Z"/><path fill="none" stroke="#1f77b4" paint-order="fill stroke markers" d=" M 406.32875264273025 530 L 438.7389006342273 530 L 438.7389006342273 156.86677707539388 L 406.32875264273025 156.86677707539388 L 406.32875264273025 530 Z" stroke-linejoin="bevel" stroke-miterlimit="10"/><path fill="#1f77b4" stroke="none" paint-order="stroke fill markers" d=" M 442.34002818888985 175.32706344347844 L 474.7501761803869 175.32706344347844 L 474.7501761803869 156.86677707539388 L 442.34002818888985 156.86677707539388 L 442.34002818888985 175.32706344347844 Z"/><path fill="none" stroke="#1f77b4" paint-order="fill stroke markers" d=" M 442.34002818888985 175.32706344347844 L 474.7501761803869 175.32706344347844 L 474.7501761803869 156.86677707539388 L 442.34002818888985 156.86677707539388 L 442.34002818888985 175.32706344347844 Z" stroke-linejoin="bevel" stroke-miterlimit="10"/><path fill="#1f77b4" stroke="none" paint-order="stroke fill markers" d=" M 478.35130373504944 43.565749130633066 L 510.7614517265465 43.565749130633066 L 510.7614517265465 156.86677707539388 L 478.35130373504944 156.86677707539388 L 478.35130373504944 43.565749130633066 Z"/><path fill="none" stroke="#1f77b4" paint-order="fill stroke markers" d=" M 478.35130373504944 43.565749130633066 L 510.7614517265465 43.565749130633066 L 510.7614517265465 156.86677707539388 L 478.35130373504944 156.86677707539388 L 478.35130373504944 43.565749130633066 Z" stroke-linejoin="bevel" stroke-miterlimit="10"/><path fill="#1f77b4" stroke="none" paint-order="stroke fill markers" d=" M 514.362579281209 113.37939478309264 L 546.7727272727061 113.37939478309264 L 546.7727272727061 156.86677707539388 L 514.362579281209 156.86677707539388 L 514.362579281209 113.37939478309264 Z"/><path fill="none" stroke="#1f77b4" paint-order="fill stroke markers" d=" M 514.362579281209 113.37939478309264 L 546.7727272727061 113.37939478309264 L 546.7727272727061 156.86677707539388 L 514.362579281209 156.86677707539388 L 514.362579281209 113.37939478309264 Z" stroke-linejoin="bevel" stroke-miterlimit="10"/></g></g></g><g/><g/><g><g fill="#444444"><path fill="none" stroke="black" paint-order="fill stroke markers" d=" M 59 555 L 570 555" stroke-linejoin="bevel" stroke-miterlimit="10"/><path fill="none" stroke="black" paint-order="fill stroke markers" d=" M 125 561 L 125 553" stroke-linejoin="bevel" stroke-miterlimit="10"/><path fill="none" stroke="black" paint-order="fill stroke markers" d=" M 211 561 L 211 553" stroke-linejoin="bevel" stroke-miterlimit="10"/><path fill="none" stroke="black" paint-order="fill stroke markers" d=" M 298 561 L 298 553" stroke-linejoin="bevel" stroke-miterlimit="10"/><path fill="none" stroke="black" paint-order="fill stroke markers" d=" M 384 561 L 384 553" stroke-linejoin="bevel" stroke-miterlimit="10"/><path fill="none" stroke="black" paint-order="fill stroke markers" d=" M 471 561 L 471 553" stroke-linejoin="bevel" stroke-miterlimit="10"/><path fill="none" stroke="black" paint-order="fill stroke markers" d=" M 557 561 L 557 553" stroke-linejoin="bevel" stroke-miterlimit="10"/><path fill="none" stroke="black" paint-order="fill stroke markers" d=" M 108 559 L 108 555" stroke-linejoin="bevel" stroke-miterlimit="10"/><path fill="none" stroke="black" paint-order="fill stroke markers" d=" M 90 559 L 90 555" stroke-linejoin="bevel" stroke-miterlimit="10"/><path fill="none" stroke="black" paint-order="fill stroke markers" d=" M 73 559 L 73 555" stroke-linejoin="bevel" stroke-miterlimit="10"/><path fill="none" stroke="black" paint-order="fill stroke markers" d=" M 125 559 L 125 555" stroke-linejoin="bevel" stroke-miterlimit="10"/><path fill="none" stroke="black" paint-order="fill stroke markers" d=" M 142 559 L 142 555" stroke-linejoin="bevel" stroke-miterlimit="10"/><path fill="none" stroke="black" paint-order="fill stroke markers" d=" M 159 559 L 159 555" stroke-linejoin="bevel" stroke-miterlimit="10"/><path fill="none" stroke="black" paint-order="fill stroke markers" d=" M 177 559 L 177 555" stroke-linejoin="bevel" stroke-miterlimit="10"/><path fill="none" stroke="black" paint-order="fill stroke markers" d=" M 194 559 L 194 555" stroke-linejoin="bevel" stroke-miterlimit="10"/><path fill="none" stroke="black" paint-order="fill stroke markers" d=" M 211 559 L 211 555" stroke-linejoin="bevel" stroke-miterlimit="10"/><path fill="none" stroke="black" paint-order="fill stroke markers" d=" M 229 559 L 229 555" stroke-linejoin="bevel" stroke-miterlimit="10"/><path fill="none" stroke="black" paint-order="fill stroke markers" d=" M 246 559 L 246 555" stroke-linejoin="bevel" stroke-miterlimit="10"/><path fill="none" stroke="black" paint-order="fill stroke markers" d=" M 263 559 L 263 555" stroke-linejoin="bevel" stroke-miterlimit="10"/><path fill="none" stroke="black" paint-order="fill stroke markers" d=" M 280 559 L 280 555" stroke-linejoin="bevel" stroke-miterlimit="10"/><path fill="none" stroke="black" paint-order="fill stroke markers" d=" M 298 559 L 298 555" stroke-linejoin="bevel" stroke-miterlimit="10"/><path fill="none" stroke="black" paint-order="fill stroke markers" d=" M 315 559 L 315 555" stroke-linejoin="bevel" stroke-miterlimit="10"/><path fill="none" stroke="black" paint-order="fill stroke markers" d=" M 332 559 L 332 555" stroke-linejoin="bevel" stroke-miterlimit="10"/><path fill="none" stroke="black" paint-order="fill stroke markers" d=" M 350 559 L 350 555" stroke-linejoin="bevel" stroke-miterlimit="10"/><path fill="none" stroke="black" paint-order="fill stroke markers" d=" M 367 559 L 367 555" stroke-linejoin="bevel" stroke-miterlimit="10"/><path fill="none" stroke="black" paint-order="fill stroke markers" d=" M 384 559 L 384 555" stroke-linejoin="bevel" stroke-miterlimit="10"/><path fill="none" stroke="black" paint-order="fill stroke markers" d=" M 401 559 L 401 555" stroke-linejoin="bevel" stroke-miterlimit="10"/><path fill="none" stroke="black" paint-order="fill stroke markers" d=" M 419 559 L 419 555" stroke-linejoin="bevel" stroke-miterlimit="10"/><path fill="none" stroke="black" paint-order="fill stroke markers" d=" M 436 559 L 436 555" stroke-linejoin="bevel" stroke-miterlimit="10"/><path fill="none" stroke="black" paint-order="fill stroke markers" d=" M 453 559 L 453 555" stroke-linejoin="bevel" stroke-miterlimit="10"/><path fill="none" stroke="black" paint-order="fill stroke markers" d=" M 471 559 L 471 555" stroke-linejoin="bevel" stroke-miterlimit="10"/><path fill="none" stroke="black" paint-order="fill stroke markers" d=" M 488 559 L 488 555" stroke-linejoin="bevel" stroke-miterlimit="10"/><path fill="none" stroke="black" paint-order="fill stroke markers" d=" M 505 559 L 505 555" stroke-linejoin="bevel" stroke-miterlimit="10"/><path fill="none" stroke="black" paint-order="fill stroke markers" d=" M 522 559 L 522 555" stroke-linejoin="bevel" stroke-miterlimit="10"/><path fill="none" stroke="black" paint-order="fill stroke markers" d=" M 540 559 L 540 555" stroke-linejoin="bevel" stroke-miterlimit="10"/><path fill="" stroke="black" paint-order="fill stroke markers" d=" M 557 559 L 557 555" stroke-linejoin="bevel" stroke-miterlimit="10"/><g transform="translate(125,566) rotate(0,0,0)"><text fill="" stroke="none" font-family="helvetica" font-size="8pt" font-style="normal" font-weight="normal" text-decoration="normal" x="0" y="0" text-anchor="middle" dominant-baseline="hanging">2014.4</text><g transform="rotate(0,0,0) translate(-125,-566) translate(211,566) rotate(0,0,0)"><text fill="" stroke="none" font-family="helvetica" font-size="8pt" font-style="normal" font-weight="normal" text-decoration="normal" x="0" y="0" text-anchor="middle" dominant-baseline="hanging">2014.6</text><g transform="rotate(0,0,0) translate(-211,-566) translate(298,566) rotate(0,0,0)"><text fill="" stroke="none" font-family="helvetica" font-size="8pt" font-style="normal" font-weight="normal" text-decoration="normal" x="0" y="0" text-anchor="middle" dominant-baseline="hanging">2014.8</text><g transform="rotate(0,0,0) translate(-298,-566) translate(384,566) rotate(0,0,0)"><text fill="" stroke="none" font-family="helvetica" font-size="8pt" font-style="normal" font-weight="normal" text-decoration="normal" x="0" y="0" text-anchor="middle" dominant-baseline="hanging">2015</text><g transform="rotate(0,0,0) translate(-384,-566) translate(471,566) rotate(0,0,0)"><text fill="" stroke="none" font-family="helvetica" font-size="8pt" font-style="normal" font-weight="normal" text-decoration="normal" x="0" y="0" text-anchor="middle" dominant-baseline="hanging">2015.2</text><g transform="rotate(0,0,0) translate(-471,-566) translate(557,566) rotate(0,0,0)"><text fill="" stroke="none" font-family="helvetica" font-size="8pt" font-style="normal" font-weight="normal" text-decoration="normal" x="0" y="0" text-anchor="middle" dominant-baseline="hanging">2015.4</text><g transform="rotate(0,0,0) translate(-557,-566) translate(315,584) rotate(0,0,0)"><text fill="" stroke="none" font-family="helvetica" font-size="10pt" font-style="italic" font-weight="normal" text-decoration="normal" x="0" y="0" text-anchor="middle" dominant-baseline="hanging">Date</text><g transform="rotate(0,0,0) translate(-315,-584)"/></g></g></g></g></g></g></g></g></g><g><g fill="#444444"><path fill="none" stroke="black" paint-order="fill stroke markers" d=" M 59 555 L 59 5" stroke-linejoin="bevel" stroke-miterlimit="10"/><path fill="none" stroke="black" paint-order="fill stroke markers" d=" M 53 461 L 61 461" stroke-linejoin="bevel" stroke-miterlimit="10"/><path fill="none" stroke="black" paint-order="fill stroke markers" d=" M 53 359 L 61 359" stroke-linejoin="bevel" stroke-miterlimit="10"/><path fill="none" stroke="black" paint-order="fill stroke markers" d=" M 53 258 L 61 258" stroke-linejoin="bevel" stroke-miterlimit="10"/><path fill="none" stroke="black" paint-order="fill stroke markers" d=" M 53 157 L 61 157" stroke-linejoin="bevel" stroke-miterlimit="10"/><path fill="none" stroke="black" paint-order="fill stroke markers" d=" M 53 56 L 61 56" stroke-linejoin="bevel" stroke-miterlimit="10"/><path fill="none" stroke="black" paint-order="fill stroke markers" d=" M 55 481 L 59 481" stroke-linejoin="bevel" stroke-miterlimit="10"/><path fill="none" stroke="black" paint-order="fill stroke markers" d=" M 55 501 L 59 501" stroke-linejoin="bevel" stroke-miterlimit="10"/><path fill="none" stroke="black" paint-order="fill stroke markers" d=" M 55 522 L 59 522" stroke-linejoin="bevel" stroke-miterlimit="10"/><path fill="none" stroke="black" paint-order="fill stroke markers" d=" M 55 542 L 59 542" stroke-linejoin="bevel" stroke-miterlimit="10"/><path fill="none" stroke="black" paint-order="fill stroke markers" d=" M 55 461 L 59 461" stroke-linejoin="bevel" stroke-miterlimit="10"/><path fill="none" stroke="black" paint-order="fill stroke markers" d=" M 55 440 L 59 440" stroke-linejoin="bevel" stroke-miterlimit="10"/><path fill="none" stroke="black" paint-order="fill stroke markers" d=" M 55 420 L 59 420" stroke-linejoin="bevel" stroke-miterlimit="10"/><path fill="none" stroke="black" paint-order="fill stroke markers" d=" M 55 400 L 59 400" stroke-linejoin="bevel" stroke-miterlimit="10"/><path fill="none" stroke="black" paint-order="fill stroke markers" d=" M 55 380 L 59 380" stroke-linejoin="bevel" stroke-miterlimit="10"/><path fill="none" stroke="black" paint-order="fill stroke markers" d=" M 55 359 L 59 359" stroke-linejoin="bevel" stroke-miterlimit="10"/><path fill="none" stroke="black" paint-order="fill stroke markers" d=" M 55 339 L 59 339" stroke-linejoin="bevel" stroke-miterlimit="10"/><path fill="none" stroke="black" paint-order="fill stroke markers" d=" M 55 319 L 59 319" stroke-linejoin="bevel" stroke-miterlimit="10"/><path fill="none" stroke="black" paint-order="fill stroke markers" d=" M 55 299 L 59 299" stroke-linejoin="bevel" stroke-miterlimit="10"/><path fill="none" stroke="black" paint-order="fill stroke markers" d=" M 55 278 L 59 278" stroke-linejoin="bevel" stroke-miterlimit="10"/><path fill="none" stroke="black" paint-order="fill stroke markers" d=" M 55 258 L 59 258" stroke-linejoin="bevel" stroke-miterlimit="10"/><path fill="none" stroke="black" paint-order="fill stroke markers" d=" M 55 238 L 59 238" stroke-linejoin="bevel" stroke-miterlimit="10"/><path fill="none" stroke="black" paint-order="fill stroke markers" d=" M 55 218 L 59 218" stroke-linejoin="bevel" stroke-miterlimit="10"/><path fill="none" stroke="black" paint-order="fill stroke markers" d=" M 55 197 L 59 197" stroke-linejoin="bevel" stroke-miterlimit="10"/><path fill="none" stroke="black" paint-order="fill stroke markers" d=" M 55 177 L 59 177" stroke-linejoin="bevel" stroke-miterlimit="10"/><path fill="none" stroke="black" paint-order="fill stroke markers" d=" M 55 157 L 59 157" stroke-linejoin="bevel" stroke-miterlimit="10"/><path fill="none" stroke="black" paint-order="fill stroke markers" d=" M 55 137 L 59 137" stroke-linejoin="bevel" stroke-miterlimit="10"/><path fill="none" stroke="black" paint-order="fill stroke markers" d=" M 55 116 L 59 116" stroke-linejoin="bevel" stroke-miterlimit="10"/><path fill="none" stroke="black" paint-order="fill stroke markers" d=" M 55 96 L 59 96" stroke-linejoin="bevel" stroke-miterlimit="10"/><path fill="none" stroke="black" paint-order="fill stroke markers" d=" M 55 76 L 59 76" stroke-linejoin="bevel" stroke-miterlimit="10"/><path fill="none" stroke="black" paint-order="fill stroke markers" d=" M 55 56 L 59 56" stroke-linejoin="bevel" stroke-miterlimit="10"/><path fill="none" stroke="black" paint-order="fill stroke markers" d=" M 55 35 L 59 35" stroke-linejoin="bevel" stroke-miterlimit="10"/><path fill="" stroke="black" paint-order="fill stroke markers" d=" M 55 15 L 59 15" stroke-linejoin="bevel" stroke-miterlimit="10"/><g transform="translate(48,461) rotate(0,0,0)"><text fill="" stroke="none" font-family="helvetica" font-size="8pt" font-style="normal" font-weight="normal" text-decoration="normal" x="0" y="0" text-anchor="end" dominant-baseline="central">-0.06</text><g transform="rotate(0,0,0) translate(-48,-461) translate(48,359) rotate(0,0,0)"><text fill="" stroke="none" font-family="helvetica" font-size="8pt" font-style="normal" font-weight="normal" text-decoration="normal" x="0" y="0" text-anchor="end" dominant-baseline="central">-0.04</text><g transform="rotate(0,0,0) translate(-48,-359) translate(48,258) rotate(0,0,0)"><text fill="" stroke="none" font-family="helvetica" font-size="8pt" font-style="normal" font-weight="normal" text-decoration="normal" x="0" y="0" text-anchor="end" dominant-baseline="central">-0.02</text><g transform="rotate(0,0,0) translate(-48,-258) translate(48,157) rotate(0,0,0)"><text fill="" stroke="none" font-family="helvetica" font-size="8pt" font-style="normal" font-weight="normal" text-decoration="normal" x="0" y="0" text-anchor="end" dominant-baseline="central">0</text><g transform="rotate(0,0,0) translate(-48,-157) translate(48,56) rotate(0,0,0)"><text fill="" stroke="none" font-family="helvetica" font-size="8pt" font-style="normal" font-weight="normal" text-decoration="normal" x="0" y="0" text-anchor="end" dominant-baseline="central">0.02</text><g transform="rotate(0,0,0) translate(-48,-56) translate(15,280) rotate(-90,0,0)"><text fill="" stroke="none" font-family="helvetica" font-size="10pt" font-style="italic" font-weight="normal" text-decoration="normal" x="0" y="0" text-anchor="middle" dominant-baseline="alphabetic">Mean price per month [$]</text><g transform="rotate(90,0,0) translate(-15,-280)"/></g></g></g></g></g></g></g></g><g clip-path="url(#PlvVszZnRIdw)"><g/></g></g></g></svg>