<svg version="1.1" xmlns="http://www.w3.org/2000/svg" xmlns:xlink="http://www.w3.org/1999/xlink" width="600" height="600" style="width: 600px; height: 600px;"><defs><clipPath id="tSVqFacNXWVl"><path fill="none" stroke="none" d=" M 59 5 L 570 5 L 570 555 L 59 555 L 59 5 Z"/></clipPath><clipPath id="IDqUMJATVlri"><path fill="none" stroke="none" d=" M 59 5 L 570 5 L 570 555 L 59 555 L 59 5 Z"/></clipPath><clipPath id="LuTEhTGsmedx"><path fill="none" stroke="none" d=" M 59 5 L 570 5 L 570 555 L 59 555 L 59 5 Z"/></clipPath><clipPath id="fzpxCnqpOvxQ"><path fill="none" stroke="none" d=" M 59 5 L 570 5 L 570 555 L 59 555 L 59 5 Z"/></clipPath><clipPath id="vhLXnsTwgtDQ"><path fill="none" stroke="none" d=" M 59 5 L 570 5 L 570 555 L 59 555 L 59 5 Z"/></clipPath><clipPath id="AnWrXMSfUMvm"><path fill="none" stroke="none" d=" M 59 5 L 570 5 L 570 555 L 59 555 L 59 5 Z"/></clipPath></defs><g><g transform="scale(1,1) translate(0.5,0.5)"><rect fill="#FFFFFF" stroke="none" x="0" y="0" width="600" height="600"/><rect fill="#ffffff" stroke="none" x="0" y="0" width="600" height="600"/><rect fill="#FFFFFF" stroke="none" x="59" y="5" width="511" height="550"/><rect fill="#ffffff" stroke="none" x="59" y="5" width="511" height="550"/><g><rect fill="none" stroke="#e5e5e5" x="59" y="5" width="511" height="550" stroke-linejoin="bevel" stroke-miterlimit="10"/></g><g clip-path="url(#tSVqFacNXWVl)"><g><g><path fill="none" stroke="#e5e5e5" paint-order="fill stroke markers" d=" M 125 555 L 125 5" stroke-linejoin="bevel" stroke-miterlimit="10"/><path fill="none" stroke="#e5e5e5" paint-order="fill stroke markers" d=" M 211 555 L 211 5" stroke-linejoin="bevel" stroke-miterlimit="10"/><path fill="none" stroke="#e5e5e5" paint-order="fill stroke markers" d=" M 298 555 L 298 5" stroke-linejoin="bevel" stroke-miterlimit="10"/><path fill="none" stroke="#e5e5e5" paint-order="fill stroke markers" d=" M 384 555 L 384 5" stroke-linejoin="bevel" stroke-miterlimit="10"/><path fill="none" stroke="#e5e5e5" paint-order="fill stroke markers" d=" M 471 555 L 471 5" stroke-linejoin="bevel" stroke-miterlimit="10"/><path fill="none" stroke="#e5e5e5" paint-order="fill stroke markers" d=" M 557 555 L 557 5" stroke-linejoin="bevel" stroke-miterlimit="10"/></g></g></g><g clip-path="url(#IDqUMJATVlri)"><g><g><path fill="none" stroke="#e5e5e5" paint-order="fill stroke markers" d=" M 59 536 L 570 536" stroke-linejoin="bevel" stroke-miterlimit="10"/><path fill="none" stroke="#e5e5e5" paint-order="fill stroke markers" d=" M 59 452 L 570 452" stroke-linejoin="bevel" stroke-miterlimit="10"/><path fill="none" stroke="#e5e5e5" paint-order="fill stroke markers" d=" M 59 369 L 570 369" stroke-linejoin="bevel" stroke-miterlimit="10"/><path fill="none" stroke="#e5e5e5" paint-order="fill stroke markers" d=" M 59 286 L 570 286" stroke-linejoin="bevel" stroke-miterlimit="10"/><path fill="none" stroke="#e5e5e5" paint-order="fill stroke markers" d=" M 59 203 L 570 203" stroke-linejoin="bevel" stroke-miterlimit="10"/><path fill="none" stroke="#e5e5e5" paint-order="fill stroke markers" d=" M 59 120 L 570 120" stroke-linejoin="bevel" stroke-miterlimit="10"/><path fill="none" stroke="#e5e5e5" paint-order="fill stroke markers" d=" M 59 37 L 570 37" stroke-linejoin="bevel" stroke-miterlimit="10"/></g></g></g><g clip-path="url(#LuTEhTGsmedx)"><g><g><path fill="none" stroke="#e5e5e5" paint-order="fill stroke markers" d=" M 125 555 L 125 5" stroke-linejoin="bevel" stroke-miterlimit="10"/><path fill="none" stroke="#e5e5e5" paint-order="fill stroke markers" d=" M 211 555 L 211 5" stroke-linejoin="bevel" stroke-miterlimit="10"/><path fill="none" stroke="#e5e5e5" paint-order="fill stroke markers" d=" M 298 555 L 298 5" stroke-linejoin="bevel" stroke-miterlimit="10"/><path fill="none" stroke="#e5e5e5" paint-order="fill stroke markers" d=" M 384 555 L 384 5" stroke-linejoin="bevel" stroke-miterlimit="10"/><path fill="none" stroke="#e5e5e5" paint-order="fill stroke markers" d=" M 471 555 L 471 5" stroke-linejoin="bevel" stroke-miterlimit="10"/><path fill="none" stroke="#e5e5e5" paint-order="fill stroke markers" d=" M 557 555 L 557 5" stroke-linejoin="bevel" stroke-miterlimit="10"/></g></g></g><g clip-path="url(#fzpxCnqpOvxQ)"><g><g><path fill="none" stroke="#e5e5e5" paint-order="fill stroke markers" d=" M 59 536 L 570 536" stroke-linejoin="bevel" stroke-miterlimit="10"/><path fill="none" stroke="#e5e5e5" paint-order="fill stroke markers" d=" M 59 452 L 570 452" stroke-linejoin="bevel" stroke-miterlimit="10"/><path fill="none" stroke="#e5e5e5" paint-order="fill stroke markers" d=" M 59 369 L 570 369" stroke-linejoin="bevel" stroke-miterlimit="10"/><path fill="none" stroke="#e5e5e5" paint-order="fill stroke markers" d=" M 59 286 L 570 286" stroke-linejoin="bevel" stroke-miterlimit="10"/><path fill="none" stroke="#e5e5e5" paint-order="fill stroke markers" d=" M 59 203 L 570 203" stroke-linejoin="bevel" stroke-miterlimit="10"/><path fill="none" stroke="#e5e5e5" paint-order="fill stroke markers" d=" M 59 120 L 570 120" stroke-linejoin="bevel" stroke-miterlimit="10"/><path fill="none" stroke="#e5e5e5" paint-order="fill stroke markers" d=" M 59 37 L 570 37" stroke-linejoin="bevel" stroke-miterlimit="10"/></g></g></g><g clip-path="url(#vhLXnsTwgtDQ)"><g><g><path fill="none" stroke="none"/><path fill="#1f77b4" stroke="none" paint-order="stroke fill markers" d=" M 82.2272727272939 120.06677885877576 L 114.63742071879096 120.06677885877576 L 114.63742071879096 120.06677885877576 L 82.2272727272939 120.06677885877576 L 82.2272727272939 120.06677885877576 Z"/><path fill="none" stroke="#1f77b4" paint-order="fill stroke markers" d=" M 82.2272727272939 120.06677885877576 L 114.63742071879096 120.06677885877576 L 114.63742071879096 120.06677885877576 L 82.2272727272939 120.06677885877576 L 82.2272727272939 120.06677885877576 Z" stroke-linejoin="bevel" stroke-miterlimit="10"/><path fill="#1f77b4" stroke="none" paint-order="stroke fill markers" d=" M 118.23854827345349 30.000000000000014 L 150.64869626495056 30.000000000000014 L 150.64869626495056 120.06677885877576 L 118.23854827345349 120.06677885877576 L 118.23854827345349 30.000000000000014 Z"/><path fill="none" stroke="#1f77b4" paint-order="fill stroke markers" d=" M 118.23854827345349 30.000000000000014 L 150.64869626495056 30.000000000000014 L 150.64869626495056 120.06677885877576 L 118.23854827345349 120.06677885877576 L 118.23854827345349 30.000000000000014 Z" stroke-linejoin="bevel" stroke-miterlimit="10"/><path fill="#1f77b4" stroke="none" paint-order="stroke fill markers" d=" M 154.24982381961308 113.76689883257096 L 186.65997181111015 113.76689883257096 L 186.65997181111015 120.06677885877576 L 154.24982381961308 120.06677885877576 L 154.24982381961308 113.76689883257096 Z"/><path fill="none" stroke="#1f77b4" paint-order="fill stroke markers" d=" M 154.24982381961308 113.76689883257096 L 186.65997181111015 113.76689883257096 L 186.65997181111015 120.06677885877576 L 154.24982381961308 120.06677885877576 L 154.24982381961308 113.76689883257096 Z" stroke-linejoin="bevel" stroke-miterlimit="10"/><path fill="#1f77b4" stroke="none" paint-order="stroke fill markers" d=" M 190.26109936577268 245.52573264691222 L 222.67124735726975 245.52573264691222 L 222.67124735726975 120.06677885877576 L 190.26109936577268 120.06677885877576 L 190.26109936577268 245.52573264691222 Z"/><path fill="none" stroke="#1f77b4" paint-order="fill stroke markers" d=" M 190.26109936577268 245.52573264691222 L 222.67124735726975 245.52573264691222 L 222.67124735726975 120.06677885877576 L 190.26109936577268 120.06677885877576 L 190.26109936577268 245.52573264691222 Z" stroke-linejoin="bevel" stroke-miterlimit="10"/><path fill="#1f77b4" stroke="none" paint-order="stroke fill markers" d=" M 226.27237491193227 262.91694581034915 L 258.68252290342934 262.91694581034915 L 258.68252290342934 120.06677885877576 L 226.27237491193227 120.06677885877576 L 226.27237491193227 262.91694581034915 Z"/><path fill="none" stroke="#1f77b4" paint-order="fill stroke markers" d=" M 226.27237491193227 262.91694581034915 L 258.68252290342934 262.91694581034915 L 258.68252290342934 120.06677885877576 L 226.27237491193227 120.06677885877576 L 226.27237491193227 262.91694581034915 Z" stroke-linejoin="bevel" stroke-miterlimit="10"/><path fill="#1f77b4" stroke="none" paint-order="stroke fill markers" d=" M 262.28365045809187 234.0484044970384 L 294.69379844958894 234.0484044970384 L 294.69379844958894 120.06677885877576 L 262.28365045809187 120.06677885877576 L 262.28365045809187 234.0484044970384 Z"/><path fill="none" stroke="#1f77b4" paint-order="fill stroke markers" d=" M 262.28365045809187 234.0484044970384 L 294.69379844958894 234.0484044970384 L 294.69379844958894 120.06677885877576 L 262.28365045809187 120.06677885877576 L 262.28365045809187 234.0484044970384 Z" stroke-linejoin="bevel" stroke-miterlimit="10"/><path fill="#1f77b4" stroke="none" paint-order="stroke fill markers" d=" M 298.29492600425147 352.75092847747516 L 330.70507399574853 352.75092847747516 L 330.70507399574853 120.06677885877576 L 298.29492600425147 120.06677885877576 L 298.29492600425147 352.75092847747516 Z"/><path fill="none" stroke="#1f77b4" paint-order="fill stroke markers" d=" M 298.29492600425147 352.75092847747516 L 330.70507399574853 352.75092847747516 L 330.70507399574853 120.06677885877576 L 298.29492600425147 120.06677885877576 L 298.29492600425147 352.75092847747516 Z" stroke-linejoin="bevel" stroke-miterlimit="10"/><path fill="#1f77b4" stroke="none" paint-order="stroke fill markers" d=" M 334.30620155041106 238.0025731296318 L 366.71634954190813 238.0025731296318 L 366.71634954190813 120.06677885877576 L 334.30620155041106 120.06677885877576 L 334.30620155041106 238.0025731296318 Z"/><path fill="none" stroke="#1f77b4" paint-order="fill stroke markers" d=" M 334.30620155041106 238.0025731296318 L 366.71634954190813 238.0025731296318 L 366.71634954190813 120.06677885877576 L 334.30620155041106 120.06677885877576 L 334.30620155041106 238.0025731296318 Z" stroke-linejoin="bevel" stroke-miterlimit="10"/><path fill="#1f77b4" stroke="none" paint-order="stroke fill markers" d=" M 370.31747709662886 249.0842977957236 L 402.7276250880095 249.0842977957236 L 402.7276250880095 120.06677885877576 L 370.31747709662886 120.06677885877576 L 370.31747709662886 249.0842977957236 Z"/><path fill="none" stroke="#1f77b4" paint-order="fill stroke markers" d=" M 370.31747709662886 249.0842977957236 L 402.7276250880095 249.0842977957236 L 402.7276250880095 120.06677885877576 L 370.31747709662886 120.06677885877576 L 370.31747709662886 249.0842977957236 Z" stroke-linejoin="bevel" stroke-miterlimit="10"/><path fill="#1f77b4" stroke="none" paint-order="stroke fill markers" d=" M 406.32875264273025 530 L 438.7389006342273 530 L 438.7389006342273 120.06677885877576 L 406.32875264273025 120.06677885877576 L 406.32875264273025 530 Z"/><path fill="none" stroke="#1f77b4" paint-order="fill stroke markers" d=" M 406.32875264273025 530 L 438.7389006342273 530 L 438.7389006342273 120.06677885877576 L 406.32875264273025 120.06677885877576 L 406.32875264273025 530 Z" stroke-linejoin="bevel" stroke-miterlimit="10"/><path fill="#1f77b4" stroke="none" paint-order="stroke fill markers" d=" M 442.34002818888985 461.49160517975446 L 474.7501761803869 461.49160517975446 L 474.7501761803869 120.06677885877576 L 442.34002818888985 120.06677885877576 L 442.34002818888985 461.49160517975446 Z"/><path fill="none" stroke="#1f77b4" paint-order="fill stroke markers" d=" M 442.34002818888985 461.49160517975446 L 474.7501761803869 461.49160517975446 L 474.7501761803869 120.06677885877576 L 442.34002818888985 120.06677885877576 L 442.34002818888985 461.49160517975446 Z" stroke-linejoin="bevel" stroke-miterlimit="10"/><path fill="#1f77b4" stroke="none" paint-order="stroke fill markers" d=" M 478.35130373504944 350.9239011160455 L 510.7614517265465 350.9239011160455 L 510.7614517265465 120.06677885877576 L 478.35130373504944 120.06677885877576 L 478.35130373504944 350.9239011160455 Z"/><path fill="none" stroke="#1f77b4" paint-order="fill stroke markers" d=" M 478.35130373504944 350.9239011160455 L 510.7614517265465 350.9239011160455 L 510.7614517265465 120.06677885877576 L 478.35130373504944 120.06677885877576 L 478.35130373504944 350.9239011160455 Z" stroke-linejoin="bevel" stroke-miterlimit="10"/><path fill="#1f77b4" stroke="none" paint-order="stroke fill markers" d=" M 514.362579281209 495.63889579059366 L 546.7727272727061 495.63889579059366 L 546.7727272727061 120.06677885877576 L 514.362579281209 120.06677885877576 L 514.362579281209 495.63889579059366 Z"/><path fill="none" stroke="#1f77b4" paint-order="fill stroke markers" d=" M 514.362579281209 495.63889579059366 L 546.7727272727061 495.63889579059366 L 546.7727272727061 120.06677885877576 L 514.362579281209 120.06677885877576 L 514.362579281209 495.63889579059366 Z" stroke-linejoin="bevel" stroke-miterlimit="10"/></g></g></g><g/><g/><g><g fill="#444444"><path fill="none" stroke="black" paint-order="fill stroke markers" d=" M 59 555 L 570 555" stroke-linejoin="bevel" stroke-miterlimit="10"/><path fill="none" stroke="black" paint-order="fill stroke markers" d=" M 125 561 L 125 553" stroke-linejoin="bevel" stroke-miterlimit="10"/><path fill="none" stroke="black" paint-order="fill stroke markers" d=" M 211 561 L 211 553" stroke-linejoin="bevel" stroke-miterlimit="10"/><path fill="none" stroke="black" paint-order="fill stroke markers" d=" M 298 561 L 298 553" stroke-linejoin="bevel" stroke-miterlimit="10"/><path fill="none" stroke="black" paint-order="fill stroke markers" d=" M 384 561 L 384 553" stroke-linejoin="bevel" stroke-miterlimit="10"/><path fill="none" stroke="black" paint-order="fill stroke markers" d=" M 471 561 L 471 553" stroke-linejoin="bevel" stroke-miterlimit="10"/><path fill="none" stroke="black" paint-order="fill stroke markers" d=" M 557 561 L 557 553" stroke-linejoin="bevel" stroke-miterlimit="10"/><path fill="none" stroke="black" paint-order="fill stroke markers" d=" M 108 559 L 108 555" stroke-linejoin="bevel" stroke-miterlimit="10"/><path fill="none" stroke="black" paint-order="fill stroke markers" d=" M 90 559 L 90 555" stroke-linejoin="bevel" stroke-miterlimit="10"/><path fill="none" stroke="black" paint-order="fill stroke markers" d=" M 73 559 L 73 555" stroke-linejoin="bevel" stroke-miterlimit="10"/><path fill="none" stroke="black" paint-order="fill stroke markers" d=" M 125 559 L 125 555" stroke-linejoin="bevel" stroke-miterlimit="10"/><path fill="none" stroke="black" paint-order="fill stroke markers" d=" M 142 559 L 142 555" stroke-linejoin="bevel" stroke-miterlimit="10"/><path fill="none" stroke="black" paint-order="fill stroke markers" d=" M 159 559 L 159 555" stroke-linejoin="bevel" stroke-miterlimit="10"/><path fill="none" stroke="black" paint-order="fill stroke markers" d=" M 177 559 L 177 555" stroke-linejoin="bevel" stroke-miterlimit="10"/><path fill="none" stroke="black" paint-order="fill stroke markers" d=" M 194 559 L 194 555" stroke-linejoin="bevel" stroke-miterlimit="10"/><path fill="none" stroke="black" paint-order="fill stroke markers" d=" M 211 559 L 211 555" stroke-linejoin="bevel" stroke-miterlimit="10"/><path fill="none" stroke="black" paint-order="fill stroke markers" d=" M 229 559 L 229 555" stroke-linejoin="bevel" stroke-miterlimit="10"/><path fill="none" stroke="black" paint-order="fill stroke markers" d=" M 246 559 L 246 555" stroke-linejoin="bevel" stroke-miterlimit="10"/><path fill="none" stroke="black" paint-order="fill stroke markers" d=" M 263 559 L 263 555" stroke-linejoin="bevel" stroke-miterlimit="10"/><path fill="none" stroke="black" paint-order="fill stroke markers" d=" M 280 559 L 280 555" stroke-linejoin="bevel" stroke-miterlimit="10"/><path fill="none" stroke="black" paint-order="fill stroke markers" d=" M 298 559 L 298 555" stroke-linejoin="bevel" stroke-miterlimit="10"/><path fill="none" stroke="black" paint-order="fill stroke markers" d=" M 315 559 L 315 555" stroke-linejoin="bevel" stroke-miterlimit="10"/><path fill="none" stroke="black" paint-order="fill stroke markers" d=" M 332 559 L 332 555" stroke-linejoin="bevel" stroke-miterlimit="10"/><path fill="none" stroke="black" paint-order="fill stroke markers" d=" M 350 559 L 350 555" stroke-linejoin="bevel" stroke-miterlimit="10"/><path fill="none" stroke="black" paint-order="fill stroke markers" d=" M 367 559 L 367 555" stroke-linejoin="bevel" stroke-miterlimit="10"/><path fill="none" stroke="black" paint-order="fill stroke markers" d=" M 384 559 L 384 555" stroke-linejoin="bevel" stroke-miterlimit="10"/><path fill="none" stroke="black" paint-order="fill stroke markers" d=" M 401 559 L 401 555" stroke-linejoin="bevel" stroke-miterlimit="10"/><path fill="none" stroke="black" paint-order="fill stroke markers" d=" M 419 559 L 419 555" stroke-linejoin="bevel" stroke-miterlimit="10"/><path fill="none" stroke="black" paint-order="fill stroke markers" d=" M 436 559 L 436 555" stroke-linejoin="bevel" stroke-miterlimit="10"/><path fill="none" stroke="black" paint-order="fill stroke markers" d=" M 453 559 L 453 555" stroke-linejoin="bevel" stroke-miterlimit="10"/><path fill="none" stroke="black" paint-order="fill stroke markers" d=" M 471 559 L 471 555" stroke-linejoin="bevel" stroke-miterlimit="10"/><path fill="none" stroke="black" paint-order="fill stroke markers" d=" M 488 559 L 488 555" stroke-linejoin="bevel" stroke-miterlimit="10"/><path fill="none" stroke="black" paint-order="fill stroke markers" d=" M 505 559 L 505 555" stroke-linejoin="bevel" stroke-miterlimit="10"/><path fill="none" stroke="black" paint-order="fill stroke markers" d=" M 522 559 L 522 555" stroke-linejoin="bevel" stroke-miterlimit="10"/><path fill="none" stroke="black" paint-order="fill stroke markers" d=" M 540 559 L 540 555" stroke-linejoin="bevel" stroke-miterlimit="10"/><path fill="" stroke="black" paint-order="fill stroke markers" d=" M 557 559 L 557 555" stroke-linejoin="bevel" stroke-miterlimit="10"/><g transform="translate(125,566) rotate(0,0,0)"><text fill="" stroke="none" font-family="helvetica" font-size="8pt" font-style="normal" font-weight="normal" text-decoration="normal" x="0" y="0" text-anchor="middle" dominant-baseline="hanging">2014.4</text><g transform="rotate(0,0,0) translate(-125,-566) translate(211,566) rotate(0,0,0)"><text fill="" stroke="none" font-family="helvetica" font-size="8pt" font-style="normal" font-weight="normal" text-decoration="normal" x="0" y="0" text-anchor="middle" dominant-baseline="hanging">2014.6</text><g transform="rotate(0,0,0) translate(-211,-566) translate(298,566) rotate(0,0,0)"><text fill="" stroke="none" font-family="helvetica" font-size="8pt" font-style="normal" font-weight="normal" text-decoration="normal" x="0" y="0" text-anchor="middle" dominant-baseline="hanging">2014.8</text><g transform="rotate(0,0,0) translate(-298,-566) translate(384,566) rotate(0,0,0)"><text fill="" stroke="none" font-family="helvetica" font-size="8pt" font-style="normal" font-weight="normal" text-decoration="normal" x="0" y="0" text-anchor="middle" dominant-baseline="hanging">2015</text><g transform="rotate(0,0,0) translate(-384,-566) translate(471,566) rotate(0,0,0)"><text fill="" stroke="none" font-family="helvetica" font-size="8pt" font-style="normal" font-weight="normal" text-decoration="normal" x="0" y="0" text-anchor="middle" dominant-baseline="hanging">2015.2</text><g transform="rotate(0,0,0) translate(-471,-566) translate(557,566) rotate(0,0,0)"><text fill="" stroke="none" font-family="helvetica" font-size="8pt" font-style="normal" font-weight="normal" text-decoration="normal" x="0" y="0" text-anchor="middle" dominant-baseline="hanging">2015.4</text><g transform="rotate(0,0,0) translate(-557,-566) translate(315,584) rotate(0,0,0)"><text fill="" stroke="none" font-family="helvetica" font-size="10pt" font-style="italic" font-weight="normal" text-decoration="normal" x="0" y="0" text-anchor="middle" dominant-baseline="hanging">Date</text><g transform="rotate(0,0,0) translate(-315,-584)"/></g></g></g></g></g></g></g></g></g><g><g fill="#444444"><path fill="none" stroke="black" paint-order="fill stroke markers" d=" M 59 555 L 59 5" stroke-linejoin="bevel" stroke-miterlimit="10"/><path fill="none" stroke="black" paint-order="fill stroke markers" d=" M 53 536 L 61 536" stroke-linejoin="bevel" stroke-miterlimit="10"/><path fill="none" stroke="black" paint-order="fill stroke markers" d=" M 53 452 L 61 452" stroke-linejoin="bevel" stroke-miterlimit="10"/><path fill="none" stroke="black" paint-order="fill stroke markers" d=" M 53 369 L 61 369" stroke-linejoin="bevel" stroke-miterlimit="10"/><path fill="none" stroke="black" paint-order="fill stroke markers" d=" M 53 286 L 61 286" stroke-linejoin="bevel" stroke-miterlimit="10"/><path fill="none" stroke="black" paint-order="fill stroke markers" d=" M 53 203 L 61 203" stroke-linejoin="bevel" stroke-miterlimit="10"/><path fill="none" stroke="black" paint-order="fill stroke markers" d=" M 53 120 L 61 120" stroke-linejoin="bevel" stroke-miterlimit="10"/><path fill="none" stroke="black" paint-order="fill stroke markers" d=" M 53 37 L 61 37" stroke-linejoin="bevel" stroke-miterlimit="10"/><path fill="none" stroke="black" paint-order="fill stroke markers" d=" M 55 552 L 59 552" stroke-linejoin="bevel" stroke-miterlimit="10"/><path fill="none" stroke="black" paint-order="fill stroke markers" d=" M 55 536 L 59 536" stroke-linejoin="bevel" stroke-miterlimit="10"/><path fill="none" stroke="black" paint-order="fill stroke markers" d=" M 55 519 L 59 519" stroke-linejoin="bevel" stroke-miterlimit="10"/><path fill="none" stroke="black" paint-order="fill stroke markers" d=" M 55 502 L 59 502" stroke-linejoin="bevel" stroke-miterlimit="10"/><path fill="none" stroke="black" paint-order="fill stroke markers" d=" M 55 486 L 59 486" stroke-linejoin="bevel" stroke-miterlimit="10"/><path fill="none" stroke="black" paint-order="fill stroke markers" d=" M 55 469 L 59 469" stroke-linejoin="bevel" stroke-miterlimit="10"/><path fill="none" stroke="black" paint-order="fill stroke markers" d=" M 55 452 L 59 452" stroke-linejoin="bevel" stroke-miterlimit="10"/><path fill="none" stroke="black" paint-order="fill stroke markers" d=" M 55 436 L 59 436" stroke-linejoin="bevel" stroke-miterlimit="10"/><path fill="none" stroke="black" paint-order="fill stroke markers" d=" M 55 419 L 59 419" stroke-linejoin="bevel" stroke-miterlimit="10"/><path fill="none" stroke="black" paint-order="fill stroke markers" d=" M 55 403 L 59 403" stroke-linejoin="bevel" stroke-miterlimit="10"/><path fill="none" stroke="black" paint-order="fill stroke markers" d=" M 55 386 L 59 386" stroke-linejoin="bevel" stroke-miterlimit="10"/><path fill="none" stroke="black" paint-order="fill stroke markers" d=" M 55 369 L 59 369" stroke-linejoin="bevel" stroke-miterlimit="10"/><path fill="none" stroke="black" paint-order="fill stroke markers" d=" M 55 353 L 59 353" stroke-linejoin="bevel" stroke-miterlimit="10"/><path fill="none" stroke="black" paint-order="fill stroke markers" d=" M 55 336 L 59 336" stroke-linejoin="bevel" stroke-miterlimit="10"/><path fill="none" stroke="black" paint-order="fill stroke markers" d=" M 55 320 L 59 320" stroke-linejoin="bevel" stroke-miterlimit="10"/><path fill="none" stroke="black" paint-order="fill stroke markers" d=" M 55 303 L 59 303" stroke-linejoin="bevel" stroke-miterlimit="10"/><path fill="none" stroke="black" paint-order="fill stroke markers" d=" M 55 286 L 59 286" stroke-linejoin="bevel" stroke-miterlimit="10"/><path fill="none" stroke="black" paint-order="fill stroke markers" d=" M 55 270 L 59 270" stroke-linejoin="bevel" stroke-miterlimit="10"/><path fill="none" stroke="black" paint-order="fill stroke markers" d=" M 55 253 L 59 253" stroke-linejoin="bevel" stroke-miterlimit="10"/><path fill="none" stroke="black" paint-order="fill stroke markers" d=" M 55 236 L 59 236" stroke-linejoin="bevel" stroke-miterlimit="10"/><path fill="none" stroke="black" paint-order="fill stroke markers" d=" M 55 220 L 59 220" stroke-linejoin="bevel" stroke-miterlimit="10"/><path fill="none" stroke="black" paint-order="fill stroke markers" d=" M 55 203 L 59 203" stroke-linejoin="bevel" stroke-miterlimit="10"/><path fill="none" stroke="black" paint-order="fill stroke markers" d=" M 55 187 L 59 187" stroke-linejoin="bevel" stroke-miterlimit="10"/><path fill="none" stroke="black" paint-order="fill stroke markers" d=" M 55 170 L 59 170" stroke-linejoin="bevel" stroke-miterlimit="10"/><path fill="none" stroke="black" paint-order="fill stroke markers" d=" M 55 153 L 59 153" stroke-linejoin="bevel" stroke-miterlimit="10"/><path fill="none" stroke="black" paint-order="fill stroke markers" d=" M 55 137 L 59 137" stroke-linejoin="bevel" stroke-miterlimit="10"/><path fill="none" stroke="black" paint-order="fill stroke markers" d=" M 55 120 L 59 120" stroke-linejoin="bevel" stroke-miterlimit="10"/><path fill="none" stroke="black" paint-order="fill stroke markers" d=" M 55 103 L 59 103" stroke-linejoin="bevel" stroke-miterlimit="10"/><path fill="none" stroke="black" paint-order="fill stroke markers" d=" M 55 87 L 59 87" stroke-linejoin="bevel" stroke-miterlimit="10"/><path fill="none" stroke="black" paint-order="fill stroke markers" d=" M 55 70 L 59 70" stroke-linejoin="bevel" stroke-miterlimit="10"/><path fill="none" stroke="black" paint-order="fill stroke markers" d=" M 55 54 L 59 54" stroke-linejoin="bevel" stroke-miterlimit="10"/><path fill="none" stroke="black" paint-order="fill stroke markers" d=" M 55 37 L 59 37" stroke-linejoin="bevel" stroke-miterlimit="10"/><path fill="" stroke="black" paint-order="fill stroke markers" d=" M 55 20 L 59 20" stroke-linejoin="bevel" stroke-miterlimit="10"/><g transform="translate(48,536) rotate(0,0,0)"><text fill="" stroke="none" font-family="helvetica" font-size="8pt" font-style="normal" font-weight="normal" text-decoration="normal" x="0" y="0" text-anchor="end" dominant-baseline="central">-0.05</text><g transform="rotate(0,0,0) translate(-48,-536) translate(48,452) rotate(0,0,0)"><text fill="" stroke="none" font-family="helvetica" font-size="8pt" font-style="normal" font-weight="normal" text-decoration="normal" x="0" y="0" text-anchor="end" dominant-baseline="central">-0.04</text><g transform="rotate(0,0,0) translate(-48,-452) translate(48,369) rotate(0,0,0)"><text fill="" stroke="none" font-family="helvetica" font-size="8pt" font-style="normal" font-weight="normal" text-decoration="normal" x="0" y="0" text-anchor="end" dominant-baseline="central">-0.03</text><g transform="rotate(0,0,0) translate(-48,-369) translate(48,286) rotate(0,0,0)"><text fill="" stroke="none" font-family="helvetica" font-size="8pt" font-style="normal" font-weight="normal" text-decoration="normal" x="0" y="0" text-anchor="end" dominant-baseline="central">-0.02</text><g transform="rotate(0,0,0) translate(-48,-286) translate(48,203) rotate(0,0,0)"><text fill="" stroke="none" font-family="helvetica" font-size="8pt" font-style="normal" font-weight="normal" text-decoration="normal" x="0" y="0" text-anchor="end" dominant-baseline="central">-0.01</text><g transform="rotate(0,0,0) translate(-48,-203) translate(48,120) rotate(0,0,0)"><text fill="" stroke="none" font-family="helvetica" font-size="8pt" font-style="normal" font-weight="normal" text-decoration="normal" x="0" y="0" text-anchor="end" dominant-baseline="central">0</text><g transform="rotate(0,0,0) translate(-48,-120) translate(48,37) rotate(0,0,0)"><text fill="" stroke="none" font-family="helvetica" font-size="8pt" font-style="normal" font-weight="normal" text-decoration="normal" x="0" y="0" text-anchor="end" dominant-baseline="central">0.01</text><g transform="rotate(0,0,0) translate(-48,-37) translate(15,280) rotate(-90,0,0)"><text fill="" stroke="none" font-family="helvetica" font-size="10pt" font-style="italic" font-weight="normal" text-decoration="normal" x="0" y="0" text-anchor="middle" dominant-baseline="alphabetic">Mean living area per month [sqft]</text><g transform="rotate(90,0,0) translate(-15,-280)"/></g></g></g></g></g></g></g></g></g></g><g clip-path="url(#AnWrXMSfUMvm)"><g/></g></g></g></svg>