<svg version="1.1" xmlns="http://www.w3.org/2000/svg" xmlns:xlink="http://www.w3.org/1999/xlink" width="600" height="600" style="width: 600px; height: 600px;"><defs><clipPath id="GvtSGfKFmpvy"><path fill="none" stroke="none" d=" M 45 5 L 570 5 L 570 555 L 45 555 L 45 5 Z"/></clipPath><clipPath id="MCVBBMLGSvZk"><path fill="none" stroke="none" d=" M 45 5 L 570 5 L 570 555 L 45 555 L 45 5 Z"/></clipPath><clipPath id="qCubHLOkhJib"><path fill="none" stroke="none" d=" M 45 5 L 570 5 L 570 555 L 45 555 L 45 5 Z"/></clipPath><clipPath id="VvxqzZVzkWGp"><path fill="none" stroke="none" d=" M 45 5 L 570 5 L 570 555 L 45 555 L 45 5 Z"/></clipPath><clipPath id="eJZBrTrPcGDF"><path fill="none" stroke="none" d=" M 45 5 L 570 5 L 570 555 L 45 555 L 45 5 Z"/></clipPath><clipPath id="crckycXyQAek"><path fill="none" stroke="none" d=" M 45 5 L 570 5 L 570 555 L 45 555 L 45 5 Z"/></clipPath></defs><g><g transform="scale(1,1) translate(0.5,0.5)"><rect fill="#FFFFFF" stroke="none" x="0" y="0" width="600" height="600"/><rect fill="#ffffff" stroke="none" x="0" y="0" width="600" height="600"/><rect fill="#FFFFFF" stroke="none" x="45" y="5" width="525" height="550"/><rect fill="#ffffff" stroke="none" x="45" y="5" width="525" height="550"/><g><rect fill="none" stroke="#e5e5e5" x="45" y="5" width="525" height="550" stroke-linejoin="bevel" stroke-miterlimit="10"/></g><g clip-path="url(#GvtSGfKFmpvy)"><g><g><path fill="none" stroke="#e5e5e5" paint-order="fill stroke markers" d=" M 101 555 L 101 5" stroke-linejoin="bevel" stroke-miterlimit="10"/><path fill="none" stroke="#e5e5e5" paint-order="fill stroke markers" d=" M 219 555 L 219 5" stroke-linejoin="bevel" stroke-miterlimit="10"/><path fill="none" stroke="#e5e5e5" paint-order="fill stroke markers" d=" M 337 555 L 337 5" stroke-linejoin="bevel" stroke-miterlimit="10"/><path fill="none" stroke="#e5e5e5" paint-order="fill stroke markers" d=" M 455 555 L 455 5" stroke-linejoin="bevel" stroke-miterlimit="10"/></g></g></g><g clip-path="url(#MCVBBMLGSvZk)"><g><g><path fill="none" stroke="#e5e5e5" paint-order="fill stroke markers" d=" M 45 530 L 570 530" stroke-linejoin="bevel" stroke-miterlimit="10"/><path fill="none" stroke="#e5e5e5" paint-order="fill stroke markers" d=" M 45 393 L 570 393" stroke-linejoin="bevel" stroke-miterlimit="10"/><path fill="none" stroke="#e5e5e5" paint-order="fill stroke markers" d=" M 45 256 L 570 256" stroke-linejoin="bevel" stroke-miterlimit="10"/><path fill="none" stroke="#e5e5e5" paint-order="fill stroke markers" d=" M 45 119 L 570 119" stroke-linejoin="bevel" stroke-miterlimit="10"/></g></g></g><g clip-path="url(#qCubHLOkhJib)"><g><g><path fill="none" stroke="#e5e5e5" paint-order="fill stroke markers" d=" M 101 555 L 101 5" stroke-linejoin="bevel" stroke-miterlimit="10"/><path fill="none" stroke="#e5e5e5" paint-order="fill stroke markers" d=" M 219 555 L 219 5" stroke-linejoin="bevel" stroke-miterlimit="10"/><path fill="none" stroke="#e5e5e5" paint-order="fill stroke markers" d=" M 337 555 L 337 5" stroke-linejoin="bevel" stroke-miterlimit="10"/><path fill="none" stroke="#e5e5e5" paint-order="fill stroke markers" d=" M 455 555 L 455 5" stroke-linejoin="bevel" stroke-miterlimit="10"/></g></g></g><g clip-path="url(#VvxqzZVzkWGp)"><g><g><path fill="none" stroke="#e5e5e5" paint-order="fill stroke markers" d=" M 45 530 L 570 530" stroke-linejoin="bevel" stroke-miterlimit="10"/><path fill="none" stroke="#e5e5e5" paint-order="fill stroke markers" d=" M 45 393 L 570 393" stroke-linejoin="bevel" stroke-miterlimit="10"/><path fill="none" stroke="#e5e5e5" paint-order="fill stroke markers" d=" M 45 256 L 570 256" stroke-linejoin="bevel" stroke-miterlimit="10"/><path fill="none" stroke="#e5e5e5" paint-order="fill stroke markers" d=" M 45 119 L 570 119" stroke-linejoin="bevel" stroke-miterlimit="10"/></g></g></g><g clip-path="url(#eJZBrTrPcGDF)"><g><g><path fill="none" stroke="none"/><path fill="#1f77b4" stroke="none" paint-order="stroke fill markers" d=" M 68.86363636363603 523.1506849315068 L 74.10839160839168 523.1506849315068 L 74.10839160839168 530 L 68.86363636363603 530 L 68.86363636363603 523.1506849315068 Z"/><path fill="none" stroke="#1f77b4" paint-order="fill stroke markers" d=" M 68.86363636363603 523.1506849315068 L 74.10839160839168 523.1506849315068 L 74.10839160839168 530 L 68.86363636363603 530 L 68.86363636363603 523.1506849315068 Z" stroke-linejoin="bevel" stroke-miterlimit="10"/><path fill="#1f77b4" stroke="none" paint-order="stroke fill markers" d=" M 74.69114219114363 530 L 79.93589743589746 530 L 79.93589743589746 530 L 74.69114219114363 530 L 74.69114219114363 530 Z"/><path fill="none" stroke="#1f77b4" paint-order="fill stroke markers" d=" M 74.69114219114363 530 L 79.93589743589746 530 L 79.93589743589746 530 L 74.69114219114363 530 L 74.69114219114363 530 Z" stroke-linejoin="bevel" stroke-miterlimit="10"/><path fill="#1f77b4" stroke="none" paint-order="stroke fill markers" d=" M 80.51864801864758 530 L 85.76340326340323 530 L 85.76340326340323 530 L 80.51864801864758 530 L 80.51864801864758 530 Z"/><path fill="none" stroke="#1f77b4" paint-order="fill stroke markers" d=" M 80.51864801864758 530 L 85.76340326340323 530 L 85.76340326340323 530 L 80.51864801864758 530 L 80.51864801864758 530 Z" stroke-linejoin="bevel" stroke-miterlimit="10"/><path fill="#1f77b4" stroke="none" paint-order="stroke fill markers" d=" M 86.34615384615518 530 L 91.59090909090901 530 L 91.59090909090901 530 L 86.34615384615518 530 L 86.34615384615518 530 Z"/><path fill="none" stroke="#1f77b4" paint-order="fill stroke markers" d=" M 86.34615384615518 530 L 91.59090909090901 530 L 91.59090909090901 530 L 86.34615384615518 530 L 86.34615384615518 530 Z" stroke-linejoin="bevel" stroke-miterlimit="10"/><path fill="#1f77b4" stroke="none" paint-order="stroke fill markers" d=" M 92.17365967366004 530 L 97.41841491841387 530 L 97.41841491841387 530 L 92.17365967366004 530 L 92.17365967366004 530 Z"/><path fill="none" stroke="#1f77b4" paint-order="fill stroke markers" d=" M 92.17365967366004 530 L 97.41841491841387 530 L 97.41841491841387 530 L 92.17365967366004 530 L 92.17365967366004 530 Z" stroke-linejoin="bevel" stroke-miterlimit="10"/><path fill="#1f77b4" stroke="none" paint-order="stroke fill markers" d=" M 98.00116550116581 530 L 103.24592074592147 530 L 103.24592074592147 530 L 98.00116550116581 530 L 98.00116550116581 530 Z"/><path fill="none" stroke="#1f77b4" paint-order="fill stroke markers" d=" M 98.00116550116581 530 L 103.24592074592147 530 L 103.24592074592147 530 L 98.00116550116581 530 L 98.00116550116581 530 Z" stroke-linejoin="bevel" stroke-miterlimit="10"/><path fill="#1f77b4" stroke="none" paint-order="stroke fill markers" d=" M 103.82867132867159 516.3013698630137 L 109.07342657342542 516.3013698630137 L 109.07342657342542 530 L 103.82867132867159 530 L 103.82867132867159 516.3013698630137 Z"/><path fill="none" stroke="#1f77b4" paint-order="fill stroke markers" d=" M 103.82867132867159 516.3013698630137 L 109.07342657342542 516.3013698630137 L 109.07342657342542 530 L 103.82867132867159 530 L 103.82867132867159 516.3013698630137 Z" stroke-linejoin="bevel" stroke-miterlimit="10"/><path fill="#1f77b4" stroke="none" paint-order="stroke fill markers" d=" M 109.65617715617736 530 L 114.90093240093302 530 L 114.90093240093302 530 L 109.65617715617736 530 L 109.65617715617736 530 Z"/><path fill="none" stroke="#1f77b4" paint-order="fill stroke markers" d=" M 109.65617715617736 530 L 114.90093240093302 530 L 114.90093240093302 530 L 109.65617715617736 530 L 109.65617715617736 530 Z" stroke-linejoin="bevel" stroke-miterlimit="10"/><path fill="#1f77b4" stroke="none" paint-order="stroke fill markers" d=" M 115.48368298368496 530 L 120.72843822843879 530 L 120.72843822843879 530 L 115.48368298368496 530 L 115.48368298368496 530 Z"/><path fill="none" stroke="#1f77b4" paint-order="fill stroke markers" d=" M 115.48368298368496 530 L 120.72843822843879 530 L 120.72843822843879 530 L 115.48368298368496 530 L 115.48368298368496 530 Z" stroke-linejoin="bevel" stroke-miterlimit="10"/><path fill="#1f77b4" stroke="none" paint-order="stroke fill markers" d=" M 121.31118881118982 530 L 126.55594405594366 530 L 126.55594405594366 530 L 121.31118881118982 530 L 121.31118881118982 530 Z"/><path fill="none" stroke="#1f77b4" paint-order="fill stroke markers" d=" M 121.31118881118982 530 L 126.55594405594366 530 L 126.55594405594366 530 L 121.31118881118982 530 L 121.31118881118982 530 Z" stroke-linejoin="bevel" stroke-miterlimit="10"/><path fill="#1f77b4" stroke="none" paint-order="stroke fill markers" d=" M 127.13869463869378 523.1506849315068 L 132.38344988344943 523.1506849315068 L 132.38344988344943 530 L 127.13869463869378 530 L 127.13869463869378 523.1506849315068 Z"/><path fill="none" stroke="#1f77b4" paint-order="fill stroke markers" d=" M 127.13869463869378 523.1506849315068 L 132.38344988344943 523.1506849315068 L 132.38344988344943 530 L 127.13869463869378 530 L 127.13869463869378 523.1506849315068 Z" stroke-linejoin="bevel" stroke-miterlimit="10"/><path fill="#1f77b4" stroke="none" paint-order="stroke fill markers" d=" M 132.96620046620137 509.45205479452056 L 138.2109557109552 509.45205479452056 L 138.2109557109552 530 L 132.96620046620137 530 L 132.96620046620137 509.45205479452056 Z"/><path fill="none" stroke="#1f77b4" paint-order="fill stroke markers" d=" M 132.96620046620137 509.45205479452056 L 138.2109557109552 509.45205479452056 L 138.2109557109552 530 L 132.96620046620137 530 L 132.96620046620137 509.45205479452056 Z" stroke-linejoin="bevel" stroke-miterlimit="10"/><path fill="#1f77b4" stroke="none" paint-order="stroke fill markers" d=" M 138.79370629370624 523.1506849315068 L 144.03846153846007 523.1506849315068 L 144.03846153846007 530 L 138.79370629370624 530 L 138.79370629370624 523.1506849315068 Z"/><path fill="none" stroke="#1f77b4" paint-order="fill stroke markers" d=" M 138.79370629370624 523.1506849315068 L 144.03846153846007 523.1506849315068 L 144.03846153846007 530 L 138.79370629370624 530 L 138.79370629370624 523.1506849315068 Z" stroke-linejoin="bevel" stroke-miterlimit="10"/><path fill="#1f77b4" stroke="none" paint-order="stroke fill markers" d=" M 144.62121212121292 530 L 149.86596736596675 530 L 149.86596736596675 530 L 144.62121212121292 530 L 144.62121212121292 530 Z"/><path fill="none" stroke="#1f77b4" paint-order="fill stroke markers" d=" M 144.62121212121292 530 L 149.86596736596675 530 L 149.86596736596675 530 L 144.62121212121292 530 L 144.62121212121292 530 Z" stroke-linejoin="bevel" stroke-miterlimit="10"/><path fill="#1f77b4" stroke="none" paint-order="stroke fill markers" d=" M 150.44871794871779 523.1506849315068 L 155.69347319347162 523.1506849315068 L 155.69347319347162 530 L 150.44871794871779 530 L 150.44871794871779 523.1506849315068 Z"/><path fill="none" stroke="#1f77b4" paint-order="fill stroke markers" d=" M 150.44871794871779 523.1506849315068 L 155.69347319347162 523.1506849315068 L 155.69347319347162 530 L 150.44871794871779 530 L 150.44871794871779 523.1506849315068 Z" stroke-linejoin="bevel" stroke-miterlimit="10"/><path fill="#1f77b4" stroke="none" paint-order="stroke fill markers" d=" M 156.27622377622356 530 L 161.5209790209792 530 L 161.5209790209792 530 L 156.27622377622356 530 L 156.27622377622356 530 Z"/><path fill="none" stroke="#1f77b4" paint-order="fill stroke markers" d=" M 156.27622377622356 530 L 161.5209790209792 530 L 161.5209790209792 530 L 156.27622377622356 530 L 156.27622377622356 530 Z" stroke-linejoin="bevel" stroke-miterlimit="10"/><path fill="#1f77b4" stroke="none" paint-order="stroke fill markers" d=" M 162.10372960373115 523.1506849315068 L 167.348484848485 523.1506849315068 L 167.348484848485 530 L 162.10372960373115 530 L 162.10372960373115 523.1506849315068 Z"/><path fill="none" stroke="#1f77b4" paint-order="fill stroke markers" d=" M 162.10372960373115 523.1506849315068 L 167.348484848485 523.1506849315068 L 167.348484848485 530 L 162.10372960373115 530 L 162.10372960373115 523.1506849315068 Z" stroke-linejoin="bevel" stroke-miterlimit="10"/><path fill="#1f77b4" stroke="none" paint-order="stroke fill markers" d=" M 167.9312354312351 523.1506849315068 L 173.17599067599076 523.1506849315068 L 173.17599067599076 530 L 167.9312354312351 530 L 167.9312354312351 523.1506849315068 Z"/><path fill="none" stroke="#1f77b4" paint-order="fill stroke markers" d=" M 167.9312354312351 523.1506849315068 L 173.17599067599076 523.1506849315068 L 173.17599067599076 530 L 167.9312354312351 530 L 167.9312354312351 523.1506849315068 Z" stroke-linejoin="bevel" stroke-miterlimit="10"/><path fill="#1f77b4" stroke="none" paint-order="stroke fill markers" d=" M 173.7587412587427 530 L 179.00349650349654 530 L 179.00349650349654 530 L 173.7587412587427 530 L 173.7587412587427 530 Z"/><path fill="none" stroke="#1f77b4" paint-order="fill stroke markers" d=" M 173.7587412587427 530 L 179.00349650349654 530 L 179.00349650349654 530 L 173.7587412587427 530 L 173.7587412587427 530 Z" stroke-linejoin="bevel" stroke-miterlimit="10"/><path fill="#1f77b4" stroke="none" paint-order="stroke fill markers" d=" M 179.58624708624757 523.1506849315068 L 184.8310023310014 523.1506849315068 L 184.8310023310014 530 L 179.58624708624757 530 L 179.58624708624757 523.1506849315068 Z"/><path fill="none" stroke="#1f77b4" paint-order="fill stroke markers" d=" M 179.58624708624757 523.1506849315068 L 184.8310023310014 523.1506849315068 L 184.8310023310014 530 L 179.58624708624757 530 L 179.58624708624757 523.1506849315068 Z" stroke-linejoin="bevel" stroke-miterlimit="10"/><path fill="#1f77b4" stroke="none" paint-order="stroke fill markers" d=" M 185.41375291375334 523.1506849315068 L 190.658508158509 523.1506849315068 L 190.658508158509 530 L 185.41375291375334 530 L 185.41375291375334 523.1506849315068 Z"/><path fill="none" stroke="#1f77b4" paint-order="fill stroke markers" d=" M 185.41375291375334 523.1506849315068 L 190.658508158509 523.1506849315068 L 190.658508158509 530 L 185.41375291375334 530 L 185.41375291375334 523.1506849315068 Z" stroke-linejoin="bevel" stroke-miterlimit="10"/><path fill="#1f77b4" stroke="none" paint-order="stroke fill markers" d=" M 191.24125874125912 509.45205479452056 L 196.48601398601295 509.45205479452056 L 196.48601398601295 530 L 191.24125874125912 530 L 191.24125874125912 509.45205479452056 Z"/><path fill="none" stroke="#1f77b4" paint-order="fill stroke markers" d=" M 191.24125874125912 509.45205479452056 L 196.48601398601295 509.45205479452056 L 196.48601398601295 530 L 191.24125874125912 530 L 191.24125874125912 509.45205479452056 Z" stroke-linejoin="bevel" stroke-miterlimit="10"/><path fill="#1f77b4" stroke="none" paint-order="stroke fill markers" d=" M 197.0687645687649 509.45205479452056 L 202.31351981352054 509.45205479452056 L 202.31351981352054 530 L 197.0687645687649 530 L 197.0687645687649 509.45205479452056 Z"/><path fill="none" stroke="#1f77b4" paint-order="fill stroke markers" d=" M 197.0687645687649 509.45205479452056 L 202.31351981352054 509.45205479452056 L 202.31351981352054 530 L 197.0687645687649 530 L 197.0687645687649 509.45205479452056 Z" stroke-linejoin="bevel" stroke-miterlimit="10"/><path fill="#1f77b4" stroke="none" paint-order="stroke fill markers" d=" M 202.89627039627248 516.3013698630137 L 208.14102564102632 516.3013698630137 L 208.14102564102632 530 L 202.89627039627248 530 L 202.89627039627248 516.3013698630137 Z"/><path fill="none" stroke="#1f77b4" paint-order="fill stroke markers" d=" M 202.89627039627248 516.3013698630137 L 208.14102564102632 516.3013698630137 L 208.14102564102632 530 L 202.89627039627248 530 L 202.89627039627248 516.3013698630137 Z" stroke-linejoin="bevel" stroke-miterlimit="10"/><path fill="#1f77b4" stroke="none" paint-order="stroke fill markers" d=" M 208.72377622377644 509.45205479452056 L 213.9685314685321 509.45205479452056 L 213.9685314685321 530 L 208.72377622377644 530 L 208.72377622377644 509.45205479452056 Z"/><path fill="none" stroke="#1f77b4" paint-order="fill stroke markers" d=" M 208.72377622377644 509.45205479452056 L 213.9685314685321 509.45205479452056 L 213.9685314685321 530 L 208.72377622377644 530 L 208.72377622377644 509.45205479452056 Z" stroke-linejoin="bevel" stroke-miterlimit="10"/><path fill="#1f77b4" stroke="none" paint-order="stroke fill markers" d=" M 214.55128205128403 523.1506849315068 L 219.79603729603787 523.1506849315068 L 219.79603729603787 530 L 214.55128205128403 530 L 214.55128205128403 523.1506849315068 Z"/><path fill="none" stroke="#1f77b4" paint-order="fill stroke markers" d=" M 214.55128205128403 523.1506849315068 L 219.79603729603787 523.1506849315068 L 219.79603729603787 530 L 214.55128205128403 530 L 214.55128205128403 523.1506849315068 Z" stroke-linejoin="bevel" stroke-miterlimit="10"/><path fill="#1f77b4" stroke="none" paint-order="stroke fill markers" d=" M 220.3787878787889 509.45205479452056 L 225.62354312354273 509.45205479452056 L 225.62354312354273 530 L 220.3787878787889 530 L 220.3787878787889 509.45205479452056 Z"/><path fill="none" stroke="#1f77b4" paint-order="fill stroke markers" d=" M 220.3787878787889 509.45205479452056 L 225.62354312354273 509.45205479452056 L 225.62354312354273 530 L 220.3787878787889 530 L 220.3787878787889 509.45205479452056 Z" stroke-linejoin="bevel" stroke-miterlimit="10"/><path fill="#1f77b4" stroke="none" paint-order="stroke fill markers" d=" M 226.20629370629467 530 L 231.45104895105032 530 L 231.45104895105032 530 L 226.20629370629467 530 L 226.20629370629467 530 Z"/><path fill="none" stroke="#1f77b4" paint-order="fill stroke markers" d=" M 226.20629370629467 530 L 231.45104895105032 530 L 231.45104895105032 530 L 226.20629370629467 530 L 226.20629370629467 530 Z" stroke-linejoin="bevel" stroke-miterlimit="10"/><path fill="#1f77b4" stroke="none" paint-order="stroke fill markers" d=" M 232.03379953380045 516.3013698630137 L 237.27855477855428 516.3013698630137 L 237.27855477855428 530 L 232.03379953380045 530 L 232.03379953380045 516.3013698630137 Z"/><path fill="none" stroke="#1f77b4" paint-order="fill stroke markers" d=" M 232.03379953380045 516.3013698630137 L 237.27855477855428 516.3013698630137 L 237.27855477855428 530 L 232.03379953380045 530 L 232.03379953380045 516.3013698630137 Z" stroke-linejoin="bevel" stroke-miterlimit="10"/><path fill="#1f77b4" stroke="none" paint-order="stroke fill markers" d=" M 237.86130536130622 502.6027397260274 L 243.10606060606187 502.6027397260274 L 243.10606060606187 530 L 237.86130536130622 530 L 237.86130536130622 502.6027397260274 Z"/><path fill="none" stroke="#1f77b4" paint-order="fill stroke markers" d=" M 237.86130536130622 502.6027397260274 L 243.10606060606187 502.6027397260274 L 243.10606060606187 530 L 237.86130536130622 530 L 237.86130536130622 502.6027397260274 Z" stroke-linejoin="bevel" stroke-miterlimit="10"/><path fill="#1f77b4" stroke="none" paint-order="stroke fill markers" d=" M 243.6888111888111 495.75342465753425 L 248.93356643356674 495.75342465753425 L 248.93356643356674 530 L 243.6888111888111 530 L 243.6888111888111 495.75342465753425 Z"/><path fill="none" stroke="#1f77b4" paint-order="fill stroke markers" d=" M 243.6888111888111 495.75342465753425 L 248.93356643356674 495.75342465753425 L 248.93356643356674 530 L 243.6888111888111 530 L 243.6888111888111 495.75342465753425 Z" stroke-linejoin="bevel" stroke-miterlimit="10"/><path fill="#1f77b4" stroke="none" paint-order="stroke fill markers" d=" M 249.51631701631686 502.6027397260274 L 254.7610722610707 502.6027397260274 L 254.7610722610707 530 L 249.51631701631686 530 L 249.51631701631686 502.6027397260274 Z"/><path fill="none" stroke="#1f77b4" paint-order="fill stroke markers" d=" M 249.51631701631686 502.6027397260274 L 254.7610722610707 502.6027397260274 L 254.7610722610707 530 L 249.51631701631686 530 L 249.51631701631686 502.6027397260274 Z" stroke-linejoin="bevel" stroke-miterlimit="10"/><path fill="#1f77b4" stroke="none" paint-order="stroke fill markers" d=" M 255.34382284382264 530 L 260.5885780885783 530 L 260.5885780885783 530 L 255.34382284382264 530 L 255.34382284382264 530 Z"/><path fill="none" stroke="#1f77b4" paint-order="fill stroke markers" d=" M 255.34382284382264 530 L 260.5885780885783 530 L 260.5885780885783 530 L 255.34382284382264 530 L 255.34382284382264 530 Z" stroke-linejoin="bevel" stroke-miterlimit="10"/><path fill="#1f77b4" stroke="none" paint-order="stroke fill markers" d=" M 261.17132867133023 516.3013698630137 L 266.41608391608406 516.3013698630137 L 266.41608391608406 530 L 261.17132867133023 530 L 261.17132867133023 516.3013698630137 Z"/><path fill="none" stroke="#1f77b4" paint-order="fill stroke markers" d=" M 261.17132867133023 516.3013698630137 L 266.41608391608406 516.3013698630137 L 266.41608391608406 530 L 261.17132867133023 530 L 261.17132867133023 516.3013698630137 Z" stroke-linejoin="bevel" stroke-miterlimit="10"/><path fill="#1f77b4" stroke="none" paint-order="stroke fill markers" d=" M 266.9988344988342 482.05479452054794 L 272.24358974358984 482.05479452054794 L 272.24358974358984 530 L 266.9988344988342 530 L 266.9988344988342 482.05479452054794 Z"/><path fill="none" stroke="#1f77b4" paint-order="fill stroke markers" d=" M 266.9988344988342 482.05479452054794 L 272.24358974358984 482.05479452054794 L 272.24358974358984 530 L 266.9988344988342 530 L 266.9988344988342 482.05479452054794 Z" stroke-linejoin="bevel" stroke-miterlimit="10"/><path fill="#1f77b4" stroke="none" paint-order="stroke fill markers" d=" M 272.8263403263418 502.6027397260274 L 278.0710955710956 502.6027397260274 L 278.0710955710956 530 L 272.8263403263418 530 L 272.8263403263418 502.6027397260274 Z"/><path fill="none" stroke="#1f77b4" paint-order="fill stroke markers" d=" M 272.8263403263418 502.6027397260274 L 278.0710955710956 502.6027397260274 L 278.0710955710956 530 L 272.8263403263418 530 L 272.8263403263418 502.6027397260274 Z" stroke-linejoin="bevel" stroke-miterlimit="10"/><path fill="#1f77b4" stroke="none" paint-order="stroke fill markers" d=" M 278.65384615384664 468.35616438356163 L 283.8986013986005 468.35616438356163 L 283.8986013986005 530 L 278.65384615384664 530 L 278.65384615384664 468.35616438356163 Z"/><path fill="none" stroke="#1f77b4" paint-order="fill stroke markers" d=" M 278.65384615384664 468.35616438356163 L 283.8986013986005 468.35616438356163 L 283.8986013986005 530 L 278.65384615384664 530 L 278.65384615384664 468.35616438356163 Z" stroke-linejoin="bevel" stroke-miterlimit="10"/><path fill="#1f77b4" stroke="none" paint-order="stroke fill markers" d=" M 284.4813519813524 523.1506849315068 L 289.72610722610807 523.1506849315068 L 289.72610722610807 530 L 284.4813519813524 530 L 284.4813519813524 523.1506849315068 Z"/><path fill="none" stroke="#1f77b4" paint-order="fill stroke markers" d=" M 284.4813519813524 523.1506849315068 L 289.72610722610807 523.1506849315068 L 289.72610722610807 530 L 284.4813519813524 530 L 284.4813519813524 523.1506849315068 Z" stroke-linejoin="bevel" stroke-miterlimit="10"/><path fill="#1f77b4" stroke="none" paint-order="stroke fill markers" d=" M 290.3088578088582 509.45205479452056 L 295.553613053612 509.45205479452056 L 295.553613053612 530 L 290.3088578088582 530 L 290.3088578088582 509.45205479452056 Z"/><path fill="none" stroke="#1f77b4" paint-order="fill stroke markers" d=" M 290.3088578088582 509.45205479452056 L 295.553613053612 509.45205479452056 L 295.553613053612 530 L 290.3088578088582 530 L 290.3088578088582 509.45205479452056 Z" stroke-linejoin="bevel" stroke-miterlimit="10"/><path fill="#1f77b4" stroke="none" paint-order="stroke fill markers" d=" M 296.13636363636397 502.6027397260274 L 301.3811188811196 502.6027397260274 L 301.3811188811196 530 L 296.13636363636397 530 L 296.13636363636397 502.6027397260274 Z"/><path fill="none" stroke="#1f77b4" paint-order="fill stroke markers" d=" M 296.13636363636397 502.6027397260274 L 301.3811188811196 502.6027397260274 L 301.3811188811196 530 L 296.13636363636397 530 L 296.13636363636397 502.6027397260274 Z" stroke-linejoin="bevel" stroke-miterlimit="10"/><path fill="#1f77b4" stroke="none" paint-order="stroke fill markers" d=" M 301.96386946387156 516.3013698630137 L 307.2086247086254 516.3013698630137 L 307.2086247086254 530 L 301.96386946387156 530 L 301.96386946387156 516.3013698630137 Z"/><path fill="none" stroke="#1f77b4" paint-order="fill stroke markers" d=" M 301.96386946387156 516.3013698630137 L 307.2086247086254 516.3013698630137 L 307.2086247086254 530 L 301.96386946387156 530 L 301.96386946387156 516.3013698630137 Z" stroke-linejoin="bevel" stroke-miterlimit="10"/><path fill="#1f77b4" stroke="none" paint-order="stroke fill markers" d=" M 307.7913752913764 495.75342465753425 L 313.03613053613026 495.75342465753425 L 313.03613053613026 530 L 307.7913752913764 530 L 307.7913752913764 495.75342465753425 Z"/><path fill="none" stroke="#1f77b4" paint-order="fill stroke markers" d=" M 307.7913752913764 495.75342465753425 L 313.03613053613026 495.75342465753425 L 313.03613053613026 530 L 307.7913752913764 530 L 307.7913752913764 495.75342465753425 Z" stroke-linejoin="bevel" stroke-miterlimit="10"/><path fill="#1f77b4" stroke="none" paint-order="stroke fill markers" d=" M 313.6188811188831 523.1506849315068 L 318.86363636363694 523.1506849315068 L 318.86363636363694 530 L 313.6188811188831 530 L 313.6188811188831 523.1506849315068 Z"/><path fill="none" stroke="#1f77b4" paint-order="fill stroke markers" d=" M 313.6188811188831 523.1506849315068 L 318.86363636363694 523.1506849315068 L 318.86363636363694 530 L 313.6188811188831 530 L 313.6188811188831 523.1506849315068 Z" stroke-linejoin="bevel" stroke-miterlimit="10"/><path fill="#1f77b4" stroke="none" paint-order="stroke fill markers" d=" M 319.446386946388 482.05479452054794 L 324.6911421911418 482.05479452054794 L 324.6911421911418 530 L 319.446386946388 530 L 319.446386946388 482.05479452054794 Z"/><path fill="none" stroke="#1f77b4" paint-order="fill stroke markers" d=" M 319.446386946388 482.05479452054794 L 324.6911421911418 482.05479452054794 L 324.6911421911418 530 L 319.446386946388 530 L 319.446386946388 482.05479452054794 Z" stroke-linejoin="bevel" stroke-miterlimit="10"/><path fill="#1f77b4" stroke="none" paint-order="stroke fill markers" d=" M 325.27389277389375 509.45205479452056 L 330.5186480186494 509.45205479452056 L 330.5186480186494 530 L 325.27389277389375 530 L 325.27389277389375 509.45205479452056 Z"/><path fill="none" stroke="#1f77b4" paint-order="fill stroke markers" d=" M 325.27389277389375 509.45205479452056 L 330.5186480186494 509.45205479452056 L 330.5186480186494 530 L 325.27389277389375 530 L 325.27389277389375 509.45205479452056 Z" stroke-linejoin="bevel" stroke-miterlimit="10"/><path fill="#1f77b4" stroke="none" paint-order="stroke fill markers" d=" M 331.10139860140134 482.05479452054794 L 336.3461538461552 482.05479452054794 L 336.3461538461552 530 L 331.10139860140134 530 L 331.10139860140134 482.05479452054794 Z"/><path fill="none" stroke="#1f77b4" paint-order="fill stroke markers" d=" M 331.10139860140134 482.05479452054794 L 336.3461538461552 482.05479452054794 L 336.3461538461552 530 L 331.10139860140134 530 L 331.10139860140134 482.05479452054794 Z" stroke-linejoin="bevel" stroke-miterlimit="10"/><path fill="#1f77b4" stroke="none" paint-order="stroke fill markers" d=" M 336.9289044289053 475.2054794520548 L 342.17365967366095 475.2054794520548 L 342.17365967366095 530 L 336.9289044289053 530 L 336.9289044289053 475.2054794520548 Z"/><path fill="none" stroke="#1f77b4" paint-order="fill stroke markers" d=" M 336.9289044289053 475.2054794520548 L 342.17365967366095 475.2054794520548 L 342.17365967366095 530 L 336.9289044289053 530 L 336.9289044289053 475.2054794520548 Z" stroke-linejoin="bevel" stroke-miterlimit="10"/><path fill="#1f77b4" stroke="none" paint-order="stroke fill markers" d=" M 342.7564102564129 502.6027397260274 L 348.0011655011667 502.6027397260274 L 348.0011655011667 530 L 342.7564102564129 530 L 342.7564102564129 502.6027397260274 Z"/><path fill="none" stroke="#1f77b4" paint-order="fill stroke markers" d=" M 342.7564102564129 502.6027397260274 L 348.0011655011667 502.6027397260274 L 348.0011655011667 530 L 342.7564102564129 530 L 342.7564102564129 502.6027397260274 Z" stroke-linejoin="bevel" stroke-miterlimit="10"/><path fill="#1f77b4" stroke="none" paint-order="stroke fill markers" d=" M 348.58391608391776 475.2054794520548 L 353.8286713286716 475.2054794520548 L 353.8286713286716 530 L 348.58391608391776 530 L 348.58391608391776 475.2054794520548 Z"/><path fill="none" stroke="#1f77b4" paint-order="fill stroke markers" d=" M 348.58391608391776 475.2054794520548 L 353.8286713286716 475.2054794520548 L 353.8286713286716 530 L 348.58391608391776 530 L 348.58391608391776 475.2054794520548 Z" stroke-linejoin="bevel" stroke-miterlimit="10"/><path fill="#1f77b4" stroke="none" paint-order="stroke fill markers" d=" M 354.41142191142353 427.26027397260276 L 359.6561771561792 427.26027397260276 L 359.6561771561792 530 L 354.41142191142353 530 L 354.41142191142353 427.26027397260276 Z"/><path fill="none" stroke="#1f77b4" paint-order="fill stroke markers" d=" M 354.41142191142353 427.26027397260276 L 359.6561771561792 427.26027397260276 L 359.6561771561792 530 L 354.41142191142353 530 L 354.41142191142353 427.26027397260276 Z" stroke-linejoin="bevel" stroke-miterlimit="10"/><path fill="#1f77b4" stroke="none" paint-order="stroke fill markers" d=" M 360.2389277389293 420.41095890410963 L 365.48368298368314 420.41095890410963 L 365.48368298368314 530 L 360.2389277389293 530 L 360.2389277389293 420.41095890410963 Z"/><path fill="none" stroke="#1f77b4" paint-order="fill stroke markers" d=" M 360.2389277389293 420.41095890410963 L 365.48368298368314 420.41095890410963 L 365.48368298368314 530 L 360.2389277389293 530 L 360.2389277389293 420.41095890410963 Z" stroke-linejoin="bevel" stroke-miterlimit="10"/><path fill="#1f77b4" stroke="none" paint-order="stroke fill markers" d=" M 366.06643356643417 434.1095890410959 L 371.311188811188 434.1095890410959 L 371.311188811188 530 L 366.06643356643417 530 L 366.06643356643417 434.1095890410959 Z"/><path fill="none" stroke="#1f77b4" paint-order="fill stroke markers" d=" M 366.06643356643417 434.1095890410959 L 371.311188811188 434.1095890410959 L 371.311188811188 530 L 366.06643356643417 530 L 366.06643356643417 434.1095890410959 Z" stroke-linejoin="bevel" stroke-miterlimit="10"/><path fill="#1f77b4" stroke="none" paint-order="stroke fill markers" d=" M 371.89393939393995 434.1095890410959 L 377.1386946386956 434.1095890410959 L 377.1386946386956 530 L 371.89393939393995 530 L 371.89393939393995 434.1095890410959 Z"/><path fill="none" stroke="#1f77b4" paint-order="fill stroke markers" d=" M 371.89393939393995 434.1095890410959 L 377.1386946386956 434.1095890410959 L 377.1386946386956 530 L 371.89393939393995 530 L 371.89393939393995 434.1095890410959 Z" stroke-linejoin="bevel" stroke-miterlimit="10"/><path fill="#1f77b4" stroke="none" paint-order="stroke fill markers" d=" M 377.7214452214457 434.1095890410959 L 382.96620046619955 434.1095890410959 L 382.96620046619955 530 L 377.7214452214457 530 L 377.7214452214457 434.1095890410959 Z"/><path fill="none" stroke="#1f77b4" paint-order="fill stroke markers" d=" M 377.7214452214457 434.1095890410959 L 382.96620046619955 434.1095890410959 L 382.96620046619955 530 L 377.7214452214457 530 L 377.7214452214457 434.1095890410959 Z" stroke-linejoin="bevel" stroke-miterlimit="10"/><path fill="#1f77b4" stroke="none" paint-order="stroke fill markers" d=" M 383.5489510489515 454.6575342465753 L 388.79370629370715 454.6575342465753 L 388.79370629370715 530 L 383.5489510489515 530 L 383.5489510489515 454.6575342465753 Z"/><path fill="none" stroke="#1f77b4" paint-order="fill stroke markers" d=" M 383.5489510489515 454.6575342465753 L 388.79370629370715 454.6575342465753 L 388.79370629370715 530 L 383.5489510489515 530 L 383.5489510489515 454.6575342465753 Z" stroke-linejoin="bevel" stroke-miterlimit="10"/><path fill="#1f77b4" stroke="none" paint-order="stroke fill markers" d=" M 389.3764568764591 393.013698630137 L 394.6212121212129 393.013698630137 L 394.6212121212129 530 L 389.3764568764591 530 L 389.3764568764591 393.013698630137 Z"/><path fill="none" stroke="#1f77b4" paint-order="fill stroke markers" d=" M 389.3764568764591 393.013698630137 L 394.6212121212129 393.013698630137 L 394.6212121212129 530 L 389.3764568764591 530 L 389.3764568764591 393.013698630137 Z" stroke-linejoin="bevel" stroke-miterlimit="10"/><path fill="#1f77b4" stroke="none" paint-order="stroke fill markers" d=" M 395.20396270396304 379.3150684931507 L 400.4487179487187 379.3150684931507 L 400.4487179487187 530 L 395.20396270396304 530 L 395.20396270396304 379.3150684931507 Z"/><path fill="none" stroke="#1f77b4" paint-order="fill stroke markers" d=" M 395.20396270396304 379.3150684931507 L 400.4487179487187 379.3150684931507 L 400.4487179487187 530 L 395.20396270396304 530 L 395.20396270396304 379.3150684931507 Z" stroke-linejoin="bevel" stroke-miterlimit="10"/><path fill="#1f77b4" stroke="none" paint-order="stroke fill markers" d=" M 401.03146853147064 420.41095890410963 L 406.27622377622447 420.41095890410963 L 406.27622377622447 530 L 401.03146853147064 530 L 401.03146853147064 420.41095890410963 Z"/><path fill="none" stroke="#1f77b4" paint-order="fill stroke markers" d=" M 401.03146853147064 420.41095890410963 L 406.27622377622447 420.41095890410963 L 406.27622377622447 530 L 401.03146853147064 530 L 401.03146853147064 420.41095890410963 Z" stroke-linejoin="bevel" stroke-miterlimit="10"/><path fill="#1f77b4" stroke="none" paint-order="stroke fill markers" d=" M 406.8589743589755 440.95890410958907 L 412.10372960372933 440.95890410958907 L 412.10372960372933 530 L 406.8589743589755 530 L 406.8589743589755 440.95890410958907 Z"/><path fill="none" stroke="#1f77b4" paint-order="fill stroke markers" d=" M 406.8589743589755 440.95890410958907 L 412.10372960372933 440.95890410958907 L 412.10372960372933 530 L 406.8589743589755 530 L 406.8589743589755 440.95890410958907 Z" stroke-linejoin="bevel" stroke-miterlimit="10"/><path fill="#1f77b4" stroke="none" paint-order="stroke fill markers" d=" M 412.6864801864813 447.8082191780822 L 417.9312354312369 447.8082191780822 L 417.9312354312369 530 L 412.6864801864813 530 L 412.6864801864813 447.8082191780822 Z"/><path fill="none" stroke="#1f77b4" paint-order="fill stroke markers" d=" M 412.6864801864813 447.8082191780822 L 417.9312354312369 447.8082191780822 L 417.9312354312369 530 L 412.6864801864813 530 L 412.6864801864813 447.8082191780822 Z" stroke-linejoin="bevel" stroke-miterlimit="10"/><path fill="#1f77b4" stroke="none" paint-order="stroke fill markers" d=" M 418.51398601398705 434.1095890410959 L 423.7587412587409 434.1095890410959 L 423.7587412587409 530 L 418.51398601398705 530 L 418.51398601398705 434.1095890410959 Z"/><path fill="none" stroke="#1f77b4" paint-order="fill stroke markers" d=" M 418.51398601398705 434.1095890410959 L 423.7587412587409 434.1095890410959 L 423.7587412587409 530 L 418.51398601398705 530 L 418.51398601398705 434.1095890410959 Z" stroke-linejoin="bevel" stroke-miterlimit="10"/><path fill="#1f77b4" stroke="none" paint-order="stroke fill markers" d=" M 424.3414918414928 447.8082191780822 L 429.5862470862485 447.8082191780822 L 429.5862470862485 530 L 424.3414918414928 530 L 424.3414918414928 447.8082191780822 Z"/><path fill="none" stroke="#1f77b4" paint-order="fill stroke markers" d=" M 424.3414918414928 447.8082191780822 L 429.5862470862485 447.8082191780822 L 429.5862470862485 530 L 424.3414918414928 530 L 424.3414918414928 447.8082191780822 Z" stroke-linejoin="bevel" stroke-miterlimit="10"/><path fill="#1f77b4" stroke="none" paint-order="stroke fill markers" d=" M 430.1689976690004 454.6575342465753 L 435.41375291375425 454.6575342465753 L 435.41375291375425 530 L 430.1689976690004 530 L 430.1689976690004 454.6575342465753 Z"/><path fill="none" stroke="#1f77b4" paint-order="fill stroke markers" d=" M 430.1689976690004 454.6575342465753 L 435.41375291375425 454.6575342465753 L 435.41375291375425 530 L 430.1689976690004 530 L 430.1689976690004 454.6575342465753 Z" stroke-linejoin="bevel" stroke-miterlimit="10"/><path fill="#1f77b4" stroke="none" paint-order="stroke fill markers" d=" M 435.9965034965044 447.8082191780822 L 441.24125874126 447.8082191780822 L 441.24125874126 530 L 435.9965034965044 530 L 435.9965034965044 447.8082191780822 Z"/><path fill="none" stroke="#1f77b4" paint-order="fill stroke markers" d=" M 435.9965034965044 447.8082191780822 L 441.24125874126 447.8082191780822 L 441.24125874126 530 L 435.9965034965044 530 L 435.9965034965044 447.8082191780822 Z" stroke-linejoin="bevel" stroke-miterlimit="10"/><path fill="#1f77b4" stroke="none" paint-order="stroke fill markers" d=" M 441.82400932401197 420.41095890410963 L 447.0687645687658 420.41095890410963 L 447.0687645687658 530 L 441.82400932401197 530 L 441.82400932401197 420.41095890410963 Z"/><path fill="none" stroke="#1f77b4" paint-order="fill stroke markers" d=" M 441.82400932401197 420.41095890410963 L 447.0687645687658 420.41095890410963 L 447.0687645687658 530 L 441.82400932401197 530 L 441.82400932401197 420.41095890410963 Z" stroke-linejoin="bevel" stroke-miterlimit="10"/><path fill="#1f77b4" stroke="none" paint-order="stroke fill markers" d=" M 447.65151515151683 427.26027397260276 L 452.89627039627067 427.26027397260276 L 452.89627039627067 530 L 447.65151515151683 530 L 447.65151515151683 427.26027397260276 Z"/><path fill="none" stroke="#1f77b4" paint-order="fill stroke markers" d=" M 447.65151515151683 427.26027397260276 L 452.89627039627067 427.26027397260276 L 452.89627039627067 530 L 447.65151515151683 530 L 447.65151515151683 427.26027397260276 Z" stroke-linejoin="bevel" stroke-miterlimit="10"/><path fill="#1f77b4" stroke="none" paint-order="stroke fill markers" d=" M 453.4790209790226 331.36986301369865 L 458.72377622377826 331.36986301369865 L 458.72377622377826 530 L 453.4790209790226 530 L 453.4790209790226 331.36986301369865 Z"/><path fill="none" stroke="#1f77b4" paint-order="fill stroke markers" d=" M 453.4790209790226 331.36986301369865 L 458.72377622377826 331.36986301369865 L 458.72377622377826 530 L 453.4790209790226 530 L 453.4790209790226 331.36986301369865 Z" stroke-linejoin="bevel" stroke-miterlimit="10"/><path fill="#1f77b4" stroke="none" paint-order="stroke fill markers" d=" M 459.3065268065284 427.26027397260276 L 464.5512820512822 427.26027397260276 L 464.5512820512822 530 L 459.3065268065284 530 L 459.3065268065284 427.26027397260276 Z"/><path fill="none" stroke="#1f77b4" paint-order="fill stroke markers" d=" M 459.3065268065284 427.26027397260276 L 464.5512820512822 427.26027397260276 L 464.5512820512822 530 L 459.3065268065284 530 L 459.3065268065284 427.26027397260276 Z" stroke-linejoin="bevel" stroke-miterlimit="10"/><path fill="#1f77b4" stroke="none" paint-order="stroke fill markers" d=" M 465.13403263403416 413.56164383561645 L 470.3787878787898 413.56164383561645 L 470.3787878787898 530 L 465.13403263403416 530 L 465.13403263403416 413.56164383561645 Z"/><path fill="none" stroke="#1f77b4" paint-order="fill stroke markers" d=" M 465.13403263403416 413.56164383561645 L 470.3787878787898 413.56164383561645 L 470.3787878787898 530 L 465.13403263403416 530 L 465.13403263403416 413.56164383561645 Z" stroke-linejoin="bevel" stroke-miterlimit="10"/><path fill="#1f77b4" stroke="none" paint-order="stroke fill markers" d=" M 470.96153846154175 317.67123287671234 L 476.2062937062956 317.67123287671234 L 476.2062937062956 530 L 470.96153846154175 530 L 470.96153846154175 317.67123287671234 Z"/><path fill="none" stroke="#1f77b4" paint-order="fill stroke markers" d=" M 470.96153846154175 317.67123287671234 L 476.2062937062956 317.67123287671234 L 476.2062937062956 530 L 470.96153846154175 530 L 470.96153846154175 317.67123287671234 Z" stroke-linejoin="bevel" stroke-miterlimit="10"/><path fill="#1f77b4" stroke="none" paint-order="stroke fill markers" d=" M 476.7890442890466 379.3150684931507 L 482.03379953380045 379.3150684931507 L 482.03379953380045 530 L 476.7890442890466 530 L 476.7890442890466 379.3150684931507 Z"/><path fill="none" stroke="#1f77b4" paint-order="fill stroke markers" d=" M 476.7890442890466 379.3150684931507 L 482.03379953380045 379.3150684931507 L 482.03379953380045 530 L 476.7890442890466 530 L 476.7890442890466 379.3150684931507 Z" stroke-linejoin="bevel" stroke-miterlimit="10"/><path fill="#1f77b4" stroke="none" paint-order="stroke fill markers" d=" M 482.61655011655057 331.36986301369865 L 487.8613053613062 331.36986301369865 L 487.8613053613062 530 L 482.61655011655057 530 L 482.61655011655057 331.36986301369865 Z"/><path fill="none" stroke="#1f77b4" paint-order="fill stroke markers" d=" M 482.61655011655057 331.36986301369865 L 487.8613053613062 331.36986301369865 L 487.8613053613062 530 L 482.61655011655057 530 L 482.61655011655057 331.36986301369865 Z" stroke-linejoin="bevel" stroke-miterlimit="10"/><path fill="#1f77b4" stroke="none" paint-order="stroke fill markers" d=" M 488.44405594405816 393.013698630137 L 493.688811188812 393.013698630137 L 493.688811188812 530 L 488.44405594405816 530 L 488.44405594405816 393.013698630137 Z"/><path fill="none" stroke="#1f77b4" paint-order="fill stroke markers" d=" M 488.44405594405816 393.013698630137 L 493.688811188812 393.013698630137 L 493.688811188812 530 L 488.44405594405816 530 L 488.44405594405816 393.013698630137 Z" stroke-linejoin="bevel" stroke-miterlimit="10"/><path fill="#1f77b4" stroke="none" paint-order="stroke fill markers" d=" M 494.27156177156303 324.5205479452055 L 499.51631701631686 324.5205479452055 L 499.51631701631686 530 L 494.27156177156303 530 L 494.27156177156303 324.5205479452055 Z"/><path fill="none" stroke="#1f77b4" paint-order="fill stroke markers" d=" M 494.27156177156303 324.5205479452055 L 499.51631701631686 324.5205479452055 L 499.51631701631686 530 L 494.27156177156303 530 L 494.27156177156303 324.5205479452055 Z" stroke-linejoin="bevel" stroke-miterlimit="10"/><path fill="#1f77b4" stroke="none" paint-order="stroke fill markers" d=" M 500.0990675990697 427.26027397260276 L 505.34382284382355 427.26027397260276 L 505.34382284382355 530 L 500.0990675990697 530 L 500.0990675990697 427.26027397260276 Z"/><path fill="none" stroke="#1f77b4" paint-order="fill stroke markers" d=" M 500.0990675990697 427.26027397260276 L 505.34382284382355 427.26027397260276 L 505.34382284382355 530 L 500.0990675990697 530 L 500.0990675990697 427.26027397260276 Z" stroke-linejoin="bevel" stroke-miterlimit="10"/><path fill="#1f77b4" stroke="none" paint-order="stroke fill markers" d=" M 505.9265734265746 386.16438356164383 L 511.1713286713284 386.16438356164383 L 511.1713286713284 530 L 505.9265734265746 530 L 505.9265734265746 386.16438356164383 Z"/><path fill="none" stroke="#1f77b4" paint-order="fill stroke markers" d=" M 505.9265734265746 386.16438356164383 L 511.1713286713284 386.16438356164383 L 511.1713286713284 530 L 505.9265734265746 530 L 505.9265734265746 386.16438356164383 Z" stroke-linejoin="bevel" stroke-miterlimit="10"/><path fill="#1f77b4" stroke="none" paint-order="stroke fill markers" d=" M 511.75407925408035 427.26027397260276 L 516.998834498836 427.26027397260276 L 516.998834498836 530 L 511.75407925408035 530 L 511.75407925408035 427.26027397260276 Z"/><path fill="none" stroke="#1f77b4" paint-order="fill stroke markers" d=" M 511.75407925408035 427.26027397260276 L 516.998834498836 427.26027397260276 L 516.998834498836 530 L 511.75407925408035 530 L 511.75407925408035 427.26027397260276 Z" stroke-linejoin="bevel" stroke-miterlimit="10"/><path fill="#1f77b4" stroke="none" paint-order="stroke fill markers" d=" M 517.581585081588 468.35616438356163 L 522.8263403263418 468.35616438356163 L 522.8263403263418 530 L 517.581585081588 530 L 517.581585081588 468.35616438356163 Z"/><path fill="none" stroke="#1f77b4" paint-order="fill stroke markers" d=" M 517.581585081588 468.35616438356163 L 522.8263403263418 468.35616438356163 L 522.8263403263418 530 L 517.581585081588 530 L 517.581585081588 468.35616438356163 Z" stroke-linejoin="bevel" stroke-miterlimit="10"/><path fill="#1f77b4" stroke="none" paint-order="stroke fill markers" d=" M 523.4090909090919 475.2054794520548 L 528.6538461538476 475.2054794520548 L 528.6538461538476 530 L 523.4090909090919 530 L 523.4090909090919 475.2054794520548 Z"/><path fill="none" stroke="#1f77b4" paint-order="fill stroke markers" d=" M 523.4090909090919 475.2054794520548 L 528.6538461538476 475.2054794520548 L 528.6538461538476 530 L 523.4090909090919 530 L 523.4090909090919 475.2054794520548 Z" stroke-linejoin="bevel" stroke-miterlimit="10"/><path fill="#1f77b4" stroke="none" paint-order="stroke fill markers" d=" M 529.2365967365995 317.67123287671234 L 534.4813519813533 317.67123287671234 L 534.4813519813533 530 L 529.2365967365995 530 L 529.2365967365995 317.67123287671234 Z"/><path fill="none" stroke="#1f77b4" paint-order="fill stroke markers" d=" M 529.2365967365995 317.67123287671234 L 534.4813519813533 317.67123287671234 L 534.4813519813533 530 L 529.2365967365995 530 L 529.2365967365995 317.67123287671234 Z" stroke-linejoin="bevel" stroke-miterlimit="10"/><path fill="#1f77b4" stroke="none" paint-order="stroke fill markers" d=" M 535.0641025641044 30.000000000000057 L 540.3088578088582 30.000000000000057 L 540.3088578088582 530 L 535.0641025641044 530 L 535.0641025641044 30.000000000000057 Z"/><path fill="none" stroke="#1f77b4" paint-order="fill stroke markers" d=" M 535.0641025641044 30.000000000000057 L 540.3088578088582 30.000000000000057 L 540.3088578088582 530 L 535.0641025641044 530 L 535.0641025641044 30.000000000000057 Z" stroke-linejoin="bevel" stroke-miterlimit="10"/><path fill="#1f77b4" stroke="none" paint-order="stroke fill markers" d=" M 540.8916083916101 434.1095890410959 L 546.1363636363658 434.1095890410959 L 546.1363636363658 530 L 540.8916083916101 530 L 540.8916083916101 434.1095890410959 Z"/><path fill="none" stroke="#1f77b4" paint-order="fill stroke markers" d=" M 540.8916083916101 434.1095890410959 L 546.1363636363658 434.1095890410959 L 546.1363636363658 530 L 540.8916083916101 530 L 540.8916083916101 434.1095890410959 Z" stroke-linejoin="bevel" stroke-miterlimit="10"/></g></g></g><g/><g/><g><g fill="#444444"><path fill="none" stroke="black" paint-order="fill stroke markers" d=" M 45 555 L 570 555" stroke-linejoin="bevel" stroke-miterlimit="10"/><path fill="none" stroke="black" paint-order="fill stroke markers" d=" M 101 561 L 101 553" stroke-linejoin="bevel" stroke-miterlimit="10"/><path fill="none" stroke="black" paint-order="fill stroke markers" d=" M 219 561 L 219 553" stroke-linejoin="bevel" stroke-miterlimit="10"/><path fill="none" stroke="black" paint-order="fill stroke markers" d=" M 337 561 L 337 553" stroke-linejoin="bevel" stroke-miterlimit="10"/><path fill="none" stroke="black" paint-order="fill stroke markers" d=" M 455 561 L 455 553" stroke-linejoin="bevel" stroke-miterlimit="10"/><path fill="none" stroke="black" paint-order="fill stroke markers" d=" M 77 559 L 77 555" stroke-linejoin="bevel" stroke-miterlimit="10"/><path fill="none" stroke="black" paint-order="fill stroke markers" d=" M 54 559 L 54 555" stroke-linejoin="bevel" stroke-miterlimit="10"/><path fill="none" stroke="black" paint-order="fill stroke markers" d=" M 101 559 L 101 555" stroke-linejoin="bevel" stroke-miterlimit="10"/><path fill="none" stroke="black" paint-order="fill stroke markers" d=" M 125 559 L 125 555" stroke-linejoin="bevel" stroke-miterlimit="10"/><path fill="none" stroke="black" paint-order="fill stroke markers" d=" M 148 559 L 148 555" stroke-linejoin="bevel" stroke-miterlimit="10"/><path fill="none" stroke="black" paint-order="fill stroke markers" d=" M 172 559 L 172 555" stroke-linejoin="bevel" stroke-miterlimit="10"/><path fill="none" stroke="black" paint-order="fill stroke markers" d=" M 195 559 L 195 555" stroke-linejoin="bevel" stroke-miterlimit="10"/><path fill="none" stroke="black" paint-order="fill stroke markers" d=" M 219 559 L 219 555" stroke-linejoin="bevel" stroke-miterlimit="10"/><path fill="none" stroke="black" paint-order="fill stroke markers" d=" M 243 559 L 243 555" stroke-linejoin="bevel" stroke-miterlimit="10"/><path fill="none" stroke="black" paint-order="fill stroke markers" d=" M 266 559 L 266 555" stroke-linejoin="bevel" stroke-miterlimit="10"/><path fill="none" stroke="black" paint-order="fill stroke markers" d=" M 290 559 L 290 555" stroke-linejoin="bevel" stroke-miterlimit="10"/><path fill="none" stroke="black" paint-order="fill stroke markers" d=" M 313 559 L 313 555" stroke-linejoin="bevel" stroke-miterlimit="10"/><path fill="none" stroke="black" paint-order="fill stroke markers" d=" M 337 559 L 337 555" stroke-linejoin="bevel" stroke-miterlimit="10"/><path fill="none" stroke="black" paint-order="fill stroke markers" d=" M 361 559 L 361 555" stroke-linejoin="bevel" stroke-miterlimit="10"/><path fill="none" stroke="black" paint-order="fill stroke markers" d=" M 384 559 L 384 555" stroke-linejoin="bevel" stroke-miterlimit="10"/><path fill="none" stroke="black" paint-order="fill stroke markers" d=" M 408 559 L 408 555" stroke-linejoin="bevel" stroke-miterlimit="10"/><path fill="none" stroke="black" paint-order="fill stroke markers" d=" M 431 559 L 431 555" stroke-linejoin="bevel" stroke-miterlimit="10"/><path fill="none" stroke="black" paint-order="fill stroke markers" d=" M 455 559 L 455 555" stroke-linejoin="bevel" stroke-miterlimit="10"/><path fill="none" stroke="black" paint-order="fill stroke markers" d=" M 479 559 L 479 555" stroke-linejoin="bevel" stroke-miterlimit="10"/><path fill="none" stroke="black" paint-order="fill stroke markers" d=" M 502 559 L 502 555" stroke-linejoin="bevel" stroke-miterlimit="10"/><path fill="none" stroke="black" paint-order="fill stroke markers" d=" M 526 559 L 526 555" stroke-linejoin="bevel" stroke-miterlimit="10"/><path fill="" stroke="black" paint-order="fill stroke markers" d=" M 549 559 L 549 555" stroke-linejoin="bevel" stroke-miterlimit="10"/><g transform="translate(101,566) rotate(0,0,0)"><text fill="" stroke="none" font-family="helvetica" font-size="8pt" font-style="normal" font-weight="normal" text-decoration="normal" x="0" y="0" text-anchor="middle" dominant-baseline="hanging">1940</text><g transform="rotate(0,0,0) translate(-101,-566) translate(219,566) rotate(0,0,0)"><text fill="" stroke="none" font-family="helvetica" font-size="8pt" font-style="normal" font-weight="normal" text-decoration="normal" x="0" y="0" text-anchor="middle" dominant-baseline="hanging">1960</text><g transform="rotate(0,0,0) translate(-219,-566) translate(337,566) rotate(0,0,0)"><text fill="" stroke="none" font-family="helvetica" font-size="8pt" font-style="normal" font-weight="normal" text-decoration="normal" x="0" y="0" text-anchor="middle" dominant-baseline="hanging">1980</text><g transform="rotate(0,0,0) translate(-337,-566) translate(455,566) rotate(0,0,0)"><text fill="" stroke="none" font-family="helvetica" font-size="8pt" font-style="normal" font-weight="normal" text-decoration="normal" x="0" y="0" text-anchor="middle" dominant-baseline="hanging">2000</text><g transform="rotate(0,0,0) translate(-455,-566) translate(308,584) rotate(0,0,0)"><text fill="" stroke="none" font-family="helvetica" font-size="10pt" font-style="italic" font-weight="normal" text-decoration="normal" x="0" y="0" text-anchor="middle" dominant-baseline="hanging">Years renovated</text><g transform="rotate(0,0,0) translate(-308,-584)"/></g></g></g></g></g></g></g><g><g fill="#444444"><path fill="none" stroke="black" paint-order="fill stroke markers" d=" M 45 555 L 45 5" stroke-linejoin="bevel" stroke-miterlimit="10"/><path fill="none" stroke="black" paint-order="fill stroke markers" d=" M 39 530 L 47 530" stroke-linejoin="bevel" stroke-miterlimit="10"/><path fill="none" stroke="black" paint-order="fill stroke markers" d=" M 39 393 L 47 393" stroke-linejoin="bevel" stroke-miterlimit="10"/><path fill="none" stroke="black" paint-order="fill stroke markers" d=" M 39 256 L 47 256" stroke-linejoin="bevel" stroke-miterlimit="10"/><path fill="none" stroke="black" paint-order="fill stroke markers" d=" M 39 119 L 47 119" stroke-linejoin="bevel" stroke-miterlimit="10"/><path fill="none" stroke="black" paint-order="fill stroke markers" d=" M 41 530 L 45 530" stroke-linejoin="bevel" stroke-miterlimit="10"/><path fill="none" stroke="black" paint-order="fill stroke markers" d=" M 41 503 L 45 503" stroke-linejoin="bevel" stroke-miterlimit="10"/><path fill="none" stroke="black" paint-order="fill stroke markers" d=" M 41 475 L 45 475" stroke-linejoin="bevel" stroke-miterlimit="10"/><path fill="none" stroke="black" paint-order="fill stroke markers" d=" M 41 448 L 45 448" stroke-linejoin="bevel" stroke-miterlimit="10"/><path fill="none" stroke="black" paint-order="fill stroke markers" d=" M 41 420 L 45 420" stroke-linejoin="bevel" stroke-miterlimit="10"/><path fill="none" stroke="black" paint-order="fill stroke markers" d=" M 41 393 L 45 393" stroke-linejoin="bevel" stroke-miterlimit="10"/><path fill="none" stroke="black" paint-order="fill stroke markers" d=" M 41 366 L 45 366" stroke-linejoin="bevel" stroke-miterlimit="10"/><path fill="none" stroke="black" paint-order="fill stroke markers" d=" M 41 338 L 45 338" stroke-linejoin="bevel" stroke-miterlimit="10"/><path fill="none" stroke="black" paint-order="fill stroke markers" d=" M 41 311 L 45 311" stroke-linejoin="bevel" stroke-miterlimit="10"/><path fill="none" stroke="black" paint-order="fill stroke markers" d=" M 41 283 L 45 283" stroke-linejoin="bevel" stroke-miterlimit="10"/><path fill="none" stroke="black" paint-order="fill stroke markers" d=" M 41 256 L 45 256" stroke-linejoin="bevel" stroke-miterlimit="10"/><path fill="none" stroke="black" paint-order="fill stroke markers" d=" M 41 229 L 45 229" stroke-linejoin="bevel" stroke-miterlimit="10"/><path fill="none" stroke="black" paint-order="fill stroke markers" d=" M 41 201 L 45 201" stroke-linejoin="bevel" stroke-miterlimit="10"/><path fill="none" stroke="black" paint-order="fill stroke markers" d=" M 41 174 L 45 174" stroke-linejoin="bevel" stroke-miterlimit="10"/><path fill="none" stroke="black" paint-order="fill stroke markers" d=" M 41 146 L 45 146" stroke-linejoin="bevel" stroke-miterlimit="10"/><path fill="none" stroke="black" paint-order="fill stroke markers" d=" M 41 119 L 45 119" stroke-linejoin="bevel" stroke-miterlimit="10"/><path fill="none" stroke="black" paint-order="fill stroke markers" d=" M 41 92 L 45 92" stroke-linejoin="bevel" stroke-miterlimit="10"/><path fill="none" stroke="black" paint-order="fill stroke markers" d=" M 41 64 L 45 64" stroke-linejoin="bevel" stroke-miterlimit="10"/><path fill="none" stroke="black" paint-order="fill stroke markers" d=" M 41 37 L 45 37" stroke-linejoin="bevel" stroke-miterlimit="10"/><path fill="" stroke="black" paint-order="fill stroke markers" d=" M 41 9 L 45 9" stroke-linejoin="bevel" stroke-miterlimit="10"/><g transform="translate(34,530) rotate(0,0,0)"><text fill="" stroke="none" font-family="helvetica" font-size="8pt" font-style="normal" font-weight="normal" text-decoration="normal" x="0" y="0" text-anchor="end" dominant-baseline="central">0</text><g transform="rotate(0,0,0) translate(-34,-530) translate(34,393) rotate(0,0,0)"><text fill="" stroke="none" font-family="helvetica" font-size="8pt" font-style="normal" font-weight="normal" text-decoration="normal" x="0" y="0" text-anchor="end" dominant-baseline="central">20</text><g transform="rotate(0,0,0) translate(-34,-393) translate(34,256) rotate(0,0,0)"><text fill="" stroke="none" font-family="helvetica" font-size="8pt" font-style="normal" font-weight="normal" text-decoration="normal" x="0" y="0" text-anchor="end" dominant-baseline="central">40</text><g transform="rotate(0,0,0) translate(-34,-256) translate(34,119) rotate(0,0,0)"><text fill="" stroke="none" font-family="helvetica" font-size="8pt" font-style="normal" font-weight="normal" text-decoration="normal" x="0" y="0" text-anchor="end" dominant-baseline="central">60</text><g transform="rotate(0,0,0) translate(-34,-119) translate(16,280) rotate(-90,0,0)"><text fill="" stroke="none" font-family="helvetica" font-size="10pt" font-style="italic" font-weight="normal" text-decoration="normal" x="0" y="0" text-anchor="middle" dominant-baseline="alphabetic">Sold houses per year renovated</text><g transform="rotate(90,0,0) translate(-16,-280)"/></g></g></g></g></g></g></g><g clip-path="url(#crckycXyQAek)"><g/></g></g></g></svg>