<svg version="1.1" xmlns="http://www.w3.org/2000/svg" xmlns:xlink="http://www.w3.org/1999/xlink" width="600" height="600" style="width: 600px; height: 600px;"><defs><clipPath id="HCqngoWvXALt"><path fill="none" stroke="none" d=" M 82 5 L 570 5 L 570 555 L 82 555 L 82 5 Z"/></clipPath><clipPath id="NyckTOKsgsAE"><path fill="none" stroke="none" d=" M 82 5 L 570 5 L 570 555 L 82 555 L 82 5 Z"/></clipPath><clipPath id="LTDXwhzfEIKn"><path fill="none" stroke="none" d=" M 82 5 L 570 5 L 570 555 L 82 555 L 82 5 Z"/></clipPath><clipPath id="GyLaeQhzzxaM"><path fill="none" stroke="none" d=" M 82 5 L 570 5 L 570 555 L 82 555 L 82 5 Z"/></clipPath><clipPath id="ZLTEOSpdZDTv"><path fill="none" stroke="none" d=" M 82 5 L 570 5 L 570 555 L 82 555 L 82 5 Z"/></clipPath><clipPath id="rtfEdiVeSXxR"><path fill="none" stroke="none" d=" M 82 5 L 570 5 L 570 555 L 82 555 L 82 5 Z"/></clipPath></defs><g><g transform="scale(1,1) translate(0.5,0.5)"><rect fill="#FFFFFF" stroke="none" x="0" y="0" width="600" height="600"/><rect fill="#ffffff" stroke="none" x="0" y="0" width="600" height="600"/><rect fill="#FFFFFF" stroke="none" x="82" y="5" width="488" height="550"/><rect fill="#ffffff" stroke="none" x="82" y="5" width="488" height="550"/><g><rect fill="none" stroke="#e5e5e5" x="82" y="5" width="488" height="550" stroke-linejoin="bevel" stroke-miterlimit="10"/></g><g clip-path="url(#HCqngoWvXALt)"><g><g><path fill="none" stroke="#e5e5e5" paint-order="fill stroke markers" d=" M 148 555 L 148 5" stroke-linejoin="bevel" stroke-miterlimit="10"/><path fill="none" stroke="#e5e5e5" paint-order="fill stroke markers" d=" M 238 555 L 238 5" stroke-linejoin="bevel" stroke-miterlimit="10"/><path fill="none" stroke="#e5e5e5" paint-order="fill stroke markers" d=" M 327 555 L 327 5" stroke-linejoin="bevel" stroke-miterlimit="10"/><path fill="none" stroke="#e5e5e5" paint-order="fill stroke markers" d=" M 417 555 L 417 5" stroke-linejoin="bevel" stroke-miterlimit="10"/><path fill="none" stroke="#e5e5e5" paint-order="fill stroke markers" d=" M 506 555 L 506 5" stroke-linejoin="bevel" stroke-miterlimit="10"/></g></g></g><g clip-path="url(#NyckTOKsgsAE)"><g><g><path fill="none" stroke="#e5e5e5" paint-order="fill stroke markers" d=" M 82 530 L 570 530" stroke-linejoin="bevel" stroke-miterlimit="10"/><path fill="none" stroke="#e5e5e5" paint-order="fill stroke markers" d=" M 82 455 L 570 455" stroke-linejoin="bevel" stroke-miterlimit="10"/><path fill="none" stroke="#e5e5e5" paint-order="fill stroke markers" d=" M 82 380 L 570 380" stroke-linejoin="bevel" stroke-miterlimit="10"/><path fill="none" stroke="#e5e5e5" paint-order="fill stroke markers" d=" M 82 306 L 570 306" stroke-linejoin="bevel" stroke-miterlimit="10"/><path fill="none" stroke="#e5e5e5" paint-order="fill stroke markers" d=" M 82 231 L 570 231" stroke-linejoin="bevel" stroke-miterlimit="10"/><path fill="none" stroke="#e5e5e5" paint-order="fill stroke markers" d=" M 82 156 L 570 156" stroke-linejoin="bevel" stroke-miterlimit="10"/><path fill="none" stroke="#e5e5e5" paint-order="fill stroke markers" d=" M 82 81 L 570 81" stroke-linejoin="bevel" stroke-miterlimit="10"/><path fill="none" stroke="#e5e5e5" paint-order="fill stroke markers" d=" M 82 6 L 570 6" stroke-linejoin="bevel" stroke-miterlimit="10"/></g></g></g><g clip-path="url(#LTDXwhzfEIKn)"><g><g><path fill="none" stroke="#e5e5e5" paint-order="fill stroke markers" d=" M 148 555 L 148 5" stroke-linejoin="bevel" stroke-miterlimit="10"/><path fill="none" stroke="#e5e5e5" paint-order="fill stroke markers" d=" M 238 555 L 238 5" stroke-linejoin="bevel" stroke-miterlimit="10"/><path fill="none" stroke="#e5e5e5" paint-order="fill stroke markers" d=" M 327 555 L 327 5" stroke-linejoin="bevel" stroke-miterlimit="10"/><path fill="none" stroke="#e5e5e5" paint-order="fill stroke markers" d=" M 417 555 L 417 5" stroke-linejoin="bevel" stroke-miterlimit="10"/><path fill="none" stroke="#e5e5e5" paint-order="fill stroke markers" d=" M 506 555 L 506 5" stroke-linejoin="bevel" stroke-miterlimit="10"/></g></g></g><g clip-path="url(#GyLaeQhzzxaM)"><g><g><path fill="none" stroke="#e5e5e5" paint-order="fill stroke markers" d=" M 82 530 L 570 530" stroke-linejoin="bevel" stroke-miterlimit="10"/><path fill="none" stroke="#e5e5e5" paint-order="fill stroke markers" d=" M 82 455 L 570 455" stroke-linejoin="bevel" stroke-miterlimit="10"/><path fill="none" stroke="#e5e5e5" paint-order="fill stroke markers" d=" M 82 380 L 570 380" stroke-linejoin="bevel" stroke-miterlimit="10"/><path fill="none" stroke="#e5e5e5" paint-order="fill stroke markers" d=" M 82 306 L 570 306" stroke-linejoin="bevel" stroke-miterlimit="10"/><path fill="none" stroke="#e5e5e5" paint-order="fill stroke markers" d=" M 82 231 L 570 231" stroke-linejoin="bevel" stroke-miterlimit="10"/><path fill="none" stroke="#e5e5e5" paint-order="fill stroke markers" d=" M 82 156 L 570 156" stroke-linejoin="bevel" stroke-miterlimit="10"/><path fill="none" stroke="#e5e5e5" paint-order="fill stroke markers" d=" M 82 81 L 570 81" stroke-linejoin="bevel" stroke-miterlimit="10"/><path fill="none" stroke="#e5e5e5" paint-order="fill stroke markers" d=" M 82 6 L 570 6" stroke-linejoin="bevel" stroke-miterlimit="10"/></g></g></g><g clip-path="url(#ZLTEOSpdZDTv)"><g><g><path fill="none" stroke="none"/><path fill="#1f77b4" stroke="none" paint-order="stroke fill markers" d=" M 104.18181818193989 165.44762006659585 L 137.73414820473408 165.44762006659585 L 137.73414820473408 530 L 104.18181818193989 530 L 104.18181818193989 165.44762006659585 Z"/><path fill="none" stroke="#1f77b4" paint-order="fill stroke markers" d=" M 104.18181818193989 165.44762006659585 L 137.73414820473408 165.44762006659585 L 137.73414820473408 530 L 104.18181818193989 530 L 104.18181818193989 165.44762006659585 Z" stroke-linejoin="bevel" stroke-miterlimit="10"/><path fill="#1f77b4" stroke="none" paint-order="stroke fill markers" d=" M 141.46218487404985 29.999999999999943 L 175.01451489684405 29.999999999999943 L 175.01451489684405 530 L 141.46218487404985 530 L 141.46218487404985 29.999999999999943 Z"/><path fill="none" stroke="#1f77b4" paint-order="fill stroke markers" d=" M 141.46218487404985 29.999999999999943 L 175.01451489684405 29.999999999999943 L 175.01451489684405 530 L 141.46218487404985 530 L 141.46218487404985 29.999999999999943 Z" stroke-linejoin="bevel" stroke-miterlimit="10"/><path fill="#1f77b4" stroke="none" paint-order="stroke fill markers" d=" M 178.74255156627623 110.22741608434916 L 212.29488158907043 110.22741608434916 L 212.29488158907043 530 L 178.74255156627623 530 L 178.74255156627623 110.22741608434916 Z"/><path fill="none" stroke="#1f77b4" paint-order="fill stroke markers" d=" M 178.74255156627623 110.22741608434916 L 212.29488158907043 110.22741608434916 L 212.29488158907043 530 L 178.74255156627623 530 L 178.74255156627623 110.22741608434916 Z" stroke-linejoin="bevel" stroke-miterlimit="10"/><path fill="#1f77b4" stroke="none" paint-order="stroke fill markers" d=" M 216.02291825826978 156.76178877581748 L 249.57524828106398 156.76178877581748 L 249.57524828106398 530 L 216.02291825826978 530 L 216.02291825826978 156.76178877581748 Z"/><path fill="none" stroke="#1f77b4" paint-order="fill stroke markers" d=" M 216.02291825826978 156.76178877581748 L 249.57524828106398 156.76178877581748 L 249.57524828106398 530 L 216.02291825826978 530 L 216.02291825826978 156.76178877581748 Z" stroke-linejoin="bevel" stroke-miterlimit="10"/><path fill="#1f77b4" stroke="none" paint-order="stroke fill markers" d=" M 253.30328495037975 148.40950963366646 L 286.85561497317394 148.40950963366646 L 286.85561497317394 530 L 253.30328495037975 530 L 253.30328495037975 148.40950963366646 Z"/><path fill="none" stroke="#1f77b4" paint-order="fill stroke markers" d=" M 253.30328495037975 148.40950963366646 L 286.85561497317394 148.40950963366646 L 286.85561497317394 530 L 253.30328495037975 530 L 253.30328495037975 148.40950963366646 Z" stroke-linejoin="bevel" stroke-miterlimit="10"/><path fill="#1f77b4" stroke="none" paint-order="stroke fill markers" d=" M 290.5836516425479 182.32966501431724 L 324.13598166545853 182.32966501431724 L 324.13598166545853 530 L 290.5836516425479 530 L 290.5836516425479 182.32966501431724 Z"/><path fill="none" stroke="#1f77b4" paint-order="fill stroke markers" d=" M 290.5836516425479 182.32966501431724 L 324.13598166545853 182.32966501431724 L 324.13598166545853 530 L 290.5836516425479 530 L 290.5836516425479 182.32966501431724 Z" stroke-linejoin="bevel" stroke-miterlimit="10"/><path fill="#1f77b4" stroke="none" paint-order="stroke fill markers" d=" M 327.8640183346579 235.61910256170046 L 361.4163483575685 235.61910256170046 L 361.4163483575685 530 L 327.8640183346579 530 L 327.8640183346579 235.61910256170046 Z"/><path fill="none" stroke="#1f77b4" paint-order="fill stroke markers" d=" M 327.8640183346579 235.61910256170046 L 361.4163483575685 235.61910256170046 L 361.4163483575685 530 L 327.8640183346579 530 L 327.8640183346579 235.61910256170046 Z" stroke-linejoin="bevel" stroke-miterlimit="10"/><path fill="#1f77b4" stroke="none" paint-order="stroke fill markers" d=" M 365.14438502676785 261.88957100519434 L 398.69671504967846 261.88957100519434 L 398.69671504967846 530 L 365.14438502676785 530 L 365.14438502676785 261.88957100519434 Z"/><path fill="none" stroke="#1f77b4" paint-order="fill stroke markers" d=" M 365.14438502676785 261.88957100519434 L 398.69671504967846 261.88957100519434 L 398.69671504967846 530 L 365.14438502676785 530 L 365.14438502676785 261.88957100519434 Z" stroke-linejoin="bevel" stroke-miterlimit="10"/><path fill="#1f77b4" stroke="none" paint-order="stroke fill markers" d=" M 402.4247517188778 337.4249879595587 L 435.9770817417884 337.4249879595587 L 435.9770817417884 530 L 402.4247517188778 530 L 402.4247517188778 337.4249879595587 Z"/><path fill="none" stroke="#1f77b4" paint-order="fill stroke markers" d=" M 402.4247517188778 337.4249879595587 L 435.9770817417884 337.4249879595587 L 435.9770817417884 530 L 402.4247517188778 530 L 402.4247517188778 337.4249879595587 Z" stroke-linejoin="bevel" stroke-miterlimit="10"/><path fill="#1f77b4" stroke="none" paint-order="stroke fill markers" d=" M 439.7051184111624 291.9968142610766 L 473.2574484339566 291.9968142610766 L 473.2574484339566 530 L 439.7051184111624 530 L 439.7051184111624 291.9968142610766 Z"/><path fill="none" stroke="#1f77b4" paint-order="fill stroke markers" d=" M 439.7051184111624 291.9968142610766 L 473.2574484339566 291.9968142610766 L 473.2574484339566 530 L 439.7051184111624 530 L 439.7051184111624 291.9968142610766 Z" stroke-linejoin="bevel" stroke-miterlimit="10"/><path fill="#1f77b4" stroke="none" paint-order="stroke fill markers" d=" M 476.98548510327237 129.533175621799 L 510.53781512606656 129.533175621799 L 510.53781512606656 530 L 476.98548510327237 530 L 476.98548510327237 129.533175621799 Z"/><path fill="none" stroke="#1f77b4" paint-order="fill stroke markers" d=" M 476.98548510327237 129.533175621799 L 510.53781512606656 129.533175621799 L 510.53781512606656 530 L 476.98548510327237 530 L 476.98548510327237 129.533175621799 Z" stroke-linejoin="bevel" stroke-miterlimit="10"/><path fill="#1f77b4" stroke="none" paint-order="stroke fill markers" d=" M 514.2658517953823 64.27279191968569 L 547.8181818181765 64.27279191968569 L 547.8181818181765 530 L 514.2658517953823 530 L 514.2658517953823 64.27279191968569 Z"/><path fill="none" stroke="#1f77b4" paint-order="fill stroke markers" d=" M 514.2658517953823 64.27279191968569 L 547.8181818181765 64.27279191968569 L 547.8181818181765 530 L 514.2658517953823 530 L 514.2658517953823 64.27279191968569 Z" stroke-linejoin="bevel" stroke-miterlimit="10"/></g></g></g><g/><g/><g><g fill="#444444"><path fill="none" stroke="black" paint-order="fill stroke markers" d=" M 82 555 L 570 555" stroke-linejoin="bevel" stroke-miterlimit="10"/><path fill="none" stroke="black" paint-order="fill stroke markers" d=" M 148 561 L 148 553" stroke-linejoin="bevel" stroke-miterlimit="10"/><path fill="none" stroke="black" paint-order="fill stroke markers" d=" M 238 561 L 238 553" stroke-linejoin="bevel" stroke-miterlimit="10"/><path fill="none" stroke="black" paint-order="fill stroke markers" d=" M 327 561 L 327 553" stroke-linejoin="bevel" stroke-miterlimit="10"/><path fill="none" stroke="black" paint-order="fill stroke markers" d=" M 417 561 L 417 553" stroke-linejoin="bevel" stroke-miterlimit="10"/><path fill="none" stroke="black" paint-order="fill stroke markers" d=" M 506 561 L 506 553" stroke-linejoin="bevel" stroke-miterlimit="10"/><path fill="none" stroke="black" paint-order="fill stroke markers" d=" M 130 559 L 130 555" stroke-linejoin="bevel" stroke-miterlimit="10"/><path fill="none" stroke="black" paint-order="fill stroke markers" d=" M 113 559 L 113 555" stroke-linejoin="bevel" stroke-miterlimit="10"/><path fill="none" stroke="black" paint-order="fill stroke markers" d=" M 95 559 L 95 555" stroke-linejoin="bevel" stroke-miterlimit="10"/><path fill="none" stroke="black" paint-order="fill stroke markers" d=" M 148 559 L 148 555" stroke-linejoin="bevel" stroke-miterlimit="10"/><path fill="none" stroke="black" paint-order="fill stroke markers" d=" M 166 559 L 166 555" stroke-linejoin="bevel" stroke-miterlimit="10"/><path fill="none" stroke="black" paint-order="fill stroke markers" d=" M 184 559 L 184 555" stroke-linejoin="bevel" stroke-miterlimit="10"/><path fill="none" stroke="black" paint-order="fill stroke markers" d=" M 202 559 L 202 555" stroke-linejoin="bevel" stroke-miterlimit="10"/><path fill="none" stroke="black" paint-order="fill stroke markers" d=" M 220 559 L 220 555" stroke-linejoin="bevel" stroke-miterlimit="10"/><path fill="none" stroke="black" paint-order="fill stroke markers" d=" M 238 559 L 238 555" stroke-linejoin="bevel" stroke-miterlimit="10"/><path fill="none" stroke="black" paint-order="fill stroke markers" d=" M 256 559 L 256 555" stroke-linejoin="bevel" stroke-miterlimit="10"/><path fill="none" stroke="black" paint-order="fill stroke markers" d=" M 274 559 L 274 555" stroke-linejoin="bevel" stroke-miterlimit="10"/><path fill="none" stroke="black" paint-order="fill stroke markers" d=" M 291 559 L 291 555" stroke-linejoin="bevel" stroke-miterlimit="10"/><path fill="none" stroke="black" paint-order="fill stroke markers" d=" M 309 559 L 309 555" stroke-linejoin="bevel" stroke-miterlimit="10"/><path fill="none" stroke="black" paint-order="fill stroke markers" d=" M 327 559 L 327 555" stroke-linejoin="bevel" stroke-miterlimit="10"/><path fill="none" stroke="black" paint-order="fill stroke markers" d=" M 345 559 L 345 555" stroke-linejoin="bevel" stroke-miterlimit="10"/><path fill="none" stroke="black" paint-order="fill stroke markers" d=" M 363 559 L 363 555" stroke-linejoin="bevel" stroke-miterlimit="10"/><path fill="none" stroke="black" paint-order="fill stroke markers" d=" M 381 559 L 381 555" stroke-linejoin="bevel" stroke-miterlimit="10"/><path fill="none" stroke="black" paint-order="fill stroke markers" d=" M 399 559 L 399 555" stroke-linejoin="bevel" stroke-miterlimit="10"/><path fill="none" stroke="black" paint-order="fill stroke markers" d=" M 417 559 L 417 555" stroke-linejoin="bevel" stroke-miterlimit="10"/><path fill="none" stroke="black" paint-order="fill stroke markers" d=" M 435 559 L 435 555" stroke-linejoin="bevel" stroke-miterlimit="10"/><path fill="none" stroke="black" paint-order="fill stroke markers" d=" M 453 559 L 453 555" stroke-linejoin="bevel" stroke-miterlimit="10"/><path fill="none" stroke="black" paint-order="fill stroke markers" d=" M 470 559 L 470 555" stroke-linejoin="bevel" stroke-miterlimit="10"/><path fill="none" stroke="black" paint-order="fill stroke markers" d=" M 488 559 L 488 555" stroke-linejoin="bevel" stroke-miterlimit="10"/><path fill="none" stroke="black" paint-order="fill stroke markers" d=" M 506 559 L 506 555" stroke-linejoin="bevel" stroke-miterlimit="10"/><path fill="none" stroke="black" paint-order="fill stroke markers" d=" M 524 559 L 524 555" stroke-linejoin="bevel" stroke-miterlimit="10"/><path fill="none" stroke="black" paint-order="fill stroke markers" d=" M 542 559 L 542 555" stroke-linejoin="bevel" stroke-miterlimit="10"/><path fill="" stroke="black" paint-order="fill stroke markers" d=" M 560 559 L 560 555" stroke-linejoin="bevel" stroke-miterlimit="10"/><g transform="translate(148,566) rotate(0,0,0)"><text fill="" stroke="none" font-family="helvetica" font-size="8pt" font-style="normal" font-weight="normal" text-decoration="normal" x="0" y="0" text-anchor="middle" dominant-baseline="hanging">2014.4</text><g transform="rotate(0,0,0) translate(-148,-566) translate(238,566) rotate(0,0,0)"><text fill="" stroke="none" font-family="helvetica" font-size="8pt" font-style="normal" font-weight="normal" text-decoration="normal" x="0" y="0" text-anchor="middle" dominant-baseline="hanging">2014.6</text><g transform="rotate(0,0,0) translate(-238,-566) translate(327,566) rotate(0,0,0)"><text fill="" stroke="none" font-family="helvetica" font-size="8pt" font-style="normal" font-weight="normal" text-decoration="normal" x="0" y="0" text-anchor="middle" dominant-baseline="hanging">2014.8</text><g transform="rotate(0,0,0) translate(-327,-566) translate(417,566) rotate(0,0,0)"><text fill="" stroke="none" font-family="helvetica" font-size="8pt" font-style="normal" font-weight="normal" text-decoration="normal" x="0" y="0" text-anchor="middle" dominant-baseline="hanging">2015</text><g transform="rotate(0,0,0) translate(-417,-566) translate(506,566) rotate(0,0,0)"><text fill="" stroke="none" font-family="helvetica" font-size="8pt" font-style="normal" font-weight="normal" text-decoration="normal" x="0" y="0" text-anchor="middle" dominant-baseline="hanging">2015.2</text><g transform="rotate(0,0,0) translate(-506,-566) translate(326,584) rotate(0,0,0)"><text fill="" stroke="none" font-family="helvetica" font-size="10pt" font-style="italic" font-weight="normal" text-decoration="normal" x="0" y="0" text-anchor="middle" dominant-baseline="hanging">Date</text><g transform="rotate(0,0,0) translate(-326,-584)"/></g></g></g></g></g></g></g></g><g><g fill="#444444"><path fill="none" stroke="black" paint-order="fill stroke markers" d=" M 82 555 L 82 5" stroke-linejoin="bevel" stroke-miterlimit="10"/><path fill="none" stroke="black" paint-order="fill stroke markers" d=" M 76 530 L 84 530" stroke-linejoin="bevel" stroke-miterlimit="10"/><path fill="none" stroke="black" paint-order="fill stroke markers" d=" M 76 455 L 84 455" stroke-linejoin="bevel" stroke-miterlimit="10"/><path fill="none" stroke="black" paint-order="fill stroke markers" d=" M 76 380 L 84 380" stroke-linejoin="bevel" stroke-miterlimit="10"/><path fill="none" stroke="black" paint-order="fill stroke markers" d=" M 76 306 L 84 306" stroke-linejoin="bevel" stroke-miterlimit="10"/><path fill="none" stroke="black" paint-order="fill stroke markers" d=" M 76 231 L 84 231" stroke-linejoin="bevel" stroke-miterlimit="10"/><path fill="none" stroke="black" paint-order="fill stroke markers" d=" M 76 156 L 84 156" stroke-linejoin="bevel" stroke-miterlimit="10"/><path fill="none" stroke="black" paint-order="fill stroke markers" d=" M 76 81 L 84 81" stroke-linejoin="bevel" stroke-miterlimit="10"/><path fill="none" stroke="black" paint-order="fill stroke markers" d=" M 76 6 L 84 6" stroke-linejoin="bevel" stroke-miterlimit="10"/><path fill="none" stroke="black" paint-order="fill stroke markers" d=" M 78 545 L 82 545" stroke-linejoin="bevel" stroke-miterlimit="10"/><path fill="none" stroke="black" paint-order="fill stroke markers" d=" M 78 530 L 82 530" stroke-linejoin="bevel" stroke-miterlimit="10"/><path fill="none" stroke="black" paint-order="fill stroke markers" d=" M 78 515 L 82 515" stroke-linejoin="bevel" stroke-miterlimit="10"/><path fill="none" stroke="black" paint-order="fill stroke markers" d=" M 78 500 L 82 500" stroke-linejoin="bevel" stroke-miterlimit="10"/><path fill="none" stroke="black" paint-order="fill stroke markers" d=" M 78 485 L 82 485" stroke-linejoin="bevel" stroke-miterlimit="10"/><path fill="none" stroke="black" paint-order="fill stroke markers" d=" M 78 470 L 82 470" stroke-linejoin="bevel" stroke-miterlimit="10"/><path fill="none" stroke="black" paint-order="fill stroke markers" d=" M 78 455 L 82 455" stroke-linejoin="bevel" stroke-miterlimit="10"/><path fill="none" stroke="black" paint-order="fill stroke markers" d=" M 78 440 L 82 440" stroke-linejoin="bevel" stroke-miterlimit="10"/><path fill="none" stroke="black" paint-order="fill stroke markers" d=" M 78 425 L 82 425" stroke-linejoin="bevel" stroke-miterlimit="10"/><path fill="none" stroke="black" paint-order="fill stroke markers" d=" M 78 410 L 82 410" stroke-linejoin="bevel" stroke-miterlimit="10"/><path fill="none" stroke="black" paint-order="fill stroke markers" d=" M 78 395 L 82 395" stroke-linejoin="bevel" stroke-miterlimit="10"/><path fill="none" stroke="black" paint-order="fill stroke markers" d=" M 78 380 L 82 380" stroke-linejoin="bevel" stroke-miterlimit="10"/><path fill="none" stroke="black" paint-order="fill stroke markers" d=" M 78 365 L 82 365" stroke-linejoin="bevel" stroke-miterlimit="10"/><path fill="none" stroke="black" paint-order="fill stroke markers" d=" M 78 350 L 82 350" stroke-linejoin="bevel" stroke-miterlimit="10"/><path fill="none" stroke="black" paint-order="fill stroke markers" d=" M 78 336 L 82 336" stroke-linejoin="bevel" stroke-miterlimit="10"/><path fill="none" stroke="black" paint-order="fill stroke markers" d=" M 78 321 L 82 321" stroke-linejoin="bevel" stroke-miterlimit="10"/><path fill="none" stroke="black" paint-order="fill stroke markers" d=" M 78 306 L 82 306" stroke-linejoin="bevel" stroke-miterlimit="10"/><path fill="none" stroke="black" paint-order="fill stroke markers" d=" M 78 291 L 82 291" stroke-linejoin="bevel" stroke-miterlimit="10"/><path fill="none" stroke="black" paint-order="fill stroke markers" d=" M 78 276 L 82 276" stroke-linejoin="bevel" stroke-miterlimit="10"/><path fill="none" stroke="black" paint-order="fill stroke markers" d=" M 78 261 L 82 261" stroke-linejoin="bevel" stroke-miterlimit="10"/><path fill="none" stroke="black" paint-order="fill stroke markers" d=" M 78 246 L 82 246" stroke-linejoin="bevel" stroke-miterlimit="10"/><path fill="none" stroke="black" paint-order="fill stroke markers" d=" M 78 231 L 82 231" stroke-linejoin="bevel" stroke-miterlimit="10"/><path fill="none" stroke="black" paint-order="fill stroke markers" d=" M 78 216 L 82 216" stroke-linejoin="bevel" stroke-miterlimit="10"/><path fill="none" stroke="black" paint-order="fill stroke markers" d=" M 78 201 L 82 201" stroke-linejoin="bevel" stroke-miterlimit="10"/><path fill="none" stroke="black" paint-order="fill stroke markers" d=" M 78 186 L 82 186" stroke-linejoin="bevel" stroke-miterlimit="10"/><path fill="none" stroke="black" paint-order="fill stroke markers" d=" M 78 171 L 82 171" stroke-linejoin="bevel" stroke-miterlimit="10"/><path fill="none" stroke="black" paint-order="fill stroke markers" d=" M 78 156 L 82 156" stroke-linejoin="bevel" stroke-miterlimit="10"/><path fill="none" stroke="black" paint-order="fill stroke markers" d=" M 78 141 L 82 141" stroke-linejoin="bevel" stroke-miterlimit="10"/><path fill="none" stroke="black" paint-order="fill stroke markers" d=" M 78 126 L 82 126" stroke-linejoin="bevel" stroke-miterlimit="10"/><path fill="none" stroke="black" paint-order="fill stroke markers" d=" M 78 111 L 82 111" stroke-linejoin="bevel" stroke-miterlimit="10"/><path fill="none" stroke="black" paint-order="fill stroke markers" d=" M 78 96 L 82 96" stroke-linejoin="bevel" stroke-miterlimit="10"/><path fill="none" stroke="black" paint-order="fill stroke markers" d=" M 78 81 L 82 81" stroke-linejoin="bevel" stroke-miterlimit="10"/><path fill="none" stroke="black" paint-order="fill stroke markers" d=" M 78 66 L 82 66" stroke-linejoin="bevel" stroke-miterlimit="10"/><path fill="none" stroke="black" paint-order="fill stroke markers" d=" M 78 51 L 82 51" stroke-linejoin="bevel" stroke-miterlimit="10"/><path fill="none" stroke="black" paint-order="fill stroke markers" d=" M 78 36 L 82 36" stroke-linejoin="bevel" stroke-miterlimit="10"/><path fill="none" stroke="black" paint-order="fill stroke markers" d=" M 78 21 L 82 21" stroke-linejoin="bevel" stroke-miterlimit="10"/><path fill="" stroke="black" paint-order="fill stroke markers" d=" M 78 6 L 82 6" stroke-linejoin="bevel" stroke-miterlimit="10"/><g transform="translate(71,530) rotate(0,0,0)"><text fill="" stroke="none" font-family="helvetica" font-size="8pt" font-style="normal" font-weight="normal" text-decoration="normal" x="0" y="0" text-anchor="end" dominant-baseline="central">0.000e+0</text><g transform="rotate(0,0,0) translate(-71,-530) translate(71,455) rotate(0,0,0)"><text fill="" stroke="none" font-family="helvetica" font-size="8pt" font-style="normal" font-weight="normal" text-decoration="normal" x="0" y="0" text-anchor="end" dominant-baseline="central">2.000e+8</text><g transform="rotate(0,0,0) translate(-71,-455) translate(71,380) rotate(0,0,0)"><text fill="" stroke="none" font-family="helvetica" font-size="8pt" font-style="normal" font-weight="normal" text-decoration="normal" x="0" y="0" text-anchor="end" dominant-baseline="central">4.000e+8</text><g transform="rotate(0,0,0) translate(-71,-380) translate(71,306) rotate(0,0,0)"><text fill="" stroke="none" font-family="helvetica" font-size="8pt" font-style="normal" font-weight="normal" text-decoration="normal" x="0" y="0" text-anchor="end" dominant-baseline="central">6.000e+8</text><g transform="rotate(0,0,0) translate(-71,-306) translate(71,231) rotate(0,0,0)"><text fill="" stroke="none" font-family="helvetica" font-size="8pt" font-style="normal" font-weight="normal" text-decoration="normal" x="0" y="0" text-anchor="end" dominant-baseline="central">8.000e+8</text><g transform="rotate(0,0,0) translate(-71,-231) translate(71,156) rotate(0,0,0)"><text fill="" stroke="none" font-family="helvetica" font-size="8pt" font-style="normal" font-weight="normal" text-decoration="normal" x="0" y="0" text-anchor="end" dominant-baseline="central">1.000e+9</text><g transform="rotate(0,0,0) translate(-71,-156) translate(71,81) rotate(0,0,0)"><text fill="" stroke="none" font-family="helvetica" font-size="8pt" font-style="normal" font-weight="normal" text-decoration="normal" x="0" y="0" text-anchor="end" dominant-baseline="central">1.200e+9</text><g transform="rotate(0,0,0) translate(-71,-81) translate(71,6) rotate(0,0,0)"><text fill="" stroke="none" font-family="helvetica" font-size="8pt" font-style="normal" font-weight="normal" text-decoration="normal" x="0" y="0" text-anchor="end" dominant-baseline="central">1.400e+9</text><g transform="rotate(0,0,0) translate(-71,-6) translate(15,280) rotate(-90,0,0)"><text fill="" stroke="none" font-family="helvetica" font-size="10pt" font-style="italic" font-weight="normal" text-decoration="normal" x="0" y="0" text-anchor="middle" dominant-baseline="alphabetic">Revenue per month [$]</text><g transform="rotate(90,0,0) translate(-15,-280)"/></g></g></g></g></g></g></g></g></g></g></g><g clip-path="url(#rtfEdiVeSXxR)"><g/></g></g></g></svg>