<svg version="1.1" xmlns="http://www.w3.org/2000/svg" xmlns:xlink="http://www.w3.org/1999/xlink" width="600" height="600" style="width: 600px; height: 600px;"><defs><clipPath id="PlkfNZgIAqam"><path fill="none" stroke="none" d=" M 58 5 L 570 5 L 570 555 L 58 555 L 58 5 Z"/></clipPath><clipPath id="oleTEnbHcVMp"><path fill="none" stroke="none" d=" M 58 5 L 570 5 L 570 555 L 58 555 L 58 5 Z"/></clipPath><clipPath id="HFhrNUoKzICy"><path fill="none" stroke="none" d=" M 58 5 L 570 5 L 570 555 L 58 555 L 58 5 Z"/></clipPath><clipPath id="ThehuCsGkoep"><path fill="none" stroke="none" d=" M 58 5 L 570 5 L 570 555 L 58 555 L 58 5 Z"/></clipPath><clipPath id="cVAWWrHfrBau"><path fill="none" stroke="none" d=" M 58 5 L 570 5 L 570 555 L 58 555 L 58 5 Z"/></clipPath><clipPath id="paSLeTBlToct"><path fill="none" stroke="none" d=" M 58 5 L 570 5 L 570 555 L 58 555 L 58 5 Z"/></clipPath></defs><g><g transform="scale(1,1) translate(0.5,0.5)"><rect fill="#FFFFFF" stroke="none" x="0" y="0" width="600" height="600"/><rect fill="#ffffff" stroke="none" x="0" y="0" width="600" height="600"/><rect fill="#FFFFFF" stroke="none" x="58" y="5" width="512" height="550"/><rect fill="#ffffff" stroke="none" x="58" y="5" width="512" height="550"/><g><rect fill="none" stroke="#e5e5e5" x="58" y="5" width="512" height="550" stroke-linejoin="bevel" stroke-miterlimit="10"/></g><g clip-path="url(#PlkfNZgIAqam)"><g><g><path fill="none" stroke="#e5e5e5" paint-order="fill stroke markers" d=" M 124 555 L 124 5" stroke-linejoin="bevel" stroke-miterlimit="10"/><path fill="none" stroke="#e5e5e5" paint-order="fill stroke markers" d=" M 211 555 L 211 5" stroke-linejoin="bevel" stroke-miterlimit="10"/><path fill="none" stroke="#e5e5e5" paint-order="fill stroke markers" d=" M 297 555 L 297 5" stroke-linejoin="bevel" stroke-miterlimit="10"/><path fill="none" stroke="#e5e5e5" paint-order="fill stroke markers" d=" M 384 555 L 384 5" stroke-linejoin="bevel" stroke-miterlimit="10"/><path fill="none" stroke="#e5e5e5" paint-order="fill stroke markers" d=" M 470 555 L 470 5" stroke-linejoin="bevel" stroke-miterlimit="10"/><path fill="none" stroke="#e5e5e5" paint-order="fill stroke markers" d=" M 557 555 L 557 5" stroke-linejoin="bevel" stroke-miterlimit="10"/></g></g></g><g clip-path="url(#oleTEnbHcVMp)"><g><g><path fill="none" stroke="#e5e5e5" paint-order="fill stroke markers" d=" M 58 530 L 570 530" stroke-linejoin="bevel" stroke-miterlimit="10"/><path fill="none" stroke="#e5e5e5" paint-order="fill stroke markers" d=" M 58 425 L 570 425" stroke-linejoin="bevel" stroke-miterlimit="10"/><path fill="none" stroke="#e5e5e5" paint-order="fill stroke markers" d=" M 58 319 L 570 319" stroke-linejoin="bevel" stroke-miterlimit="10"/><path fill="none" stroke="#e5e5e5" paint-order="fill stroke markers" d=" M 58 214 L 570 214" stroke-linejoin="bevel" stroke-miterlimit="10"/><path fill="none" stroke="#e5e5e5" paint-order="fill stroke markers" d=" M 58 109 L 570 109" stroke-linejoin="bevel" stroke-miterlimit="10"/></g></g></g><g clip-path="url(#HFhrNUoKzICy)"><g><g><path fill="none" stroke="#e5e5e5" paint-order="fill stroke markers" d=" M 124 555 L 124 5" stroke-linejoin="bevel" stroke-miterlimit="10"/><path fill="none" stroke="#e5e5e5" paint-order="fill stroke markers" d=" M 211 555 L 211 5" stroke-linejoin="bevel" stroke-miterlimit="10"/><path fill="none" stroke="#e5e5e5" paint-order="fill stroke markers" d=" M 297 555 L 297 5" stroke-linejoin="bevel" stroke-miterlimit="10"/><path fill="none" stroke="#e5e5e5" paint-order="fill stroke markers" d=" M 384 555 L 384 5" stroke-linejoin="bevel" stroke-miterlimit="10"/><path fill="none" stroke="#e5e5e5" paint-order="fill stroke markers" d=" M 470 555 L 470 5" stroke-linejoin="bevel" stroke-miterlimit="10"/><path fill="none" stroke="#e5e5e5" paint-order="fill stroke markers" d=" M 557 555 L 557 5" stroke-linejoin="bevel" stroke-miterlimit="10"/></g></g></g><g clip-path="url(#ThehuCsGkoep)"><g><g><path fill="none" stroke="#e5e5e5" paint-order="fill stroke markers" d=" M 58 530 L 570 530" stroke-linejoin="bevel" stroke-miterlimit="10"/><path fill="none" stroke="#e5e5e5" paint-order="fill stroke markers" d=" M 58 425 L 570 425" stroke-linejoin="bevel" stroke-miterlimit="10"/><path fill="none" stroke="#e5e5e5" paint-order="fill stroke markers" d=" M 58 319 L 570 319" stroke-linejoin="bevel" stroke-miterlimit="10"/><path fill="none" stroke="#e5e5e5" paint-order="fill stroke markers" d=" M 58 214 L 570 214" stroke-linejoin="bevel" stroke-miterlimit="10"/><path fill="none" stroke="#e5e5e5" paint-order="fill stroke markers" d=" M 58 109 L 570 109" stroke-linejoin="bevel" stroke-miterlimit="10"/></g></g></g><g clip-path="url(#cVAWWrHfrBau)"><g><g><path fill="none" stroke="none"/><path fill="#1f77b4" stroke="none" paint-order="stroke fill markers" d=" M 81.27272727276431 156.31578947368422 L 113.7463002113509 156.31578947368422 L 113.7463002113509 530 L 81.27272727276431 530 L 81.27272727276431 156.31578947368422 Z"/><path fill="none" stroke="#1f77b4" paint-order="fill stroke markers" d=" M 81.27272727276431 156.31578947368422 L 113.7463002113509 156.31578947368422 L 113.7463002113509 530 L 81.27272727276431 530 L 81.27272727276431 156.31578947368422 Z" stroke-linejoin="bevel" stroke-miterlimit="10"/><path fill="#1f77b4" stroke="none" paint-order="stroke fill markers" d=" M 117.35447498230496 30 L 149.82804792089155 30 L 149.82804792089155 530 L 117.35447498230496 530 L 117.35447498230496 30 Z"/><path fill="none" stroke="#1f77b4" paint-order="fill stroke markers" d=" M 117.35447498230496 30 L 149.82804792089155 30 L 149.82804792089155 530 L 117.35447498230496 530 L 117.35447498230496 30 Z" stroke-linejoin="bevel" stroke-miterlimit="10"/><path fill="#1f77b4" stroke="none" paint-order="stroke fill markers" d=" M 153.43622269202024 90.63157894736844 L 185.90979563072324 90.63157894736844 L 185.90979563072324 530 L 153.43622269202024 530 L 153.43622269202024 90.63157894736844 Z"/><path fill="none" stroke="#1f77b4" paint-order="fill stroke markers" d=" M 153.43622269202024 90.63157894736844 L 185.90979563072324 90.63157894736844 L 185.90979563072324 530 L 153.43622269202024 530 L 153.43622269202024 90.63157894736844 Z" stroke-linejoin="bevel" stroke-miterlimit="10"/><path fill="#1f77b4" stroke="none" paint-order="stroke fill markers" d=" M 189.5179704017355 137.5789473684211 L 221.9915433403221 137.5789473684211 L 221.9915433403221 530 L 189.5179704017355 530 L 189.5179704017355 137.5789473684211 Z"/><path fill="none" stroke="#1f77b4" paint-order="fill stroke markers" d=" M 189.5179704017355 137.5789473684211 L 221.9915433403221 137.5789473684211 L 221.9915433403221 530 L 189.5179704017355 530 L 189.5179704017355 137.5789473684211 Z" stroke-linejoin="bevel" stroke-miterlimit="10"/><path fill="#1f77b4" stroke="none" paint-order="stroke fill markers" d=" M 225.59971811127616 124.94736842105266 L 258.07329104986275 124.94736842105266 L 258.07329104986275 530 L 225.59971811127616 530 L 225.59971811127616 124.94736842105266 Z"/><path fill="none" stroke="#1f77b4" paint-order="fill stroke markers" d=" M 225.59971811127616 124.94736842105266 L 258.07329104986275 124.94736842105266 L 258.07329104986275 530 L 225.59971811127616 530 L 225.59971811127616 124.94736842105266 Z" stroke-linejoin="bevel" stroke-miterlimit="10"/><path fill="#1f77b4" stroke="none" paint-order="stroke fill markers" d=" M 261.68146582099143 167.47368421052636 L 294.15503875969443 167.47368421052636 L 294.15503875969443 530 L 261.68146582099143 530 L 261.68146582099143 167.47368421052636 Z"/><path fill="none" stroke="#1f77b4" paint-order="fill stroke markers" d=" M 261.68146582099143 167.47368421052636 L 294.15503875969443 167.47368421052636 L 294.15503875969443 530 L 261.68146582099143 530 L 261.68146582099143 167.47368421052636 Z" stroke-linejoin="bevel" stroke-miterlimit="10"/><path fill="#1f77b4" stroke="none" paint-order="stroke fill markers" d=" M 297.7632135307067 214.21052631578948 L 330.2367864692933 214.21052631578948 L 330.2367864692933 530 L 297.7632135307067 530 L 297.7632135307067 214.21052631578948 Z"/><path fill="none" stroke="#1f77b4" paint-order="fill stroke markers" d=" M 297.7632135307067 214.21052631578948 L 330.2367864692933 214.21052631578948 L 330.2367864692933 530 L 297.7632135307067 530 L 297.7632135307067 214.21052631578948 Z" stroke-linejoin="bevel" stroke-miterlimit="10"/><path fill="#1f77b4" stroke="none" paint-order="stroke fill markers" d=" M 333.84496124024736 240.73684210526318 L 366.31853417883394 240.73684210526318 L 366.31853417883394 530 L 333.84496124024736 530 L 333.84496124024736 240.73684210526318 Z"/><path fill="none" stroke="#1f77b4" paint-order="fill stroke markers" d=" M 333.84496124024736 240.73684210526318 L 366.31853417883394 240.73684210526318 L 366.31853417883394 530 L 333.84496124024736 530 L 333.84496124024736 240.73684210526318 Z" stroke-linejoin="bevel" stroke-miterlimit="10"/><path fill="#1f77b4" stroke="none" paint-order="stroke fill markers" d=" M 369.9267089499044 323.68421052631584 L 402.400281888491 323.68421052631584 L 402.400281888491 530 L 369.9267089499044 530 L 369.9267089499044 323.68421052631584 Z"/><path fill="none" stroke="#1f77b4" paint-order="fill stroke markers" d=" M 369.9267089499044 323.68421052631584 L 402.400281888491 323.68421052631584 L 402.400281888491 530 L 369.9267089499044 530 L 369.9267089499044 323.68421052631584 Z" stroke-linejoin="bevel" stroke-miterlimit="10"/><path fill="#1f77b4" stroke="none" paint-order="stroke fill markers" d=" M 406.0084566596779 266.63157894736844 L 438.4820295982645 266.63157894736844 L 438.4820295982645 530 L 406.0084566596779 530 L 406.0084566596779 266.63157894736844 Z"/><path fill="none" stroke="#1f77b4" paint-order="fill stroke markers" d=" M 406.0084566596779 266.63157894736844 L 438.4820295982645 266.63157894736844 L 438.4820295982645 530 L 406.0084566596779 530 L 406.0084566596779 266.63157894736844 Z" stroke-linejoin="bevel" stroke-miterlimit="10"/><path fill="#1f77b4" stroke="none" paint-order="stroke fill markers" d=" M 442.09020436921855 118 L 474.56377730780514 118 L 474.56377730780514 530 L 442.09020436921855 530 L 442.09020436921855 118 Z"/><path fill="none" stroke="#1f77b4" paint-order="fill stroke markers" d=" M 442.09020436921855 118 L 474.56377730780514 118 L 474.56377730780514 530 L 442.09020436921855 530 L 442.09020436921855 118 Z" stroke-linejoin="bevel" stroke-miterlimit="10"/><path fill="#1f77b4" stroke="none" paint-order="stroke fill markers" d=" M 478.1719520788756 63.0526315789474 L 510.6455250174622 63.0526315789474 L 510.6455250174622 530 L 478.1719520788756 530 L 478.1719520788756 63.0526315789474 Z"/><path fill="none" stroke="#1f77b4" paint-order="fill stroke markers" d=" M 478.1719520788756 63.0526315789474 L 510.6455250174622 63.0526315789474 L 510.6455250174622 530 L 478.1719520788756 530 L 478.1719520788756 63.0526315789474 Z" stroke-linejoin="bevel" stroke-miterlimit="10"/><path fill="#1f77b4" stroke="none" paint-order="stroke fill markers" d=" M 514.2536997886491 410.2105263157895 L 546.7272727272357 410.2105263157895 L 546.7272727272357 530 L 514.2536997886491 530 L 514.2536997886491 410.2105263157895 Z"/><path fill="none" stroke="#1f77b4" paint-order="fill stroke markers" d=" M 514.2536997886491 410.2105263157895 L 546.7272727272357 410.2105263157895 L 546.7272727272357 530 L 514.2536997886491 530 L 514.2536997886491 410.2105263157895 Z" stroke-linejoin="bevel" stroke-miterlimit="10"/></g></g></g><g/><g/><g><g fill="#444444"><path fill="none" stroke="black" paint-order="fill stroke markers" d=" M 58 555 L 570 555" stroke-linejoin="bevel" stroke-miterlimit="10"/><path fill="none" stroke="black" paint-order="fill stroke markers" d=" M 124 561 L 124 553" stroke-linejoin="bevel" stroke-miterlimit="10"/><path fill="none" stroke="black" paint-order="fill stroke markers" d=" M 211 561 L 211 553" stroke-linejoin="bevel" stroke-miterlimit="10"/><path fill="none" stroke="black" paint-order="fill stroke markers" d=" M 297 561 L 297 553" stroke-linejoin="bevel" stroke-miterlimit="10"/><path fill="none" stroke="black" paint-order="fill stroke markers" d=" M 384 561 L 384 553" stroke-linejoin="bevel" stroke-miterlimit="10"/><path fill="none" stroke="black" paint-order="fill stroke markers" d=" M 470 561 L 470 553" stroke-linejoin="bevel" stroke-miterlimit="10"/><path fill="none" stroke="black" paint-order="fill stroke markers" d=" M 557 561 L 557 553" stroke-linejoin="bevel" stroke-miterlimit="10"/><path fill="none" stroke="black" paint-order="fill stroke markers" d=" M 107 559 L 107 555" stroke-linejoin="bevel" stroke-miterlimit="10"/><path fill="none" stroke="black" paint-order="fill stroke markers" d=" M 89 559 L 89 555" stroke-linejoin="bevel" stroke-miterlimit="10"/><path fill="none" stroke="black" paint-order="fill stroke markers" d=" M 72 559 L 72 555" stroke-linejoin="bevel" stroke-miterlimit="10"/><path fill="none" stroke="black" paint-order="fill stroke markers" d=" M 124 559 L 124 555" stroke-linejoin="bevel" stroke-miterlimit="10"/><path fill="none" stroke="black" paint-order="fill stroke markers" d=" M 141 559 L 141 555" stroke-linejoin="bevel" stroke-miterlimit="10"/><path fill="none" stroke="black" paint-order="fill stroke markers" d=" M 159 559 L 159 555" stroke-linejoin="bevel" stroke-miterlimit="10"/><path fill="none" stroke="black" paint-order="fill stroke markers" d=" M 176 559 L 176 555" stroke-linejoin="bevel" stroke-miterlimit="10"/><path fill="none" stroke="black" paint-order="fill stroke markers" d=" M 193 559 L 193 555" stroke-linejoin="bevel" stroke-miterlimit="10"/><path fill="none" stroke="black" paint-order="fill stroke markers" d=" M 211 559 L 211 555" stroke-linejoin="bevel" stroke-miterlimit="10"/><path fill="none" stroke="black" paint-order="fill stroke markers" d=" M 228 559 L 228 555" stroke-linejoin="bevel" stroke-miterlimit="10"/><path fill="none" stroke="black" paint-order="fill stroke markers" d=" M 245 559 L 245 555" stroke-linejoin="bevel" stroke-miterlimit="10"/><path fill="none" stroke="black" paint-order="fill stroke markers" d=" M 263 559 L 263 555" stroke-linejoin="bevel" stroke-miterlimit="10"/><path fill="none" stroke="black" paint-order="fill stroke markers" d=" M 280 559 L 280 555" stroke-linejoin="bevel" stroke-miterlimit="10"/><path fill="none" stroke="black" paint-order="fill stroke markers" d=" M 297 559 L 297 555" stroke-linejoin="bevel" stroke-miterlimit="10"/><path fill="none" stroke="black" paint-order="fill stroke markers" d=" M 314 559 L 314 555" stroke-linejoin="bevel" stroke-miterlimit="10"/><path fill="none" stroke="black" paint-order="fill stroke markers" d=" M 332 559 L 332 555" stroke-linejoin="bevel" stroke-miterlimit="10"/><path fill="none" stroke="black" paint-order="fill stroke markers" d=" M 349 559 L 349 555" stroke-linejoin="bevel" stroke-miterlimit="10"/><path fill="none" stroke="black" paint-order="fill stroke markers" d=" M 366 559 L 366 555" stroke-linejoin="bevel" stroke-miterlimit="10"/><path fill="none" stroke="black" paint-order="fill stroke markers" d=" M 384 559 L 384 555" stroke-linejoin="bevel" stroke-miterlimit="10"/><path fill="none" stroke="black" paint-order="fill stroke markers" d=" M 401 559 L 401 555" stroke-linejoin="bevel" stroke-miterlimit="10"/><path fill="none" stroke="black" paint-order="fill stroke markers" d=" M 418 559 L 418 555" stroke-linejoin="bevel" stroke-miterlimit="10"/><path fill="none" stroke="black" paint-order="fill stroke markers" d=" M 436 559 L 436 555" stroke-linejoin="bevel" stroke-miterlimit="10"/><path fill="none" stroke="black" paint-order="fill stroke markers" d=" M 453 559 L 453 555" stroke-linejoin="bevel" stroke-miterlimit="10"/><path fill="none" stroke="black" paint-order="fill stroke markers" d=" M 470 559 L 470 555" stroke-linejoin="bevel" stroke-miterlimit="10"/><path fill="none" stroke="black" paint-order="fill stroke markers" d=" M 488 559 L 488 555" stroke-linejoin="bevel" stroke-miterlimit="10"/><path fill="none" stroke="black" paint-order="fill stroke markers" d=" M 505 559 L 505 555" stroke-linejoin="bevel" stroke-miterlimit="10"/><path fill="none" stroke="black" paint-order="fill stroke markers" d=" M 522 559 L 522 555" stroke-linejoin="bevel" stroke-miterlimit="10"/><path fill="none" stroke="black" paint-order="fill stroke markers" d=" M 540 559 L 540 555" stroke-linejoin="bevel" stroke-miterlimit="10"/><path fill="" stroke="black" paint-order="fill stroke markers" d=" M 557 559 L 557 555" stroke-linejoin="bevel" stroke-miterlimit="10"/><g transform="translate(124,566) rotate(0,0,0)"><text fill="" stroke="none" font-family="helvetica" font-size="8pt" font-style="normal" font-weight="normal" text-decoration="normal" x="0" y="0" text-anchor="middle" dominant-baseline="hanging">2014.4</text><g transform="rotate(0,0,0) translate(-124,-566) translate(211,566) rotate(0,0,0)"><text fill="" stroke="none" font-family="helvetica" font-size="8pt" font-style="normal" font-weight="normal" text-decoration="normal" x="0" y="0" text-anchor="middle" dominant-baseline="hanging">2014.6</text><g transform="rotate(0,0,0) translate(-211,-566) translate(297,566) rotate(0,0,0)"><text fill="" stroke="none" font-family="helvetica" font-size="8pt" font-style="normal" font-weight="normal" text-decoration="normal" x="0" y="0" text-anchor="middle" dominant-baseline="hanging">2014.8</text><g transform="rotate(0,0,0) translate(-297,-566) translate(384,566) rotate(0,0,0)"><text fill="" stroke="none" font-family="helvetica" font-size="8pt" font-style="normal" font-weight="normal" text-decoration="normal" x="0" y="0" text-anchor="middle" dominant-baseline="hanging">2015</text><g transform="rotate(0,0,0) translate(-384,-566) translate(470,566) rotate(0,0,0)"><text fill="" stroke="none" font-family="helvetica" font-size="8pt" font-style="normal" font-weight="normal" text-decoration="normal" x="0" y="0" text-anchor="middle" dominant-baseline="hanging">2015.2</text><g transform="rotate(0,0,0) translate(-470,-566) translate(557,566) rotate(0,0,0)"><text fill="" stroke="none" font-family="helvetica" font-size="8pt" font-style="normal" font-weight="normal" text-decoration="normal" x="0" y="0" text-anchor="middle" dominant-baseline="hanging">2015.4</text><g transform="rotate(0,0,0) translate(-557,-566) translate(314,584) rotate(0,0,0)"><text fill="" stroke="none" font-family="helvetica" font-size="10pt" font-style="italic" font-weight="normal" text-decoration="normal" x="0" y="0" text-anchor="middle" dominant-baseline="hanging">Date</text><g transform="rotate(0,0,0) translate(-314,-584)"/></g></g></g></g></g></g></g></g></g><g><g fill="#444444"><path fill="none" stroke="black" paint-order="fill stroke markers" d=" M 58 555 L 58 5" stroke-linejoin="bevel" stroke-miterlimit="10"/><path fill="none" stroke="black" paint-order="fill stroke markers" d=" M 52 530 L 60 530" stroke-linejoin="bevel" stroke-miterlimit="10"/><path fill="none" stroke="black" paint-order="fill stroke markers" d=" M 52 425 L 60 425" stroke-linejoin="bevel" stroke-miterlimit="10"/><path fill="none" stroke="black" paint-order="fill stroke markers" d=" M 52 319 L 60 319" stroke-linejoin="bevel" stroke-miterlimit="10"/><path fill="none" stroke="black" paint-order="fill stroke markers" d=" M 52 214 L 60 214" stroke-linejoin="bevel" stroke-miterlimit="10"/><path fill="none" stroke="black" paint-order="fill stroke markers" d=" M 52 109 L 60 109" stroke-linejoin="bevel" stroke-miterlimit="10"/><path fill="none" stroke="black" paint-order="fill stroke markers" d=" M 54 551 L 58 551" stroke-linejoin="bevel" stroke-miterlimit="10"/><path fill="none" stroke="black" paint-order="fill stroke markers" d=" M 54 530 L 58 530" stroke-linejoin="bevel" stroke-miterlimit="10"/><path fill="none" stroke="black" paint-order="fill stroke markers" d=" M 54 509 L 58 509" stroke-linejoin="bevel" stroke-miterlimit="10"/><path fill="none" stroke="black" paint-order="fill stroke markers" d=" M 54 488 L 58 488" stroke-linejoin="bevel" stroke-miterlimit="10"/><path fill="none" stroke="black" paint-order="fill stroke markers" d=" M 54 467 L 58 467" stroke-linejoin="bevel" stroke-miterlimit="10"/><path fill="none" stroke="black" paint-order="fill stroke markers" d=" M 54 446 L 58 446" stroke-linejoin="bevel" stroke-miterlimit="10"/><path fill="none" stroke="black" paint-order="fill stroke markers" d=" M 54 425 L 58 425" stroke-linejoin="bevel" stroke-miterlimit="10"/><path fill="none" stroke="black" paint-order="fill stroke markers" d=" M 54 404 L 58 404" stroke-linejoin="bevel" stroke-miterlimit="10"/><path fill="none" stroke="black" paint-order="fill stroke markers" d=" M 54 383 L 58 383" stroke-linejoin="bevel" stroke-miterlimit="10"/><path fill="none" stroke="black" paint-order="fill stroke markers" d=" M 54 362 L 58 362" stroke-linejoin="bevel" stroke-miterlimit="10"/><path fill="none" stroke="black" paint-order="fill stroke markers" d=" M 54 341 L 58 341" stroke-linejoin="bevel" stroke-miterlimit="10"/><path fill="none" stroke="black" paint-order="fill stroke markers" d=" M 54 319 L 58 319" stroke-linejoin="bevel" stroke-miterlimit="10"/><path fill="none" stroke="black" paint-order="fill stroke markers" d=" M 54 298 L 58 298" stroke-linejoin="bevel" stroke-miterlimit="10"/><path fill="none" stroke="black" paint-order="fill stroke markers" d=" M 54 277 L 58 277" stroke-linejoin="bevel" stroke-miterlimit="10"/><path fill="none" stroke="black" paint-order="fill stroke markers" d=" M 54 256 L 58 256" stroke-linejoin="bevel" stroke-miterlimit="10"/><path fill="none" stroke="black" paint-order="fill stroke markers" d=" M 54 235 L 58 235" stroke-linejoin="bevel" stroke-miterlimit="10"/><path fill="none" stroke="black" paint-order="fill stroke markers" d=" M 54 214 L 58 214" stroke-linejoin="bevel" stroke-miterlimit="10"/><path fill="none" stroke="black" paint-order="fill stroke markers" d=" M 54 193 L 58 193" stroke-linejoin="bevel" stroke-miterlimit="10"/><path fill="none" stroke="black" paint-order="fill stroke markers" d=" M 54 172 L 58 172" stroke-linejoin="bevel" stroke-miterlimit="10"/><path fill="none" stroke="black" paint-order="fill stroke markers" d=" M 54 151 L 58 151" stroke-linejoin="bevel" stroke-miterlimit="10"/><path fill="none" stroke="black" paint-order="fill stroke markers" d=" M 54 130 L 58 130" stroke-linejoin="bevel" stroke-miterlimit="10"/><path fill="none" stroke="black" paint-order="fill stroke markers" d=" M 54 109 L 58 109" stroke-linejoin="bevel" stroke-miterlimit="10"/><path fill="none" stroke="black" paint-order="fill stroke markers" d=" M 54 88 L 58 88" stroke-linejoin="bevel" stroke-miterlimit="10"/><path fill="none" stroke="black" paint-order="fill stroke markers" d=" M 54 67 L 58 67" stroke-linejoin="bevel" stroke-miterlimit="10"/><path fill="none" stroke="black" paint-order="fill stroke markers" d=" M 54 46 L 58 46" stroke-linejoin="bevel" stroke-miterlimit="10"/><path fill="" stroke="black" paint-order="fill stroke markers" d=" M 54 25 L 58 25" stroke-linejoin="bevel" stroke-miterlimit="10"/><g transform="translate(47,530) rotate(0,0,0)"><text fill="" stroke="none" font-family="helvetica" font-size="8pt" font-style="normal" font-weight="normal" text-decoration="normal" x="0" y="0" text-anchor="end" dominant-baseline="central">0</text><g transform="rotate(0,0,0) translate(-47,-530) translate(47,425) rotate(0,0,0)"><text fill="" stroke="none" font-family="helvetica" font-size="8pt" font-style="normal" font-weight="normal" text-decoration="normal" x="0" y="0" text-anchor="end" dominant-baseline="central">500</text><g transform="rotate(0,0,0) translate(-47,-425) translate(47,319) rotate(0,0,0)"><text fill="" stroke="none" font-family="helvetica" font-size="8pt" font-style="normal" font-weight="normal" text-decoration="normal" x="0" y="0" text-anchor="end" dominant-baseline="central">1000</text><g transform="rotate(0,0,0) translate(-47,-319) translate(47,214) rotate(0,0,0)"><text fill="" stroke="none" font-family="helvetica" font-size="8pt" font-style="normal" font-weight="normal" text-decoration="normal" x="0" y="0" text-anchor="end" dominant-baseline="central">1500</text><g transform="rotate(0,0,0) translate(-47,-214) translate(47,109) rotate(0,0,0)"><text fill="" stroke="none" font-family="helvetica" font-size="8pt" font-style="normal" font-weight="normal" text-decoration="normal" x="0" y="0" text-anchor="end" dominant-baseline="central">2000</text><g transform="rotate(0,0,0) translate(-47,-109) translate(15,280) rotate(-90,0,0)"><text fill="" stroke="none" font-family="helvetica" font-size="10pt" font-style="italic" font-weight="normal" text-decoration="normal" x="0" y="0" text-anchor="middle" dominant-baseline="alphabetic">Number of sales per month</text><g transform="rotate(90,0,0) translate(-15,-280)"/></g></g></g></g></g></g></g></g><g clip-path="url(#paSLeTBlToct)"><g/></g></g></g></svg>